<svg width="92" height="92" viewBox="0 0 92 92" fill="none" xmlns="http://www.w3.org/2000/svg">
<path d="M26.8273 0.377364C25.6234 0.970333 25.3359 1.76096 25.3359 4.52815V6.79221L22.7843 6.86408C19.8914 6.91799 19.2625 7.13361 18.6156 8.24768C17.8789 9.52346 18.2562 10.9071 19.5859 11.8055C20.125 12.1828 20.3765 12.2188 22.7484 12.2188H25.3359V14.7344V17.25H24.5812C23.7367 17.25 22.982 17.6453 22.4968 18.3461C22.2273 18.7235 22.1734 19.5141 22.1015 24.6891C22.0297 29.6844 21.9758 30.6188 21.7422 30.7445C21.5984 30.8164 20.5562 31.3375 19.4242 31.8945C7.78044 37.6266 0.2156 49.6656 0.107788 62.5672C0.089819 65.1367 0.125757 65.4242 0.467163 65.8735C1.40154 67.1492 2.69529 67.5086 4.00701 66.8617C5.22888 66.2688 5.35466 65.8375 5.46248 62.2617C5.62419 56.961 6.86404 52.5766 9.48748 48.1563C12.7937 42.568 18.5258 37.6805 24.4015 35.4703L25.5156 35.0391H35.2187H44.9219L46.1078 35.4883C54.032 38.4711 60.914 45.7125 63.5914 53.9063C64.7414 57.4102 64.939 58.8117 64.939 63.1602C64.939 67.4188 64.7414 68.8742 63.6812 72.2883C62.2078 76.9781 58.7219 82.2789 55.0023 85.4953L53.7086 86.6094H35.2367H16.7648L15.2554 85.2797C13.1351 83.4289 11.0508 80.8774 9.43357 78.1821C8.93044 77.3555 8.58904 76.9781 8.12185 76.7805C6.18123 75.9719 3.93513 77.8766 4.40232 79.943C4.56404 80.6977 6.68435 83.8422 8.40935 85.9086C10.6554 88.586 13.9797 91.461 15.2554 91.8383C15.6867 91.9641 22.3172 92 35.6679 91.9641L55.4336 91.9102L56.2422 91.3531C59.8 88.8735 63.8609 84.1836 66.2687 79.7813C69.3594 74.1031 70.9047 66.5383 70.2758 60.1055C69.4312 51.4985 65.8734 44.0594 59.7281 38.0758C56.7273 35.1649 53.457 32.9008 49.989 31.3375L48.5336 30.6906L48.4797 24.9047C48.4258 19.7836 48.3898 19.0649 48.1023 18.5617C47.689 17.7891 47.0242 17.3758 46.0179 17.25L45.1914 17.1602L45.1375 14.6805L45.0836 12.2188H52.1273H59.1531L59.0633 12.7938C58.614 15.3813 58.5422 16.7649 58.7219 18.4539C59.5844 26.0008 65.0828 31.8586 72.5398 33.1524C77.7328 34.0508 83.1773 32.3438 86.9508 28.5883C89.2148 26.3422 90.6523 23.8445 91.4968 20.682C91.964 18.9031 92.0179 15.0758 91.6047 13.1891C90.7781 9.50549 88.6218 6.05549 85.6929 3.71955C80.0867 -0.772636 72.3781 -1.16795 66.1969 2.73127C65.0648 3.45002 63.232 5.08518 62.5312 6.00158L61.9023 6.81018L53.5109 6.82815H45.1015V4.4383C45.1015 1.63518 44.9039 1.06018 43.664 0.413302C42.8914 2.02198e-05 42.8554 2.02198e-05 35.2367 2.02198e-05C27.8515 2.02198e-05 27.564 0.017989 26.8273 0.377364ZM39.7109 11.3203V17.25H35.2187H30.7265V11.3203V5.39065H35.2187H39.7109V11.3203ZM78.7031 5.91174C81.2367 6.72033 83.6984 8.6969 85.0461 10.9789C87.6515 15.3992 86.9148 21.0594 83.2672 24.707C81.075 26.9172 78.3797 28.0313 75.289 28.0313C72.1804 28.0313 69.4851 26.8992 67.3109 24.707C61.1297 18.4719 63.9687 8.03205 72.4859 5.73205C74.157 5.28283 76.9961 5.35471 78.7031 5.91174ZM43.125 26.1445V29.8281H35.2187H27.3125V26.1445V22.461H35.2187H43.125V26.1445Z" fill="#424242"/>
</svg>
