<svg width="81" height="92" viewBox="0 0 81 92" fill="none" xmlns="http://www.w3.org/2000/svg">
<path d="M28.1481 85.2928C23.4878 85.0426 15.5938 84.2334 12.4886 83.6875C8.62133 83.0076 6.56492 81.6246 5.24677 78.8174C4.64647 77.5389 4.59998 77.1907 4.59998 73.9745V70.509L5.29545 69.9046C6.17887 69.1367 6.81852 69.1396 7.58574 69.9149C8.16257 70.4977 8.19417 70.6822 8.19417 73.4674C8.19417 76.9031 8.62468 78.1757 10.0982 79.0958C11.3705 79.8904 15.1576 80.5338 22.401 81.1859C32.0066 82.0507 48.6821 82.1848 55.4564 81.4519L57.1196 81.2719L54.4079 80.5643C44.028 77.8561 34.1896 71.6228 27.3394 63.4144C20.0121 54.6342 15.845 44.8244 14.5483 33.3023L14.2447 30.6048L12.9668 35.8644C10.9847 44.0223 10.0002 49.5602 9.07959 57.7301C8.5559 62.3776 8.44385 62.9325 7.94701 63.339C7.21973 63.934 6.1493 63.912 5.59269 63.2905C5.19824 62.8501 5.16272 62.472 5.29273 60.0973C5.85435 49.8389 8.94996 34.7451 13.3894 20.619C14.3685 17.5036 14.3911 17.35 14.3911 13.8023C14.3911 9.79537 14.663 8.79746 16.0573 7.6892C17.6908 6.39074 16.8116 6.4356 40.5102 6.4415C65.2677 6.44767 63.6978 6.33235 65.3801 8.26825C66.4687 9.52102 66.6898 10.55 66.6914 14.3709L66.6929 17.6724L68.2815 23.0116C70.9185 31.8748 72.3561 37.7164 73.6559 44.8503C75.3044 53.899 76.36 64.8585 76.36 72.926C76.36 77.7043 76.0411 78.9765 74.3599 80.9064C72.4902 83.0526 70.0301 83.7354 60.7438 84.6855C52.3159 85.5477 37.9005 85.8163 28.1482 85.2928H28.1481ZM72.2004 77.5651C72.6579 76.7374 72.6774 76.311 72.5506 69.9262C72.2451 54.5461 69.558 39.032 64.4273 23.0273L63.4434 19.958L40.7143 20.0218L17.9852 20.0857L17.9123 24.5939C17.7491 34.6688 19.2864 42.3149 23.063 50.2122C29.8462 64.3967 42.9661 74.5902 58.3924 77.6614C62.5654 78.4921 62.6186 78.4968 67.5312 78.467L71.7159 78.4417L72.2004 77.5651ZM26.1651 39.3929C24.9233 38.8353 24.2464 37.8928 24.1313 36.5613C23.8252 33.0217 28.0557 31.343 30.2332 34.14C30.6162 34.632 30.7509 35.1646 30.7509 36.1876C30.7509 37.9108 29.9714 39.0929 28.5772 39.4841C27.3994 39.8147 27.0771 39.8025 26.1651 39.3929ZM25.45 29.2053C24.1112 28.1413 23.7247 26.5114 24.4151 24.8419C24.8923 23.6877 26.1078 22.9681 27.5818 22.9669C28.5355 22.9662 28.9113 23.1085 29.6237 23.7406C30.8663 24.8429 31.1997 26.119 30.6351 27.6124C30.0762 29.0912 29.0978 29.7261 27.376 29.7274C26.4645 29.7281 25.9231 29.5813 25.45 29.2053ZM62.9746 13.7134C62.9746 11.1651 62.936 10.9452 62.4237 10.5827C61.9354 10.2371 59.4299 10.1928 40.3629 10.1928C15.0951 10.1928 17.8613 9.76694 17.8613 13.6574C17.8613 15.012 17.9357 16.1953 18.0265 16.2873C18.1174 16.3791 28.268 16.4541 40.5832 16.4541H62.9746V13.7134Z" fill="#424242"/>
</svg>
