<svg width="97" height="92" viewBox="0 0 97 92" fill="none" xmlns="http://www.w3.org/2000/svg">
<g clip-path="url(#clip0_201_10)">
<path d="M20.7762 36.7611C16.8666 39.0412 13.0178 39.4182 9.41832 37.0225C6.29443 34.9271 3.60949 32.2421 1.51401 29.1182C-0.997123 25.3971 -0.310057 20.1256 2.82126 16.8848C6.38428 13.2367 9.95946 9.58854 13.6623 6.06201C18.3623 1.62344 24.0717 -0.237114 30.4742 0.0425768C31.5519 0.0652653 32.6007 0.395545 33.497 0.994496C34.3933 1.59345 35.0996 2.43611 35.5329 3.42319C39.3878 11.1816 49.6999 13.8082 56.9049 8.8954C58.6857 7.68614 60.0742 5.98274 60.8996 3.99473C62.0671 1.21606 64.1465 1.5213e-05 67.0772 1.5213e-05C70.2186 -0.0706846 73.3406 0.510969 76.2458 1.70822C79.151 2.90548 81.7764 4.6923 83.9559 6.9558C87.0629 10.1054 90.2185 13.2124 93.3377 16.3498C97.7459 20.7822 97.7519 27.0023 93.3681 31.4105C92.377 32.4137 91.3069 33.344 90.3888 34.4141C87.0629 38.3055 82.0832 40.1782 76.0941 36.9192C75.8935 37.4016 75.8406 37.9328 75.9421 38.4453C75.9421 52.4542 75.9421 66.461 75.9421 80.4658C75.9421 87.3973 71.4124 91.9696 64.4566 91.9818C53.7148 92.0061 42.9731 92.0061 32.2313 91.9818C26.0052 91.9818 21.4389 88.0175 20.837 82.1926C20.8006 81.8063 20.8006 81.4175 20.837 81.0313C20.8541 80.4439 21.0967 79.8857 21.5145 79.4724C21.9322 79.0592 22.4931 78.8227 23.0806 78.812C23.3723 78.7989 23.6637 78.8438 23.938 78.9438C24.2123 79.0439 24.4641 79.1973 24.6788 79.3951C24.8936 79.5929 25.0671 79.8312 25.1893 80.0964C25.3116 80.3616 25.3801 80.6483 25.3911 80.9401C25.6221 83.9802 27.0328 86.1508 30.0485 87.1115C30.7064 87.2862 31.3876 87.3559 32.0672 87.3182H64.6937C68.6763 87.3182 71.2604 84.7402 71.2604 80.7637C71.2604 64.7606 71.2604 48.7493 71.2604 32.7299C71.2604 32.2921 71.2604 31.8544 71.2604 31.4166C71.2342 30.9512 71.3528 30.4891 71.6 30.0938C71.8471 29.6986 72.2107 29.3896 72.6406 29.2095C73.0889 29.0106 73.5881 28.9565 74.0687 29.0545C74.5493 29.1526 74.9874 29.398 75.322 29.7567C76.2218 30.6444 77.146 31.5199 78.0641 32.3712C79.1083 33.3784 80.507 33.9342 81.9577 33.9183C83.4085 33.9023 84.7946 33.316 85.8164 32.286C87.3547 30.7964 88.8566 29.2885 90.3523 27.7441C90.8743 27.2317 91.2874 26.6192 91.5667 25.9432C91.8461 25.2672 91.986 24.5417 91.9781 23.8103C91.9701 23.0789 91.8145 22.3567 91.5205 21.6869C91.2265 21.0171 90.8002 20.4137 90.2672 19.9128C86.8075 16.4227 83.3722 12.9083 79.8335 9.49734C76.1854 5.98296 71.7225 4.50547 66.688 4.63315C66.3493 4.63439 66.02 4.74436 65.7485 4.94687C65.4771 5.14937 65.2778 5.43371 65.1801 5.758C59.6714 18.3076 42.5069 17.8151 35.7883 11.6133C34.0376 10.079 32.629 8.19391 31.6537 6.08025C31.5082 5.62378 31.2099 5.23133 30.8091 4.9689C30.4082 4.70647 29.9293 4.59005 29.4527 4.63923C26.9934 4.59246 24.5507 5.05012 22.2751 5.98397C19.9996 6.91782 17.9395 8.30805 16.2221 10.0689C13.0523 13.2306 9.88852 16.3943 6.73085 19.5601C3.97651 22.3266 3.99475 25.4762 6.73085 28.267C8.03202 29.5803 9.32103 30.9119 10.6587 32.1827C13.1516 34.5601 16.3619 34.5297 18.8548 32.134C19.6655 31.3639 20.4762 30.5856 21.2869 29.7992C21.6345 29.4167 22.0968 29.1572 22.6043 29.0596C23.1119 28.9621 23.6374 29.0317 24.1021 29.2581C25.0445 29.6776 25.3546 30.4741 25.3485 31.526C25.3485 42.5677 25.3485 53.6074 25.3485 64.645C25.3485 66.1651 24.4547 67.1136 23.0988 67.1197C21.7429 67.1258 20.7884 66.1225 20.7823 64.5295C20.7823 55.8794 20.7823 47.2232 20.7823 38.5608L20.7762 36.7611Z" fill="#424242"/>
</g>
<defs>
<clipPath id="clip0_201_10">
<rect width="96.6514" height="92" fill="white"/>
</clipPath>
</defs>
</svg>
