<svg width="92" height="92" viewBox="0 0 92 92" fill="none" xmlns="http://www.w3.org/2000/svg">
<g clip-path="url(#clip0_201_4)">
<path d="M46.1104 92C45.5116 92 44.9732 91.7566 44.4942 91.3303C44.4346 91.2694 39.4066 86.1549 32.7628 78.7877C31.9248 77.8742 31.9847 76.4129 32.8825 75.5604C33.7803 74.7082 35.2168 74.7692 36.0548 75.6823C40.424 80.4923 44.0754 84.3893 46.0504 86.4593C51.6768 80.5533 71.0696 60.0346 82.6216 42.8034C88.2478 34.4011 89.0858 24.9636 84.8362 16.8048C81.0652 9.49835 73.823 4.5665 66.88 4.5665C58.5002 4.5665 53.4126 9.92458 50.5996 14.4302C49.5818 16.0133 47.9058 16.9874 46.0504 16.9874C44.195 16.9874 42.519 16.0133 41.5016 14.4302C38.6882 9.92458 33.6008 4.5665 25.2211 4.5665C18.278 4.5665 11.0356 9.49835 7.26472 16.8048C3.01506 24.9636 3.85304 34.4011 9.47934 42.8034C12.7713 47.7353 17.0211 53.337 21.989 59.4255C22.767 60.3999 22.6473 61.8612 21.6897 62.6524C20.732 63.444 19.2955 63.3224 18.5174 62.348C13.4298 56.1376 9.12022 50.4145 5.70852 45.3606C-0.875481 35.5579 -1.83316 24.3547 3.19462 14.6737C7.74356 5.90602 16.5422 0 25.1612 0C33.3014 0 40.424 4.26209 45.2124 11.9947C45.452 12.36 45.7512 12.4209 45.9908 12.4209C46.1704 12.4209 46.5292 12.36 46.7688 11.9947C50.1804 6.5149 56.4052 0 66.82 0C75.3792 0 84.2378 5.90602 88.7866 14.6737C93.8146 24.3547 92.9167 35.5579 86.2728 45.3606C72.4464 65.9406 47.8462 91.0259 47.5467 91.2694C47.2476 91.7566 46.7088 92 46.1104 92Z" fill="#424242"/>
</g>
<defs>
<clipPath id="clip0_201_4">
<rect width="92" height="92" fill="white"/>
</clipPath>
</defs>
</svg>
