<svg width="92" height="92" viewBox="0 0 92 92" fill="none" xmlns="http://www.w3.org/2000/svg">
<path d="M22.346 91.9988C20.7717 92.0261 19.2283 91.5599 17.9323 90.6656C15.0771 88.6439 13.963 84.7473 14.791 79.7061L16.5078 69.2519C16.6063 68.6535 16.9384 68.1187 17.431 67.7653C17.9236 67.4122 18.5365 67.2689 19.1347 67.3674C19.7329 67.4659 20.2675 67.7982 20.6208 68.2908C20.9742 68.7834 21.1174 69.3964 21.0189 69.9948L19.3021 80.4245C18.7846 83.5724 19.2656 86.0077 20.5745 86.9331C21.8834 87.8585 23.9897 87.5054 26.5466 86.099L35.5323 81.1612C41.4012 77.9343 50.5935 77.9343 56.4623 81.1612L65.448 86.099C68.0049 87.5054 70.1845 87.8098 71.4204 86.9331C72.6559 86.0564 73.2102 83.5724 72.6927 80.4245L70.9757 69.9702C69.8679 63.2182 72.6865 54.1401 77.3862 49.3787L84.6553 41.975C86.853 39.7344 87.8086 37.5302 87.2731 35.9228C86.7372 34.3154 84.8014 33.256 81.8973 32.8177L71.8524 31.2894C65.3081 30.297 57.8929 24.6772 54.9769 18.5033L50.4842 8.99288C49.1752 6.22867 47.5011 4.57865 45.9973 4.57865C44.4935 4.57865 42.8195 6.22867 41.5165 8.99288L37.0238 18.5033C34.1016 24.6833 26.6745 30.3031 20.1422 31.2894L10.0973 32.8177C7.19336 33.256 5.22698 34.3884 4.72167 35.9228C4.2164 37.4571 5.14176 39.7344 7.33945 41.975L16.7756 51.5947C17.2003 52.0275 17.4356 52.6114 17.4299 53.2178C17.4242 53.8242 17.1779 54.403 16.7452 54.8278C16.3125 55.2525 15.7288 55.4879 15.1226 55.4821C14.5163 55.4764 13.9372 55.2303 13.5125 54.7975L4.07637 45.1777C0.581934 41.6219 -0.726954 37.8164 0.387124 34.4737C1.5012 31.1311 4.64864 28.9939 9.40934 28.2937L19.4604 26.7655C24.4828 26.0044 30.6316 21.3224 32.8841 16.5428L37.3769 7.03236C40.2688 0.943763 44.0189 0 45.9973 0C47.9757 0 51.7259 0.913319 54.6177 7.03236L59.1108 16.5428C61.3632 21.3224 67.518 26.0044 72.5405 26.7655L82.5853 28.2937C87.3157 29.0122 90.4996 31.2042 91.6136 34.4737C92.7276 37.7433 91.4127 41.6219 87.9244 45.1777L80.6495 52.5811C76.9967 56.3197 74.6224 63.9427 75.4868 69.2277L77.2037 79.6816C78.0379 84.7473 76.9174 88.6439 74.0623 90.6411C72.4611 91.7734 68.9302 93.2044 63.2504 90.081L54.2647 85.1491C49.7839 82.7137 42.2108 82.7137 37.7361 85.1491L28.7504 90.081C26.8129 91.2533 24.609 91.9134 22.346 91.9988Z" fill="#FF6D2C"/>
</svg>
