<svg width="145" height="92" viewBox="0 0 145 92" fill="none" xmlns="http://www.w3.org/2000/svg">
<path d="M0 52.6804V39.3446C0.0643989 39.1111 0.112995 38.8735 0.145458 38.6335C0.498709 34.0158 0.812709 29.3797 1.19828 24.7551C1.53999 20.6823 2.23033 16.6742 3.738 12.7861C6.22923 6.34908 11.154 2.56028 18.5145 1.55825C22.1579 1.06416 25.8635 0.921009 29.5484 0.733994C34.0668 0.503111 38.5921 0.364582 43.1174 0.244523C47.6958 0.122155 52.2789 -0.00252139 56.8573 -0.000212559C70.1215 -0.000212559 83.3881 0.0205706 96.65 0.14063C102.863 0.196042 109.076 0.461553 115.285 0.713216C118.84 0.858672 122.398 1.0757 125.935 1.42203C130.784 1.89534 134.847 3.85092 137.99 7.24721C140.178 9.60915 141.254 12.4975 142.132 15.432C143.836 21.1348 143.898 27.02 144.415 32.8522C144.558 34.4683 144.646 36.1053 144.766 37.733V54.4397C144.703 54.6985 144.655 54.9606 144.621 55.2247C144.175 60.6274 143.836 66.0416 143.263 71.4327C142.859 75.2446 141.755 78.9526 139.696 82.3142C136.694 87.2205 131.867 89.811 125.843 90.4298C121.225 90.9077 116.552 91.1755 111.898 91.2979C100.122 91.6073 88.3243 91.9074 76.5354 91.9906C61.1817 92.0875 45.8311 91.8305 30.4835 91.2194C25.6881 91.0347 20.888 90.8015 16.2149 89.7256C10.5975 88.4326 6.39315 85.4889 4.31059 80.4603C3.31548 78.0521 2.36424 75.5494 2.00176 73.0166C1.23984 67.7963 0.875048 62.5276 0.364796 57.2796C0.205486 55.7511 0.115442 54.2112 0 52.6804ZM57.7208 64.4854L96.7008 45.8486L57.7208 27.2602V64.4854Z" fill="#424242"/>
</svg>
