<svg width="99" height="92" viewBox="0 0 99 92" fill="none" xmlns="http://www.w3.org/2000/svg">
<g clip-path="url(#clip0_201_20)">
<path d="M98.5627 67.9974C97.9551 65.2629 97.4082 62.4676 96.8613 59.7332C93.3369 42.111 89.7517 24.4888 86.1665 6.80581C85.3157 2.61295 82.2166 0 77.963 0C58.9432 0 39.9234 0 20.9643 0C16.5892 0.0607662 13.4901 2.79524 12.5786 7.10964C10.5733 17.0145 8.56803 26.8587 6.56275 36.7635C5.52972 41.7464 4.55746 46.7292 3.5852 51.712C3.22061 53.5958 4.07133 54.9326 5.65126 55.0542C6.98811 55.1149 7.8996 54.2034 8.20343 52.4412C10.6948 40.2272 13.1255 28.0132 15.5561 15.7992C15.7384 14.9485 16.0423 14.6447 16.9538 14.6447C25.218 14.7054 33.4822 14.7054 41.7464 14.6447C42.6579 14.6447 42.9617 14.9485 43.0832 15.7992C44.0555 23.2734 45.1493 30.8085 46.1823 38.2827C46.4861 40.7133 47.2761 43.2048 46.9723 45.6354C46.3038 51.5905 45.3923 57.5456 44.5416 63.5007C43.934 67.9974 43.2655 72.5548 42.7186 77.0515C42.5363 78.6314 43.4478 79.7252 44.7239 79.8468C46 79.9683 47.0938 79.1176 47.2761 77.5984C47.7015 74.6209 48.0661 71.6433 48.4914 68.6658C48.7345 66.782 49.0383 64.8983 49.3421 63.0145H49.5852C50.2536 67.7543 50.8613 72.5548 51.5297 77.2946C51.7728 79.1176 52.9273 80.0291 54.2642 79.786C55.6011 79.5429 56.3303 78.4491 56.0872 76.6869C54.9326 68.3012 53.7781 59.9762 52.6843 51.5905C52.3804 49.0991 51.5905 46.6077 51.8943 44.1162C53.1096 34.6367 54.5073 25.1572 55.7226 15.6777C55.9049 14.8269 56.2087 14.5839 57.1202 14.5839C65.3844 14.6447 73.6486 14.6447 81.9128 14.5839C82.8243 14.5839 83.1889 14.8877 83.3104 15.7992C83.4927 16.893 83.675 17.9868 83.9181 19.0806C87.2602 35.7913 90.6024 52.502 94.0661 69.1519C94.6737 72.0079 92.4861 75.4716 88.9009 75.2893C85.498 75.1678 82.0344 75.2893 78.5707 75.2893C76.5654 75.2893 75.7147 76.2008 75.897 78.2061C75.9577 79.3606 76.14 80.5152 76.3223 81.6697C76.3831 81.9128 76.3831 82.2166 76.3831 82.4597C76.4439 85.0727 74.317 87.2602 71.6433 87.2602C56.8164 87.2602 41.9894 87.2602 27.1625 87.2602C27.041 87.2602 26.9194 87.2602 26.7979 87.2602C24.2457 87.0779 22.3012 84.8296 22.4835 82.2774C22.5443 81.0013 22.7266 79.786 22.9696 78.5099C23.2734 76.3831 22.362 75.2893 20.1744 75.2893C16.893 75.2893 13.5509 75.2893 10.2695 75.2893C6.44122 75.2893 4.55746 73.3448 4.73976 69.5165C4.86129 68.8481 4.679 68.1189 4.25363 67.572C3.64597 66.8428 2.67371 66.539 1.76222 66.8428C0.607662 67.1466 0.243065 68.0581 0.0607662 69.1519C0 69.5773 0 70.0026 0 70.428C0 75.6539 4.19287 79.9075 9.41876 79.9075C12.2748 79.9683 15.1308 79.9075 18.0476 79.9075C16.7107 87.2602 21.9366 92.0608 28.4993 92C42.6579 91.7569 56.7556 91.9392 70.9141 91.9392C77.4769 91.9392 81.5482 87.4425 80.8798 81.0013C80.7583 80.0291 81.1229 79.9075 81.9736 79.9075C84.2827 79.9683 86.6526 79.9075 88.9617 79.9075C95.5852 79.9075 99.8996 74.4993 98.5627 67.9974ZM50.9221 17.0145C50.4967 20.1744 50.0713 23.3342 49.646 26.4941C48.856 26.5548 48.3091 19.1413 47.7622 15.9815C47.5799 14.8877 47.7015 14.5231 48.9168 14.5839C51.2867 14.7054 51.2259 14.5839 50.9221 17.0145ZM81.5482 9.96565C81.1836 9.96565 80.9406 9.96565 80.6975 9.96565H16.7715C16.893 9.23646 16.9538 8.68956 17.0753 8.14267C17.6222 5.65125 18.8375 4.679 21.3289 4.679H77.2946C80.2114 4.679 82.0343 6.56275 81.9736 9.47952C81.9736 9.84412 81.9128 9.96565 81.5482 9.96565Z" fill="#424242"/>
</g>
<defs>
<clipPath id="clip0_201_20">
<rect width="98.8058" height="92" fill="white"/>
</clipPath>
</defs>
</svg>
