<svg width="81" height="92" viewBox="0 0 81 92" fill="none" xmlns="http://www.w3.org/2000/svg">
<g clip-path="url(#clip0_201_45)">
<path d="M39.5454 87.8507C37.8371 87.4387 37.0325 86.8699 33.7219 83.7337C31.9562 82.0609 30.2256 80.5803 29.8762 80.4434C29.4383 80.2718 28.0973 80.3615 25.5648 80.7317C19.6638 81.5941 18.0973 81.404 15.9133 79.5604C14.9218 78.7235 14.0108 77.101 14.0108 76.1721C14.0108 75.2778 14.8606 74.6158 16.0084 74.6158C16.8208 74.6158 17.1747 74.8169 18.1457 75.8303C19.5402 77.2856 19.7183 77.3026 25.3052 76.5158C31.0473 75.707 31.5688 75.8949 36.3823 80.5057C39.6475 83.6334 39.6642 83.645 40.94 83.645C42.2157 83.645 42.2325 83.6334 45.4977 80.5057C50.3357 75.8714 50.8116 75.6984 56.5094 76.5044C61.5538 77.2177 62.3373 77.2064 63.1997 76.4072C63.9751 75.6886 63.9167 75.8915 64.8387 70.7084C65.9083 64.6958 66.2315 64.2644 71.8987 61.284C73.777 60.2962 75.599 59.2045 75.9476 58.8579C77.0794 57.7329 76.8459 56.4951 74.6675 52.0707C72.8299 48.3388 72.7533 48.1076 72.7533 46.2874C72.7533 44.4672 72.8299 44.236 74.6675 40.5041C77.6286 34.4903 77.5675 34.2983 71.7213 31.2246C66.193 28.3181 65.9046 27.9118 64.7209 21.36C63.5723 15.0024 63.6404 15.0471 56.6486 16.0744C54.6158 16.3731 52.4971 16.548 51.9406 16.4632C50.5142 16.2456 48.6247 15.2188 47.5402 14.0719C47.032 13.5343 45.5777 12.1575 44.3084 11.0122C42.2338 9.14028 41.8933 8.9298 40.94 8.9298C39.9867 8.9298 39.6462 9.14028 37.5716 11.0122C36.3023 12.1575 34.8479 13.5343 34.3397 14.0719C33.2552 15.2188 31.3657 16.2456 29.9394 16.4632C29.3829 16.548 27.2642 16.3731 25.2314 16.0744C20.1727 15.3312 19.5615 15.3509 18.6643 16.2874C18.0275 16.9521 17.8433 17.5727 17.1591 21.36C15.9754 27.9118 15.687 28.3181 10.1586 31.2246C4.31243 34.2983 4.25143 34.4903 7.21254 40.5041C9.05011 44.236 9.12662 44.4672 9.12662 46.2874C9.12662 48.1076 9.05011 48.3388 7.21254 52.0707C5.03401 56.4951 4.80052 57.7329 5.93234 58.8579C6.28098 59.2045 8.15216 60.3196 10.0905 61.336C14.3416 63.5653 15.6427 64.735 16.2696 66.8917C16.5986 68.0235 16.6375 68.5477 16.4269 69.0101C16.0213 69.9002 14.9346 70.5347 14.1521 70.3383C13.343 70.1353 12.4268 69.1859 12.4268 68.5508C12.4268 67.6619 10.9781 66.532 7.41056 64.6388C3.37019 62.4948 2.41514 61.7008 1.56958 59.7832C0.478406 57.3086 0.68283 56.0959 3.01204 51.2261C4.12437 48.9005 5.03445 46.6961 5.03445 46.3274C5.03445 45.9587 4.12433 43.7333 3.01195 41.3821C0.603809 36.2919 0.436793 35.1872 1.68852 32.6287C2.63147 30.7014 3.46343 30.0326 7.70842 27.7887C9.61279 26.7821 11.4339 25.6458 11.7556 25.2637C12.1987 24.737 12.4836 23.7147 12.9322 21.0395C13.2578 19.0984 13.7046 16.9401 13.9251 16.2432C14.5095 14.3957 15.7787 12.8839 17.453 12.0408C19.23 11.1461 20.3395 11.1179 25.3448 11.8404C27.3815 12.1343 29.3486 12.2994 29.7164 12.2071C30.084 12.1148 31.868 10.6302 33.6809 8.908C35.4939 7.18574 37.3044 5.6124 37.7045 5.41168C39.1957 4.66352 40.8605 4.41459 42.194 4.74037C44.1819 5.22601 44.7066 5.59026 48.1991 8.908C50.0119 10.6302 51.796 12.1148 52.1636 12.2071C52.5312 12.2994 54.4985 12.1343 56.5351 11.8404C61.5404 11.1179 62.65 11.1461 64.4269 12.0408C66.1012 12.8839 67.3705 14.3957 67.9549 16.2432C68.1753 16.9401 68.6221 19.0984 68.9477 21.0395C69.3964 23.7147 69.6812 24.737 70.1244 25.2637C70.446 25.6458 72.2672 26.7821 74.1716 27.7887C78.4166 30.0326 79.2485 30.7014 80.1914 32.6287C81.4432 35.1872 81.2762 36.2919 78.868 41.3821C77.7556 43.7333 76.8455 45.9587 76.8455 46.3274C76.8455 46.6961 77.7556 48.9005 78.8679 51.2261C81.1972 56.0959 81.4016 57.3086 80.3104 59.7832C79.4648 61.7008 78.5097 62.4948 74.4694 64.6388C72.5091 65.6792 70.6036 66.8501 70.235 67.2411C69.6661 67.8444 69.4543 68.5852 68.8346 72.1394C67.8417 77.8337 66.959 79.4584 64.1729 80.7195C62.6478 81.4099 60.9736 81.4125 56.3152 80.7317C53.7826 80.3615 52.4416 80.2719 52.0038 80.4434C51.6544 80.5803 49.9027 82.0808 48.1113 83.7777C44.0701 87.6059 42.2059 88.4923 39.5454 87.8507ZM47.8921 67.3318C44.4017 66.0843 42.166 62.9193 42.1505 59.2035C42.1366 55.8889 44.061 52.9393 47.2403 51.4015C48.9966 50.5521 52.1732 50.5441 54.0085 51.3845C55.6697 52.1451 57.4103 53.8184 58.3185 55.5278C58.9279 56.6748 59.0199 57.1593 59.0199 59.2239C59.0199 61.2831 58.9269 61.7762 58.3226 62.9201C56.276 66.7945 51.7477 68.7098 47.8921 67.3318ZM53.0219 62.8747C54.1406 62.0394 54.7178 61.0783 54.8604 59.8134C55.0434 58.1901 54.5492 56.8735 53.402 55.9279C51.6467 54.481 49.51 54.5463 47.791 56.0992C44.6829 58.9072 46.8699 63.8614 51.0581 63.4999C51.7586 63.4393 52.6423 63.158 53.0219 62.8747ZM23.6179 63.7539C23.11 63.317 22.8992 62.8841 22.8992 62.2781C22.8992 61.4957 24.3555 59.9647 39.5143 44.8115C57.4755 26.857 56.7241 27.498 58.262 28.8208C58.77 29.2578 58.9807 29.6906 58.9807 30.2967C58.9807 31.0792 57.5245 32.6101 42.3657 47.7633C24.4045 65.7178 25.1559 65.0769 23.6179 63.7539ZM29.1915 41.6991C26.924 41.1 24.7502 39.3051 23.5574 37.047C22.9531 35.903 22.8601 35.41 22.8601 33.3508C22.8601 31.2908 22.9532 30.7977 23.5601 29.6441C24.4165 28.0159 26.3035 26.2321 27.957 25.4877C29.8244 24.647 32.6998 24.6909 34.6157 25.5893C36.7015 26.5675 37.8991 27.728 38.8811 29.7228C39.6044 31.1921 39.7366 31.7518 39.7331 33.3304C39.7231 37.9042 36.2426 41.6096 31.7553 41.8238C30.7809 41.8703 29.6271 41.8142 29.1915 41.6991ZM33.3268 37.123C35.8555 35.7018 36.3273 32.3637 34.2788 30.3876C32.7086 28.873 30.9564 28.598 29.2163 29.593C27.9249 30.3315 27.2426 31.2381 27.0403 32.4843C26.4285 36.2552 30.0786 38.9487 33.3268 37.123Z" fill="#FF6D2C"/>
</g>
<defs>
<clipPath id="clip0_201_45">
<rect width="80.96" height="92" fill="white"/>
</clipPath>
</defs>
</svg>
