<svg width="84" height="92" viewBox="0 0 84 92" fill="none" xmlns="http://www.w3.org/2000/svg">
<g clip-path="url(#clip0_201_14)">
<path d="M41.5302 45.1668C40.6342 51.2482 39.7422 57.3297 38.8544 63.4111C37.7536 70.9521 36.6833 78.5052 35.5704 86.0462C35.3464 87.628 34.574 89.0809 33.388 90.1512C32.2021 91.2216 30.6779 91.8415 29.0815 91.9026C21.5405 92.0182 13.9995 92.0425 6.46461 91.9026C5.5512 91.8612 4.65566 91.6351 3.83204 91.238C3.00843 90.8409 2.2738 90.281 1.6725 89.5922C1.0712 88.9034 0.6157 88.0999 0.33348 87.2301C0.05126 86.3604 -0.0518248 85.4426 0.0304466 84.5319C0.188564 82.8474 1.15551 81.9048 2.61506 82.0021C4.0746 82.0994 4.72532 83.042 4.70099 84.763C4.67667 86.4841 5.61321 87.3294 7.62616 87.3355C13.0995 87.3355 18.5241 87.3355 23.9731 87.3355C25.384 87.3355 26.7949 87.3659 28.2301 87.3355C30.0059 87.2929 30.766 86.6057 31.0275 84.8543C33.152 70.3926 35.2724 55.9309 37.3887 41.4693C37.7293 39.1522 39.3348 37.6562 41.5849 37.6319C43.9567 37.6319 45.5379 39.0367 45.8967 41.4814C48.0008 55.9918 50.1192 70.4919 52.2518 84.982C52.4707 86.4841 53.243 87.2807 54.7634 87.2868C61.8665 87.3233 68.9636 87.3355 76.0484 87.2868C77.9641 87.2868 78.8094 86.0219 78.3776 84.1549C72.4016 58.1588 66.4256 32.1586 60.4495 6.15436C60.2063 5.04146 59.9387 4.60359 58.5947 4.86509C47.3381 6.94644 35.7953 6.94644 24.5386 4.86509C23.3224 4.64616 23.0609 5.02321 22.8358 6.02057C20.0181 18.297 17.1882 30.5815 14.3462 42.8741C12.4548 51.084 10.5878 59.3305 8.68433 67.5526C8.51405 68.2945 8.42891 69.1155 7.74779 69.6324C7.38134 69.9592 6.91854 70.1578 6.42925 70.1984C5.93997 70.239 5.45076 70.1193 5.03547 69.8574C4.58146 69.6117 4.22666 69.2162 4.0315 68.7383C3.83634 68.2604 3.81289 67.7296 3.96514 67.2363C5.22602 61.7995 6.4788 56.3627 7.72347 50.9259C11.2831 35.4669 14.8428 20.0079 18.4025 4.54886C19.2235 0.972974 21.2121 -0.431839 24.8306 0.218875C36.0921 2.2839 47.6386 2.24679 58.8866 0.109409C61.7814 -0.43792 64.0376 1.07636 64.7187 4.01977C68.1608 18.9071 71.5928 33.8006 75.0146 48.7001C77.6783 60.2792 80.3379 71.8623 82.9934 83.4494C83.9725 87.7429 81.1021 91.7932 76.687 91.8905C69.2007 92.0547 61.7084 92.0121 54.2221 91.8905C52.5969 91.8432 51.0423 91.2156 49.8397 90.1213C48.6372 89.0269 47.8662 87.5382 47.6664 85.9246C46.0548 75.0692 44.504 64.2017 42.9228 53.3402C42.5275 50.6097 42.114 47.8669 41.7065 45.1546L41.5302 45.1668Z" fill="#424242"/>
</g>
<defs>
<clipPath id="clip0_201_14">
<rect width="83.1819" height="92" fill="white"/>
</clipPath>
</defs>
</svg>
