<svg width="57" height="92" viewBox="0 0 57 92" fill="none" xmlns="http://www.w3.org/2000/svg">
<g clip-path="url(#clip0_201_33)">
<path d="M28.417 59.1429C36.5277 59.1429 44.5792 59.1429 52.6898 59.1429C56.3012 59.1429 56.9524 59.8534 57.0116 63.5239C57.0116 65.4184 56.9524 67.2536 57.0116 69.1481C57.0708 71.3386 55.9459 72.5818 53.9331 72.7594C48.7825 73.1146 45.2304 76.0747 42.2111 79.8637C40.0206 82.6462 38.1853 85.7247 36.8237 88.9808C35.9357 91.0529 34.6332 92.0593 32.3243 91.9409C29.8378 91.7633 27.4106 91.7633 24.9241 91.9409C21.7272 92.2369 20.6023 90.224 19.6551 87.8559C19.1815 86.8495 19.5959 85.6063 20.6023 85.1326H20.6615C21.5496 84.5406 22.7336 84.8366 23.3256 85.7247C23.3848 85.7839 23.444 85.9023 23.444 85.9615C25.3977 89.632 28.713 87.0863 31.3179 87.7375C33.2124 88.2111 33.3308 86.2575 33.9228 85.1326C35.5804 81.6989 37.7117 78.502 40.2574 75.6011C43.2175 72.345 46.7696 69.7993 51.1506 68.9113C52.5714 68.6153 52.749 68.0825 52.8674 66.8392C53.2227 64.0567 52.3938 63.2279 49.4337 63.2871C35.3436 63.4647 21.2535 63.3463 7.16345 63.4055C6.15701 63.4055 4.02574 62.1622 4.20335 64.8263C4.32175 66.484 3.07851 68.8521 6.45302 69.0889C8.28829 69.2073 10.0051 70.2729 11.6036 71.161C12.61 71.6346 13.0837 72.8186 12.61 73.8843C12.5508 74.0027 12.4916 74.1211 12.4324 74.1803C11.7812 75.3643 10.6564 75.6603 9.41313 74.8315C7.51866 73.5882 5.32819 72.8778 3.07851 72.7002C1.00643 72.5226 0 71.161 0 69.0297C0 66.8984 0 64.8855 0 62.8135C0 60.2678 1.24324 59.0837 3.84813 59.0837C12.018 59.2021 20.1879 59.1429 28.417 59.1429Z" fill="#424242"/>
<path d="M55.2947 33.3308C53.9923 23.0889 49.2561 13.4981 49.4929 2.96018C49.5521 1.06572 48.3089 -0.295931 46.2368 0.0592811C44.1647 0.355291 43.5727 1.83534 43.8095 3.78901C44.2831 8.05156 44.1647 12.2549 41.9743 16.103C40.139 19.3592 38.4813 22.7337 36.5277 25.8714C33.5084 30.8444 30.8443 35.9949 29.4826 41.6783C29.305 42.3888 29.4826 43.5136 28.3578 43.4544C27.4697 43.3952 27.5881 42.3888 27.4697 41.7967C26.2265 36.2317 23.74 31.2588 20.7799 26.4634C16.3398 19.2408 11.5444 12.1957 13.0836 2.96018C13.4389 0.88811 11.8996 -0.118325 9.94593 7.9e-05C8.11067 0.177685 7.63705 1.53933 7.40024 3.13779C6.86743 6.92672 7.04503 10.7749 6.157 14.5638C4.61775 21.076 2.13126 27.3514 1.48004 34.0413C1.00642 38.7774 0.592007 43.5136 2.36807 48.0129C2.90089 49.3746 3.49291 50.4994 5.44658 50.4994C13.1428 50.3218 20.8391 50.4402 28.5354 50.4402C35.9356 50.4402 43.3359 50.3218 50.7362 50.4994C52.9858 50.5586 53.9331 49.789 54.6435 47.8945C56.4196 43.0992 55.8867 38.1854 55.2947 33.3308ZM21.6087 46.2369C17.287 46.0001 12.906 46.0001 8.58429 46.2369C6.0978 46.4145 5.56498 45.2305 5.38737 43.2768C5.03216 37.9486 5.56498 32.6204 6.98583 27.4698C7.99226 23.6809 9.1171 19.9512 10.3603 15.6294C13.3205 23.3849 18.5302 29.3643 21.4311 36.587C22.4376 38.955 23.2072 41.3823 23.74 43.8688C23.9176 45.4673 23.6216 46.3553 21.6087 46.2369ZM51.6242 42.744C51.4466 45.4081 50.6178 46.4737 47.7761 46.2961C43.7503 46.0593 39.7246 46.0593 35.6988 46.2961C33.0939 46.4145 32.9163 45.2897 33.39 43.336C34.574 38.4814 36.5277 33.8637 39.251 29.6011C42.0335 25.2202 44.5791 20.6616 46.7104 15.9254C49.4337 24.9241 52.157 33.5084 51.6242 42.744Z" fill="#424242"/>
</g>
<defs>
<clipPath id="clip0_201_33">
<rect width="56.9524" height="92" fill="white"/>
</clipPath>
</defs>
</svg>
