<svg width="88" height="92" viewBox="0 0 88 92" fill="none" xmlns="http://www.w3.org/2000/svg">
<g clip-path="url(#clip0_201_18)">
<path d="M87.6812 80.5836L76.0063 32.857C75.5318 30.9022 74.4133 29.1639 72.8311 27.9219C71.2488 26.6798 69.2947 26.0062 67.2832 26.0094H61.6438V16.2058C61.6438 16.0442 61.4415 0 43.9741 0C26.5067 0 26.3044 16.0442 26.3044 16.2058V26.0094H20.665C18.6535 26.0064 16.6995 26.6802 15.1173 27.9222C13.5351 29.1642 12.4166 30.9023 11.9418 32.857L4.26252 64.2444C4.11832 64.8342 4.21434 65.4572 4.52946 65.9762C4.84457 66.4953 5.35297 66.8679 5.94281 67.0121C6.53265 67.1563 7.15562 67.0603 7.67466 66.7451C8.19371 66.43 8.56631 65.9216 8.71051 65.3318L16.3842 33.943C16.6173 32.9825 17.1669 32.1285 17.9445 31.5183C18.722 30.9082 19.6823 30.5776 20.6706 30.5796H67.2832C68.2714 30.5774 69.2316 30.908 70.0089 31.5182C70.7863 32.1283 71.3356 32.9825 71.5682 33.943L83.2375 81.6696C83.4053 82.3547 83.4152 83.0689 83.2664 83.7583C83.1176 84.4477 82.8141 85.0942 82.3787 85.6491C81.9434 86.2039 81.3876 86.6526 80.7534 86.9611C80.1191 87.2696 79.4231 87.4299 78.7178 87.4298H9.23033C8.52507 87.4299 7.82902 87.2696 7.19481 86.9611C6.56059 86.6526 6.0048 86.2039 5.56944 85.6491C5.13408 85.0942 4.83055 84.4477 4.68178 83.7583C4.53301 83.0689 4.5429 82.3547 4.7107 81.6696C4.78997 81.3753 4.80961 81.068 4.76844 80.766C4.72728 80.4639 4.62614 80.1731 4.47099 79.9107C4.31583 79.6483 4.10978 79.4196 3.86495 79.2379C3.62013 79.0563 3.34146 78.9254 3.04533 78.853C2.7492 78.7807 2.44158 78.7682 2.14057 78.8164C1.83955 78.8646 1.55121 78.9725 1.29249 79.1337C1.03376 79.2949 0.809883 79.5063 0.634004 79.7553C0.458125 80.0043 0.333798 80.2859 0.268329 80.5836C-0.0640697 81.9417 -0.0834121 83.3576 0.211764 84.7242C0.50694 86.0909 1.10891 87.3725 1.97218 88.4724C2.83545 89.5722 3.93743 90.4614 5.19484 91.0728C6.45224 91.6842 7.83217 92.0017 9.23033 92.0015H78.7178C80.1158 92.0011 81.4955 91.6832 82.7527 91.0716C84.0098 90.4601 85.1116 89.571 85.9749 88.4713C86.8382 87.3717 87.4403 86.0903 87.7359 84.7239C88.0315 83.3575 88.0128 81.9418 87.6812 80.5836ZM43.9741 4.57443C56.6001 4.57443 57.0581 15.0243 57.0694 16.2058V26.0094H30.8788V16.2156C30.89 15.0243 31.3466 4.57443 43.9741 4.57443Z" fill="#424242"/>
</g>
<defs>
<clipPath id="clip0_201_18">
<rect width="87.9482" height="92" fill="white"/>
</clipPath>
</defs>
</svg>
