<svg width="82" height="92" viewBox="0 0 82 92" fill="none" xmlns="http://www.w3.org/2000/svg">
<path d="M4.34245 81.4236C3.39118 80.834 3.28037 80.4889 2.97384 77.1606C2.58085 72.8934 2.61204 72.4007 3.31037 71.8423C4.14076 71.1784 5.50207 71.2068 6.1863 71.9023C6.63797 72.3614 6.73378 72.7554 6.87241 74.7243C6.96104 75.9829 7.10705 77.1335 7.19688 77.2813C7.31473 77.4751 8.51365 77.5325 11.5033 77.4875L15.6463 77.425L16.7191 68.9749C17.309 64.3272 17.7448 60.4001 17.6873 60.2479C17.3497 59.3538 5.78148 56.8702 5.33954 57.597C5.26985 57.7117 5.35378 59.1676 5.52606 60.8324C5.69834 62.4972 5.7824 64.0101 5.71285 64.1944C5.54265 64.6452 4.45032 65.198 3.72974 65.198C2.87265 65.198 1.84055 64.5795 1.72062 63.994C1.41388 62.4965 0.919318 55.7547 0.919984 53.0798C0.921566 46.3709 1.64631 41.745 3.60818 35.9191C4.3442 33.7334 5.0614 31.2767 5.20196 30.4596C5.34252 29.6426 5.50338 26.3001 5.55944 23.032C5.61551 19.7638 5.70858 16.8614 5.76628 16.582C5.82397 16.3027 6.09139 15.8656 6.36053 15.6107C6.83919 15.1574 7.10718 15.1473 18.6095 15.1473H30.369L31.3886 13.0836C32.9071 10.0103 32.5935 10.1213 39.7678 10.1202C44.4489 10.1195 45.8409 10.1889 46.465 10.454C47.9053 11.0657 47.9111 11.1165 47.9111 23.0986C47.9111 35.0498 48.0021 36.1091 49.4159 40.6298C51.8772 48.5003 56.8256 55.3814 61.6265 57.6099C62.7434 58.1283 63.2548 58.1993 66.9103 58.3425C71.2656 58.5132 72.4574 58.777 74.7797 60.0848C76.431 61.0147 78.4832 63.2228 79.4475 65.1073C80.6907 67.5369 80.9557 69.0268 80.9595 73.6083C80.9641 79.1325 81.0053 79.0753 76.5785 79.6931C68.8716 80.7686 61.5579 81.3775 51.5086 81.7803C43.3059 82.1089 40.8784 80.9412 33.9023 73.3113C28.5375 67.4436 25.6716 64.5833 23.9341 63.3625C22.317 62.2262 21.6046 62.0498 21.6046 62.7854C21.6046 63.6199 19.5523 79.3411 19.3414 80.1213C19.1833 80.7068 18.873 81.1342 18.3884 81.4346C17.7214 81.848 17.2187 81.8799 11.3743 81.8799C5.47798 81.8799 5.0321 81.8509 4.34245 81.4236ZM62.7507 76.9712C67.8323 76.5689 75.2449 75.7596 76.1679 75.5064L76.8032 75.3322L76.7865 72.2648C76.7722 69.6606 76.694 69.0007 76.2685 67.8944C75.4273 65.7074 73.2081 63.5811 71.0325 62.8779C70.6202 62.7447 68.4617 62.5615 66.2358 62.471C62.6224 62.324 62.0372 62.2434 60.7768 61.7192C58.3114 60.6939 56.8602 59.6629 54.4141 57.1991C49.8885 52.6405 46.5507 46.3722 44.7814 39.1082C43.8271 35.1907 43.6395 32.5217 43.6394 22.8606L43.6392 14.4617H39.3694H35.0996L34.1055 16.4738C33.5586 17.5805 32.9351 18.6347 32.7198 18.8164C32.394 19.0914 30.4386 19.166 21.0644 19.261L9.80047 19.3753L9.66541 24.5175C9.59117 27.3457 9.40763 30.3282 9.25758 31.1452C9.1075 31.9623 8.33879 34.5848 7.54929 36.973C6.7598 39.3614 5.95749 42.241 5.76638 43.3723C5.37234 45.7048 4.85399 52.4579 5.03267 52.9313C5.11244 53.1426 5.75543 53.2905 7.02577 53.3898C11.492 53.7389 16.7102 55.0471 20.6283 56.7999C21.8624 57.352 24.0793 58.6105 25.5548 59.5968C27.8697 61.1441 28.7923 61.9704 32.2846 65.6236C40.9664 74.7052 42.1508 75.8671 43.3572 76.4848C44.0059 76.8171 44.9165 77.1881 45.3807 77.3092C46.5372 77.6109 57.3222 77.4011 62.7507 76.9712Z" fill="#424242"/>
</svg>
