<svg width="81" height="92" viewBox="0 0 81 92" fill="none" xmlns="http://www.w3.org/2000/svg">
<g clip-path="url(#clip0_201_38)">
<path d="M18.113 80.4588C16.8991 79.6133 16.5475 78.9328 16.4259 77.1936L16.3154 75.614L15.3108 75.609C13.2035 75.5988 11.3858 74.1166 10.9541 72.0566C10.8225 71.4283 10.7148 69.9737 10.7148 68.824C10.7148 66.9074 10.6774 66.7217 10.2652 66.5879C9.34967 66.2905 8.21503 64.9627 4.95751 60.3768C1.50234 55.5127 0.919983 54.4772 0.919983 53.1977C0.919983 52.075 1.73158 50.5156 2.78493 49.6145C3.6467 48.8773 3.69429 48.7817 3.41558 48.3463C2.86569 47.4875 2.61928 45.7264 2.88077 44.5243C3.24451 42.8519 3.8406 42.1491 6.79685 39.9071C10.9017 36.7939 10.5547 36.9671 12.6887 36.9667C14.3645 36.9665 14.6469 37.0293 15.4702 37.5864C15.9741 37.9274 16.9816 39.03 17.709 40.0367C18.4363 41.0434 19.0644 41.9028 19.1047 41.9466C19.145 41.9905 20.3835 40.9812 21.8571 39.7037C26.6714 35.53 32.615 31.1346 37.7592 27.9437C38.8067 27.2939 39.6638 26.7308 39.6638 26.6924C39.6638 26.6539 38.8612 25.5052 37.8802 24.1396C36.2085 21.8128 36.0908 21.5753 36.0047 20.3583C35.8652 18.3836 36.2163 17.9697 41.1274 14.3208C45.2553 11.2537 45.4348 11.1472 46.6298 11.0588C48.1753 10.9444 48.978 11.3373 49.9438 12.681C50.3354 13.2258 50.7313 13.6753 50.8235 13.6801C50.9159 13.6849 51.3901 13.4189 51.8771 13.089C53.8177 11.7748 56.4678 12.2566 57.9944 14.2013C59.285 15.8455 64.4222 23.1806 64.7827 23.8938C65.2099 24.7391 65.2367 26.8072 64.8335 27.7949C64.6703 28.1946 64.0838 28.9297 63.53 29.4285L62.5233 30.3355L63.2203 31.3121C63.8009 32.1254 63.9315 32.5342 64.0023 33.758C64.083 35.1541 64.052 35.2685 63.3793 36.0524C62.9901 36.5062 60.8738 38.2168 58.6766 39.8539C54.396 43.0431 53.7626 43.3356 52.1184 42.8825C51.1278 42.6096 50.4624 41.9127 48.4128 39.0014L47.0406 37.0522L45.7579 38.2675C43.2029 40.6883 36.9391 45.5644 32.6384 48.4805C31.5342 49.2291 30.5961 49.8706 30.5536 49.9058C30.511 49.9411 30.8343 50.2917 31.2721 50.685C32.5892 51.8686 32.6986 52.2691 32.6986 55.9102V59.1721L33.7325 59.039C39.2325 58.3311 51.6077 58.3293 57.1074 59.0357L58.1177 59.1654L58.1958 55.7335C58.2722 52.3735 58.2866 52.2844 58.8837 51.4834C59.9683 50.0281 60.122 49.9974 66.3381 49.9974C72.5217 49.9974 72.9645 50.0806 73.8938 51.4162C74.2581 51.9397 74.3972 52.505 74.4562 53.7031L74.5348 55.2945L75.9039 55.3838C77.484 55.4867 78.6018 56.144 79.4958 57.4954L80.04 58.318V65.4962V72.6743L79.3547 73.6425C78.4473 74.9245 77.1525 75.614 75.6525 75.614H74.4896V76.9725C74.4896 78.6443 74.034 79.6929 72.9932 80.4168C72.2135 80.959 72.2008 80.96 66.4178 80.96C60.7674 80.96 60.6058 80.9476 59.9041 80.4588C58.3925 79.406 58.2822 79.069 58.1956 75.2384L58.1173 71.7768L57.3249 71.9176C56.8891 71.9951 55.0562 72.1215 53.2517 72.1985C50.0104 72.337 49.9652 72.3324 49.4971 71.8182C48.8674 71.1265 48.8747 70.0367 49.5129 69.4494C49.9269 69.0684 50.5246 68.9573 53.3765 68.7308C55.232 68.5834 57.0685 68.4066 57.4576 68.3382L58.165 68.2135V65.4735V62.7335L57.3487 62.5995C52.8374 61.8593 38.6349 61.8641 33.6237 62.6076L32.6986 62.7449V65.4787V68.2125L33.6237 68.3501C34.1324 68.4257 36.0179 68.5891 37.8136 68.7132C40.9024 68.9266 41.105 68.9693 41.5683 69.5044C42.188 70.2201 42.1942 71.1481 41.5839 71.8185C41.1142 72.3344 41.0773 72.338 37.7204 72.1963C35.8562 72.1176 33.9706 71.9904 33.5301 71.9136L32.7293 71.774L32.6595 75.3152C32.5943 78.6271 32.557 78.899 32.0841 79.5135C30.9703 80.9607 30.9898 80.9569 24.6229 80.9586C18.9753 80.9599 18.8149 80.9477 18.113 80.4588ZM29.1634 65.5344L29.1071 53.4501H24.5363H19.9654L19.9088 65.256C19.8777 71.7492 19.8991 77.1872 19.9563 77.3403C20.0352 77.5509 21.1771 77.6188 24.6402 77.6188H29.2197L29.1634 65.5344ZM71.0926 77.2664C71.1652 77.0726 71.2247 71.7221 71.2247 65.3764C71.2247 55.847 71.1725 53.7945 70.9248 53.5841C70.716 53.4067 69.2776 53.3477 66.1907 53.3898L61.7565 53.4501L61.6999 65.256C61.6687 71.7492 61.6901 77.1872 61.7474 77.3403C61.8262 77.5508 62.9631 77.6188 66.406 77.6188C70.3583 77.6188 70.9779 77.5721 71.0926 77.2664ZM16.374 65.4787V58.9075H15.6245C14.2546 58.9075 14.1973 59.1713 14.1973 65.4787C14.1973 71.7862 14.2546 72.0499 15.6245 72.0499H16.374V65.4787ZM76.4283 71.6432C76.6134 71.2892 76.7216 66.8385 76.6793 61.318C76.6642 59.3471 76.401 58.9075 75.2359 58.9075H74.4896V65.4787V72.0499H75.3526C75.9654 72.0499 76.2773 71.932 76.4283 71.6432ZM10.7811 60.405L10.8832 58.8953L8.48581 55.5045C7.16722 53.6394 6.00894 52.0245 5.91186 51.9156C5.81325 51.8051 5.43714 52.0229 5.05984 52.409L4.38434 53.1003L4.77437 53.8497C5.30542 54.8698 10.596 62.2932 10.6421 62.0828C10.6623 61.9904 10.7249 61.2353 10.7811 60.405ZM15.0949 55.4097L16.3189 55.294L16.4276 53.7391C16.5474 52.0265 16.9041 51.3407 18.113 50.4987C18.5088 50.2229 19.1609 49.9974 19.5622 49.9974C19.9635 49.9974 20.2919 49.9457 20.2919 49.8825C20.2919 49.7387 15.2705 42.6478 14.2608 41.3657C13.105 39.8983 12.655 39.9977 9.31277 42.4579C7.60423 43.7157 6.45813 44.7185 6.32136 45.0753C6.02029 45.8607 6.32069 46.3918 9.98207 51.5467C12.5229 55.1241 13.069 55.7747 13.4356 55.6608C13.675 55.5863 14.4216 55.4734 15.0949 55.4097ZM26.5809 48.1791C31.9934 44.8561 38.9636 39.6323 44.0088 35.1176L44.9803 34.2484L44.5677 33.6027C44.3409 33.2475 43.6279 32.2265 42.9835 31.334L41.8117 29.711L40.5745 30.4251C38.4788 31.6347 32.7263 35.5715 29.9778 37.6772C25.7974 40.8797 21.3801 44.6505 21.3801 45.0165C21.3801 45.2861 24.3101 49.3291 24.5055 49.3291C24.6167 49.3291 25.5506 48.8116 26.5809 48.1791ZM60.5471 33.8823C60.566 33.5895 47.067 14.6912 46.839 14.6912C46.5938 14.6912 39.4442 19.9594 39.4504 20.1355C39.4541 20.2402 41.991 23.8299 52.0144 37.9132L53.1555 39.5165L56.8452 36.7936C58.8746 35.2959 60.5405 33.9858 60.5471 33.8823ZM61.1438 26.7924C61.4209 26.5259 61.6455 26.1 61.6428 25.8456C61.6381 25.3854 55.6386 16.7254 54.9569 16.1947C54.4639 15.811 54.0135 15.8531 53.3933 16.3411L52.8659 16.7559L55.4522 20.4013C59.69 26.375 60.352 27.2767 60.4994 27.2767C60.5767 27.2767 60.8667 27.0587 61.1438 26.7924Z" fill="#424242"/>
</g>
<defs>
<clipPath id="clip0_201_38">
<rect width="80.96" height="92" fill="white"/>
</clipPath>
</defs>
</svg>
