<svg width="91" height="92" viewBox="0 0 91 92" fill="none" xmlns="http://www.w3.org/2000/svg">
<g clip-path="url(#clip0_201_40)">
<path d="M90.1579 25.0423C89.3487 20.0553 86.265 16.9882 81.5782 15.6521C77.424 14.469 73.2224 13.4596 69.0334 12.4085C65.6424 11.5577 63.1371 9.61121 61.5841 6.4107C60.5469 4.27657 59.4861 2.15494 58.4489 0.0541723C58.3656 0.0307157 58.2805 0.0139782 58.1945 0.00412078C49.6802 0.00412078 41.1659 -0.00839216 32.6516 0.0235851C32.3568 0.0235851 31.9564 0.371166 31.7854 0.665913C30.5022 2.96967 29.3134 5.32903 27.9996 7.61749C27.3568 8.73668 26.498 9.71699 25.4731 10.5015C24.4483 11.286 23.2778 11.8591 22.0296 12.1875C17.6195 13.3442 13.201 14.4718 8.78679 15.6174C4.97315 16.6059 2.11327 18.7428 0.645092 22.5801C-0.189098 24.749 -0.0848245 26.9693 0.227997 29.2008C1.00379 34.7106 1.56826 40.2635 2.64715 45.7122C4.2043 53.5661 6.31898 60.6525 9.10239 68.0768C9.24999 68.4716 9.5252 68.8059 9.88436 69.0265C10.2435 69.2471 10.6661 69.3415 11.085 69.2947C11.2824 69.2711 11.4882 69.2433 11.6926 69.2071C11.9762 69.1536 12.2447 69.0386 12.479 68.87C12.7133 68.7015 12.9078 68.4836 13.0488 68.2317C13.1897 67.9798 13.2737 67.7 13.2947 67.4121C13.3157 67.1242 13.2733 66.8352 13.1705 66.5655C12.4744 64.6886 11.8093 62.7978 11.1754 60.893C8.69285 53.4003 6.81729 45.72 5.56681 37.9264C4.97593 34.249 4.67006 30.5216 4.34194 26.8039C4.21218 25.3566 4.58885 23.9092 5.40762 22.7088C6.2264 21.5084 7.4365 20.6295 8.83128 20.2221C13.0022 19.0097 17.2385 17.9976 21.447 16.8965C21.5606 16.8791 21.6756 16.8726 21.7904 16.877C24.6948 27.9495 31.2446 35.0373 42.584 37.1659C42.3616 37.4148 42.1447 37.6775 41.9083 37.9194C40.0272 39.8367 38.1336 41.7428 36.2622 43.6698C34.8928 45.081 35.0596 46.2655 36.6376 48.0229C39.2236 50.9008 41.2048 54.2348 42.8287 57.7454C43.9493 60.1673 45.9667 60.4189 47.2485 58.4502C49.7353 54.6324 52.2045 50.8003 54.6561 46.9537C55.4139 45.7719 55.2846 44.7751 54.239 43.6948C52.3663 41.7706 50.4685 39.8631 48.5916 37.9486C48.351 37.7039 48.1272 37.4426 47.8783 37.1728C59.2275 35.0484 65.8009 27.9425 68.7122 16.8422C73.0028 17.974 77.3016 19.0084 81.5435 20.2596C84.427 21.1105 86.144 24.2151 85.8938 27.2599C84.7148 41.6747 81.1027 55.4972 75.8738 68.8804C73.5102 74.9185 70.6239 80.7426 67.999 86.6765C67.6792 87.4008 67.2468 87.6177 66.4697 87.6163C52.3116 87.5913 38.154 87.5954 23.9969 87.6288C22.9166 87.6288 22.3813 87.2645 21.9114 86.34C20.0845 82.8016 18.5969 79.2619 17.08 75.6346C16.9744 75.3834 16.8183 75.1566 16.6213 74.9683C16.4243 74.78 16.1908 74.6342 15.9351 74.5399C15.6794 74.4456 15.4071 74.4049 15.1351 74.4203C14.863 74.4357 14.597 74.5069 14.3536 74.6294L13.8281 74.8991L13.8114 74.9074C13.4224 75.1096 13.1228 75.4497 12.9713 75.8612C12.8199 76.2726 12.8274 76.7258 12.9925 77.1319C14.925 81.6727 17.0647 86.511 19.3546 90.7237C19.8301 91.5996 20.3389 92.0041 21.4289 92C37.2313 91.9481 53.0346 91.9481 68.8388 92C69.2684 92.0019 69.6902 91.8855 70.0581 91.6636C70.426 91.4416 70.7256 91.1227 70.9242 90.7417C74.5646 83.6728 77.7791 76.3927 80.5508 68.9402C83.4788 61.128 85.9438 53.1573 87.583 44.9614C88.5757 39.9924 89.2514 34.9581 89.9813 29.9376C90.2093 28.3235 90.4137 26.6217 90.1579 25.0423ZM49.8039 45.416C49.9527 45.5773 50.0111 46.0278 49.8985 46.2085C48.3969 48.6277 46.8578 51.0232 45.234 53.5772C43.6226 51.044 42.1016 48.6749 40.6153 46.2836C40.493 46.0875 40.4763 45.6343 40.6153 45.4897C42.1002 43.8978 43.6254 42.342 45.2576 40.6528C46.8537 42.3073 48.3441 43.8436 49.8039 45.416ZM64.3105 16.2986C62.4558 23.8884 58.1152 29.3787 50.7466 31.8827C46.0751 33.4704 38.8705 32.3443 34.858 29.4747C30.2853 26.2046 27.3823 21.8085 26.1936 16.4057C26.0184 15.6104 26.0948 15.128 26.8734 14.6789C29.4149 13.2135 31.1431 10.9556 32.5334 8.40024C33.1229 7.31441 33.743 6.24247 34.2602 5.12188C34.5494 4.49345 34.9428 4.34608 35.5699 4.35025C38.7579 4.37528 41.9445 4.36137 45.1325 4.36137C48.3552 4.36137 51.578 4.38362 54.7993 4.34469C55.4945 4.33635 55.8268 4.56575 56.1605 5.17888C57.3325 7.34499 58.4225 9.59313 59.8796 11.5521C60.8792 12.8965 62.3988 13.8642 63.7599 14.8986C64.298 15.3115 64.4634 15.6716 64.3105 16.2986Z" fill="#424242"/>
</g>
<defs>
<clipPath id="clip0_201_40">
<rect width="90.276" height="92" fill="white"/>
</clipPath>
</defs>
</svg>
