<svg width="81" height="92" viewBox="0 0 81 92" fill="none" xmlns="http://www.w3.org/2000/svg">
<g clip-path="url(#clip0_201_23)">
<path d="M21.9848 91.395C21.2206 90.7994 21.2085 90.7336 21.2085 87.1622C21.2085 83.9236 21.2718 83.4718 21.7977 82.9505C22.4915 82.2631 24.0738 82.1766 24.9083 82.7805C25.3553 83.104 25.5123 83.6617 25.6274 85.3348L25.7747 87.4753L30.3756 87.5555L34.9765 87.6357L35.1623 85.9499C35.2645 85.0227 35.4777 82.228 35.636 79.7394C35.7944 77.2508 36.1275 72.5218 36.3762 69.2304C36.6249 65.939 36.9009 61.8011 36.9894 60.035C37.1889 56.0549 37.5707 54.4901 38.5232 53.7476C39.948 52.6371 42.6327 53.259 43.2379 54.8396C43.4098 55.2888 43.7014 57.758 43.886 60.3269C44.0705 62.8958 44.4038 67.4935 44.6267 70.544C44.8495 73.5946 45.1835 78.3893 45.3689 81.199C45.5541 84.0088 45.7286 86.5703 45.7564 86.8914C45.8046 87.4489 46.0201 87.4753 50.5203 87.4753H55.2337L55.3022 69.6885C55.367 52.838 55.3392 51.747 54.7739 48.9623C54.2075 46.1714 51.463 37.5221 50.9902 37.0378C50.7416 36.7831 45.3505 37.6238 44.9822 37.9747C44.8526 38.0981 45.0184 39.777 45.3505 41.7055C46.1 46.059 46.1113 47.1051 45.4154 47.7291C44.5537 48.5019 42.8694 48.3546 42.1459 47.4431C41.8101 47.0201 41.5356 46.3961 41.5359 46.0565C41.5371 44.8239 40.5758 40.2894 40.3634 40.5257C40.2435 40.6592 39.9144 42.2134 39.6323 43.9795C39.3389 45.8155 38.9231 47.4093 38.6613 47.7014C38.09 48.3389 36.1526 48.3831 35.5365 47.7727C34.7453 46.9886 34.7372 46.3203 35.4684 42.1992C35.8644 39.9673 36.0989 38.0531 35.9896 37.9457C35.8349 37.7936 30.8337 36.8275 30.201 36.8275C29.6691 36.8275 27.0381 44.5397 26.2047 48.5421C25.7004 50.9644 25.6348 52.5527 25.6313 62.4221L25.6274 73.5668L24.8512 74.1718C23.8598 74.9446 22.9687 74.9388 21.9605 74.1528L21.16 73.5289L21.2886 61.0896C21.4097 49.3793 21.4554 48.5133 22.0676 46.3148C23.0334 42.8469 24.0822 39.5537 24.9225 37.3506L25.6694 35.3926L24.7941 33.5557C24.3126 32.5455 23.6409 30.6023 23.3014 29.2376C22.5053 26.0381 21.2103 17.8328 21.2093 15.9823L21.2085 14.5498L24.5964 11.1509L27.9842 7.75198V4.48272C27.9842 0.717599 28.3187 0.045773 30.1936 0.045773C32.0386 0.045773 32.403 0.739764 32.403 4.25304V7.29263L36.38 8.60999L40.357 9.92735L44.3339 8.60999L48.3109 7.29263V4.43836C48.3109 1.9928 48.3983 1.47397 48.9215 0.81494C49.784 -0.271647 51.5513 -0.271647 52.4138 0.81494C52.9485 1.48845 53.0244 1.98819 53.0244 4.83358V8.08305L56.4122 11.4305C60.3303 15.3021 60.1071 14.5488 59.1936 20.8198C58.1813 27.7693 57.1571 31.86 55.8801 34.0543L55.2005 35.2219L55.8691 36.868C57.041 39.7535 58.6001 45.2143 59.2095 48.5681C59.7615 51.6058 59.8 53.0788 59.8 71.1922V90.5669L59.0768 91.2835L58.3538 92H50.8057H43.2575L42.3964 91.1467C41.6131 90.3705 41.5352 90.1133 41.5343 88.3005C41.5304 80.8206 40.8648 58.8184 40.6355 58.5899C40.4602 58.4154 40.3541 58.5776 40.3492 59.0278C40.3449 59.4212 40.2153 63.1585 40.0612 67.333C39.907 71.5074 39.6501 78.4696 39.4902 82.8046L39.1996 90.6863L38.4362 91.3432C37.6878 91.9871 37.5264 92 30.2169 92C23.12 92 22.7236 91.9708 21.9848 91.395ZM46.7265 33.0337C51.9319 32.1627 51.6936 32.2467 52.2527 31.085C52.8787 29.784 54.0012 24.6595 54.6627 20.0823L55.1632 16.6193L52.6268 14.1059L50.0904 11.5925L45.2189 13.1817L40.3475 14.7709L35.6041 13.2143L30.8607 11.6578L28.3665 14.0984L25.8724 16.5391L26.0627 18.7285C26.3403 21.9256 27.5931 28.3764 28.2996 30.2476C28.636 31.1384 29.1334 31.9791 29.4051 32.1158C29.6767 32.2525 31.2909 32.5863 32.9922 32.8576C34.6934 33.1289 36.8145 33.4688 37.7056 33.6129C39.7414 33.9423 42.265 33.7803 46.7265 33.0337Z" fill="#424242"/>
</g>
<defs>
<clipPath id="clip0_201_23">
<rect width="80.96" height="92" fill="white"/>
</clipPath>
</defs>
</svg>
