<svg width="93" height="92" viewBox="0 0 93 92" fill="none" xmlns="http://www.w3.org/2000/svg">
<path d="M18.1346 0.353914C18.0265 0.383401 17.8496 0.442375 17.7415 0.491521C17.6333 0.540666 17.3778 0.648786 17.1812 0.727418C16.9748 0.806051 16.7389 0.933828 16.6603 1.00263C16.3457 1.25819 15.3333 2.24109 15.3333 2.28041C15.3333 2.3099 15.1171 2.70306 14.8419 3.1552C14.5765 3.60733 14.3504 4.02998 14.3504 4.09879C14.3504 4.15776 14.2816 4.27571 14.203 4.36417C14.1145 4.4428 13.9867 4.66887 13.9081 4.85562C13.8295 5.04238 13.7312 5.2193 13.682 5.24879C13.6329 5.27827 13.5444 5.47485 13.4658 5.69109C13.397 5.91716 13.2987 6.09409 13.2496 6.09409C13.2103 6.09409 13.1709 6.1334 13.1709 6.19238C13.1709 6.28084 12.9252 6.86075 12.4338 7.91246C12.188 8.44323 11.6966 9.74067 11.6966 9.85862C11.6966 9.92742 11.6278 10.1043 11.5491 10.2616C11.4705 10.4189 11.3329 10.7924 11.2444 11.0971C11.1658 11.4018 11.0577 11.736 11.0085 11.8441C10.8415 12.2372 10.4188 13.7214 10.3009 14.3014C10.2419 14.6257 10.1632 14.9108 10.1239 14.9402C10.0846 14.9697 9.99615 15.2941 9.93718 15.6774C9.86837 16.0509 9.77008 16.4539 9.73077 16.562C9.62265 16.7979 9.3376 18.4197 9.3376 18.7932C9.3376 18.9308 9.29829 19.0684 9.25897 19.0881C9.20983 19.0979 9.10171 19.6877 9.01325 20.3954C8.92478 21.0932 8.80684 21.9385 8.75769 22.2629C8.62991 23.059 8.45299 25.4573 8.45299 26.3125C8.45299 26.7056 8.41367 27.0496 8.3547 27.0791C8.29572 27.1184 8.25641 28.3667 8.25641 30.4996C8.25641 32.3475 8.20726 34.1462 8.14829 34.4902C8.04017 35.1783 7.30299 36.8296 7.00812 37.0458C6.95897 37.0753 6.75256 37.3702 6.53632 37.6945C6.32008 38.0189 6.11367 38.3236 6.06453 38.3825C6.02521 38.4317 5.84829 38.6971 5.68119 38.9723C5.5141 39.2377 5.30769 39.5719 5.2094 39.7095C5.12094 39.8471 4.98333 40.1026 4.9047 40.2697C4.8359 40.4467 4.7376 40.5941 4.69829 40.5941C4.6688 40.5941 4.58034 40.7514 4.52137 40.9381C4.46239 41.1249 4.3641 41.2821 4.31496 41.2821C4.26581 41.2821 4.22649 41.3313 4.22649 41.3804C4.22649 41.4394 3.9906 41.98 3.69572 42.5894C3.40085 43.1988 3.12564 43.8082 3.09615 43.9556C3.05684 44.1129 2.98803 44.2308 2.94872 44.2308C2.9094 44.2308 2.82094 44.4372 2.75213 44.6928C2.6735 44.9582 2.56538 45.2531 2.50641 45.3612C2.43761 45.4693 2.32949 45.774 2.26068 46.0492C2.19188 46.3146 2.10342 46.58 2.0641 46.639C2.02478 46.6881 1.90684 47.0911 1.80855 47.5236C1.71025 47.9561 1.60213 48.3296 1.56282 48.359C1.5235 48.3885 1.44487 48.762 1.37607 49.1945C1.30726 49.627 1.22863 50.0202 1.17949 50.0791C1.10085 50.1872 0.933759 51.4355 0.766665 53.1261C0.658545 54.2958 0.629058 57.677 0.727349 58.6304C0.766665 58.9548 0.864955 59.9082 0.943588 60.7437C1.03205 61.5791 1.13034 62.3065 1.16966 62.3655C1.20897 62.4146 1.29743 62.8372 1.36624 63.2894C1.43504 63.7415 1.5235 64.1838 1.57265 64.2723C1.62179 64.3608 1.72991 64.8031 1.81837 65.2454C1.90684 65.6975 2.01496 66.1398 2.05427 66.2283C2.1329 66.3855 2.32949 67.0441 2.71282 68.4103C2.80128 68.7052 2.9094 68.9902 2.94872 69.0492C2.98803 69.0984 3.10598 69.4129 3.19444 69.7372C3.29273 70.0616 3.40085 70.3663 3.44017 70.4253C3.53846 70.5727 3.73504 71.6244 3.73504 72.0667C3.73504 72.2731 3.77436 72.5189 3.8235 72.6172C3.87265 72.7056 3.9906 74.1898 4.07906 75.9001C4.26581 79.468 4.2953 79.5958 5.00299 79.9202C5.4453 80.1167 6.17265 80.1659 6.46752 80.0184C6.55598 79.9693 6.74273 79.8808 6.88034 79.8219C7.01795 79.7531 7.23419 79.5467 7.37179 79.3402C7.58803 79.0061 7.60769 78.8586 7.64701 77.6595C7.67649 76.942 7.71581 76.3915 7.75513 76.4308C7.8141 76.5291 8.32521 76.9518 8.83632 77.3548C9.01325 77.4924 9.25897 77.6988 9.40641 77.8167C9.54401 77.9347 9.7406 78.0625 9.83889 78.092C9.94701 78.1313 10.0256 78.1902 10.0256 78.2197C10.0256 78.259 10.1927 78.377 10.3991 78.4851C10.5957 78.5932 10.8218 78.7308 10.8906 78.7996C11.0675 78.9667 13.5641 80.1757 13.9081 80.2642C14.0752 80.2937 14.3799 80.4116 14.5962 80.5001C14.8124 80.5984 15.2744 80.736 15.6282 80.7949C15.982 80.8637 16.3162 80.9522 16.3654 80.9915C16.4244 81.0308 16.8667 81.1193 17.3483 81.1783C17.8397 81.2373 18.4098 81.3159 18.6261 81.3454C19.2748 81.4535 23.6979 81.4928 23.8256 81.4043C23.8846 81.3552 24.4547 81.2569 25.0936 81.1881C25.7226 81.1193 26.2436 81.021 26.2436 80.9719C26.2436 80.9325 26.3517 80.8932 26.4795 80.8932C26.794 80.8932 28.1013 80.618 28.3568 80.5099C28.465 80.4509 28.7795 80.3526 29.0449 80.2642C29.8803 80.0184 30.7158 79.6941 30.765 79.6155C30.7944 79.5663 30.9517 79.4975 31.109 79.4582C31.4137 79.3894 32.4359 78.8783 32.5342 78.7505C32.5637 78.7112 32.7701 78.5932 33.006 78.4949C33.232 78.3868 33.4188 78.2689 33.4188 78.2197C33.4188 78.1804 33.4679 78.1411 33.5269 78.1411C33.635 78.1411 34.7261 77.4039 35.2372 76.9911C36.7115 75.7821 38.0778 74.4061 38.7167 73.4821C38.7953 73.3642 38.8936 73.2561 38.9329 73.2266C39.0017 73.1774 39.4833 72.4992 39.9748 71.7522C40.1026 71.5655 40.2795 71.3001 40.3778 71.1723C40.6235 70.8283 41.9799 69.4915 42.0782 69.4915C42.1175 69.4915 42.2355 69.4129 42.3338 69.3048C42.432 69.2065 42.6778 69.0689 42.8842 69.0099C43.0808 68.9411 43.2479 68.8526 43.2479 68.8133C43.2479 68.774 43.4838 68.6855 43.7688 68.6167C44.044 68.5381 44.3291 68.4496 44.388 68.4005C44.447 68.3514 44.909 68.2727 45.4299 68.2039C46.4914 68.086 47.8184 68.1941 48.3098 68.4496C48.4769 68.5381 48.6637 68.6069 48.7325 68.6069C49.1551 68.6069 50.8555 69.8945 51.406 70.6219C51.5927 70.8774 51.8286 71.1526 51.9269 71.2411C52.0154 71.3296 52.094 71.4475 52.094 71.5065C52.094 71.5655 52.2218 71.762 52.3889 71.9488C52.5461 72.1355 52.6739 72.3223 52.6838 72.3714C52.6838 72.4402 52.8803 72.6761 53.2538 73.0693C53.3718 73.1971 53.4701 73.3347 53.4701 73.3937C53.4701 73.4428 53.647 73.6394 53.8632 73.8458C54.0795 74.0424 54.2564 74.239 54.2564 74.2881C54.2564 74.4749 56.9987 77.0108 57.4017 77.1975C57.5098 77.2467 57.5983 77.3253 57.5983 77.3646C57.5983 77.4137 57.7359 77.5219 57.9128 77.6103C58.0799 77.6988 58.306 77.8561 58.4141 77.9543C58.532 78.0526 58.6795 78.1411 58.7483 78.1411C58.8171 78.1411 58.8761 78.1804 58.8761 78.2197C58.8761 78.259 59.0628 78.3967 59.2987 78.5146C59.5248 78.6424 59.9769 78.8783 60.3111 79.0552C61.1662 79.5073 62.0803 79.9103 62.2474 79.9103C62.3359 79.9103 62.4244 79.9496 62.4538 79.9988C62.4833 80.0479 62.8077 80.1659 63.1714 80.2642C63.5449 80.3526 63.8889 80.4706 63.9479 80.5099C63.997 80.559 64.4885 80.6672 65.0291 80.7655C65.5598 80.8539 66.0218 80.962 66.0513 81.0014C66.0808 81.0407 66.7393 81.1291 67.5256 81.1881C68.312 81.2471 69.0885 81.3355 69.2555 81.3945C69.6684 81.5125 73.2953 81.5125 73.3739 81.3847C73.4034 81.3355 73.6295 81.2864 73.8752 81.2864C74.4256 81.2864 75.6641 81.1095 75.9295 80.9915C76.0376 80.9424 76.4799 80.8343 76.9124 80.7458C77.3449 80.6475 77.7184 80.5492 77.7479 80.5099C77.7773 80.4706 77.9936 80.3821 78.2393 80.3133C78.7406 80.1659 81.2273 78.9667 81.4141 78.78C81.4829 78.7112 81.6893 78.5834 81.8761 78.4851C82.2004 78.318 82.3184 78.2394 82.6526 77.9445C82.741 77.8659 82.9966 77.6791 83.203 77.5317C83.547 77.2958 83.8615 77.0402 84.4611 76.5193C84.6282 76.3719 84.638 76.4112 84.5791 77.4727C84.412 80.4706 83.9402 85.9749 83.832 86.1518C83.7927 86.2009 83.7436 86.4073 83.7043 86.6039C83.6748 86.8005 83.5273 87.0659 83.3897 87.1937L83.1342 87.4296H46.403H9.66196L9.11154 86.889C8.80684 86.5941 8.55128 86.2992 8.55128 86.2501C8.54145 86.1026 8.13846 85.6702 7.8141 85.4637C7.46025 85.2377 6.28077 85.1885 6.22179 85.3851C6.19231 85.4539 6.11367 85.5129 6.03504 85.5129C5.96624 85.5129 5.77949 85.6898 5.64188 85.9061C5.40598 86.2599 5.38632 86.368 5.42564 87.0364C5.4453 87.4492 5.50427 87.8129 5.56325 87.8522C5.62222 87.8915 5.73034 88.0291 5.79914 88.1667C6.04487 88.6385 6.51666 89.3462 6.60513 89.3462C6.64444 89.3462 6.68376 89.4052 6.68376 89.474C6.68376 89.7001 8.07949 90.9287 8.63974 91.1941L9.19017 91.4595H46.4521C74.4256 91.4595 83.7436 91.43 83.8517 91.3415C83.9303 91.2825 84.1859 91.1843 84.4218 91.1155C84.6577 91.0565 84.9919 90.909 85.159 90.7911C85.6308 90.4667 86.3974 89.7099 86.3974 89.5723C86.3974 89.5133 86.4564 89.415 86.5252 89.3757C86.8594 89.1791 87.3803 87.6261 87.3803 86.8398C87.3803 86.6531 87.4197 86.486 87.459 86.4565C87.5081 86.427 87.5966 85.2377 87.6654 83.8223C87.7342 82.3971 87.8226 81.1488 87.8718 81.0407C87.9209 80.9325 88.0291 79.2223 88.1273 77.2368C88.2256 75.2415 88.3436 73.6197 88.3829 73.6197C88.4222 73.6197 88.4615 73.3052 88.4615 72.9219C88.4615 72.1552 88.6385 70.8774 88.7564 70.7202C88.8055 70.6612 88.9137 70.3368 88.9923 69.983C89.0808 69.6291 89.1987 69.2556 89.2479 69.1475C89.3756 68.8526 89.7295 67.7518 89.9064 67.0834C89.9949 66.759 90.0932 66.474 90.1325 66.4445C90.1718 66.415 90.2799 66.0612 90.3782 65.6582C90.4765 65.2552 90.5846 64.8719 90.6239 64.8227C90.6632 64.7637 90.7517 64.3902 90.8205 63.9872C90.8893 63.5843 90.9876 63.1813 91.0269 63.1026C91.0662 63.0142 91.1744 62.3065 91.2628 61.53C91.3513 60.7437 91.4692 60.0261 91.5184 59.9377C91.6265 59.7313 91.6363 53.2736 91.5282 53.2736C91.4889 53.2736 91.3709 52.5364 91.2726 51.6321C91.1842 50.7278 91.0662 49.9415 91.0269 49.8825C90.9778 49.8334 90.8893 49.4304 90.8205 48.9979C90.7615 48.5655 90.6731 48.1625 90.6239 48.1133C90.5846 48.0543 90.4961 47.73 90.4372 47.3761C90.3684 47.0223 90.2504 46.5996 90.1816 46.4424C90.1128 46.2753 89.985 45.9214 89.9064 45.6561C89.6705 44.8992 89.3068 43.8967 89.238 43.8377C89.2085 43.8082 89.1397 43.6804 89.1102 43.5428C89.0021 43.1791 87.5769 40.309 87.4688 40.2501C87.4197 40.2108 87.3115 40.0338 87.2329 39.8569C87.1641 39.6702 87.0461 39.4637 86.997 39.3949C86.8201 39.1885 86.2008 38.2449 86.2008 38.186C86.2008 38.1565 86.1124 38.0385 86.0043 37.9108C85.6013 37.4684 85.5128 37.3505 85.5128 37.2915C85.5128 37.2522 85.3949 37.0851 85.2474 36.8984C85.0902 36.7214 84.8838 36.4561 84.7756 36.3086C84.6675 36.171 84.5102 35.9744 84.4218 35.8761C84.0876 35.5223 84.0581 35.0407 84.009 30.4702C83.9893 27.4919 83.9303 25.8308 83.8615 25.7031C83.8124 25.5949 83.7043 24.7496 83.6453 23.8355C83.5863 22.9116 83.488 21.9385 83.4389 21.6731C83.3897 21.3979 83.2816 20.6706 83.203 20.0514C83.1145 19.4321 83.0162 18.8522 82.9867 18.7736C82.9474 18.6949 82.8197 18.0954 82.7017 17.4466C82.4167 15.9133 82.1808 14.8419 82.0726 14.5962C82.0235 14.4881 81.9055 14.0458 81.8171 13.6133C81.7286 13.1808 81.6205 12.7778 81.5812 12.7287C81.5419 12.6697 81.4534 12.3847 81.3846 12.0898C81.3158 11.7949 81.2273 11.5296 81.188 11.5001C81.1487 11.4706 81.0406 11.1266 80.9423 10.7334C80.8538 10.3501 80.7359 10.0257 80.6966 10.0257C80.6573 10.0257 80.5885 9.85862 80.5491 9.6522C80.5098 9.45562 80.382 9.06246 80.2543 8.79708C80.1265 8.52186 79.9889 8.18767 79.9594 8.03041C79.9201 7.88297 79.8513 7.76503 79.812 7.76503C79.7726 7.76503 79.7038 7.64708 79.6645 7.48981C79.635 7.34238 79.4679 6.94921 79.3107 6.6052C79.1534 6.27101 79.0256 5.94665 79.0256 5.8975C79.0256 5.83853 78.9863 5.79921 78.9372 5.79921C78.888 5.79921 78.7701 5.57314 78.6718 5.30776C78.5735 5.03255 78.4654 4.81631 78.4261 4.81631C78.3867 4.81631 78.2983 4.65904 78.2393 4.47229C78.1803 4.28554 78.0919 4.12827 78.0427 4.12827C78.0034 4.12827 77.8953 3.96118 77.8068 3.75477C77.6004 3.30263 77.2564 2.72272 77.0303 2.47699C76.9419 2.3787 76.8632 2.26075 76.8632 2.21161C76.8632 2.09366 75.9491 1.18938 75.8214 1.17955C75.7624 1.17955 75.6346 1.09109 75.5461 0.992803C75.4479 0.884683 75.2513 0.776563 75.1137 0.737247C74.9662 0.697931 74.691 0.59964 74.5043 0.511179C74.1013 0.314598 71.988 0.265452 71.8701 0.452205C71.8308 0.511179 71.6735 0.589811 71.5064 0.629128C71.1624 0.717589 70.3466 1.21887 69.9927 1.57272C69.4128 2.13297 68.9705 2.94879 68.656 4.02015L68.4102 4.85562V21.0244C68.4102 30.4407 68.3709 37.439 68.3218 37.7535C68.2628 38.1073 68.1449 38.4022 67.9974 38.5496C67.8697 38.6872 67.5944 39.0018 67.3782 39.2672C67.162 39.5325 66.8474 39.9061 66.6803 40.0928C66.5132 40.2894 66.297 40.5449 66.1889 40.6727C66.0906 40.8005 65.894 41.0266 65.7564 41.174C65.6188 41.3214 65.3141 41.6753 65.0684 41.9603C64.8226 42.2454 64.4197 42.7073 64.1641 42.9825C63.9085 43.2676 63.6923 43.5231 63.6923 43.5526C63.6923 43.5821 63.4859 43.8278 63.2303 44.1031C62.965 44.3684 62.4244 44.9385 62.0115 45.371C61.3628 46.0492 60.1047 47.2189 59.8393 47.386C59.741 47.4449 59.2496 47.8381 58.9842 48.0642C58.8859 48.1428 58.7483 48.2509 58.6598 48.3099C58.5812 48.359 58.2568 48.5851 57.9325 48.8014C57.1953 49.3026 57.1265 49.3419 56.6055 49.627C56.3697 49.7548 56.1534 49.8924 56.1239 49.9317C56.0944 49.971 55.8684 50.0791 55.6128 50.1774C55.3474 50.2757 55.141 50.3838 55.141 50.4231C55.141 50.4625 54.9444 50.5509 54.6987 50.6099C54.453 50.6689 54.2564 50.7573 54.2564 50.8065C54.2564 50.8458 53.9714 50.9637 53.6175 51.062C53.2637 51.1505 52.959 51.2684 52.9295 51.3078C52.9098 51.3471 52.615 51.4355 52.2906 51.5043C51.9662 51.5731 51.7008 51.6616 51.7008 51.7009C51.7008 51.7402 51.1996 51.8484 50.6 51.9368C49.9906 52.0351 49.3812 52.1629 49.2534 52.2219C48.8996 52.3988 42.9333 52.389 42.8744 52.212C42.8547 52.1531 42.7171 52.0941 42.5795 52.0941C42.206 52.0941 40.5547 51.7894 40.4957 51.7009C40.4662 51.6616 40.1714 51.5731 39.8372 51.5043C39.4932 51.4355 39.2179 51.3471 39.2179 51.3176C39.2179 51.2783 38.9329 51.1702 38.5791 51.062C38.2252 50.9637 37.9402 50.8556 37.9402 50.8163C37.9402 50.777 37.7436 50.6885 37.4979 50.6197C37.2521 50.5509 37.0556 50.4625 37.0556 50.4231C37.0556 50.3838 36.8491 50.2757 36.5936 50.1774C36.3282 50.0791 36.1021 49.971 36.0726 49.9317C36.0432 49.8924 35.8466 49.7646 35.6303 49.6467C35.4141 49.5287 35.1192 49.3616 34.9816 49.2633C34.844 49.1749 34.5786 48.9979 34.3919 48.88C33.9004 48.5655 33.6645 48.3787 32.8487 47.7202C32.4457 47.3958 32.0329 47.0714 31.9346 46.9928C31.6791 46.8159 29.3987 44.5257 29.3103 44.3684C29.2709 44.3095 29.035 44.0146 28.7795 43.7197C28.5141 43.4347 28.1603 43.0219 27.9735 42.8056C27.7867 42.5894 27.5017 42.2749 27.3543 42.0979C27.2068 41.9308 26.9906 41.6851 26.8923 41.5573C26.7842 41.4296 26.4303 41.0266 26.106 40.6432C25.7718 40.2697 25.4376 39.8864 25.359 39.7881C25.2803 39.6898 25.0248 39.4146 24.7987 39.1787C24.5628 38.9428 24.3761 38.7167 24.3761 38.6774C24.3761 38.6381 24.2778 38.471 24.1598 38.3039L23.9338 37.9894L23.8846 21.1817L23.8355 4.374L23.5603 3.63682C23.4128 3.23383 23.2556 2.87998 23.2162 2.8505C23.1769 2.82101 23.0786 2.67357 23 2.50648C22.6461 1.79879 21.0932 0.589811 20.5427 0.589811C20.4444 0.589811 20.3462 0.540666 20.3265 0.481692C20.2872 0.373572 18.4885 0.265452 18.1346 0.353914ZM19.7564 4.66887C20.4641 5.18981 20.5329 5.80904 19.9923 6.84109C19.7957 7.2146 19.5991 7.53896 19.5697 7.56844C19.5303 7.59793 19.2453 8.14836 18.9308 8.79708C18.3902 9.91759 18.2722 10.1731 17.8103 11.2052C17.7021 11.4509 17.5547 11.8441 17.4957 12.0898C17.4269 12.3355 17.3385 12.5714 17.2991 12.6304C17.2598 12.6796 17.1615 12.9253 17.0927 13.171C17.0239 13.4167 16.9355 13.6526 16.8962 13.7116C16.8667 13.7608 16.7487 14.1637 16.6504 14.5962C16.5521 15.0287 16.444 15.4022 16.4047 15.4317C16.3654 15.4612 16.2769 15.7659 16.2179 16.1197C16.1491 16.4736 16.0607 16.8078 16.0115 16.8569C15.9722 16.9159 15.8641 17.3975 15.7756 17.9381C15.6872 18.4787 15.5791 19.0095 15.5299 19.1176C15.4808 19.2257 15.3923 19.7368 15.3333 20.2479C15.2645 20.759 15.1761 21.3291 15.1171 21.4962C15.0286 21.7911 14.7534 24.2975 14.547 26.5778C14.5077 27.1184 14.4291 28.6321 14.3897 29.9492L14.3209 32.3377H13.112H11.8932V32.1018C11.8932 31.9642 11.9423 31.8266 11.9915 31.7971C12.0504 31.7578 12.0897 31.2172 12.0897 30.4996C12.0897 28.7009 12.2962 24.9364 12.3944 24.8283C12.4436 24.7693 12.4829 24.5629 12.4829 24.3565C12.4829 23.8159 12.7778 21.0146 12.8466 20.8377C12.8859 20.759 12.994 20.2283 13.0825 19.6582C13.3282 18.1838 13.6526 16.5915 13.7607 16.3655C13.8098 16.2573 13.9081 15.8838 13.9671 15.53C14.0359 15.1761 14.1145 14.8419 14.1538 14.7928C14.1932 14.7338 14.3013 14.4095 14.3897 14.0556C14.4782 13.7018 14.6158 13.2791 14.6846 13.1219C14.7632 12.9548 14.8812 12.5714 14.95 12.2569C15.0188 11.9522 15.1073 11.6966 15.1466 11.6966C15.1859 11.6966 15.2744 11.4706 15.3432 11.2052C15.412 10.93 15.5004 10.7137 15.5299 10.7137C15.5692 10.7137 15.6773 10.4385 15.7756 10.0945C15.8838 9.76032 15.9919 9.46545 16.0214 9.43597C16.0902 9.37699 16.8077 7.8928 16.8077 7.81417C16.8077 7.78468 16.8568 7.70605 16.906 7.63725C17.0141 7.50947 17.6432 6.34964 17.997 5.62229C18.2526 5.08169 18.9209 4.42314 19.206 4.42314C19.3239 4.42314 19.5795 4.53126 19.7564 4.66887ZM73.8457 4.66887C74.0423 4.80648 74.2094 4.96374 74.2094 5.01289C74.2094 5.06203 74.2684 5.16032 74.3372 5.22913C74.5239 5.42571 74.9761 6.22186 75.556 7.37186C75.841 7.94195 76.1162 8.45306 76.1654 8.51203C76.2145 8.57101 76.3325 8.86588 76.4308 9.18041C76.5291 9.48511 76.6372 9.73084 76.6863 9.73084C76.7256 9.73084 76.7649 9.79964 76.7649 9.87827C76.7649 9.95691 76.8731 10.2518 77.0008 10.5368C77.1286 10.8219 77.2662 11.1855 77.2957 11.3526C77.335 11.5099 77.4235 11.7753 77.5021 11.9424C77.6201 12.2274 78.0132 13.4757 78.4261 14.8911C78.5342 15.2646 78.6718 15.8642 78.7406 16.218C78.8094 16.5719 78.888 16.8962 78.9273 16.9552C78.9765 17.0043 79.0649 17.4073 79.1239 17.8398C79.1927 18.2723 79.2812 18.6655 79.3205 18.7244C79.3598 18.7736 79.4679 19.3928 79.5662 20.1005C79.6547 20.7984 79.7628 21.4471 79.812 21.5355C79.8513 21.6142 79.9496 22.3514 80.0184 23.1573C80.0872 23.9633 80.1756 24.6415 80.2149 24.671C80.3132 24.7398 80.5 28.5928 80.5 30.5881V32.3377H79.35H78.1902L78.1705 29.7133C78.1508 28.121 78.1017 27.0496 78.0427 26.9907C77.9936 26.9415 77.9444 26.6368 77.9444 26.3125C77.9444 25.4278 77.6496 22.1843 77.5513 21.968C77.5021 21.8599 77.4137 21.3095 77.3449 20.7394C77.2859 20.1693 77.1778 19.5304 77.109 19.3142C77.0402 19.0979 76.9222 18.5573 76.8534 18.1052C76.7846 17.6629 76.706 17.2992 76.6667 17.2992C76.6372 17.2992 76.5291 16.8766 76.4209 16.3655C76.3226 15.8543 76.2145 15.4317 76.1752 15.4317C76.1457 15.4317 76.0573 15.1466 75.9885 14.7928C75.9197 14.439 75.8312 14.1539 75.7919 14.1539C75.7526 14.1539 75.6641 13.9278 75.6051 13.6625C75.5363 13.3872 75.3987 12.9646 75.2906 12.7287C75.1825 12.4928 75.094 12.2372 75.094 12.1684C75.094 12.0898 75.035 11.9522 74.9564 11.8441C74.8876 11.736 74.7697 11.4706 74.7008 11.2543C74.632 11.0479 74.4748 10.6646 74.3568 10.4189C74.2389 10.1731 74.0128 9.71118 73.8555 9.38682C73.7081 9.06246 73.5508 8.77742 73.5214 8.74793C73.4919 8.71844 73.4034 8.54152 73.3248 8.35477C73.256 8.16802 73.138 7.94195 73.0791 7.86332C73.0201 7.78468 72.9021 7.55862 72.8333 7.37186C72.7547 7.18511 72.6662 7.00819 72.6269 6.9787C72.509 6.89024 72.2436 5.99579 72.2436 5.67144C72.2534 5.25861 72.4205 4.97357 72.8333 4.66887C73.2461 4.36417 73.3838 4.36417 73.8457 4.66887ZM20.3265 30.077L20.297 34.9817L20.0906 34.8637C19.9726 34.7949 19.6876 34.6377 19.4517 34.5099C19.2158 34.3821 18.9996 34.2445 18.9701 34.2052C18.9406 34.1659 18.7342 34.0381 18.5179 33.93C18.2722 33.8022 18.0855 33.6253 18.0462 33.4975C17.8987 32.9372 18.0953 25.9095 18.2722 25.5065C18.3214 25.3984 18.4197 24.671 18.4786 23.8847C18.5474 23.0984 18.6261 22.4398 18.6654 22.4103C18.7047 22.3808 18.8128 21.7518 18.9111 21.0048C19.0094 20.2676 19.1273 19.6582 19.1568 19.6582C19.1962 19.6582 19.2846 19.2945 19.3632 18.8424C19.432 18.4001 19.5205 17.9872 19.5598 17.9381C19.609 17.8791 19.7171 17.4565 19.8154 16.9749C19.9137 16.5031 20.0218 16.1197 20.0611 16.1197C20.1004 16.1197 20.1692 15.933 20.2184 15.6971C20.3068 15.2253 20.3658 22.4398 20.3265 30.077ZM72.6073 16.5325C72.6662 16.6014 72.7645 16.9454 72.8333 17.2992C72.9021 17.6531 72.9906 17.9578 73.0299 17.9872C73.0692 18.0167 73.1773 18.4984 73.2658 19.0684C73.3641 19.6385 73.482 20.1398 73.5214 20.1988C73.5607 20.2479 73.6491 20.759 73.7179 21.3291C73.7966 21.8992 73.885 22.3808 73.9145 22.4103C73.9932 22.4595 74.3077 25.6441 74.3077 26.3518C74.3077 26.5975 74.3568 26.8432 74.406 26.8924C74.4649 26.9514 74.5338 28.2586 74.5731 30.1851L74.632 33.3697L74.3667 33.6843C74.2192 33.8612 74.0325 34.0086 73.9637 34.0086C73.885 34.0086 73.7671 34.0676 73.6983 34.1364C73.6295 34.2052 73.4132 34.3428 73.2265 34.4313C73.0397 34.5296 72.735 34.6967 72.5679 34.8048L72.2436 35.0112V25.7129C72.2436 17.8791 72.2632 16.4146 72.3812 16.4146C72.45 16.4146 72.5581 16.4736 72.6073 16.5325ZM15.6577 36.9475C16.0017 37.1146 16.3261 37.2522 16.385 37.2522C16.444 37.2522 16.5128 37.2915 16.5325 37.3407C16.5521 37.38 16.7585 37.5176 17.0043 37.6355C17.25 37.7535 17.535 37.9009 17.6432 37.9697C18.0363 38.2155 18.7244 38.6774 18.8325 38.7757C18.9013 38.8249 19.1175 39.0018 19.3239 39.1689C19.8154 39.562 21.0538 40.8005 22.2628 42.1078C22.8034 42.6975 23.3342 43.2774 23.4423 43.3954C23.5504 43.5035 23.7568 43.759 23.9043 43.9458C24.0419 44.1325 24.2974 44.4372 24.4645 44.624C24.6316 44.8108 24.8577 45.0761 24.9658 45.2137C25.0739 45.3514 25.2607 45.5774 25.3885 45.7249C25.5064 45.8625 25.6932 46.0885 25.7914 46.2163C26.7842 47.4056 28.1013 48.7719 29.2218 49.7548C29.6051 50.089 29.9786 50.4133 30.0376 50.4723C30.0966 50.5214 30.2932 50.6787 30.4603 50.8163C30.6372 50.9539 30.8534 51.1308 30.9517 51.2095C31.0402 51.2881 31.3842 51.5338 31.7085 51.7501C32.0231 51.9663 32.3081 52.1629 32.3376 52.2022C32.3671 52.2317 32.544 52.3398 32.7308 52.4479C32.9175 52.5462 33.1534 52.7133 33.2615 52.8018C33.3697 52.9001 33.5171 52.9787 33.5859 52.9787C33.6547 52.9787 33.7137 53.018 33.7137 53.0573C33.7137 53.1065 33.9004 53.2244 34.1363 53.3325C34.3624 53.4308 34.5688 53.539 34.5983 53.5783C34.6769 53.6667 36.1414 54.3548 36.2594 54.3548C36.3184 54.3548 36.3675 54.3941 36.3675 54.4334C36.3675 54.4825 36.5543 54.5808 36.7902 54.6496C37.0162 54.7283 37.2914 54.8364 37.3996 54.9052C37.5077 54.9642 37.7731 55.0723 37.9893 55.1411C38.2056 55.2001 38.5201 55.318 38.6773 55.3868C38.8444 55.4556 39.2278 55.5736 39.5423 55.6424C39.847 55.7112 40.1026 55.7996 40.1026 55.8488C40.1026 55.8881 40.1714 55.9274 40.25 55.9274C40.3188 55.9274 40.6137 55.9766 40.8987 56.0355L41.4 56.1437L41.3312 57.4313C41.2919 58.139 41.2231 58.7877 41.1838 58.8663C41.1346 58.9548 41.0265 59.633 40.938 60.3702C40.8397 61.1172 40.7316 61.7266 40.7021 61.7266C40.6628 61.7266 40.5744 62.0509 40.5056 62.4343C40.4367 62.8274 40.3188 63.2599 40.25 63.3975C40.1812 63.5351 40.0731 63.8595 40.0141 64.1347C39.9453 64.4001 39.8568 64.6655 39.8077 64.7244C39.7684 64.7736 39.6504 65.0783 39.562 65.383C39.4735 65.6975 39.3654 65.9531 39.3261 65.9531C39.2769 65.9531 39.1885 66.1496 39.1197 66.3954C39.0508 66.6411 38.9526 66.8377 38.9132 66.8377C38.8641 66.8377 38.8248 66.8868 38.8248 66.9458C38.8248 67.0441 38.2842 68.0565 37.9107 68.6561C37.6551 69.0689 37.1833 69.7667 37.0752 69.8945C37.0064 69.9731 36.8098 70.2189 36.6329 70.4449C35.7581 71.5851 34.7359 72.6172 33.7923 73.3249C33.6842 73.4035 33.5171 73.5411 33.4286 73.6197C33.3402 73.6984 33.1338 73.8556 32.9765 73.9539C32.8192 74.062 32.6423 74.18 32.5833 74.2291C32.4064 74.3766 31.8068 74.7402 31.5021 74.8975C31.3449 74.9761 31.1876 75.0646 31.1581 75.0941C31.1286 75.1236 30.7551 75.3202 30.3226 75.5266C29.8902 75.733 29.4282 75.9492 29.2906 76.018C29.153 76.0868 28.9171 76.1753 28.75 76.2146C28.5927 76.2539 28.2782 76.3719 28.0521 76.4702C27.8261 76.5783 27.4624 76.6864 27.2363 76.7257C27.0201 76.765 26.8333 76.824 26.8333 76.8633C26.8333 76.9026 26.3517 77.0206 25.7521 77.1189C25.1624 77.2172 24.6709 77.3351 24.6709 77.3744C24.6709 77.4137 23.806 77.4531 22.7543 77.4531C21.5453 77.4531 20.8376 77.4137 20.8376 77.3548C20.8376 77.2958 20.1791 77.2565 19.0585 77.2565C17.3385 77.2565 15.9231 77.0796 15.9231 76.8633C15.9231 76.824 15.7068 76.7257 15.4316 76.6569C15.1662 76.5881 14.9402 76.4996 14.9402 76.4603C14.9402 76.421 14.8222 76.362 14.6748 76.3325C14.3897 76.2637 13.1611 75.6838 13.0726 75.5757C13.0432 75.5462 12.8662 75.4381 12.6795 75.3398C12.4927 75.2415 12.3158 75.1334 12.2863 75.0941C12.2568 75.0548 12.0897 74.9467 11.9226 74.8582C11.7457 74.7697 11.5983 74.6616 11.5983 74.6125C11.5983 74.5731 11.4902 74.4847 11.3624 74.4257C11.1068 74.3078 10.9397 74.1702 10.1043 73.3445C9.35726 72.6073 8.74786 71.9488 8.74786 71.88C8.74786 71.8505 8.62008 71.6637 8.45299 71.4573C8.29572 71.2509 8.15812 71.0543 8.15812 71.015C8.15812 70.9855 8.05 70.8086 7.91239 70.6317C7.77478 70.4548 7.66666 70.2582 7.66666 70.1992C7.66666 70.1402 7.60769 70.0321 7.54872 69.9633C7.39145 69.8061 6.68376 68.371 6.68376 68.2236C6.68376 68.1646 6.64444 68.1155 6.60513 68.1155C6.56581 68.1155 6.44786 67.8402 6.34957 67.4962C6.25128 67.162 6.13333 66.8377 6.09402 66.7885C6.0547 66.7296 5.96624 66.4445 5.89743 66.1496C5.82863 65.8548 5.74017 65.5599 5.69102 65.5108C5.65171 65.4518 5.54359 65.0095 5.45513 64.5278C5.36666 64.0364 5.25855 63.5548 5.2094 63.4467C5.16025 63.3385 5.07179 62.8766 5.01282 62.4146C4.95384 61.9526 4.85555 61.2941 4.79658 60.9402C4.74743 60.5864 4.65897 59.9672 4.61966 59.5642C4.51154 58.6009 4.51154 54.2172 4.61966 53.2736C4.74743 52.1137 5.10128 50.0005 5.18974 49.8334C5.23889 49.7548 5.35684 49.3026 5.45513 48.821C5.55342 48.3492 5.66154 47.9659 5.70085 47.9659C5.74017 47.9659 5.80897 47.7988 5.84829 47.5924C5.8876 47.3958 5.99572 47.0518 6.09402 46.8355C6.19231 46.6095 6.31025 46.3048 6.34957 46.1475C6.38889 45.9804 6.47735 45.7445 6.54615 45.6069C6.61496 45.4693 6.93931 44.8108 7.2735 44.1325C8.00085 42.6385 8.26624 42.1569 8.41367 41.9996C8.47265 41.9407 8.58077 41.7539 8.64957 41.5868C8.71837 41.4197 8.80684 41.2821 8.84615 41.2821C8.88547 41.2821 8.97393 41.1445 9.04273 40.9872C9.11154 40.8202 9.19017 40.6924 9.22948 40.6924C9.2688 40.6924 9.37692 40.5449 9.48504 40.368C9.58333 40.2009 9.69145 40.0338 9.73077 40.0043C9.83889 39.9257 10.9103 38.3531 10.9103 38.2744C10.9103 38.186 11.962 37.1539 12.0504 37.1539C12.0897 37.1539 12.1979 37.0949 12.2765 37.0163C12.591 36.7313 13.3872 36.5642 14.2226 36.6035C14.8714 36.633 15.1466 36.7018 15.6577 36.9475ZM79.3008 36.7804C79.5564 36.8394 79.8218 36.9573 79.8906 37.0261C79.9594 37.0949 80.0872 37.1539 80.1658 37.1539C80.3231 37.1539 81.7778 38.5398 81.7778 38.6872C81.7778 38.7364 81.9744 38.9919 82.2201 39.2672C82.4658 39.5325 82.6624 39.7783 82.6624 39.8078C82.6624 39.8372 82.7705 39.9847 82.9081 40.1518C83.2816 40.6137 83.4192 40.8005 83.7632 41.3313C84.2547 42.0881 84.3137 42.1864 84.5004 42.5599C84.5889 42.7467 84.697 42.9236 84.7265 42.9531C84.8543 43.0612 85.906 45.3612 85.906 45.5381C85.906 45.6069 85.9649 45.7445 86.0436 45.8526C86.1222 45.9608 86.2402 46.2458 86.309 46.4915C86.3778 46.7372 86.4662 46.9535 86.4957 46.983C86.5252 47.0125 86.6432 47.3368 86.7414 47.7202C86.8397 48.0937 86.9577 48.477 87.0068 48.5556C87.1149 48.762 87.459 50.2757 87.6555 51.4552C87.744 51.9958 87.8521 52.4872 87.8914 52.5462C87.9308 52.6052 88.0192 53.5488 88.088 54.63C88.1765 56.2125 88.1765 57.0184 88.0782 58.6501C88.0094 59.7706 87.9308 60.7338 87.8914 60.7928C87.8521 60.842 87.7538 61.3334 87.6654 61.874C87.4688 63.0731 87.1149 64.6753 86.997 64.8719C86.9577 64.9505 86.8397 65.3731 86.7316 65.8056C86.6333 66.2381 86.5252 66.6116 86.4859 66.6411C86.4564 66.6706 86.3679 66.8672 86.309 67.0834C86.2402 67.2996 86.1026 67.6535 86.0141 67.8697C85.9158 68.086 85.8077 68.3907 85.7684 68.5578C85.7291 68.715 85.6602 68.8723 85.6308 68.9018C85.5914 68.9313 85.4047 69.2556 85.2179 69.639C85.0312 70.0125 84.8051 70.4351 84.7265 70.5727C84.3432 71.1625 83.8812 71.821 83.7239 71.9881C83.6256 72.0962 83.547 72.2142 83.547 72.2535C83.547 72.4894 80.8735 74.8975 80.6081 74.8975C80.559 74.8975 80.4705 74.9565 80.4312 75.0155C80.2936 75.2317 78.1017 76.3719 77.8265 76.3719C77.7282 76.3719 77.6496 76.4112 77.6496 76.4505C77.6496 76.4996 77.4137 76.5881 77.1385 76.6569C76.8534 76.7355 76.5684 76.824 76.5094 76.8731C76.3914 76.9616 74.809 77.2565 74.4158 77.2565C74.2684 77.2565 74.0914 77.3155 74.0325 77.3843C73.8555 77.5514 68.2628 77.5514 67.909 77.3941C67.7812 77.3253 67.2209 77.1975 66.6705 77.0992C66.1102 77.0108 65.6581 76.9026 65.6581 76.8633C65.6581 76.824 65.4026 76.7355 65.0979 76.6667C64.7833 76.5979 64.4393 76.4898 64.3312 76.421C64.2231 76.3522 63.9184 76.2441 63.6432 76.1753C63.3778 76.0967 63.132 76.018 63.1026 75.9787C63.0239 75.8902 61.5791 75.1924 61.4611 75.1924C61.4021 75.1924 61.3333 75.1629 61.3137 75.1137C61.3038 75.0744 60.9991 74.868 60.6453 74.6518C60.2914 74.4454 59.9474 74.2095 59.8786 74.1407C59.8 74.0719 59.6526 73.9637 59.5444 73.9048C59.338 73.7967 59.338 73.7967 58.4043 73.0202C57.2444 72.0667 55.9175 70.5629 55.0722 69.2458C54.8953 68.9804 54.7085 68.6855 54.6496 68.6069C54.2073 67.9582 52.9786 65.3928 52.9786 65.1176C52.9786 65.039 52.9393 64.9702 52.9 64.9702C52.8508 64.9702 52.7329 64.636 52.6346 64.233C52.5265 63.83 52.4184 63.4958 52.3791 63.4958C52.3496 63.4958 52.2414 63.1125 52.1432 62.6308C52.0547 62.159 51.9367 61.7069 51.8974 61.6283C51.8581 61.5496 51.7598 61.0582 51.691 60.5471C51.6222 60.036 51.5338 59.5937 51.4944 59.5642C51.4355 59.515 51.2094 57.0872 51.2094 56.4582C51.2094 56.1731 51.2389 56.1535 51.7795 56.0257C52.0842 55.9569 52.3889 55.8684 52.438 55.8291C52.497 55.7898 52.782 55.7014 53.0769 55.6325C53.3718 55.5637 53.8043 55.4261 54.0303 55.3278C54.2564 55.2197 54.5021 55.1411 54.5709 55.1411C54.6397 55.1411 54.856 55.0526 55.0526 54.9543C55.2393 54.8462 55.5833 54.7086 55.8094 54.6398C56.0355 54.571 56.2222 54.4825 56.2222 54.4334C56.2222 54.3941 56.2714 54.3548 56.3402 54.3548C56.4581 54.3548 57.9128 53.6569 57.9914 53.5586C58.0209 53.5291 58.2175 53.421 58.4338 53.3129C58.65 53.2146 58.8859 53.077 58.9547 53.0082C59.0235 52.9394 59.1218 52.8804 59.1709 52.8804C59.2201 52.8804 59.3184 52.8214 59.3872 52.7526C59.456 52.6838 59.682 52.5462 59.8786 52.4578C60.0752 52.3693 60.2521 52.2514 60.2718 52.212C60.2914 52.1727 60.5667 51.9663 60.8812 51.7501C61.5201 51.3176 61.7068 51.18 62.0607 50.836C62.1885 50.718 62.3261 50.6197 62.3752 50.6197C62.4244 50.6197 62.6308 50.4428 62.8372 50.2266C63.0338 50.0103 63.2303 49.8334 63.2697 49.8334C63.3581 49.8334 65.7564 47.4449 65.7564 47.3663C65.7564 47.327 65.9432 47.1009 66.1791 46.8552C66.4051 46.6193 66.7688 46.2065 66.985 45.9509C67.2013 45.6954 67.4667 45.3907 67.5846 45.2629C67.6927 45.1449 67.9581 44.8304 68.1744 44.565C68.3808 44.3095 68.6461 44.0048 68.7543 43.8868C68.8624 43.7689 69.1966 43.3954 69.4914 43.0612C70.7004 41.6851 71.1624 41.1838 72.2731 40.083C72.912 39.4441 73.4722 38.9231 73.5214 38.9231C73.5705 38.9231 73.6786 38.8445 73.7769 38.7462C73.8752 38.6578 74.1701 38.4415 74.4453 38.2646C74.7205 38.0877 74.9957 37.9108 75.0449 37.8714C75.1038 37.8223 75.3004 37.724 75.4872 37.6454C75.6739 37.5766 75.9 37.4586 75.9786 37.3996C76.2342 37.2031 77.0008 36.7804 77.2073 36.7313C77.5906 36.6428 78.8487 36.6625 79.3008 36.7804ZM47.3761 56.7531C47.3761 56.8907 47.4154 57.0184 47.4547 57.0479C47.5038 57.0774 47.6021 57.5492 47.6709 58.1095C47.7397 58.6697 47.8282 59.1415 47.8577 59.171C47.897 59.2005 48.0051 59.8197 48.1034 60.5471C48.2017 61.2744 48.3197 61.9133 48.359 61.9723C48.3983 62.0214 48.4867 62.5227 48.5555 63.0731C48.6244 63.6334 48.7226 64.0855 48.7718 64.0855C48.8111 64.0855 48.8504 64.2035 48.8504 64.3411C48.8504 64.5377 48.8111 64.5868 48.6833 64.5377C48.5949 64.4984 48.2607 64.4492 47.9461 64.4099C47.6316 64.3804 47.3761 64.3116 47.3761 64.2723C47.3761 64.1543 45.2432 64.1543 45.1744 64.2723C45.1449 64.3116 44.8795 64.3804 44.5846 64.4197C44.2897 64.4492 43.985 64.5082 43.8966 64.5377C43.7197 64.6065 43.6705 64.3018 43.8278 64.1249C43.8671 64.0757 43.985 63.4368 44.0833 62.7095C44.1816 61.9821 44.2897 61.3629 44.3291 61.3334C44.3684 61.3039 44.4667 60.8223 44.5551 60.2522C44.6436 59.6821 44.8107 58.6108 44.9385 57.8637L45.1547 56.5172H46.2654H47.3761V56.7531Z" fill="#424242"/>
</svg>
