<svg width="54" height="92" viewBox="0 0 54 92" fill="none" xmlns="http://www.w3.org/2000/svg">
<g clip-path="url(#clip0_201_7)">
<path d="M24.2331 91.9108C23.4105 91.7752 21.4497 91.1777 19.876 90.5837C15.0673 88.7684 11.8993 88.8546 7.43874 90.9218C6.23881 91.4776 4.81283 91.9325 4.26987 91.9319C3.13377 91.9307 1.78951 91.1085 1.16067 90.0309C0.245738 88.4626 0.36003 87.3052 1.96321 81.8984C2.79409 79.0964 3.70688 76.4716 3.99159 76.0649C4.99371 74.6339 7.11172 75.3647 7.11172 77.1407C7.11172 77.5422 6.57705 79.6616 5.92337 81.8502C4.65215 86.1066 4.53662 86.8245 5.08486 87.061C5.27727 87.1437 6.5505 86.7916 7.91428 86.2786C12.3273 84.6182 16.1957 84.7227 21.1077 86.6337C25.6961 88.4197 28.3569 88.3675 33.5114 86.3913C38.2012 84.5935 42.5929 84.7139 47.3169 86.7699C49.8584 87.8762 50.0627 88.9098 42.9779 64.7982C39.4795 52.8912 36.4333 42.9118 36.2088 42.6218C35.8509 42.1595 35.3904 42.1045 32.4829 42.1769L29.1653 42.2595L28.7018 43.3659C27.8986 45.2832 25.936 45.2832 25.1329 43.3659L24.6694 42.2595L21.4073 42.1759C19.3067 42.1222 18.0199 42.2091 17.7934 42.4203C17.5999 42.6006 15.761 48.4102 13.7069 55.3305C9.85143 68.3197 9.65813 68.8016 8.30008 68.8016C8.00164 68.8016 7.48057 68.5839 7.14233 68.3174C6.60795 67.8972 6.54986 67.6735 6.6996 66.6124C6.79431 65.9409 8.54881 59.6526 10.5984 52.6391L14.325 39.887L13.6404 36.0318C13.2639 33.9115 12.4613 29.5075 11.8569 26.2454C10.6186 19.5615 10.591 17.9815 11.6674 15.3643C12.4709 13.4106 13.7523 11.9816 15.7444 10.8177L17.2787 9.92145L17.4426 5.47968C17.5328 3.03673 17.6218 1.01411 17.6407 0.984997C18.0387 0.366587 18.674 0.000911255 19.344 0.00453524C21.1034 0.014047 21.3718 0.777299 21.3718 5.77393V9.80747L22.5541 10.3766C23.2043 10.6896 24.3951 11.4189 25.2 11.9972C26.0049 12.5754 26.7829 13.0485 26.9289 13.0485C27.075 13.0485 27.9342 12.5297 28.8383 11.8955C29.7425 11.2615 30.7795 10.6451 31.1425 10.526C32.643 10.0337 32.727 9.75072 32.727 5.18975C32.727 0.511172 32.8997 0 34.4798 0C36.147 0 36.2781 0.362978 36.4241 5.38417L36.5562 9.92773L37.8723 10.6285C39.906 11.7115 41.0125 12.8562 41.9648 14.8625C43.4326 17.9553 43.3871 19.0199 41.307 30.2901L39.525 39.9444L46.4249 63.2064C50.6203 77.3502 53.3249 86.9113 53.3249 87.5986C53.3249 89.2725 52.6201 90.6847 51.4504 91.3544C50.0291 92.169 48.9997 92.0804 46.4442 90.9242C41.8733 88.8558 38.7121 88.7631 34.0447 90.5626C30.0581 92.0986 27.504 92.4502 24.2331 91.9108ZM25.1392 36.6896C25.7429 35.2483 26.6046 34.7763 27.701 35.2864C28.2138 35.525 28.5688 35.946 28.6736 36.44C28.9806 37.8869 29.1627 37.9594 32.4892 37.9594C35.448 37.9594 35.6402 37.9229 35.9958 37.2921C36.6078 36.2064 39.4092 20.2816 39.2563 18.7578C39.0919 17.1213 37.9963 15.5157 36.4087 14.5851C34.5814 13.5139 33.268 13.8112 30.1498 16.0019C28.7474 16.9873 27.2978 17.7921 26.9286 17.7902C26.5592 17.7884 25.1347 16.9887 23.7629 16.0133C21.1385 14.1475 20.0973 13.7513 18.6302 14.0604C16.6558 14.4763 14.5058 17.2366 14.5058 19.3555C14.5058 20.6321 17.6508 37.1249 17.9788 37.5687C18.2113 37.8831 19.0147 37.9579 21.475 37.8942L24.6694 37.8112L25.1392 36.6896Z" fill="#424242"/>
</g>
<defs>
<clipPath id="clip0_201_7">
<rect width="53.9108" height="92" fill="white"/>
</clipPath>
</defs>
</svg>
