<svg width="24" height="24" viewBox="0 0 24 24" fill="none" xmlns="http://www.w3.org/2000/svg">
<path fill-rule="evenodd" clip-rule="evenodd" d="M5.69396 1.79167C11.3211 -1.68974 18.7293 0.057686 22.2091 5.6869C25.6889 11.316 23.9425 18.727 18.3155 22.2083C12.6884 25.6897 5.28021 23.9424 1.80031 18.3131C-0.56675 14.484 -0.601903 9.70118 1.70825 5.83384C1.71415 5.82396 1.72063 5.81296 1.72767 5.80103C1.78671 5.70095 1.88455 5.53507 2.00035 5.41167C2.06695 5.34069 2.16985 5.24933 2.31064 5.20174C2.47211 5.14717 2.64793 5.16264 2.80527 5.25672C2.95058 5.34361 3.07148 5.49347 3.08149 5.69933C3.08948 5.86375 3.02044 5.99757 2.97982 6.0674C2.93666 6.14158 2.88197 6.21397 2.8433 6.26514L2.83836 6.27168C2.79259 6.3323 2.76357 6.37139 2.74338 6.40518C0.764485 9.718 0.71996 14.3215 2.74023 17.5896C5.7236 22.4157 12.1926 24.5875 17.8946 21.0598C22.6983 18.0878 24.2365 11.2257 21.2597 6.41035C17.9774 1.10077 11.2214 -0.236215 6.41044 2.74021C6.3749 2.76219 6.33523 2.7923 6.27402 2.83881L6.27156 2.84068C6.21941 2.88032 6.14514 2.93677 6.06794 2.98124C5.99659 3.02234 5.86319 3.08961 5.69962 3.0811C5.49759 3.07059 5.34836 2.9537 5.25975 2.81037C5.19249 2.70157 5.14384 2.56434 5.16095 2.40886C5.17785 2.25529 5.25271 2.14112 5.3215 2.06535C5.38767 1.99245 5.46424 1.93735 5.52261 1.89855C5.56438 1.87078 5.61334 1.84093 5.65408 1.81609C5.66866 1.8072 5.68219 1.79895 5.69396 1.79167ZM2.59984 5.9437C2.59984 5.94371 2.59953 5.94396 2.59892 5.9444C2.59953 5.9439 2.59984 5.94368 2.59984 5.9437Z" fill="white"/>
<path d="M15.6043 12.5273L12 16.1317L8.39566 12.5273L9.05859 11.8644L11.5312 14.3371V6H12.4688V14.3371L14.9414 11.8644L15.6043 12.5273ZM18 17.0625H6V18H18V17.0625Z" fill="white"/>
</svg>
