<svg xmlns="http://www.w3.org/2000/svg" viewBox="0 0 269.07 268.7"><defs><style>.cls-1{fill:#f73fd2;}.cls-2{fill:#f63ed6;}.cls-3{fill:#f036ef;}.cls-4{fill:#fe5b6f;}.cls-5{fill:#f53dda;}.cls-6{fill:#fe5c6b;}.cls-7{fill:#fe46b7;}.cls-8{fill:#f43bde;}.cls-9{fill:#fe5f5f;}.cls-10{fill:#fa42c7;}.cls-11{fill:#f840ce;}.cls-12{fill:#f941ca;}.cls-13{fill:#fe5e63;}.cls-14{fill:#fe45bb;}.cls-15{fill:#f33ae3;}.cls-16{fill:#fe663f;}.cls-17{fill:#fe5d67;}.cls-18{fill:#fe567f;}.cls-19{fill:#fe47b4;}.cls-20{fill:#fe49b0;}.cls-21{fill:#fe4aac;}.cls-22{fill:#ef35f2;}.cls-23{fill:#fc43c3;}.cls-24{fill:#fe683a;}.cls-25{fill:#fe4f9a;}.cls-26{fill:#fe4da1;}.cls-27{fill:#fe5192;}.cls-28{fill:#fe5487;}.cls-29{fill:#fe4ca5;}.cls-30{fill:#fe4e9e;}.cls-31{fill:#fe528e;}.cls-32{fill:#fe577a;}.cls-33{fill:#fe4ba9;}.cls-34{fill:#f53ddd;}.cls-35{fill:#fe538b;}.cls-36{fill:#fe5096;}.cls-37{fill:#fe6157;}.cls-38{fill:#fe5583;}.cls-39{fill:#fd44c0;}.cls-40{fill:#fe634f;}.cls-41{fill:#fe6254;}.cls-42{fill:#fe605a;}.cls-43{fill:#f23ae5;}.cls-44{fill:#f138ec;}.cls-45{fill:#f137eb;}.cls-46{fill:#f238e8;}.cls-47{fill:#fe6935;}.cls-48{fill:#fd44be;}.cls-49{fill:#fe5977;}.cls-50{fill:#fe6546;}.cls-51{fill:#f941cb;}.cls-52{fill:#f238e7;}.cls-53{fill:#fe634e;}.cls-54{fill:#fe45bc;}.cls-55{fill:#f239e7;}.cls-56{fill:#f43cdf;}.cls-57{fill:#fc44c1;}.cls-58{fill:#fe5a73;}.cls-59{fill:#fe644c;}.cls-60{fill:#f63ed7;}.cls-61{fill:#f33be3;}.cls-62{fill:#fc44c0;}.cls-63{fill:#fe6154;}.cls-64{fill:#fe577b;}.cls-65{fill:#f53ddb;}.cls-66{fill:#fe6355;}.cls-67{fill:#fe538a;}.cls-68{fill:#fe605f;}.cls-69{fill:#fc44c2;}.cls-70{fill:#fe5586;}.cls-71{fill:#fe5c6e;}.cls-72{fill:#fe5979;}.cls-73{fill:#fe5292;}.cls-74{fill:#fe615a;}.cls-75{fill:#f73fd3;}.cls-76{fill:#f63fd7;}.cls-77{fill:#f740d3;}.cls-78{fill:#fe48b4;}.cls-79{fill:#fe6060;}.cls-80{fill:#fe5e69;}.cls-81{fill:#fa43c7;}.cls-82{fill:#f942cb;}.cls-83{fill:#fe577f;}.cls-84{fill:#f841ce;}.cls-85{fill:#fe4cb0;}.cls-86{fill:#f841cf;}.cls-87{fill:#fe5b74;}.cls-88{fill:#fe5d69;}.cls-89{fill:#fe5b70;}.cls-90{fill:#fe5e64;}.cls-91{fill:#fe538f;}.cls-92{fill:#fe587c;}.cls-93{fill:#fe5f65;}.cls-94{fill:#fe548b;}.cls-95{fill:#fe5c6c;}.cls-96{fill:#fd46bd;}.cls-97{fill:#fe4bad;}.cls-98{fill:#fe5680;}.cls-99{fill:#fe5587;}.cls-100{fill:#fe4ca9;}.cls-101{fill:#fe509a;}.cls-102{fill:#fc45c1;}.cls-103{fill:#fe46b9;}.cls-104{fill:#fe538e;}.cls-105{fill:#fe4da6;}.cls-106{fill:#fe4ab1;}.cls-107{fill:#fc44c4;}.cls-108{fill:#fe4f9e;}.cls-109{fill:#fe5a74;}.cls-110{fill:#fe5684;}.cls-111{fill:#fe5196;}.cls-112{fill:#fe5a78;}.cls-113{fill:#fe558b;}.cls-114{fill:#fe5393;}.cls-115{fill:#fe48b8;}.cls-116{fill:#fe6552;}.cls-117{fill:#f541db;}.cls-118{fill:#fe5598;}.cls-119{fill:#fe46b8;}.cls-120{fill:#fefefe;}.cls-121{fill:#fd44bd;}.cls-122{fill:#fe5191;}.cls-123{fill:#fe528d;}.cls-124{fill:#fe4e9d;}.cls-125{fill:#fe5588;}</style></defs><title>ajudaicon</title><g id="Camada_2" data-name="Camada 2"><g id="Camada_1-2" data-name="Camada 1"><path class="cls-1" d="M161,239.44c-2.61.72-5.19,1.64-8,1.4-6.69-4.91-13-10.27-19.46-15.52-26.92-22-53.76-44.12-80.79-66-7.89-6.39-15.61-13-23.61-19.23-1.13-.89-2.59-1.64-2.64-3.42.23-2.65-.5-5.35.47-7.95l0,0c2.18-1.41,3.41.42,4.73,1.49,20.14,16.38,40.15,32.92,60.32,49.26,11.38,9.22,22.41,18.86,34.27,27.47a43.46,43.46,0,0,0,6.38,5.33c7.35,7.5,16.14,13.29,23.93,20.26C158.66,234.36,162.12,235.54,161,239.44Z"/><path class="cls-2" d="M27.16,137.75C34,141,39.07,146.59,44.86,151.2,62.73,165.44,80.37,180,98.08,194.4q24.84,20.25,49.61,40.59c2,1.67,3.59,3.89,5.37,5.85a35.57,35.57,0,0,1-11.91,1.61c.43-2.38-1.14-3.62-2.72-4.89-29.73-24-59.11-48.45-88.84-72.45q-8.52-6.88-17-13.91c-1.44-1.2-2.89-2.46-4.62-.39C26.5,147.3,27.09,143.59,27,140A1.6,1.6,0,0,1,27.16,137.75Z"/><path class="cls-3" d="M20.94,205.79a78.62,78.62,0,0,1-10.23-19.95c2.3-2,4-.28,5.65,1,7.06,5.51,13.89,11.29,20.94,16.81,8.72,11.1,18.33,21.27,30.13,29.24,5.64,3.81,11.7,6.84,17.61,10.15,6.19,5.82,13,10.86,19.52,16.33,1.66,1.4,3.51,2.69,4.33,4.75.74,1.89-.14,2.46-2,1.66a75.51,75.51,0,0,1-23-7c-1-4-4.59-5.52-7.32-7.73C58.06,236,39.83,220.48,20.94,205.79Z"/><path class="cls-4" d="M110.05,29.76c2.47-1.39,5.22-1.56,8-1.8,8.13,9.39,18.42,16.29,27.9,24.09,31.19,25.7,62.58,51.18,93.88,76.75,1.17,1,2.37,1.86,2.72,3.45,0,1.69.07,3.39,0,5.08-3.34,2-5.2-1-7.16-2.5-9.1-6.93-17.89-14.27-26.75-21.52-18.33-15-36.37-30.43-55.27-44.77-9.64-9.18-20.41-17-30.6-25.52-3.31-2.77-6.51-5.67-9.84-8.42C111.42,33.42,109.47,32.24,110.05,29.76Z"/><path class="cls-5" d="M28,150.81c-.28-3.51.73-4.34,3.66-1.92q16.47,13.55,33,27Q90.63,197,116.6,218.08c8.45,6.9,16.75,14,25.2,20.87,2.26,1.84,1.37,2.67-.65,3.5l-5.14.14c-9.27-6.78-17.89-14.36-26.77-21.62C90,205.29,70.78,189.69,51.63,174c-6.69-5.49-13.32-11-20.14-16.38a9.58,9.58,0,0,1-3.18-3.76Z"/><path class="cls-6" d="M242,131.75q-19.31-15.59-38.6-31.15-26-21.09-52-42.23-15.75-12.88-31.24-26.08c-1.18-1-3.52-1.87-2.18-4.33,2.65-.42,5.23-1.35,8-1-.47,1.91.52,3,1.93,4.18,22,17.73,43.85,35.65,65.72,53.54,15.31,12.52,30.59,25.08,46,37.5.92.74,1.54,1.74,2.38,2.54a1.25,1.25,0,0,1,.09.93A8.22,8.22,0,0,1,242,131.75Z"/><path class="cls-7" d="M201.88,218.75a4.88,4.88,0,0,1-3.86,2.88c-8.23-4.52-14.78-11.24-22-17-19.46-15.57-38.49-31.67-58.33-46.79C102.21,146,87.54,133.21,72.42,121a10.5,10.5,0,0,1-2-2.18,7,7,0,0,0-3.88-3.27c-2.62-1.71-5.33-3.32-7.23-5.91a6.91,6.91,0,0,0-3.91-3.15,125.29,125.29,0,0,1-17.13-14c-.65-1.19-1.79-2.23-1.21-3.81,0-.8,0-1.62.86-2,2.57-.9,4,1,5.62,2.36C79.88,118.45,116,148.2,152.26,177.74c15.88,12.93,31.64,26,47.61,38.82A7.64,7.64,0,0,1,201.88,218.75Z"/><path class="cls-8" d="M131,242.59a45.66,45.66,0,0,1-15.11-1.78c.66-2.36-1.27-3.26-2.62-4.34C91,218.52,69.1,200.09,46.71,182.28c-4.13-3.29-7.59-7.52-12.85-9.23A30.14,30.14,0,0,1,30,160.79c2.12-1.4,2.16-1.45,4.78.62,8.73,6.9,17.33,14,25.94,21q32,26.19,64,52.39C127.31,236.92,130.75,238.52,131,242.59Z"/><path class="cls-9" d="M137,26.81c3.73,0,7.48-.49,11.09.89,17.32,14.48,35,28.51,52.38,42.93Q217.18,84.48,234.1,98c1.33,1.07,1.87,2.72,3.26,3.67,1.88,3.1,1.66,6.75,2.67,10.08-2.35.83-3.75-.85-5.24-2.07q-47.78-39-95.56-78.07C137.77,30.42,135.7,29.34,137,26.81Z"/><path class="cls-10" d="M28.93,113.53a10.84,10.84,0,0,1,1.2-5.78c2.44-1.45,3.66.73,5.08,1.87C55,125.5,74.55,141.77,94.29,157.77q14.11,11.46,28.16,23c1.27,1.05,2.78,1.88,3.42,3.54a11,11,0,0,1-.1,6.8c-2.34,2.26-4,.13-5.52-1.09C104,177,87.92,163.85,71.83,150.67,58.57,139.82,45.26,129,32.09,118.06,30.68,116.89,28.37,116.15,28.93,113.53Z"/><path class="cls-11" d="M126,207.75c-9-5.11-16.19-12.51-24.21-18.86-14-11.06-27.77-22.38-41.58-33.66-10-8.15-19.88-16.4-29.79-24.64-1-.86-1.91-1.87-3.39-1.85l.27-6c2.4-2.8,4.21-.3,5.8.91,8.71,6.69,17.06,13.83,25.61,20.72,22.14,17.85,43.84,36.26,66.23,53.8a3.39,3.39,0,0,1,.89,1.19C126.25,202.13,127.52,204.92,126,207.75Z"/><path class="cls-12" d="M124.88,198.75c-6.58-2.42-11-7.86-16.22-12C93,174.27,77.58,161.44,62.07,148.77l-30-24.5c-1.39-1.13-2.65-2.68-4.78-1.57a25.65,25.65,0,0,1,1.65-9.17c9.61,8,19.2,16.1,28.86,24.08,12.23,10.1,24.39,20.28,36.83,30.12,10.09,8,19.61,16.73,30.26,24Q127.93,195.26,124.88,198.75Z"/><path class="cls-13" d="M137,26.81c.66,4,4.56,5.13,7.09,7.22,17.05,14.14,34.4,27.91,51.55,41.92C209.39,87.14,223,98.5,236.61,109.74a23.61,23.61,0,0,0,3.42,2,10.2,10.2,0,0,1,1.05,5.9c1,2.62-.29,2.77-2.1,1.74a40.61,40.61,0,0,1-5.59-4.2c-23.14-19-46.44-37.9-69.6-56.92C153,49.39,142,40.7,131.33,31.69c-1.43-1.21-3.56-2.22-2.28-4.77Z"/><path class="cls-14" d="M39,91.75a178,178,0,0,0,17,14c1.39.93,2.58,2.12,4,3,1.59,2.87,4.78,3.87,7,6,1.39.93,2.58,2.12,4,3,6,5.15,12,10.38,18.07,15.41,10.34,8.52,20.49,17.29,31.25,25.24,14,10.34,27.34,21.42,40.73,32.46,12.36,10.2,25.24,19.77,36.93,30.77l-1.27,1.11c-3,1.19-4.6-1.16-6.39-2.62-12.94-10.57-25.93-21.07-38.84-31.67a44.49,44.49,0,0,0-6.87-4.87c-3-3.29-6.4-6.06-10.76-7.42-7.68-7.37-16.28-13.65-24.49-20.4Q73,125.84,36.52,96.08a4.45,4.45,0,0,1-1.67-2.41c.25-1-.15-2.3,1.06-3C37.29,90.06,38,91.29,39,91.75Z"/><path class="cls-15" d="M33.86,173.05c1.91-2.32,3.39-.25,4.57.72Q66.87,197,95.2,220.38c7.15,5.88,14.37,11.69,21.52,17.58,1.67,1.38,2.94,2.91-.82,2.85-3.86.32-7.34-1.19-10.91-2.28q-32.62-27.3-65.92-53.79A33.73,33.73,0,0,1,33.86,173.05Z"/><path class="cls-16" d="M253.07,71.74a46.41,46.41,0,0,1,6,13c-2.16,1.38-3.41-.41-4.74-1.49-8.24-6.7-16.62-13.23-24.42-20.45a129.06,129.06,0,0,0-46-36.71c-7.41-6.76-15.51-12.69-23.07-19.26-1.26-1.1-3.38-1.76-2.8-4.15,5.38,1.4,11.15,1.23,16.21,3.94,7.18,6.94,15.33,12.71,23,19.09C215.76,41.17,234.7,56.11,253.07,71.74Z"/><path class="cls-17" d="M129.05,26.92c3.18,5.68,9,8.6,13.7,12.58,13.81,11.63,27.89,22.93,41.89,34.34,11.43,9.32,22.91,18.58,34.35,27.89,6.55,5.33,13.06,10.72,19.62,16,.76.62,1.82,2.84,2.47-.13,1.3,2.24,1,4.69.91,7.1-7.08-3.43-12.35-9.27-18.39-14.06-15.92-12.62-31.6-25.55-47.34-38.4q-22.84-18.68-45.61-37.43c-1.91-1.57-3.79-3.2-5.74-4.72-2.74-2.14.24-2.26,1.06-3.15Z"/><path class="cls-18" d="M240.9,153.72l-1,5.07c-2.25,3.29-4,.66-5.66-.62-10.51-8.14-20.68-16.71-31-25.14-12-9.8-24-19.5-35.94-29.29-2.32-1.9-4.76-3.66-6.11-6.47a9.09,9.09,0,0,1,.14-6c2.46-2.07,4,.23,5.51,1.4,16.7,13.38,33.25,27,49.82,40.49,6.68,5.45,13.26,11,20.08,16.32C238.33,150.74,240.11,151.75,240.9,153.72Z"/><path class="cls-19" d="M201.88,218.75c-6.82-3-11.64-8.66-17.33-13.12-12-9.41-23.68-19.2-35.47-28.86-12.18-10-24.31-20-36.5-30q-22.71-18.56-45.49-37c-8.22-6.69-16.46-13.37-24.61-20.15a22.13,22.13,0,0,0-4.59-3l1.42-2.85c2.28-.37,3.73,1.16,5.23,2.39q28.08,23.08,56.29,46c8.36,6.8,16.29,14.16,25.37,20.06a18.38,18.38,0,0,0,7.27,6c20.29,17.88,41.71,34.39,62.46,51.73,2.66,2.22,6.31,3.69,7.1,7.7Z"/><path class="cls-20" d="M40.64,81.57a16.3,16.3,0,0,1,3.45-5.65c26.56,21.5,52.84,43.35,79.48,64.75a6.63,6.63,0,0,1,2.28,2.59,8.84,8.84,0,0,1-.13,6c-2.42,2-3.94-.05-5.5-1.31-14.51-11.69-28.86-23.57-43.3-35.34Q61.65,100.11,46.36,87.69C44.19,85.93,41.7,84.4,40.64,81.57Z"/><path class="cls-21" d="M124.88,142.75c-9.1-5.82-16.88-13.3-25.29-20-13.83-11-27.75-22-41.15-33.55-4.91-4.23-11.35-7-14.35-13.28A8.7,8.7,0,0,1,47,71.69c7.39,5,13.81,11.23,20.85,16.7,6.78,5.28,13,11.23,20.42,15.75,2.3,2.33,5.21,3.94,7.54,6.24,4,5.74,10.17,9,15.21,13.55s10.78,8.33,15.55,13.23C126.83,139.27,126.65,141.26,124.88,142.75Z"/><path class="cls-22" d="M20.94,205.79c5.7,1.14,9.24,5.67,13.41,9C51,228,67.36,241.67,83.76,255.24c1,.8,4.27,2.16.21,3.54-12.49-4-23.11-11.39-33.38-19.23-11.74-9-21-20.28-29.37-32.32A4,4,0,0,1,20.94,205.79Z"/><path class="cls-23" d="M125,183.75c-7.32-4.32-13.3-10.38-19.92-15.6-11.84-9.33-23.29-19.15-35-28.7-12.3-10.08-24.66-20.07-37-30.13-.92-.75-1.73-1.56-3-1.57A12.23,12.23,0,0,1,32,101.62c6.93,4.32,12.82,10,19.12,15.12,19.23,15.65,38.51,31.26,57.6,47.08,6.27,5.19,13,9.86,18.64,15.78A3.5,3.5,0,0,1,125,183.75Z"/><path class="cls-24" d="M253.07,71.74c-6.94-2.74-11.68-8.49-17.33-12.95-14.13-11.13-27.91-22.72-41.85-34.11C188,19.88,182,15.2,176.21,10.29c-1-.81-3.29-1.42-2-3.66a57.46,57.46,0,0,1,16,6c6.91,5.92,14.11,11.48,21.16,17.22,10.19,8.3,20.09,17,30.74,24.67C247,59.5,249.37,66.05,253.07,71.74Z"/><path class="cls-25" d="M228.74,187.69a10.06,10.06,0,0,1-2.59,4.1c-2.3,1.42-3.88-.34-5.29-1.5-23.6-19.44-47.44-38.59-70.92-58.16-.51-.43.18.06-.3-.41-.51-2.66.88-4.27,3-5.45,4.31.44,7,3.67,10,6.13,21,17.13,41.87,34.5,62.95,51.56C226.92,185,228.47,185.81,228.74,187.69Z"/><path class="cls-26" d="M222.93,196.71a10,10,0,0,1-2.94,4c-2.52.55-4-1.25-5.62-2.57-21.75-18-43.71-35.73-65.57-53.57-1.65-1.35-3.66-2.46-3.71-5,.15-1.85.69-3.46,2.55-4.28,3-.05,4.78,2.18,6.76,3.82,21.43,17.66,43.1,35,64.48,52.75C220.52,193.23,222.48,194.34,222.93,196.71Z"/><path class="cls-27" d="M232.93,178.75c.1,2-1.13,3.41-2.09,4.95-2.1.65-3.43-.71-4.84-1.86q-33-26.9-65.84-53.87c-2.09-1.72-5-3-5.09-6.36.19-1.81.64-3.46,2.61-4.17,6.43,3,11.19,8.25,16.6,12.59,18,14.47,35.78,29.25,53.77,43.76A21.28,21.28,0,0,1,232.93,178.75Z"/><path class="cls-20" d="M210.05,211.75a14.51,14.51,0,0,1-5.06,4.79c-6.47-3.55-11.64-8.81-17.27-13.41-16.22-13.27-32.52-26.45-48.62-39.86-1.49-1.24-3.51-2.13-3.34-4.59a7.9,7.9,0,0,1,6.27-3.2c17.42,14.69,35.26,28.88,52.8,43.44C199.93,203.16,205.48,206.88,210.05,211.75Z"/><path class="cls-28" d="M238.89,162.78l-2.06,7c-2,1.3-3.11-.33-4.31-1.31Q198,140.5,163.72,112.26a7,7,0,0,1-2.78-6.57,4.1,4.1,0,0,1,.79-2c2.61-1.42,4,.75,5.57,2q32.3,26.22,64.41,52.66A32,32,0,0,0,238.89,162.78Z"/><path class="cls-29" d="M146,139.64c4,5.81,10.17,9.24,15.42,13.64,15.58,13.06,31.46,25.77,47.25,38.58,3.72,3,7.54,5.91,11.32,8.86l-3.17,4c-1.88.62-3.18-.49-4.46-1.54-22.21-18.17-44.23-36.56-66.76-54.34a4.56,4.56,0,0,1-1.47-2C144,144.23,142.41,141.26,146,139.64Z"/><path class="cls-30" d="M222.93,196.71q-33.21-27-66.37-54.06a95.55,95.55,0,0,0-8.92-7c-.37-2-.12-3.6,2.33-3.9,5.26,2.26,9.08,6.5,13.43,10,14.09,11.27,28,22.77,41.95,34.2,4.74,3.89,9.43,7.84,14.12,11.78,2,1.7,3.95,3.55,6.68,4.1A11,11,0,0,1,222.93,196.71Z"/><path class="cls-31" d="M232.93,178.75c-5.36-2.73-9.44-7.14-14.07-10.8-12.21-9.64-24.33-19.42-36.19-29.48-8.19-6.95-17-13.14-24.64-20.75-1.22-2.09-.14-3.36,1.56-4.41,5.35,1.11,8.58,5.43,12.47,8.59,20.46,16.64,40.79,33.43,61.29,50a10,10,0,0,1,1.68,1.82C235.34,175.84,233.91,177.2,232.93,178.75Z"/><path class="cls-21" d="M210.05,211.75c-7-3.24-12.19-9-18.1-13.71-15.93-12.69-31.63-25.7-47.43-38.56-1.18-1-2.4-1.83-2.44-3.55-.72-2.48.73-3.65,2.71-4.5,7.38,5.31,14.1,11.45,21.18,17.15,13.95,11.22,27.75,22.62,41.66,33.89,2.15,1.75,4.56,3.37,5.42,6.28A7.12,7.12,0,0,1,210.05,211.75Z"/><path class="cls-32" d="M240.9,153.72c-8.8-5.32-16.14-12.53-24.15-18.86-11.9-9.41-23.46-19.26-35.23-28.82-6.4-5.2-13-10.2-19.44-15.29-2.3-1.65-2.45-3.9-1.73-6.37,3.27-2.25,4.85,1,6.55,2.43q14.67,12,29.32,23.93c15.17,12.39,30.2,25,45.61,37.05C242.17,149.87,241.34,151.77,240.9,153.72Z"/><path class="cls-33" d="M213.05,208.75,158.81,164c-4.83-4-10.36-7.17-13.9-12.56-1-1.33-1-2.58.3-3.73,6.78,3,11.63,8.6,17.28,13.08,15.92,12.61,31.57,25.55,47.33,38.37,2.3,1.88,4.08,4.41,7,5.49A10,10,0,0,1,213.05,208.75Z"/><path class="cls-34" d="M131,242.59c-6.58-7.77-15.16-13.23-22.85-19.72-12.11-10.21-24.45-20.17-36.72-30.21Q52.27,177,33,161.4c-.76-.62-1.74-1.78-3-.61-1.36-2.13-1.23-4.63-1.71-7,16.55,12.36,32.08,26,48.18,38.91,13.77,11.07,27.63,22,41.09,33.48,6.25,5.31,13.55,9.52,18.43,16.39Z"/><path class="cls-35" d="M235,173.75c-6.93-2.81-11.7-8.54-17.36-13-14-11.1-27.72-22.62-41.57-33.94-5.38-4.4-10.82-8.72-16.23-13.08-1.12-3.19-1.06-6.08,2-8.23-.62,6.25,5.13,7.85,8.49,10.7,15.54,13.17,31.39,26,47.34,38.66,6.32,5,12,10.86,19.09,14.91Z"/><path class="cls-36" d="M155.94,121.52c3,5.64,8.68,8.34,13.25,12.2,13.64,11.53,27.53,22.78,41.4,34,6.67,5.42,13.5,10.63,20.25,15.94l-2.1,4C213.42,176.09,199,163.37,184,151.37c-10.33-8.28-20-17.36-31.13-24.66C152.07,123.9,153.39,122.34,155.94,121.52Z"/><path class="cls-37" d="M154,28.66a18.29,18.29,0,0,1,8,2.19C171,36.93,179,44.17,187.33,50.94c14.68,11.88,29.18,24,44,35.71a15.18,15.18,0,0,1,2.72,6.09c.23,4.76-2.34,2.31-3.76,1.26-4.83-3.54-9.48-7.32-14.08-11.15-19.68-16.35-39.69-32.32-59.33-48.73C155.25,32.76,152.48,31.78,154,28.66Z"/><path class="cls-38" d="M238.89,162.78c-2.53,1.92-4.19-.43-5.61-1.58-13.73-11.12-27.31-22.43-41-33.66q-14.16-11.66-28.39-23.21a5.62,5.62,0,0,0-1.87-.58,4.18,4.18,0,0,1,0-6q36.78,30.06,73.52,60.15c1.4,1.14,2.5,2.2,4.27.89C239.55,160.12,239.22,161.45,238.89,162.78Z"/><path class="cls-39" d="M32.17,100.78a9.1,9.1,0,0,1,1.87-5l.6.38C41.39,103.32,49.46,109,57,115.18c23,18.92,46.12,37.63,69.1,56.54,1.74,1.44,3.94,2.64,4.31,5.27-.38,1.69-1.31,2.6-3.15,2.19C110.69,166,94.4,152.35,77.92,139q-20.48-16.6-40.81-33.38C35.34,104.15,33.24,103,32.17,100.78Z"/><path class="cls-40" d="M172.09,33.42c23.14,8.53,41.43,23,54.16,44.27-3,1.7-4.64-1-6.36-2.37C206.33,64.46,193,53.37,179.51,42.38c-1.66-1.36-3.43-2.61-5-4.1C173.2,37,171.19,35.9,172.09,33.42Z"/><path class="cls-41" d="M172.09,33.42c3.2,5.48,8.81,8.35,13.45,12.23C198,56,210.61,66.14,223.15,76.38a4.27,4.27,0,0,0,3.1,1.31,28.74,28.74,0,0,1,5.08,9c-5-.08-7.33-4.38-10.57-6.94-18.27-14.49-36.27-29.34-54.3-44.13a46,46,0,0,1-4.4-4.73C165.77,30.27,168.85,32.16,172.09,33.42Z"/><path class="cls-42" d="M154,28.66c.89,4.46,5.18,5.9,8,8.3C181.56,53.25,201.34,69.19,221,85.23c3.45,2.81,6.95,5.57,10.39,8.39,1.42,1.16,2.36,1.2,2.63-.88a26.18,26.18,0,0,1,3.31,8.93c-10-6.72-18.94-14.85-28.28-22.44q-28.26-23-56.26-46.25c-1.79-1.48-5-1.86-4.69-5.28Z"/><path class="cls-43" d="M39.07,184.74c5.86,1.26,9.41,6,13.73,9.42,16.25,12.92,32.24,26.17,48.34,39.27a14.36,14.36,0,0,1,3.85,5.1c-4.22-.59-8-2.37-11.95-3.93C89,229,83,225.53,77.82,221.18c-8.75-7.35-17.75-14.41-26.56-21.7-1.63-1.35-3.19-2.9-5.35-3.49A37.93,37.93,0,0,1,39.07,184.74Z"/><path class="cls-44" d="M106.94,265.79c3-.64.85-1.83.13-2.44-5-4.28-10.15-8.43-15.18-12.7-2.62-2.21-5.65-4.09-6.85-7.6a201,201,0,0,0,23,7.86c5.5,4.36,10.75,9,16.22,13.45,1.28,1,2.36,2.32,1.71,4.23A64.84,64.84,0,0,1,106.94,265.79Z"/><path class="cls-45" d="M37.3,203.66c-6.92-2.09-11-8.17-16.78-11.85-3.22-2.06-5.17-6.25-9.81-6-2.58-5.47-5-11-5.7-17.08,1.56-1.2,2.94-.27,4,.64,5.64,4.77,12,8.69,16.91,14.33Z"/><path class="cls-46" d="M45.91,196c.9-1.52,1.8-.89,2.81-.06Q64.85,209.08,81,222.21c2.82,2.29,5.67,4.54,8.51,6.8,1.83,1.46,3.8,2.81,3.52,5.59C74,226.56,58.56,214,46.29,197.4A4.13,4.13,0,0,1,45.91,196Z"/><path class="cls-47" d="M242.15,54.54c-4.67.66-6.56-3.56-9.39-5.77-12.21-9.52-24.17-19.37-36.06-29.29-2.37-2-5.56-3.38-6.45-6.83,17,7,31.25,17.9,43.61,31.35C236.89,47.3,240,50.53,242.15,54.54Z"/><path class="cls-48" d="M193.09,224.86l-4,3c-6.1-3.21-10.79-8.27-16.13-12.47-8.89-7-17.4-14.48-26.33-21.45a6.55,6.55,0,0,1-2.32-2.55,6.77,6.77,0,0,1,.17-5.19c2.94-2,4.62.66,6.37,2C162.59,197.37,174,207,185.59,216.4c1.8,1.47,3.71,2.81,5.38,4.42C192.1,221.9,193.85,222.75,193.09,224.86Z"/><path class="cls-10" d="M183.33,230.88a23.48,23.48,0,0,1-7.35,3.59c-5.08-1.71-8.43-5.84-12.38-9.06-6.8-5.55-14-10.6-20.15-17-.62-2.34.11-4.44,1.1-6.5,1.43-1.39,2.83-.66,4,.28C160.27,211.61,172.34,220.58,183.33,230.88Z"/><path class="cls-19" d="M40.64,81.57c11.91,9.68,23.86,19.31,35.73,29,15.2,12.44,30.34,25,45.54,37.41a20.6,20.6,0,0,0,3,1.74c1.09.76,1.84,1.63.91,3-6.25-2-10.29-7.12-15.16-11C94.73,129.07,79,116.12,63.21,103.27L39.31,83.82C39.76,83.07,40.2,82.32,40.64,81.57Z"/><path class="cls-49" d="M241.83,147.79c-3.53,1-4.9-2.36-6.79-3.88-19.18-15.41-38-31.25-57.18-46.7-5.63-4.54-10.8-9.71-17.16-13.34-.85-.25-1-.79-.67-1.57,2.85-2.76,4.48.4,6.57,1.36a10.1,10.1,0,0,1,1.08.77,23.79,23.79,0,0,0,3.56,2.75,21.23,21.23,0,0,1,2.42,2.12,17,17,0,0,0,3.43,2.78,11.6,11.6,0,0,1,1.5,1.2,18.38,18.38,0,0,0,4,3.13c2.23,1.93,4.82,3.44,6.85,5.61a17,17,0,0,0,4,3.27c2.29,2,5,3.54,7,5.78a16.55,16.55,0,0,0,4,3.22c2.29,2,5,3.54,7,5.78a16.94,16.94,0,0,0,4,3.23c2.31,2,5,3.57,7.11,5.83a19.51,19.51,0,0,0,5,4.17c5,3.59,10.41,6.63,14.42,11.45Z"/><path class="cls-50" d="M229.89,62.81c6,2.3,9.65,7.65,14.78,11.07s8.68,8.44,14.38,10.87a35.79,35.79,0,0,1,4.11,11.78c-1.76,1.47-1.9,1.55-4.23-.15-4.11-3-7.86-6.46-11.85-9.61-1.68-1.32-3.37-2.62-5-4Z"/><path class="cls-33" d="M88,104.75c-5.4-1.38-8.7-5.82-12.81-9-8.34-6.47-16.45-13.24-24.58-20A34.24,34.24,0,0,1,47,71.69a9,9,0,0,1,3-4c6.24,4,11.58,9.18,17.36,13.8q10.23,8.18,20.31,16.55C88.35,100.26,89,102.47,88,104.75Z"/><path class="cls-51" d="M143.6,208.6c5,1.76,8.2,6,12.18,9.11,6.89,5.38,13.48,11.15,20.2,16.76L168,237.4c-9.63-8.21-19.81-15.77-29.1-24.4C139.13,210.1,141.26,209.24,143.6,208.6Z"/><path class="cls-50" d="M158.05,2.69C166,9.33,173.82,16,181.8,22.57c1.23,1,2.34,1.78,2.12,3.53L166,19.6c-6.31-3.49-11.41-8.58-17-13-1.32-1-2.66-2.6-2-4.26.81-2.06,2.76-1,4.31-.67C153.59,1.73,155.94,1.4,158.05,2.69Z"/><path class="cls-29" d="M87.18,97.75c-6.15-2.12-10.28-7.06-15-11-7.46-6.22-15.8-11.45-22.12-19l3.09-3.77C60.19,68,66,73.78,72.18,78.9c5.34,4.39,11.39,8,15.74,13.57C88.36,94.33,88.56,96.15,87.18,97.75Z"/><path class="cls-52" d="M126,268.59c-3.15-5.66-9.19-8.21-13.63-12.49a18.71,18.71,0,0,1-4.3-5.19l17,2.78c4.7,3.39,9.09,7.17,13.47,11,1.18,1,2.88,2,1.54,4.05Z"/><path class="cls-11" d="M138.73,212.61c6.18,2.89,10.64,8,15.77,12.28,4.72,3.9,10.59,6.67,13.54,12.51l-7,2c-2.4-5.48-7.88-7.82-11.94-11.6-5.55-5.16-12.43-8.83-17.05-15.06C134.23,211,136.46,211.06,138.73,212.61Z"/><path class="cls-53" d="M242.1,82.75c4.44.25,6.53,4.15,9.71,6.35s6.24,4.88,9.35,7.34c.63.5,1.28,1.18,2,.09a34,34,0,0,1,3,12c.81,4-1.72,3.15-3.27,1.82-5.12-4.39-11.24-7.68-15-13.56Q245,89.78,242.1,82.75Z"/><path class="cls-54" d="M34.85,93.67C46,102.58,57.1,111.45,68.17,120.41Q94.63,141.82,121,163.34c3.73,3,7.44,6.09,11.16,9.13a4.19,4.19,0,0,1,1.87,3.36,2.28,2.28,0,0,1-1.33.46c-8.44-5.31-15.65-12.19-23.35-18.42-21.52-17.43-42.91-35-64.38-52.5-3.73-3-7.66-5.86-10.84-9.52l-.1-.1Z"/><path class="cls-55" d="M25.93,183.73c-5.18-2.86-9.49-6.86-14-10.62-2.13-1.77-4.08-3.76-6.93-4.35-1.57-4.2-2.9-8.45-2.85-13,1.26-1.1,2.6-.56,3.58.22C10.54,159.84,15.9,163,20,167.74Z"/><path class="cls-23" d="M183.33,230.88c-5.89-2.47-9.76-7.61-14.81-11.18-8-5.66-14.64-13.13-23.31-17.95-1.75-1.49-1.48-3.35-1-5.26,1.26-2.09,2.87-1.35,4.2-.27q19.25,15.45,38.19,31.28a2.26,2.26,0,0,1,.59,1.35A6.62,6.62,0,0,1,183.33,230.88Z"/><path class="cls-49" d="M189,102.75c-2.22-2.13-5.41-3.13-7-6-1.38-.93-2.58-2.1-4-3l-1-1c-1.38-.93-2.58-2.1-4-3a3.43,3.43,0,0,1-2-2c-1.39-.92-2.57-2.12-4-3-2.42-2.46-5.59-3.8-8.42-5.67-.61-.75-1.15-1.53-.59-2.55,2.88-1.52,4.82.54,6.66,2,18.72,15.21,37.36,30.53,56.08,45.74,5.43,4.4,10.85,8.81,16.21,13.29,1.75,1.45,3.28,2.36,5,.14,0-2,0-4,0-6l.09-6.07a46.41,46.41,0,0,1-.09,19.07,106.53,106.53,0,0,1-15-11c-1.82-1.13-3.14-2.9-5-4-2.22-2.13-5.41-3.13-7-6-1.38-.93-2.58-2.1-4-3-2.22-2.13-5.41-3.13-7-6-1.38-.93-2.58-2.1-4-3-2.22-2.13-5.41-3.13-7-6C191.66,104.82,190.46,103.65,189,102.75Z"/><path class="cls-56" d="M15.84,144.7,17,155.75c-1.58,1.24-2.93.21-4-.67-4.11-3.32-8.6-6.22-12.06-10.3l0,.05c-.91-4.29-.19-8.63-.42-12.94,1.06-3.16,3.21-1.66,4.55-.67,3.5,2.59,7.31,4.85,10.13,8.29C15.92,141.18,15.12,143,15.84,144.7Z"/><path class="cls-19" d="M136,158.7c6,6.42,13.26,11.34,19.94,17,13.78,11.56,27.8,22.83,41.7,34.26,2.54,2.09,5.54,3.69,7.31,6.63-.53.59-1,1.27-2,1.16q-17.57-14.5-35.13-29c-10.08-8.31-20.22-16.54-30.25-24.91-1.75-1.46-3.62-3-4.61-5.16A2.22,2.22,0,0,1,136,158.7Z"/><path class="cls-57" d="M32.17,100.78Q52,116.89,71.8,133c11.43,9.28,23,18.36,34.26,27.84,7,5.95,14.89,11,21,18,.26.4.18.7-.27.88-8.78-7-17.59-14-26.31-21.06-11.81-9.58-23.56-19.25-35.33-28.87Q50,117.42,34.85,105A24.89,24.89,0,0,1,32,101.62,1,1,0,0,1,32.17,100.78Z"/><path class="cls-26" d="M87.18,91.75C79.63,87.51,73.57,81.31,66.89,76c-4.75-3.8-10-7.11-13.78-12A10.3,10.3,0,0,1,57,59.74C67.49,68.65,78.53,76.83,88.68,86.1,89.36,88.3,89.06,90.24,87.18,91.75Z"/><path class="cls-30" d="M88,85.75c-7.15-3.84-12.59-9.9-19-14.66-3.3-2.44-6.39-5.17-9.59-7.73-1.2-1-2.29-1.93-2.3-3.62a7.23,7.23,0,0,1,3-3c6.75,3.37,11.79,9,17.66,13.53,4.28,3.31,9,6.23,12.1,10.89C90.17,83.09,90.19,84.87,88,85.75Z"/><path class="cls-49" d="M99.88,32.38c2-.81,3.88-2,6.16-1.61,9.25,7.16,18.16,14.76,27.22,22.15,1.49,1.22,3.7,2.49,2.6,5.2-2.26,1.09-4.34-.1-6.49-.49a23.84,23.84,0,0,1-3.45-1.28c-7.81-6.12-15.39-12.52-23.06-18.81C101.3,36.26,99.17,35.07,99.88,32.38Z"/><path class="cls-18" d="M89.05,36.83a19.12,19.12,0,0,1,7-3c5.9,7.24,14.08,11.89,20.77,18.23,1.48,1.4,3.87,2.45,2.18,5.2a6.89,6.89,0,0,1-5.68,1.43c-8.52-5.52-16-12.32-23.77-18.85C88.62,39.12,88,38,89.05,36.83Z"/><path class="cls-58" d="M136,57.86c-6.31-7.68-14.93-12.7-22.18-19.3-2.7-2.46-6.47-3.93-7.79-7.79a4.84,4.84,0,0,1,4-1c5.15,6.32,12,10.75,18,16,8.55,7.45,18,13.81,25.95,22-.32.66-.68,1.27-1.53,1.34C147.1,65.23,141,62.3,136,57.86Z"/><path class="cls-27" d="M68,49.74a8.77,8.77,0,0,1,4-3C80.88,53.35,89.71,60,97.45,67.92a4.49,4.49,0,0,1-3.3,4.57c-2.21.29-3.87-1-5.37-2.22-6.13-5.1-12.42-10-18.46-15.2C68.8,53.77,66.63,52.44,68,49.74Z"/><path class="cls-25" d="M89.13,80.75c-9.85-7.81-20-15.29-29.09-24a13.21,13.21,0,0,1,4-4c9.62,7.32,18.73,15.28,28.18,22.81C92.6,78.14,91.47,79.81,89.13,80.75Z"/><path class="cls-59" d="M151.3,1.67c-1.13.43-3-.71-3.39,1-.35,1.53,1.08,2.67,2.27,3.59,5.47,4.23,11.09,8.27,15.83,13.37l-15-3c-2-1.45-3.54-3.53-5.72-4.81a9.73,9.73,0,0,1-1.1-.81A22.44,22.44,0,0,0,140,7.55a10.87,10.87,0,0,1-1.16-.86,10.61,10.61,0,0,1-1.41-1.35c-1.08-1.34-3.33-2.63-2.21-4.4.93-1.45,3.2-.85,4.91-.21C143.87.72,147.66.26,151.3,1.67Z"/><path class="cls-60" d="M14.92,139.76c-5.18-2.12-8.15-7.65-13.83-9A11,11,0,0,1,1,123.68l.29-5c.49-1.32,1.6-2,2.73-1.29,4.31,2.58,9,4.83,11.49,9.56C15.23,131.22,16.19,135.54,14.92,139.76Z"/><path class="cls-15" d="M140,268.7c-2.67-5.14-8.15-7.31-12-11.23-1.17-1.19-2.4-2.2-3-3.78l12.05.23c4.94,2.77,8.72,7,13.18,10.43,1.05.8,1.93,1.94.78,3.39l-.42.14-.43-.08c-1.59,1-3.47,0-5.09.75Z"/><path class="cls-61" d="M1,144.78c4.23,2,7.5,5.19,11,8.17,1.42,1.21,2.94,2.69,5.08,2.8.39,4.15,2.92,7.76,3,12-4.69-2.16-8.36-5.77-12.32-8.94-1.7-1.35-3.27-2.76-5.51-3C.93,152.19.9,148.49,1,144.78Z"/><path class="cls-62" d="M187.23,228.85c-11.62-8.26-22.14-17.89-33.31-26.71-2.83-2.23-5.24-5-8.71-6.39a2.5,2.5,0,0,1,0-4c9.07,5.8,16.72,13.4,25.21,19.93,5.09,3.93,9.94,8.16,14.94,12.21a12.43,12.43,0,0,1,3.71,3.93Z"/><path class="cls-63" d="M146.85,15.86,139,15.48c-1-.49-2.28,0-3.29-.63-2.75-2.93-6.06-5.18-9.1-7.77C124.64,5.42,122,4.13,122.09,1l6.84-.25c2.62-1.09,4.63-.32,6.43,1.81A19.09,19.09,0,0,0,140,6.75h0c1.83,1.13,3.14,2.92,5,4h0a8.79,8.79,0,0,1,3,2.66C148.65,14.56,149.26,16,146.85,15.86Z"/><path class="cls-31" d="M97.37,67.87C88.41,61.45,79.64,54.8,72,46.74a10.3,10.3,0,0,1,4-2.8c8.76,6.17,17.55,12.31,24.53,20.6C100.41,66.51,99.48,67.77,97.37,67.87Z"/><path class="cls-64" d="M119,56.62c-3.1-5.25-8.62-7.87-12.93-11.8-2.68-2.43-5.66-4.54-8.37-6.94-1.12-1-3-1.89-1.71-4l3.85-1.48c4.34,6,10.88,9.55,16.22,14.44,3.28,3,7.33,5.14,10,8.88-1.57,1.71-3.73,1.2-5.67,1.53A1.76,1.76,0,0,1,119,56.62Z"/><path class="cls-14" d="M193.09,224.86c-3.63-4.83-8.79-8-13.32-11.75-10.25-8.6-20.76-16.89-31.19-25.27a31.15,31.15,0,0,0-3.37-2.09,2.12,2.12,0,0,1-.55-2.88c5.49,1.52,9,5.93,13.19,9.26,12.18,9.66,24.19,19.53,36.3,29.28a14.46,14.46,0,0,0,2.6,1.33C196,224.24,194.61,224.67,193.09,224.86Z"/><path class="cls-36" d="M91.76,75.74c-6.86-3.4-12.09-9-17.85-13.79-3.42-2.86-8-4.58-9.86-9.18,1-1.51,2.59-2.11,4-3,.85,4.51,5.06,6,8,8.36C82,62.79,87,68.74,94.12,71.78,94.55,73.82,93.88,75.21,91.76,75.74Z"/><path class="cls-65" d="M170.07,263.84c-3.09,1.79-6.57,2.09-10,2.67A61.58,61.58,0,0,0,144,253.73l14-2C162.59,255.19,168.29,257.56,170.07,263.84Z"/><path class="cls-56" d="M144,253.73a7,7,0,0,1,5.43,1.77c2.92,2.63,6.18,4.88,9.21,7.4,1,.87,2.67,1.73,1.47,3.61-3,.66-5.93,1.57-9.05,1.23-.62-3.53-4.07-4.47-6.28-6.38a60.72,60.72,0,0,1-7.68-7.44Z"/><path class="cls-28" d="M81.05,40.94c1.21-.95,2.37-2,4-2.13,7.48,5.41,14.43,11.49,21.52,17.4a4.43,4.43,0,0,1,2,3.82c-.77,1.94-2.36,2.5-4.26,2.54-5.39-2.61-9.44-7-14.08-10.64a53,53,0,0,1-7.15-6C81.83,44.53,79.65,43.4,81.05,40.94Z"/><path class="cls-66" d="M247.85,96.81q7.49,6.1,15,12.22c1.3,1.07,2.66,2.83,3.3-.48,1.93,3.52.3,7.62,1.84,11.2-2.53,1.38-4.07-.65-5.65-1.86-3.82-2.91-7.52-6-11.17-9.14Q249.51,102.78,247.85,96.81Z"/><path class="cls-67" d="M81.05,40.94c1.26,4.18,5.1,5.9,8.09,8.4,5.08,4.24,10.2,8.41,15.31,12.61-.44,2.36-1.7,3.64-4.25,3.25-5.61-6.38-12.75-11-19.17-16.39a28.12,28.12,0,0,1-4.94-4.87A14.31,14.31,0,0,1,81.05,40.94Z"/><path class="cls-68" d="M253.28,122.81c-.35-2.67-.71-5.34-1.06-8,5,.76,8.14,4.6,11.55,7.69,2.44,2.2,3.25,1.27,4.32-.86,1.41,4.64.91,9.39.79,14.12a1.82,1.82,0,0,1-2.29.22c-4.52-2.53-8.32-6-12.16-9.44C253.3,125.53,253.78,124,253.28,122.81Z"/><path class="cls-69" d="M24.66,88.76l-3.78,9.95C15,97.42,9.24,92.09,9,87.74a16.86,16.86,0,0,1,2.84-7.07c2.51-.66,3.86,1.36,5.38,2.59C19.67,85.19,22.32,86.75,24.66,88.76Z"/><path class="cls-70" d="M261.77,177.75a29.66,29.66,0,0,1-3.77,9c-5.6-.92-8.72-5.15-12.1-9a35.23,35.23,0,0,1,3.1-9C254.26,170.28,257.53,174.7,261.77,177.75Z"/><path class="cls-54" d="M24.66,88.76C19,88.25,16.41,83,11.88,80.67c1.06-2.8,1.54-5.86,3.8-8.09,5.12.92,11.08,6.32,11.43,10.34C26.29,84.86,25.48,86.81,24.66,88.76Z"/><path class="cls-38" d="M108.09,59.92c-4.46-5.83-10.8-9.53-16.21-14.27-2.43-2.12-5.26-3.85-6.82-6.84a6.82,6.82,0,0,1,4-2c1.94,3.73,5.51,5.76,8.62,8.29q7.81,6.35,15.59,12.73C112.3,60.44,110.43,60.76,108.09,59.92Z"/><path class="cls-71" d="M106,18.74a24.9,24.9,0,0,1-7.93,2.19c-4.28-1.69-7.21-5.19-10.56-8.08-1.5-1.29-1.58-2.88.47-4l6.92-2.47c3,2.81,6.15,5.36,9.26,8C105.48,15.48,107.45,16.45,106,18.74Z"/><path class="cls-72" d="M73,15.62A23.29,23.29,0,0,1,80.1,12c5.07,2.65,9.14,6.52,12.93,10.72a25.49,25.49,0,0,1-7.62,3.13C80.57,25.84,74.13,20.52,73,15.62Z"/><path class="cls-73" d="M47.13,39.75c-2.89-5,.64-7.48,3.87-10.1,4.15,2.93,8.73,5.4,11.21,10.18-2.8,2.92-5.86,5.23-10.27,4.35A16.15,16.15,0,0,0,47.13,39.75Z"/><path class="cls-74" d="M122.09,1c2.85,4.08,7.14,6.56,10.85,9.68,1.38,1.16,3,2,3.12,4-2.2,1.32-4.73-.1-7,.88l-1,0A98.56,98.56,0,0,1,117,6.74c-1.35-1.28-3.24-2.4-2.87-4.78C116.74,1.52,119.34.66,122.09,1Z"/><path class="cls-75" d="M166,249.78a17.84,17.84,0,0,1,6.87-2.1c5.61,1,8.78,5.43,12.42,9.15.49.5.18,1.26-.29,1.81-1.57.89-2.95,2.22-4.95,2.13C174.84,261.3,166.24,254.58,166,249.78Z"/><path class="cls-76" d="M166,249.78c3.83,4.76,7.83,9.29,14.05,11a22.74,22.74,0,0,1-10,3.07c-3-5-8.94-7.19-12.06-12.12C160.53,250.47,163.3,250.17,166,249.78Z"/><path class="cls-77" d="M15,125.76c-2.86-.68-4.75-2.81-7-4.42-1.94-1.37-3.44-4.42-6.69-2.65.46-3,.93-6,1.39-9.06,1.31-.86,2.55-.43,3.72.28,3.41,2,6.18,4.93,9.34,7.32a1.88,1.88,0,0,1,.34,2.67l-.29,4.89A1.32,1.32,0,0,1,15,125.76Z"/><path class="cls-78" d="M32,73.71c-.43,2-1.89,3.44-3,5a2.33,2.33,0,0,1-3.18,0c-3.11-2.59-6.86-4.51-9-8.13a14.33,14.33,0,0,1,3.33-5.87C25.1,63.7,31.7,68.66,32,73.71Z"/><path class="cls-79" d="M114.08,2c3.14,4.38,7.69,7.22,11.73,10.61,1,.88,2.17,1.5,2.24,3l-5.77.24a3.65,3.65,0,0,1-4.17-.51c-3.29-2.77-6.63-5.48-9.81-8.37-1.09-1-2.72-2.44-.3-3.93Z"/><path class="cls-80" d="M106,18.74c-1-3.7-4.71-4.73-7.15-7-1.69-1.57-3.76-2.72-4-5.35a15.86,15.86,0,0,1,6.11-1.59c5.28,3.32,10.58,6.62,14.1,12A33.74,33.74,0,0,1,106,18.74Z"/><path class="cls-81" d="M204,249.54a18.32,18.32,0,0,1-5.91,3.23c-5.31-.36-7.87-4.75-11.26-7.86-.89-.81-.67-2.13.24-3.11a7.46,7.46,0,0,1,4-2.05,2.47,2.47,0,0,1,3.18.16C197.79,242.78,202.42,244.61,204,249.54Z"/><path class="cls-81" d="M9,87.74c2.18,5.55,7.75,7.46,11.84,11l-2,7c-5.07-.82-7.95-4.91-11.49-7.93A3.22,3.22,0,0,1,7,93.66,11.17,11.17,0,0,1,9,87.74Z"/><path class="cls-82" d="M7,93.66c-.25,5.07,5,5.56,7.25,8.53,1.14,1.49,3.07,2.37,4.64,3.53a27.86,27.86,0,0,1-1.83,8.1c-4.1-3.89-9.16-6.66-12.81-11.06A30.23,30.23,0,0,1,7,93.66Z"/><path class="cls-74" d="M268.09,121.63c-.09,1.45-.18,2.89-.33,5.2l-15.54-12-1.08-6c4.72.37,6.71,4.81,10.25,7,2.19,1.33,3.92,3.41,6.57,4C268,120.38,268.05,121,268.09,121.63Z"/><path class="cls-83" d="M73,15.62A31.62,31.62,0,0,0,85.41,25.88a16.62,16.62,0,0,1-6.06,3c-5.3,0-12.12-5.56-12.29-10.07A13.78,13.78,0,0,1,73,15.62Z"/><path class="cls-84" d="M4.26,102.76c4.79,3.08,10.08,5.59,12.81,11.06-.09,2.06.21,4.19-1,6.08-3.86-4.21-7.89-8.21-13.4-10.27Z"/><path class="cls-85" d="M32,73.71c-3.13-4.11-6.19-8.29-11.92-8.94,3.45-5,7.12-6.17,11.18-3.54C35.5,64,35.75,68.32,32,73.71Z"/><path class="cls-86" d="M185,258.64c-2.86-5-7.95-7.46-12.13-11a11.92,11.92,0,0,1,5.14-1.93,2.87,2.87,0,0,1,3.25-.2c4.13,2.73,8.66,5.1,10.71,10.06C189.71,256.67,187.82,258.68,185,258.64Z"/><path class="cls-87" d="M93,22.75C88,20.05,84,16.12,80.1,12c2.68-1,5-2.87,7.92-3.17-1.12,1.73-.55,2.7,1,4,3.11,2.56,6.68,4.66,9,8.06A10.34,10.34,0,0,1,93,22.75Z"/><path class="cls-82" d="M192,255.61c-4.6-3.35-7.8-8.7-14-9.86l9-3.95c.12,4.83,5.15,5.46,7.38,8.52.81,1.11,2.41,1.65,3.64,2.45A11.71,11.71,0,0,1,192,255.61Z"/><path class="cls-88" d="M254,137.75l0-7c3.05-.33,4.6,2.17,6.68,3.61,2.69,1.87,4.83,4.54,8.18,5.42.06,2.69.28,5.39-.81,8-1.66.78-3-.1-4-1.13C260.89,143.43,256.59,141.56,254,137.75Z"/><path class="cls-78" d="M225,233.55c-1.47,1.67-2.74,3.56-4.91,4.46-2.91-2.42-5.85-4.81-8.58-7.44-1-.93-2.73-1.68-1.5-3.59l3.91-3.27C219.26,224.28,224.91,229.3,225,233.55Z"/><path class="cls-89" d="M253.06,149.75c.06-3.76-.1-7.54.88-11.23,2.37,6.78,8,10.19,13.86,13.28l-1,6c-1.24,2.52-3,1.59-4.34.36C259.35,155.36,255.66,153.16,253.06,149.75Z"/><path class="cls-90" d="M115.15,16.8c-4.77-3.92-10.05-7.22-14.1-12L108,3c-.14.46-.53,1.22-.39,1.34,4.73,4,8.57,9.2,14.67,11.47C120,17,117.57,16.73,115.15,16.8Z"/><path class="cls-91" d="M240.9,188.71c.4-2.35,1.75-4.25,3-6.2,4.94,1.89,8.61,5.45,12.11,9.23,0,2.53-2.68,3.67-3.11,6C247.83,196.12,244.53,192.2,240.9,188.71Z"/><path class="cls-92" d="M251,161.52c0-1.71-.06-3.43,1-4.93,4.61,3,8.51,6.93,12.92,10.19a20.57,20.57,0,0,1-2,6.95c-5-1.33-8.15-5.26-11.77-8.46C250.16,164.39,250.34,162.82,251,161.52Z"/><path class="cls-93" d="M268.86,139.79c-1.13,1.82-2,1.12-3.36,0-3.73-3.13-7.65-6-11.5-9-1.06-2.58-.67-5.28-.72-7.95,4,5.71,9.5,9.71,15.6,12.94C268.87,137.1,268.87,138.44,268.86,139.79Z"/><path class="cls-94" d="M256,191.74c-4.76-2.14-8.21-6-12.11-9.23a9.46,9.46,0,0,1,2-4.81l12.1,9A8.09,8.09,0,0,1,256,191.74Z"/><path class="cls-95" d="M267.8,151.8c-1.21.83-2.17.64-3.51-.15-3.39-2-5.74-5.24-9.23-7.18-2.1-1.18-.62-3.95-1.12-5.95a.65.65,0,0,1,.09-.77c5.43,2.27,8.76,7.5,14,10C268,149.1,267.89,150.45,267.8,151.8Z"/><path class="cls-26" d="M229,207.61a10.13,10.13,0,0,1,3-4c4.87,1,7.81,4.7,11.09,7.9a1.56,1.56,0,0,1,0,2.24c-.51,1.77-2.17,2.61-3.2,4C235.16,215.48,230.58,213.15,229,207.61Z"/><path class="cls-96" d="M218,239.74a16.61,16.61,0,0,1-5.63,4.19c-5.18-1.81-8.62-6-12.68-9.34l6.37-4.54C210,233.36,213.93,236.63,218,239.74Z"/><path class="cls-97" d="M234.06,224.76a11.35,11.35,0,0,1-3.85,4.06c-4.42.15-10.36-4.27-12.16-9.06l4-4C226.83,217.7,230,221.77,234.06,224.76Z"/><path class="cls-98" d="M251,161.52a4.74,4.74,0,0,0,2,4.23c3.46,2.5,6.69,5.3,10,8-.39,1.34-.77,2.68-1.16,4-5.47-1.32-8.51-6.06-12.77-9.08A20,20,0,0,1,251,161.52Z"/><path class="cls-99" d="M59.06,23.8l4-2.69c3.53,1.77,6.2,4.71,9.31,7.05,1.12.83,2.35,1.89,1.71,3.67l-5,3.11c-3.44-1.68-6.06-4.43-8.86-6.92C59.11,27,57.71,25.7,59.06,23.8Z"/><path class="cls-100" d="M234.06,224.76c-5.24-1.37-8.32-5.61-12-9,1.28-1.42,2.56-2.85,3.85-4.27,4,3,8.73,5.28,10.93,10.23A6.15,6.15,0,0,1,234.06,224.76Z"/><path class="cls-101" d="M235.09,198.9a11.39,11.39,0,0,1,2.76-4.48c4.11,3,8.77,5.45,11.16,10.32-.3,1.81-1.72,2.83-2.88,4C240.74,207.87,235.22,202.93,235.09,198.9Z"/><path class="cls-102" d="M199.69,234.59c5.28,1.69,8.73,5.85,12.68,9.34a8.62,8.62,0,0,1-4.21,2.88c-5.49-1.37-10.86-6.55-11.1-10.71C197.83,235.42,198.52,234.58,199.69,234.59Z"/><path class="cls-103" d="M218,239.74a19.88,19.88,0,0,1-11.94-9.69l4-3.07a28.3,28.3,0,0,0,7,6.76c1.55,1.12,2.93,2.2,3,4.27Z"/><path class="cls-104" d="M62.21,39.83C58.54,36.37,53.82,34.05,51,29.65c1-1.49,2.51-2.2,4-3,4.48,2.57,9.16,4.92,11.21,10.17A10,10,0,0,1,62.21,39.83Z"/><path class="cls-105" d="M236.82,221.7c-3.37-3.7-8.31-5.73-10.93-10.23a9.07,9.07,0,0,1,3.08-3.85c2.9,4.14,7.5,6.44,10.87,10.08C239.46,219.51,237.91,220.43,236.82,221.7Z"/><path class="cls-106" d="M218.05,219.76c3.91,3.21,7,7.54,12.16,9.06-1.44,1.88-2.88,3.77-5.17,4.73-2.25-4.9-6.9-7.11-11.08-9.84Z"/><path class="cls-107" d="M197.06,236.1c2.16,5.16,7.38,7.17,11.1,10.71L204,249.54c-4.13-3.52-7.6-7.91-13-9.79Z"/><path class="cls-108" d="M235.09,198.9c2.34,4.78,7,6.94,11,9.88-.27,2.12-1.7,3.53-3.09,5-2.53-4.66-7.46-6.68-11.08-10.14A11.78,11.78,0,0,1,235.09,198.9Z"/><path class="cls-109" d="M253.06,149.75c3.73,1.4,6.38,4.28,9.26,6.82,1.36,1.2,2.48,2.77,4.52,1.22l-1,5c-.84,1.8-2.16,1.29-3.22.43-2.95-2.37-6-4.59-8.77-7.2-1.66-1.57-1.62-3.46-.87-5.43A.78.78,0,0,1,253.06,149.75Z"/><path class="cls-110" d="M74.08,31.83C71.89,28.2,68,26.46,65,23.77c-.89-.78-1.82-1.38-1.91-2.66l4-2.31A25.51,25.51,0,0,0,79.35,28.87Z"/><path class="cls-111" d="M249,204.74c-3.56-3.61-8.46-5.77-11.16-10.32.71-1.28,1.42-2.56,2.12-3.84,3.92,3.16,8.63,5.46,11.12,10.18A5.72,5.72,0,0,1,249,204.74Z"/><path class="cls-112" d="M253,150.59c-.14,2.1.3,3.8,2.32,5,3.6,2.24,5.71,6.69,10.54,7.15l-1,4c-2.37,1.35-3.14-.94-4.28-2-2.86-2.73-7-4.19-8.64-8.16C252,154.54,251.82,152.45,253,150.59Z"/><path class="cls-113" d="M66.23,36.86c-3.19-4-8.15-6-11.21-10.17a9,9,0,0,1,4-2.89c.67,3.25,3.34,4.68,5.73,6.43a13.16,13.16,0,0,1,4.33,4.71A4.59,4.59,0,0,1,66.23,36.86Z"/><path class="cls-114" d="M251.09,200.76c-3.66-3.45-8.61-5.48-11.12-10.18l.93-1.87c4.88,1.83,8,6,12,9C253.21,199.28,251.62,199.71,251.09,200.76Z"/><path class="cls-115" d="M16.78,70.64c4.69,1.77,6.93,7.23,12.22,8.11a5.93,5.93,0,0,1-1.89,4.17c-2.67-4.71-7.34-7.2-11.43-10.34Z"/><path class="cls-116" d="M140,6.75c-2.28,0-3.41-1.84-4.68-3.25-1.77-2-3.73-3.13-6.43-2.79a22.1,22.1,0,0,1,11.19,0l-4.4.2C136.39,3.66,139.16,4.51,140,6.75Z"/><path class="cls-117" d="M1,123.68q0,3.54.07,7.08-.06,7-.11,14.07A56.55,56.55,0,0,1,1,123.68Z"/><path class="cls-117" d="M15,125.76c.26-.32.53-.64.79-1l0,19.91c-1.4-1.45-.52-3.31-.92-4.94Q15,132.76,15,125.76Z"/><path class="cls-116" d="M146.85,15.86c2.54-2.81-1.79-3.2-1.81-5.11a8.33,8.33,0,0,1,6,5.82A6.66,6.66,0,0,1,146.85,15.86Z"/><path class="cls-11" d="M27.16,137.75c-.06.73-.12,1.47-.19,2.2A20.6,20.6,0,0,1,27,128.72C27.07,131.73,27.12,134.74,27.16,137.75Z"/><path class="cls-118" d="M47.13,39.75c3.23-.3,4.16,1.92,4.81,4.43C49.65,43.44,47.68,42.37,47.13,39.75Z"/><path class="cls-79" d="M129.09,15.57c2.16-1.62,4.66-.44,7-.88,1,.11,2.13-.14,2.91.79Z"/><path class="cls-119" d="M39,91.75l-3.13-1.06,1.12-2Z"/><path class="cls-56" d="M145.1,268.55c1.53-1.38,3.37-.61,5.09-.75C148.61,268.87,146.85,268.64,145.1,268.55Z"/><path class="cls-120" d="M144.66,182.87c.18,1,.37,1.92.55,2.88v16a20.71,20.71,0,0,1-1.61,6.85l-4.87,4-6.69.17a15.73,15.73,0,0,1-6.06-5c-1.2-2.89-.8-6-1.1-9v-7l.12-8,1.81-4a2,2,0,0,0,.27-.88,4.94,4.94,0,0,0,3.22-2c.69-1.33,2.07-.53,3-1a.63.63,0,0,0,.71-.07C139.05,176,142.47,178.49,144.66,182.87Z"/><path class="cls-58" d="M153,69,154,67.75c14.85,10.51,28.36,22.67,42.51,34.05,13.25,10.67,26.31,21.58,39.52,32.31a48.62,48.62,0,0,0,5.93,3.62c-.19,1.22.72,2.94-.92,3.51-1.31.45-2.48-.66-3.51-1.5l-39.51-32.46C186.81,98,175.58,88.76,164.25,79.62c-1.73-1.4-3.51-3.2-6.14-2.87A8.69,8.69,0,0,1,153,69Z"/><path class="cls-119" d="M60,108.75c-2-.07-3.12-1.39-4-3C58.07,105.83,59.16,107.15,60,108.75Z"/><path class="cls-119" d="M71,117.75c-2-.07-3.12-1.39-4-3C69.07,114.83,70.16,116.15,71,117.75Z"/><path class="cls-120" d="M153,69l5.16,7.72c.32.67.64,1.34,1,2,1,1.14,2.08,2.27,1.13,4,.16.39.33.77.49,1.15l1.38,6.88q0,3.51,0,7,0,3,0,6l-.15,1.74-2,8.22c-.61,1.33-1.22,2.67-1.84,4a7.21,7.21,0,0,0-2.09,3.8,13.79,13.79,0,0,0-3.06,5.19,12.56,12.56,0,0,0-2.91,5l-2.33,3.9a6.31,6.31,0,0,0-1.64,4c-1.61,2.57-.84,5.38-.79,8.11l-.3,3.73-2.83,4.45-6,2.77-3-.08a8.38,8.38,0,0,1-7.22-5.87c-.3-1-.61-2-.91-3l0-7,.9-6c-.89-1.66,0-3.28.09-4.93.38-2.4,2-4.23,3-6.31.8-1.35,1.75-2.6,2.46-4,1-1.71,1.79-3.51,2.92-5.13a43.16,43.16,0,0,0,2.82-5.12,13.62,13.62,0,0,0,1.73-3.53c.39-2.06,1.86-3.79,1.84-6,.05-2.51,0-5,0-7.52C139.86,83,134.06,78,121.83,78.09c-2.81.09-5,1.58-7.22,3.12a16.37,16.37,0,0,0-3.9,4.23,11.56,11.56,0,0,0-1.76,5,20.34,20.34,0,0,0-.57,5.71,42.11,42.11,0,0,1-.22,6.15,17.15,17.15,0,0,1-2.5,5.71,12.2,12.2,0,0,1-4.55,3.11c-2.07.72-4.16,1.49-6-.49a14.65,14.65,0,0,1-7.1-5.83c-.27-2.33-.55-4.66-.82-7v-6q.39-3,.79-6a8.73,8.73,0,0,0,1.16-5l2.63-5,2.36-4c1.08-1.31,2.17-2.61,3.25-3.91l2.83-2.67L104.45,62a7.3,7.3,0,0,0,3.64-2l5.17-2.07L119,56.62l1-.06a28.87,28.87,0,0,1,8.9,0l7,1.32A50.55,50.55,0,0,1,153,69Z"/><path class="cls-33" d="M127,131.73c.33,1.84-.78,3.35-1.17,5C119,133.22,114,127.37,107.88,123c-3.35-2.37-6.44-5.1-9.59-7.73-1.5-1.24-3.29-2.36-3.19-4.71l6-.64c7.28,4.29,13.19,10.32,19.75,15.52C123.1,127.26,125.88,128.71,127,131.73Z"/><path class="cls-121" d="M133.33,175.9l-3,1L89.7,143.58l-41.35-34c-4.22-3.47-8.36-7-12.65-10.39-1.2-.94-1.81-1.85-1.56-3.32,5.5,2.21,9.25,6.81,13.72,10.37,17.87,14.23,35.53,28.75,53.23,43.19Q117.26,162.61,133.33,175.9Z"/><path class="cls-49" d="M160.21,82.72c-.38-1.32-.75-2.64-1.13-4a14.26,14.26,0,0,1,8,6C164.42,85.25,163.4,80.31,160.21,82.72Z"/><path class="cls-49" d="M222,129.75c2.54.25,3.76,2.14,5,4C224.5,133.51,223.29,131.61,222,129.75Z"/><path class="cls-49" d="M189,102.75c2,.08,3.12,1.4,4,3C191,105.68,189.92,104.36,189,102.75Z"/><path class="cls-49" d="M167,84.75c2,.08,3.12,1.4,4,3C169,87.68,167.92,86.36,167,84.75Z"/><path class="cls-49" d="M173,89.75c2,.08,3.12,1.4,4,3C175,92.68,173.92,91.36,173,89.75Z"/><path class="cls-49" d="M211,120.75c2,.08,3.12,1.4,4,3C213,123.68,211.92,122.36,211,120.75Z"/><path class="cls-49" d="M200,111.75c2,.08,3.12,1.4,4,3C202,114.68,200.92,113.36,200,111.75Z"/><path class="cls-49" d="M178,93.75c2,.08,3.12,1.4,4,3C180,96.68,178.92,95.36,178,93.75Z"/><path class="cls-18" d="M129,56.54l-8.9,0c1.81-1.51,4-.49,6-.86C127.08,55.8,128.21,55.56,129,56.54Z"/><path class="cls-116" d="M145,10.75c-2.54-.24-3.75-2.14-5-4C142.58,7,143.8,8.89,145,10.75Z"/><path class="cls-122" d="M141.81,102.75c.33,2.35-2.26,3.69-2.07,6-1.43,1.12-2.49.08-3.49-.71-8.41-6.66-16.74-13.43-24.9-20.4-.86-.73-1.87-1.48-1.31-2.88a7.3,7.3,0,0,1,3.71-4.14,1.71,1.71,0,0,1,1.88.07C124.52,87.84,134,94.32,141.81,102.75Z"/><path class="cls-123" d="M141.81,102.75c-7.34-4.65-13.49-10.81-20.34-16.08-2.6-2-5.15-4-7.72-6.06a11.16,11.16,0,0,1,7.33-3.67c7.57,4.82,14.21,10.78,20.8,16.81Q141.83,98.25,141.81,102.75Z"/><path class="cls-25" d="M137.94,111.75a13.74,13.74,0,0,1-2.9,5c-1.82,1.33-3.24,0-4.45-1-7.5-6-15-12-22.32-18.34a5.05,5.05,0,0,1-1.06-1.68c-.24-2.08-.36-4.14.79-6,1.88-.83,3.2.37,4.47,1.37C121.05,97.87,129.47,104.84,137.94,111.75Z"/><path class="cls-124" d="M107.21,95.78c7.52,4.79,13.88,11.06,20.85,16.54,2.2,1.73,4.13,3.79,7,4.43a13.31,13.31,0,0,1-2.88,5.06,2.67,2.67,0,0,1-3.2-.52c-7.22-6.23-15.27-11.49-21.8-18.54Z"/><path class="cls-29" d="M127,131.73c-8.68-7.19-18-13.65-25.87-21.79l3.66-2.33c2.08-.85,3.49.49,4.85,1.64,6.67,5.64,13.49,11.11,20.36,16.5Z"/><path class="cls-26" d="M130,125.75c-6.31-1-9.3-6.89-14.26-9.91-3.91-2.37-6.6-6.4-11-8.23q1.22-2.43,2.42-4.86c7.34,4.18,13.1,10.37,19.73,15.45a24.88,24.88,0,0,0,5.27,3.61A8.59,8.59,0,0,1,130,125.75Z"/><path class="cls-36" d="M137.94,111.75c-6.45-1.88-10.22-7.5-15.45-11.08-5-3.42-8.94-8.24-14.49-10.93a6.64,6.64,0,0,1,2-5c9.6,8.36,19.19,16.75,29.7,24Z"/><path class="cls-125" d="M141.88,93.75c-7.8-4.53-14.43-10.52-20.8-16.81C133.1,75.36,142,82.54,141.88,93.75Z"/></g></g></svg>