<svg width="11" height="19" viewBox="0 0 11 19" fill="none" xmlns="http://www.w3.org/2000/svg">
<path d="M6.78155 16.4339C7.0577 16.4339 7.28155 16.6578 7.28155 16.9339C7.28155 17.2101 7.0577 17.4339 6.78155 17.4339V16.4339ZM4.21845 17.4339C3.9423 17.4339 3.71845 17.2101 3.71845 16.9339C3.71845 16.6578 3.9423 16.4339 4.21845 16.4339V17.4339ZM8.98058 1.55686H2.01942V0.556856H8.98058V1.55686ZM1.5 2.05184V17.005H0.5V2.05184H1.5ZM2.01942 17.5H8.98058V18.5H2.01942V17.5ZM9.5 17.005V2.05184H10.5V17.005H9.5ZM8.98058 17.5C9.27895 17.5 9.5 17.267 9.5 17.005H10.5C10.5 17.842 9.80823 18.5 8.98058 18.5V17.5ZM1.5 17.005C1.5 17.267 1.72105 17.5 2.01942 17.5V18.5C1.19177 18.5 0.5 17.842 0.5 17.005H1.5ZM2.01942 1.55686C1.72105 1.55686 1.5 1.78983 1.5 2.05184H0.5C0.5 1.21482 1.19177 0.556856 2.01942 0.556856V1.55686ZM8.98058 0.556856C9.80823 0.556856 10.5 1.21482 10.5 2.05184H9.5C9.5 1.78983 9.27895 1.55686 8.98058 1.55686V0.556856ZM4.1165 1.52341H6.82524V2.52341H4.1165V1.52341ZM6.82524 1.52341C7.1397 1.52341 7.37379 1.27771 7.37379 1H8.37379C8.37379 1.85272 7.66898 2.52341 6.82524 2.52341V1.52341ZM3.56796 1C3.56796 1.27771 3.80205 1.52341 4.1165 1.52341V2.52341C3.27277 2.52341 2.56796 1.85272 2.56796 1H3.56796ZM6.78155 17.4339H4.21845V16.4339H6.78155V17.4339Z" fill="#897E82"/>
<path d="M6.78155 16.4339C7.0577 16.4339 7.28155 16.6578 7.28155 16.9339C7.28155 17.2101 7.0577 17.4339 6.78155 17.4339V16.4339ZM4.21845 17.4339C3.9423 17.4339 3.71845 17.2101 3.71845 16.9339C3.71845 16.6578 3.9423 16.4339 4.21845 16.4339V17.4339ZM8.98058 1.55686H2.01942V0.556856H8.98058V1.55686ZM1.5 2.05184V17.005H0.5V2.05184H1.5ZM2.01942 17.5H8.98058V18.5H2.01942V17.5ZM9.5 17.005V2.05184H10.5V17.005H9.5ZM8.98058 17.5C9.27895 17.5 9.5 17.267 9.5 17.005H10.5C10.5 17.842 9.80823 18.5 8.98058 18.5V17.5ZM1.5 17.005C1.5 17.267 1.72105 17.5 2.01942 17.5V18.5C1.19177 18.5 0.5 17.842 0.5 17.005H1.5ZM2.01942 1.55686C1.72105 1.55686 1.5 1.78983 1.5 2.05184H0.5C0.5 1.21482 1.19177 0.556856 2.01942 0.556856V1.55686ZM8.98058 0.556856C9.80823 0.556856 10.5 1.21482 10.5 2.05184H9.5C9.5 1.78983 9.27895 1.55686 8.98058 1.55686V0.556856ZM4.1165 1.52341H6.82524V2.52341H4.1165V1.52341ZM6.82524 1.52341C7.1397 1.52341 7.37379 1.27771 7.37379 1H8.37379C8.37379 1.85272 7.66898 2.52341 6.82524 2.52341V1.52341ZM3.56796 1C3.56796 1.27771 3.80205 1.52341 4.1165 1.52341V2.52341C3.27277 2.52341 2.56796 1.85272 2.56796 1H3.56796ZM6.78155 17.4339H4.21845V16.4339H6.78155V17.4339Z" fill="white"/>
</svg>
