<svg width="88" height="100" viewBox="0 0 88 100" fill="none" xmlns="http://www.w3.org/2000/svg">
<path d="M19.6881 87.4552C18.3686 86.5362 17.9864 85.7965 17.8543 83.9061L17.7342 82.1891L16.6422 82.1837C14.3517 82.1726 12.3759 80.5615 11.9067 78.3223C11.7636 77.6394 11.6465 76.0583 11.6465 74.8087C11.6465 72.7254 11.6059 72.5236 11.1578 72.3781C10.1627 72.0549 8.9294 70.6116 5.38862 65.6269C1.633 60.3398 1 59.2143 1 57.8236C1 56.6032 1.88217 54.9082 3.02712 53.9288C3.96382 53.1275 4.01555 53.0235 3.71261 52.5503C3.1149 51.6168 2.84706 49.7026 3.13129 48.3959C3.52666 46.5781 4.17458 45.8142 7.3879 43.3772C11.8497 39.9933 11.4725 40.1816 13.7921 40.1812C15.6136 40.1809 15.9206 40.2492 16.8154 40.8547C17.3632 41.2254 18.4583 42.4239 19.2489 43.5181C20.0395 44.6123 20.7222 45.5465 20.766 45.5941C20.8098 45.6418 22.156 44.5447 23.7577 43.1561C28.9907 38.6195 35.4511 33.8419 41.0426 30.3735C42.1812 29.6672 43.1128 29.0552 43.1128 29.0134C43.1128 28.9716 42.2404 27.723 41.1741 26.2387C39.3571 23.7095 39.2291 23.4514 39.1356 22.1286C38.9839 19.9821 39.3656 19.5322 44.7037 15.566C49.1906 12.2322 49.3857 12.1165 50.6846 12.0204C52.3645 11.896 53.237 12.3231 54.2868 13.7837C54.7124 14.3758 55.1427 14.8644 55.243 14.8696C55.3434 14.8748 55.8588 14.5857 56.3882 14.2271C58.4975 12.7986 61.3781 13.3224 63.0374 15.4362C64.4402 17.2233 70.0242 25.1963 70.416 25.9715C70.8803 26.8903 70.9095 29.1382 70.4712 30.2118C70.2938 30.6463 69.6563 31.4453 69.0544 31.9875L67.9601 32.9733L68.7177 34.0348C69.3488 34.9189 69.4908 35.3632 69.5677 36.6934C69.6554 38.2109 69.6217 38.3353 68.8906 39.1874C68.4675 39.6806 66.1672 41.54 63.7789 43.3194C59.1261 46.7859 58.4376 47.1039 56.6505 46.6114C55.5737 46.3147 54.8504 45.5572 52.6226 42.3928L51.1311 40.2741L49.7369 41.5951C46.9597 44.2264 40.1512 49.5265 35.4765 52.6962C34.2763 53.5099 33.2566 54.2071 33.2104 54.2454C33.1642 54.2838 33.5156 54.6649 33.9914 55.0924C35.4231 56.3789 35.542 56.8142 35.542 60.7719V64.3175L36.6658 64.1728C42.644 63.4033 56.0953 63.4014 62.0733 64.1692L63.1714 64.3102L63.2563 60.5798C63.3394 56.9277 63.355 56.8308 64.004 55.9602C65.183 54.3783 65.35 54.345 72.1066 54.345C78.8279 54.345 79.3093 54.4354 80.3194 55.8871C80.7154 56.4562 80.8665 57.0706 80.9307 58.3729L81.0161 60.1027L82.5043 60.1997C84.2217 60.3116 85.4368 61.026 86.4085 62.495L87 63.3891V71.1915V78.9938L86.2551 80.0462C85.2688 81.4396 83.8614 82.1891 82.231 82.1891H80.967V83.6657C80.967 85.4829 80.4718 86.6227 79.3404 87.4095C78.4929 87.9989 78.4792 88 72.1933 88C66.0515 88 65.8759 87.9865 65.1132 87.4552C63.4701 86.3108 63.3502 85.9445 63.2561 81.7808L63.171 78.0182L62.3097 78.1713C61.836 78.2555 59.8437 78.3929 57.8823 78.4766C54.3592 78.6271 54.31 78.6221 53.8012 78.0632C53.1168 77.3114 53.1247 76.1268 53.8184 75.4884C54.2684 75.0743 54.9181 74.9535 58.0179 74.7073C60.0348 74.5471 62.031 74.355 62.4539 74.2806L63.2228 74.1451V71.1668V68.1885L62.3356 68.0429C57.432 67.2383 41.9945 67.2435 36.5475 68.0517L35.542 68.2009V71.1725V74.144L36.5475 74.2935C37.1005 74.3757 39.1499 74.5533 41.1018 74.6882C44.4592 74.9202 44.6794 74.9666 45.183 75.5482C45.8565 76.3261 45.8633 77.3348 45.1999 78.0636C44.6894 78.6243 44.6493 78.6282 41.0004 78.4742C38.9742 78.3887 36.9246 78.2504 36.4458 78.1669L35.5753 78.0152L35.4995 81.8643C35.4286 85.4642 35.3881 85.7597 34.874 86.4277C33.6634 88.0007 33.6846 87.9966 26.764 87.9984C20.6253 87.9999 20.451 87.9866 19.6881 87.4552H19.6881ZM31.6994 71.233L31.6382 58.0979H26.6699H21.7015L21.64 70.9304C21.6062 77.9882 21.6295 83.8991 21.6917 84.0655C21.7774 84.2944 23.0186 84.3682 26.7828 84.3682H31.7606L31.6994 71.233ZM77.2746 83.9852C77.3535 83.7745 77.4182 77.9588 77.4182 71.0613C77.4182 60.7032 77.3614 58.4722 77.0922 58.2435C76.8652 58.0507 75.3018 57.9866 71.9464 58.0323L67.1266 58.0979L67.0651 70.9304C67.0312 77.9882 67.0545 83.8991 67.1168 84.0655C67.2024 84.2943 68.4382 84.3682 72.1805 84.3682C76.4764 84.3682 77.1499 84.3175 77.2746 83.9852V83.9852ZM17.7978 71.1725V64.0299H16.9832C15.4942 64.0299 15.4319 64.3166 15.4319 71.1725C15.4319 78.0284 15.4942 78.3151 16.9832 78.3151H17.7978V71.1725ZM83.0742 77.873C83.2755 77.4882 83.3931 72.6505 83.3471 66.65C83.3307 64.5077 83.0446 64.0299 81.7782 64.0299H80.967V71.1725V78.3151H81.905C82.5711 78.3151 82.9101 78.1869 83.0742 77.873V77.873ZM11.7186 65.6576L11.8296 64.0166L9.22373 60.3309C7.79048 58.3037 6.53148 56.5483 6.42595 56.43C6.31877 56.3099 5.90995 56.5466 5.49984 56.9663L4.76561 57.7177L5.18955 58.5322C5.76678 59.6411 11.5174 67.71 11.5675 67.4813C11.5895 67.3808 11.6575 66.5601 11.7186 65.6576V65.6576ZM16.4075 60.2279L17.738 60.1021L17.8561 58.412C17.9863 56.5505 18.374 55.8051 19.6881 54.8898C20.1183 54.5901 20.8271 54.345 21.2633 54.345C21.6995 54.345 22.0564 54.2888 22.0564 54.2201C22.0564 54.0638 16.5984 46.3563 15.5009 44.9627C14.2446 43.3677 13.7554 43.4757 10.1226 46.1499C8.26549 47.517 7.01972 48.607 6.87106 48.9948C6.54381 49.8486 6.87033 50.4258 10.8501 56.029C13.6119 59.9175 14.2055 60.6246 14.6039 60.5008C14.8641 60.4199 15.6757 60.2971 16.4075 60.2279V60.2279ZM28.8923 52.3685C34.7754 48.7566 42.3518 43.0785 47.8357 38.1713L48.8916 37.2265L48.4432 36.5246C48.1966 36.1385 47.4217 35.0288 46.7212 34.0586L45.4475 32.2945L44.1027 33.0707C41.8248 34.3855 35.5721 38.6646 32.5846 40.9534C28.0407 44.4344 23.2393 48.5331 23.2393 48.9309C23.2393 49.224 26.424 53.6186 26.6364 53.6186C26.7573 53.6186 27.7724 53.0561 28.8923 52.3685V52.3685ZM65.8121 36.8285C65.8326 36.5103 51.1598 15.9686 50.912 15.9686C50.6455 15.9686 42.8742 21.695 42.8809 21.8864C42.8849 22.0002 45.6424 25.902 56.5374 41.21L57.7777 42.9527L61.7883 39.993C63.9941 38.3651 65.8049 36.9411 65.8121 36.8285V36.8285ZM66.4607 29.1221C66.7619 28.8325 67.006 28.3695 67.0031 28.093C66.998 27.5928 60.4768 18.1797 59.7358 17.6029C59.1999 17.1858 58.7103 17.2316 58.0362 17.762L57.463 18.2129L60.2741 22.1753C64.8804 28.6684 65.6 29.6485 65.7602 29.6485C65.8443 29.6485 66.1595 29.4116 66.4607 29.1221V29.1221Z" fill="#424242"/>
</svg>
