<svg id="Camada_1" data-name="Camada 1" xmlns="http://www.w3.org/2000/svg" viewBox="0 0 626 654.84"><path d="M820.1,786.45,737,446.74A63.79,63.79,0,0,0,674.91,398H634.77V328.22c0-1.15-1.44-115.35-125.77-115.35S383.23,327.07,383.23,328.22V398H343.09A63.8,63.8,0,0,0,281,446.74L226.34,670.15A16.28,16.28,0,0,0,258,677.89l54.62-223.42a31.33,31.33,0,0,1,30.51-23.94H674.91a31.31,31.31,0,0,1,30.5,23.94l83.06,339.71a33.12,33.12,0,0,1-32.17,41H261.7a33.12,33.12,0,0,1-32.17-41,16.28,16.28,0,1,0-31.62-7.73,65.66,65.66,0,0,0,63.79,81.27H756.3a65.69,65.69,0,0,0,63.8-81.27ZM509,245.43c89.87,0,93.13,74.38,93.21,82.79V398H415.79V328.29C415.87,319.81,419.12,245.43,509,245.43Z" transform="translate(-196 -212.87)"/></svg>