<svg width="138" height="157" viewBox="0 0 138 157" fill="none" xmlns="http://www.w3.org/2000/svg">
<g clip-path="url(#clip0_31_16)">
<path d="M37.4741 155.968C36.1716 154.951 36.151 154.839 36.151 148.744C36.151 143.217 36.2588 142.446 37.1553 141.557C38.3379 140.384 41.035 140.236 42.4575 141.267C43.2193 141.819 43.487 142.77 43.6832 145.626L43.9342 149.278L51.7767 149.415L59.6192 149.552L59.9358 146.675C60.11 145.093 60.4734 140.324 60.7433 136.077C61.0133 131.83 61.5811 123.76 62.005 118.143C62.4289 112.526 62.8994 105.465 63.0502 102.451C63.3904 95.6588 64.0412 92.9886 65.6647 91.7214C68.0933 89.8263 72.6694 90.8876 73.701 93.585C73.9941 94.3515 74.4912 98.5652 74.8058 102.949C75.1202 107.333 75.6884 115.179 76.0683 120.385C76.4481 125.591 77.0174 133.773 77.3334 138.568C77.6492 143.363 77.9465 147.734 77.9939 148.282C78.0761 149.233 78.4435 149.278 86.1142 149.278H94.1485L94.2652 118.925C94.3756 90.1692 94.3282 88.3073 93.3647 83.5552C92.3992 78.7925 87.7212 64.0323 86.9153 63.2058C86.4914 62.7711 77.302 64.2058 76.6743 64.8047C76.4535 65.0153 76.736 67.8804 77.302 71.1714C78.5796 78.6006 78.5989 80.3859 77.4127 81.4508C75.944 82.7696 73.0729 82.5181 71.8397 80.9627C71.2673 80.2408 70.7994 79.1759 70.8 78.5964C70.8021 76.4929 69.1635 68.7547 68.8014 69.158C68.597 69.3858 68.0361 72.038 67.5551 75.052C67.055 78.1852 66.3462 80.9051 65.9001 81.4036C64.9262 82.4914 61.6238 82.5668 60.5737 81.5251C59.2251 80.1871 59.2113 79.0465 60.4575 72.0139C61.1326 68.205 61.5324 64.9385 61.3461 64.7551C61.0823 64.4956 52.5575 62.8469 51.4791 62.8469C50.5724 62.8469 46.0878 76.0079 44.6672 82.8381C43.8075 86.9719 43.6957 89.6823 43.6898 106.525L43.6832 125.543L42.3601 126.576C40.6702 127.895 39.1513 127.885 37.4327 126.543L36.0682 125.479L36.2875 104.251C36.4938 84.2669 36.5718 82.7889 37.6154 79.0373C39.2615 73.1191 41.0493 67.4993 42.4816 63.7396L43.7548 60.3982L42.2627 57.2636C41.4421 55.5395 40.2972 52.2235 39.7183 49.8946C38.3614 44.4346 36.154 30.4321 36.1523 27.2742L36.151 24.8296L41.9257 19.0292L47.7004 13.2289V7.64986C47.7004 1.2246 48.2706 0.0781127 51.4665 0.0781127C54.6114 0.0781127 55.2325 1.26242 55.2325 7.25791V12.445L62.0115 14.6931L68.7904 16.9412L75.5693 14.6931L82.3483 12.445V7.57417C82.3483 3.40076 82.4972 2.51536 83.3891 1.39071C84.8592 -0.463571 87.8716 -0.463571 89.3419 1.39071C90.2532 2.54007 90.3825 3.3929 90.3825 8.24861V13.7939L96.1572 19.5065C102.836 26.1133 102.455 24.8278 100.898 35.5294C99.1728 47.3889 97.427 54.3697 95.2503 58.1143L94.0919 60.107L95.2315 62.916C97.229 67.8402 99.8866 77.1592 100.925 82.8825C101.866 88.0665 101.932 90.5802 101.932 121.491V154.554L100.699 155.777L99.4668 157H86.6007H73.7346L72.2667 155.544C70.9316 154.219 70.7988 153.78 70.7972 150.687C70.7906 137.922 69.656 100.375 69.2651 99.985C68.9663 99.6872 68.7855 99.9639 68.7772 100.732C68.7698 101.404 68.5489 107.781 68.2862 114.905C68.0234 122.029 67.5856 133.91 67.313 141.308L66.8176 154.758L65.5163 155.879C64.2406 156.978 63.9656 157 51.5062 157C39.4093 157 38.7335 156.95 37.4741 155.968ZM79.6475 56.3727C88.5205 54.8864 88.1141 55.0298 89.0671 53.0472C90.1343 50.827 92.0476 42.082 93.1751 34.2709L94.0282 28.3613L89.7049 24.072L85.3814 19.7828L77.0778 22.4948L68.7742 25.2068L60.6888 22.5505L52.6036 19.8943L48.3521 24.0593L44.1008 28.2244L44.4251 31.9606C44.8984 37.4166 47.0337 48.4249 48.2381 51.6181C48.8114 53.1384 49.6594 54.573 50.1224 54.8063C50.5854 55.0396 53.3369 55.6092 56.2368 56.0722C59.1367 56.5352 62.7521 57.1152 64.271 57.3612C67.7411 57.9233 72.0426 57.6468 79.6475 56.3727Z" fill="#CF38EF"/>
</g>
<defs>
<clipPath id="clip0_31_16">
<rect width="138" height="157" fill="white"/>
</clipPath>
</defs>
</svg>
