<svg width="88" height="100" viewBox="0 0 88 100" fill="none" xmlns="http://www.w3.org/2000/svg">
<path d="M30.5958 92.7096C25.5302 92.4377 16.9498 91.5581 13.5746 90.9647C9.37104 90.2257 7.13581 88.7225 5.70304 85.6711C5.05054 84.2815 5 83.903 5 80.4071V76.6403L5.75595 75.9833C6.71619 75.1487 7.41146 75.1518 8.2454 75.9945C8.87238 76.628 8.90673 76.8285 8.90673 79.8559C8.90673 83.5904 9.37468 84.9737 10.9763 85.9738C12.3593 86.8375 16.4757 87.5368 24.3489 88.2456C34.7898 89.1856 52.9153 89.3314 60.2787 88.5347L62.0866 88.3391L59.1391 87.57C47.8565 84.6263 37.1626 77.8509 29.7168 68.9288C21.7523 59.3851 17.2229 48.7222 15.8134 36.1982L15.4834 33.2662L14.0944 38.9831C11.9399 47.8504 10.8698 53.8699 9.86915 62.7502C9.29992 67.8018 9.17813 68.4049 8.63808 68.8468C7.84756 69.4935 6.68405 69.4696 6.07904 68.7941C5.65029 68.3154 5.61168 67.9044 5.75299 65.3232C6.36345 54.1728 9.72824 37.7665 14.5537 22.412C15.618 19.0257 15.6425 18.8588 15.6425 15.0026C15.6425 10.6472 15.9381 9.56252 17.4536 8.35789C19.2292 6.94652 18.2735 6.99528 44.0329 7.00169C70.9432 7.0084 69.2368 6.88305 71.0653 8.98729C72.2486 10.349 72.4889 11.4675 72.4907 15.6206L72.4923 19.2092L74.219 25.0127C77.0854 34.6466 78.648 40.9961 80.0608 48.7504C81.8526 58.5859 83 70.4984 83 79.2674C83 84.4613 82.6534 85.8441 80.826 87.9418C78.7937 90.2746 76.1197 91.0168 66.0259 92.0495C56.8651 92.9867 41.1962 93.2787 30.5959 92.7096H30.5958ZM78.4787 84.31C78.976 83.4103 78.9972 82.9468 78.8594 76.0068C78.5273 59.2893 75.6065 42.4261 70.0297 25.0297L68.9602 21.6935L44.2547 21.7629L19.5492 21.8324L19.4699 26.7326C19.2925 37.6835 20.9635 45.9945 25.0685 54.5785C32.4416 69.9965 46.7023 81.0764 63.47 84.4146C68.0059 85.3176 68.0637 85.3227 73.4035 85.2903L77.9521 85.2628L78.4787 84.31ZM28.4404 42.8184C27.0906 42.2123 26.3548 41.1879 26.2297 39.7406C25.897 35.8932 30.4954 34.0685 32.8622 37.1088C33.2785 37.6435 33.4249 38.2225 33.4249 39.3344C33.4249 41.2074 32.5776 42.4924 31.0622 42.9176C29.782 43.2769 29.4317 43.2636 28.4404 42.8184V42.8184ZM27.6631 31.7449C26.2079 30.5884 25.7877 28.8168 26.5382 27.0021C27.0569 25.7476 28.3781 24.9654 29.9802 24.9641C31.0169 24.9633 31.4253 25.118 32.1997 25.8051C33.5503 27.0032 33.9127 28.3903 33.2991 30.0135C32.6916 31.6209 31.6281 32.311 29.7565 32.3124C28.7658 32.3132 28.1773 32.1536 27.6631 31.7449V31.7449ZM68.4507 14.9059C68.4507 12.136 68.4087 11.897 67.8519 11.503C67.3211 11.1273 64.5977 11.0792 43.8727 11.0792C16.4077 11.0792 19.4145 10.6163 19.4145 14.8451C19.4145 16.3174 19.4953 17.6037 19.5941 17.7036C19.6929 17.8034 30.7261 17.885 44.1122 17.885H68.4507V14.9059Z" fill="#424242"/>
</svg>
