<svg width="89" height="100" viewBox="0 0 89 100" fill="none" xmlns="http://www.w3.org/2000/svg">
<path d="M4.53397 88.6208C4.09457 88.3771 3.79329 87.9363 3.6437 87.3184C3.29251 85.8676 2.79729 79.8569 2.97075 79.1506C3.1339 78.4863 4.22139 77.7594 5.05217 77.7594C5.32159 77.7594 5.82299 77.8902 6.16638 78.0501C6.90073 78.392 7.15851 79.2491 7.39043 82.1196C7.47865 83.2114 7.60587 84.1958 7.67314 84.307C7.83624 84.5768 16.7527 84.5684 16.9159 84.2984C17.0708 84.0424 19.2634 66.9125 19.2634 65.9587C19.2634 65.3262 19.1179 65.2353 16.9896 64.5385C14.063 63.5804 9.58296 62.7055 7.39966 62.6657L5.68736 62.6345L5.70319 63.7595C5.71189 64.3782 5.80885 66.0178 5.91866 67.4031L6.1183 69.9217L5.4136 70.4893C4.57187 71.1674 3.08526 71.0861 2.33675 70.3211C1.57552 69.5432 0.83638 61.3663 1.03177 55.8845C1.29646 48.4588 1.97914 44.4812 3.94278 38.9237C5.74396 33.8259 5.86108 33.0343 6.02798 24.8288C6.17384 17.6576 6.18686 17.5123 6.73358 16.9538L7.29057 16.3849L20.1823 16.2599L33.0741 16.1349L34.2081 13.8849C34.8911 12.5297 35.574 11.5121 35.9254 11.3261C36.6883 10.9222 49.781 10.8791 50.6369 11.2777C51.932 11.8808 51.9088 11.6433 52.0612 25.8848C52.1939 38.2842 52.236 39.263 52.7173 41.1347C55.3086 51.2108 60.7467 59.5674 66.7334 62.6727C67.9891 63.3241 68.3115 63.3724 72.467 63.5326C75.9603 63.6672 77.209 63.8129 78.5104 64.2375C80.8537 65.0021 83.6458 66.9891 85.0033 68.8582C87.3983 72.1557 87.9895 74.4694 87.9957 80.5679L88 84.7514L87.3273 85.5164C86.7281 86.198 86.401 86.32 84.3308 86.6342C75.4788 87.9776 64.8769 88.8094 56.0779 88.8509C48.2173 88.8879 47.6881 88.8095 44.8922 87.1939C42.5417 85.8356 40.7609 84.1428 34.7917 77.5924C30.8616 73.2796 28.3833 70.7809 26.9127 69.6484C24.9783 68.1589 23.8179 67.5214 23.5462 67.7991C23.4925 67.8539 23.1646 70.1455 22.8175 72.8916C21.1924 85.7488 20.9311 87.5892 20.67 88.0165C20.1139 88.9265 19.4001 89.0095 12.2193 88.9993C6.51146 88.9911 5.07391 88.9203 4.53398 88.6208H4.53397ZM69.1647 83.9031C75.917 83.3049 81.1808 82.7135 82.9243 82.3571L83.5969 82.2196V79.1599C83.5969 77.1257 83.4684 75.645 83.2135 74.7423C82.475 72.1271 80.4004 69.7633 77.8485 68.6293C77.1016 68.2975 75.799 68.1508 72.3447 68.0096C68.2921 67.8439 67.6426 67.7555 66.1281 67.1628C58.2598 64.0839 51.3879 54.0135 48.3215 41.0683C47.8463 39.0619 47.7926 37.9412 47.6603 27.2598L47.5164 15.6349H42.7464H37.9764L36.7533 18.0098C35.706 20.0436 35.4248 20.4075 34.7964 20.5427C34.3928 20.6296 28.7514 20.714 22.26 20.7302L10.4573 20.7598L10.4551 24.4473C10.451 31.7155 9.96795 34.786 7.92036 40.5591C7.31121 42.2765 6.59214 44.7961 6.32241 46.1581C5.75675 49.0146 5.24682 54.5092 5.36302 56.4958L5.44264 57.8571L8.97509 58.3099C14.457 59.0126 20.0177 60.6241 23.9411 62.6471C26.3115 63.8693 30.0501 66.5386 32.11 68.4795C33.2219 69.5272 35.9646 72.4094 38.2049 74.8844C44.3118 81.631 46.0357 83.1761 48.4457 84.0624C49.6159 84.4927 50.3253 84.5203 57.3008 84.4063C61.4715 84.3381 66.8102 84.1117 69.1646 83.9031H69.1647Z" fill="#CF38EF"/>
</svg>
