<svg width="28" height="31" viewBox="0 0 28 31" fill="none" xmlns="http://www.w3.org/2000/svg">
<path d="M25.5456 31H18.4888C17.3195 31 16.3058 30.2265 16.0806 29.1597C16.0765 29.1433 16.0744 29.1269 16.0724 29.1104L14 14.8865L11.9276 29.1104C11.9256 29.1269 11.9215 29.1433 11.9194 29.1597C11.6942 30.2265 10.6805 31 9.5112 31H2.45444C1.66603 31 0.947247 30.6635 0.480346 30.0747C0.0625923 29.5495 -0.0930414 28.8807 0.0544011 28.2406C0.150648 27.8261 0.562258 27.5676 0.975916 27.662C1.38957 27.7584 1.6476 28.1708 1.5534 28.5852C1.50016 28.8191 1.59436 29.0017 1.68241 29.1145C1.85443 29.33 2.14112 29.4592 2.45444 29.4592H9.5112C9.94328 29.4592 10.3262 29.2028 10.4102 28.8601L12.6034 13.8114C12.6054 13.795 12.6095 13.7786 12.6116 13.7622C12.7467 13.1241 13.3181 12.6789 14 12.6789C14.684 12.6789 15.2553 13.1241 15.3905 13.7622C15.3946 13.7786 15.3966 13.795 15.3987 13.8114L17.5919 28.8601C17.6758 29.2028 18.0588 29.4592 18.4909 29.4592H25.5476C25.8589 29.4592 26.1476 29.33 26.3196 29.1145C26.4077 29.0017 26.5039 28.8191 26.4486 28.5852L20.2315 1.56317C20.2151 1.55292 20.1762 1.5365 20.125 1.54471C18.8615 1.76834 16.3837 2.14174 14 2.14174C11.6163 2.14174 9.13849 1.76834 7.87499 1.54471C7.8238 1.5365 7.78489 1.55087 7.76851 1.56317L2.82509 23.054C2.73089 23.4685 2.31723 23.729 1.90358 23.6326C1.48992 23.5362 1.23189 23.1238 1.32609 22.7094L6.27156 1.20004C6.45791 0.389641 7.27908 -0.125319 8.13916 0.0265021C9.35351 0.241924 11.731 0.600959 13.998 0.600959C16.2649 0.600959 18.6424 0.241924 19.8567 0.0265021C20.7189 -0.125319 21.54 0.389641 21.7264 1.20004L27.9456 28.2406C28.093 28.8807 27.9374 29.5495 27.5197 30.0747C27.0528 30.6615 26.3319 31 25.5456 31Z" fill="black"/>
</svg>
