<svg width="89" height="100" viewBox="0 0 89 100" fill="none" xmlns="http://www.w3.org/2000/svg">
<path d="M4.72007 88.504C3.68608 87.8632 3.56564 87.488 3.23245 83.8703C2.80529 79.2321 2.83919 78.6965 3.59825 78.0896C4.50084 77.3679 5.98053 77.3988 6.72426 78.1548C7.2152 78.6538 7.31934 79.0821 7.47003 81.2222C7.56637 82.5902 7.72507 83.8409 7.82271 84.0015C7.95081 84.2122 9.25398 84.2746 12.5036 84.2256L17.0069 84.1577L18.1729 74.9728C18.8142 69.921 19.2878 65.6524 19.2253 65.487C18.8584 64.5151 6.28424 61.8156 5.80387 62.6056C5.72811 62.7302 5.81934 64.3127 6.0066 66.1223C6.19387 67.9319 6.28524 69.5763 6.20964 69.7766C6.02464 70.2666 4.83732 70.8675 4.05408 70.8675C3.12246 70.8675 2.00062 70.1952 1.87026 69.5588C1.53684 67.9311 0.999276 60.603 1 57.6955C1.00172 50.4033 1.78948 45.3751 3.92195 39.0426C4.72197 36.6669 5.50154 33.9965 5.65432 33.1084C5.8071 32.2203 5.98195 28.5872 6.04289 25.0349C6.10383 21.4825 6.205 18.3277 6.26771 18.024C6.33042 17.7204 6.62109 17.2453 6.91364 16.9683C7.43392 16.4756 7.72521 16.4646 20.2277 16.4646H33.0098L34.1181 14.2214C35.7686 10.8809 35.4277 11.0015 43.2259 11.0003C48.314 10.9996 49.8271 11.075 50.5054 11.3631C52.071 12.028 52.0773 12.0833 52.0773 25.1073C52.0773 38.0977 52.1762 39.2491 53.7129 44.1629C56.3883 52.7178 61.767 60.1973 66.9853 62.6196C68.1994 63.1831 68.7552 63.2602 72.7286 63.4159C77.4626 63.6014 78.7581 63.8882 81.2823 65.3097C83.0772 66.3204 85.3078 68.7205 86.356 70.7689C87.7073 73.4098 87.9953 75.0292 87.9995 80.0091C88.0045 86.0137 88.0493 85.9515 83.2375 86.623C74.8604 87.7921 66.9108 88.4539 55.9876 88.8917C47.0717 89.2489 44.4331 87.9797 36.8503 79.6863C31.019 73.3084 27.9039 70.1994 26.0153 68.8724C24.2576 67.6373 23.4833 67.4455 23.4833 68.2451C23.4833 69.1522 21.2525 86.2404 21.0233 87.0885C20.8514 87.7249 20.5142 88.1895 19.9874 88.516C19.2624 88.9653 18.716 89 12.3634 89C5.95434 89 5.46969 88.9685 4.72007 88.504V88.504ZM68.2073 83.6645C73.7308 83.2272 81.7879 82.3475 82.7912 82.0723L83.4818 81.8829L83.4636 78.5488C83.4481 75.7182 83.3631 75.0009 82.9006 73.7984C81.9862 71.4212 79.574 69.11 77.2093 68.3457C76.7611 68.2009 74.4149 68.0018 71.9954 67.9034C68.0678 67.7436 67.4318 67.656 66.0618 67.0862C63.382 65.9717 61.8046 64.8511 59.1458 62.173C54.2266 57.2181 50.5986 50.4047 48.6754 42.509C47.6382 38.2509 47.4343 35.3498 47.4341 24.8486L47.4339 15.7193H42.7928H38.1518L37.0712 17.9064C36.4768 19.1094 35.799 20.2552 35.565 20.4527C35.2109 20.7516 33.0854 20.8327 22.8961 20.936L10.6527 21.0602L10.5059 26.6496C10.4252 29.7237 10.2257 32.9655 10.0626 33.8536C9.89947 34.7417 9.06392 37.5923 8.20577 40.1882C7.34763 42.7842 6.47555 45.9142 6.26782 47.1439C5.83952 49.6792 5.27609 57.0196 5.47031 57.5341C5.55702 57.7638 6.25592 57.9246 7.63672 58.0325C12.4913 58.412 18.1633 59.8339 22.4221 61.7391C23.7635 62.3392 26.1732 63.7072 27.777 64.7792C30.2932 66.4611 31.296 67.3592 35.092 71.3301C44.5287 81.2014 45.8161 82.4643 47.1274 83.1358C47.8325 83.497 48.8223 83.9002 49.3269 84.0318C50.5839 84.3598 62.3068 84.1317 68.2073 83.6645V83.6645Z" fill="#424242"/>
</svg>
