<svg width="94" height="157" viewBox="0 0 94 157" fill="none" xmlns="http://www.w3.org/2000/svg">
<g clip-path="url(#clip0_31_8)">
<path d="M42.2961 156.596C40.8743 156.365 37.4854 155.347 34.7654 154.335C26.4542 151.242 20.9788 151.389 13.2694 154.911C11.1955 155.858 8.73089 156.633 7.79246 156.632C5.82887 156.63 3.50551 155.229 2.41866 153.393C0.837323 150.721 1.03486 148.749 3.80573 139.537C5.24179 134.763 6.81942 130.291 7.31149 129.598C9.04352 127.16 12.7042 128.405 12.7042 131.431C12.7042 132.115 11.7801 135.726 10.6503 139.455C8.45317 146.707 8.2535 147.93 9.20105 148.333C9.5336 148.474 11.7342 147.874 14.0913 147C21.7186 144.171 28.4045 144.349 36.8942 147.605C44.8247 150.648 49.4234 150.559 58.3322 147.192C66.4379 144.129 74.0284 144.334 82.1931 147.837C86.5858 149.722 86.9388 151.483 74.6937 110.402C68.6472 90.1151 63.3824 73.1123 62.9944 72.6183C62.3758 71.8306 61.5799 71.737 56.5546 71.8602L50.8206 72.001L50.0195 73.886C48.6314 77.1527 45.2393 77.1527 43.8513 73.886L43.0502 72.001L37.412 71.8586C33.7815 71.7671 31.5574 71.9152 31.166 72.2749C30.8315 72.5821 27.6532 82.4805 24.103 94.2712C17.4394 116.402 17.1053 117.223 14.7581 117.223C14.2423 117.223 13.3417 116.852 12.7571 116.398C11.8335 115.682 11.7331 115.301 11.9919 113.493C12.1556 112.349 15.188 101.635 18.7305 89.6855L25.1714 67.9588L23.9881 61.3904C23.3374 57.7778 21.9502 50.2743 20.9056 44.7165C18.7653 33.3285 18.7177 30.6365 20.578 26.1774C21.9668 22.8488 24.1815 20.4141 27.6245 18.431L30.2764 16.904L30.5597 9.33619C30.7156 5.17393 30.8694 1.72783 30.902 1.67822C31.59 0.624585 32.688 0.00155258 33.846 0.00772707C36.8869 0.0239331 37.3507 1.32435 37.3507 9.83752V16.7098L39.3941 17.6795C40.5179 18.2128 42.576 19.4553 43.9672 20.4406C45.3584 21.4258 46.7031 22.2318 46.9554 22.2318C47.2079 22.2318 48.6928 21.3479 50.2555 20.2674C51.8183 19.1871 53.6106 18.137 54.238 17.934C56.8314 17.0953 56.9766 16.6131 56.9766 8.84221C56.9766 0.870926 57.275 0 60.006 0C62.8876 0 63.1142 0.618436 63.3665 9.17346L63.5947 16.9147L65.8695 18.1087C69.3845 19.9538 71.2969 21.9042 72.9427 25.3225C75.4797 30.592 75.4011 32.4058 71.8058 51.6077L68.726 68.0566L80.6515 107.69C87.9025 131.788 92.577 148.078 92.577 149.249C92.577 152.101 91.3589 154.507 89.3373 155.648C86.8808 157.036 85.1016 156.885 80.6847 154.915C72.7847 151.391 67.321 151.233 59.254 154.299C52.3638 156.916 47.9494 157.515 42.2961 156.596ZM43.8622 62.5111C44.9056 60.0554 46.3948 59.2513 48.2899 60.1203C49.1761 60.5269 49.7897 61.2441 49.9709 62.0859C50.5015 64.5511 50.8162 64.6746 56.5656 64.6746C61.6794 64.6746 62.0116 64.6123 62.6262 63.5376C63.684 61.6879 68.5258 34.5554 68.2615 31.9592C67.9774 29.1709 66.0838 26.4354 63.3398 24.8498C60.1817 23.0247 57.9116 23.5313 52.5223 27.2638C50.0984 28.9427 47.593 30.3138 46.9548 30.3107C46.3164 30.3075 43.8544 28.945 41.4833 27.2832C36.9475 24.1042 35.1479 23.4293 32.6123 23.9558C29.1998 24.6645 25.4838 29.3674 25.4838 32.9776C25.4838 35.1526 30.9195 63.2527 31.4864 64.0089C31.8882 64.5445 33.2768 64.672 37.529 64.5634L43.0502 64.4221L43.8622 62.5111Z" fill="#CF38EF"/>
</g>
<defs>
<clipPath id="clip0_31_8">
<rect width="94" height="157" fill="white"/>
</clipPath>
</defs>
</svg>
