<svg width="88" height="100" viewBox="0 0 88 100" fill="none" xmlns="http://www.w3.org/2000/svg">
<path d="M34.4725 92.9592C23.4818 92.4434 12.396 91.126 9.79055 90.0259C8.38817 89.4338 6.66843 87.7503 5.8498 86.1682C5.19186 84.8967 5.12541 84.4661 5.03368 80.8798C4.95044 77.6252 5.00663 76.8633 5.3714 76.3007C6.02863 75.2871 7.76526 75.415 8.53538 76.5339C8.55386 76.5607 8.64517 78.2532 8.73828 80.2949C8.89692 83.7735 8.95344 84.0679 9.63626 84.9722C10.9169 86.6683 12.3673 87.0716 20.6755 88.042C30.169 89.1508 43.2927 89.539 54.221 89.0344C58.3128 88.8455 61.7534 88.6037 61.8669 88.4972C61.9804 88.3907 60.8022 87.9782 59.2486 87.5807C51.8449 85.6861 43.7615 81.5879 37.5836 76.5966C34.835 74.3759 30.8925 70.3903 28.6461 67.5612C21.1712 58.1475 17.0939 48.1486 15.7946 36.0454C15.6124 34.3489 15.4269 32.9977 15.3823 33.0427C15.2899 33.1362 13.6173 39.806 12.9646 42.6839C11.7209 48.1682 10.321 56.5668 9.72933 62.0937C9.10802 67.8979 9.04383 68.2437 8.48228 68.8111C7.79596 69.5047 6.74859 69.4802 6.02972 68.7537C5.49091 68.2092 5.46353 67.9896 5.62927 65.5415C6.15472 57.7811 7.9246 47.0465 10.2544 37.4898C11.637 31.8181 14.2704 22.6193 15.0283 20.8138C15.2391 20.3116 15.4304 18.1311 15.5217 15.1884C15.6622 10.6587 15.7089 10.327 16.336 9.40319C16.702 8.86417 17.49 8.10294 18.0873 7.71158L19.1733 7L44.2469 7.07247L69.3205 7.14495L70.341 7.97965C72.1909 9.49273 72.4623 10.3826 72.6298 15.4829L72.778 19.9937L74.4532 25.4893C80.0538 43.8614 82.862 61.1293 82.9845 77.9496C83.0305 84.2618 83.0091 84.5576 82.4217 85.7492C80.9707 88.6925 79.0146 90.1192 75.4982 90.7988C68.684 92.1159 58.8091 92.8536 46.511 92.9643C41.0057 93.0138 35.5884 93.0116 34.4725 92.9592V92.9592ZM78.1105 85.2524C79.292 83.9332 79.4563 82.8572 79.2681 77.6762C78.5524 57.9811 75.9195 42.706 70.0793 24.3677L69.2087 21.6339L44.2658 21.5642L19.3229 21.4944L19.3276 27.3051C19.3346 35.9752 19.9923 40.9384 21.9441 47.0486C24.6042 55.376 28.5791 62.1345 34.4413 68.2976C45.2988 79.7123 58.6922 85.5072 74.6716 85.7038C77.2395 85.7355 77.7363 85.6702 78.1105 85.2524H78.1105ZM27.4776 42.1282C25.2439 40.2289 26.0196 36.467 28.801 35.7102C31.3131 35.0267 33.3904 36.6422 33.3904 39.2793C33.3904 41.4846 31.9791 42.8206 29.6496 42.8206C28.5913 42.8206 28.1122 42.6679 27.4776 42.1282V42.1282ZM27.8229 31.6597C25.4864 30.1743 25.6515 26.3875 28.1042 25.2114C29.8203 24.3885 31.662 24.8181 32.8254 26.3127C33.2393 26.8445 33.3904 27.4317 33.3904 28.5092C33.3904 29.7951 33.277 30.105 32.4881 30.9749C31.704 31.8395 31.394 31.9842 30.121 32.0796C29.003 32.1634 28.4588 32.0639 27.8229 31.6597V31.6597ZM68.559 14.7527C68.559 12.4218 68.469 11.7349 68.1113 11.3355C67.684 10.8584 66.5786 10.8355 43.9144 10.8355H20.1652L19.744 11.4431C19.4292 11.8973 19.3229 12.7598 19.3229 14.8603V17.67H43.941H68.559V14.7527Z" fill="#CF38EF"/>
</svg>
