<svg width="89" height="100" viewBox="0 0 89 100" fill="none" xmlns="http://www.w3.org/2000/svg">
<path d="M6.3755 91.6136C4.60226 91.0886 2.3187 89.085 1.64627 87.4643C1.28933 86.6039 1.14985 85.3581 1.0704 82.3203C0.946154 77.5701 1.10998 77.0219 2.69277 76.8909C4.00183 76.7826 4.72964 77.4005 4.72964 78.6203V79.5142H44.5118H84.2939L84.2931 71.4301C84.2922 62.6449 84.054 59.7471 83.0464 56.2654C81.2153 49.9383 76.9632 43.8857 71.7451 40.1785C69.768 38.7739 65.4814 36.5568 64.2764 36.3155L63.4683 36.1538V38.2963C63.4683 39.4762 63.8362 42.5734 64.287 45.1894C64.7372 47.8022 65.0354 50.22 64.9496 50.5624C64.7469 51.3707 59.8897 54.6605 58.899 54.6605C58.2217 54.6605 54.6356 52.5241 53.3893 51.3782C52.6167 50.6679 52.6243 49.9532 53.4582 44.906C53.8972 42.2494 54.1211 39.8383 54.122 37.7572L54.1235 34.6171H44.5117H34.8999V37.7665C34.8999 39.862 35.1233 42.2781 35.5674 44.987C36.3982 50.0543 36.4047 50.6698 35.6342 51.3782C34.3879 52.5241 30.8018 54.6605 30.1245 54.6605C29.1337 54.6605 24.2766 51.3707 24.0739 50.5624C23.9881 50.22 24.2862 47.8022 24.7365 45.1894C25.1873 42.5734 25.5552 39.4762 25.5552 38.2963V36.1538L24.762 36.3125C23.5539 36.5544 19.236 38.7833 17.2825 40.1735C14.9028 41.867 11.8251 45.021 10.1161 47.5177C6.4338 52.8971 4.73233 58.7921 4.73037 66.1774C4.72988 68.5805 4.65574 69.0758 4.24135 69.4511C3.53372 70.0921 2.40831 69.9994 1.64705 69.2375C1.04885 68.6387 0.992483 68.3765 1.00069 66.2309C1.04287 55.2029 4.16434 47.1912 11.0623 40.4064C14.7009 36.8274 18.6542 34.337 23.2504 32.7284L25.4217 31.9685L25.5733 27.3466C25.6997 23.4938 25.8256 22.4357 26.3303 20.9876C28.4802 14.8192 33.0487 10.4287 39.3053 8.51806C41.5673 7.82731 47.4562 7.82731 49.7181 8.51806C55.9748 10.4287 60.5432 14.8192 62.6931 20.9876C63.1979 22.436 63.3238 23.4936 63.4502 27.3498L63.6018 31.975L65.6007 32.648C74.3159 35.5824 81.9716 42.857 85.4603 51.5189C87.7186 57.1258 88.1027 60.8241 87.9796 75.7728C87.9008 85.333 87.846 86.4361 87.3994 87.4643C86.8016 88.8402 84.3741 91.1269 83.0145 91.5947C82.2336 91.8634 74.1843 91.9459 44.9122 91.9854C11.7895 92.03 7.64691 91.9901 6.37547 91.6136H6.3755ZM82.1579 87.6591C83.2206 87.0443 84.3512 85.0844 84.2356 84.0574L84.1604 83.3893H44.5118H4.86314L4.78791 84.0574C4.65249 85.2601 5.80207 87.0656 7.12993 87.7357L8.32875 88.3407L44.7761 88.2702C80.8096 88.2005 81.2341 88.1935 82.1579 87.6591ZM31.2889 49.677L32.4063 48.9694L32.0608 46.9377C31.3382 42.6877 31.5652 43.1301 30.1536 43.2217L28.9077 43.3026L28.443 46.0965C28.1875 47.6332 28.0283 48.9404 28.0893 49.0015C28.289 49.2014 29.958 50.358 30.0661 50.3714C30.1241 50.3787 30.6744 50.0661 31.2889 49.677V49.677ZM60.008 49.6778C60.9607 49.0468 61.059 48.882 60.9248 48.1412C60.8422 47.6847 60.6267 46.4093 60.4458 45.3069L60.1171 43.3026L58.8558 43.2211C58.1621 43.1763 57.5943 43.1763 57.5941 43.2211C57.5939 43.2659 57.4138 44.3248 57.194 45.5742C56.6268 48.7973 56.6457 48.9285 57.7899 49.7068C58.338 50.0796 58.8212 50.3846 58.8636 50.3846C58.9061 50.3846 59.4211 50.0665 60.008 49.6777V49.6778ZM31.166 32.4123C31.1712 23.096 31.6059 21.2804 34.6219 17.9773C37.3494 14.9902 40.3055 13.7167 44.5118 13.7167C49.639 13.7167 53.4623 15.8824 56.094 20.2776C57.6161 22.8197 57.8615 24.514 57.8615 32.4812V39.4598L58.8627 39.3768L59.8639 39.2939L59.8469 32.2119C59.8278 24.223 59.6582 23.1278 57.9279 19.8183C55.3999 14.983 49.9101 11.6341 44.5118 11.6341C39.1179 11.6341 33.6233 14.9835 31.1002 19.8097C29.4296 23.005 29.2523 24.0604 29.0974 31.7307C29.021 35.5082 29.0301 38.7852 29.1175 39.0131C29.2195 39.2792 29.6137 39.4275 30.2192 39.4275H31.1621L31.166 32.4123H31.166ZM54.0754 27.8592C53.9734 25.1919 53.8661 24.6428 53.1488 23.1156C51.7429 20.1225 49.1921 18.1622 45.8269 17.489C44.6046 17.2445 44.0329 17.2696 42.6295 17.6295C39.4024 18.457 37.2533 20.2035 35.8787 23.1156C35.1561 24.6465 35.0504 25.1855 34.9481 27.8592L34.8328 30.8757H44.5118H54.1907L54.0754 27.8592Z" fill="#CF38EF"/>
</svg>
