<svg width="89" height="100" viewBox="0 0 89 100" fill="none" xmlns="http://www.w3.org/2000/svg">
<path d="M5.98607 91.4707C4.17301 90.7751 2.91606 89.6834 1.96989 87.9826C1.19429 86.5884 1.17554 86.4641 1.08872 82.1393L1 77.7206L1.72582 77.1521C2.58579 76.4786 2.94986 76.451 3.97952 76.9811C4.59016 77.2955 4.76882 77.5873 4.83447 78.3775L4.91748 79.3765H44.5887H84.2599L84.3364 72.9928C84.4256 65.5367 84.0915 60.2488 83.3501 57.383C81.1357 48.8239 75.4939 41.8496 67.6969 38.0329C63.5152 35.986 63.8232 35.9058 63.8232 39.0406C63.8232 40.6503 64.0864 43.2442 64.4911 45.6226C65.309 50.4299 65.3134 50.8151 64.5579 51.5061C63.1544 52.7897 59.7267 54.7728 58.9115 54.7728C57.9112 54.7728 53.0058 51.6274 52.7488 50.8212C52.6587 50.5384 52.9497 48.1515 53.3955 45.517C53.9603 42.1787 54.206 39.8324 54.206 37.7754V34.8239H44.5887H34.9714V37.7754C34.9714 39.8324 35.2171 42.1787 35.782 45.517C36.2277 48.1515 36.5187 50.5384 36.4286 50.8212C36.1716 51.6274 31.2662 54.7728 30.2659 54.7728C29.4507 54.7728 26.023 52.7897 24.6195 51.5061C23.864 50.8151 23.8684 50.4299 24.6863 45.6226C25.091 43.2442 25.3542 40.6503 25.3542 39.0406C25.3542 35.9058 25.6624 35.986 21.4806 38.0326C18.1881 39.644 15.9567 41.2977 13.1888 44.1776C10.0375 47.4566 7.95016 50.8533 6.5277 55.0173C5.52933 57.9399 5.1109 60.5602 4.89781 65.2242C4.73133 68.868 4.64254 69.4587 4.22817 69.6795C3.40806 70.1165 2.14752 69.9689 1.54091 69.365C0.987241 68.8137 0.974327 68.6495 1.12761 64.1117C1.3438 57.7114 2.21043 54.0532 4.66332 49.1871C8.52197 41.5323 15.4149 35.5368 23.4841 32.8168L25.2206 32.2315L25.3907 28.2745C25.5882 23.6815 26.076 21.3367 27.3825 18.7014C29.9518 13.5187 34.8243 9.78987 40.7151 8.4981C43.7384 7.83513 45.4298 7.83421 48.4623 8.49388C54.2965 9.76297 59.24 13.5477 61.7949 18.7014C63.1014 21.3367 63.5893 23.6815 63.7867 28.2745L63.9568 32.2315L65.8268 32.853C68.7414 33.8216 72.0012 35.5712 74.8181 37.6788C81.4019 42.6046 85.6509 49.3141 87.5035 57.7094C87.9506 59.7359 88 61.2813 88 73.2588V86.5581L87.2075 87.9826C86.2455 89.712 84.992 90.7844 83.1146 91.4843C81.731 92 80.9389 92.0105 44.5119 91.997C8.45244 91.9835 7.28119 91.9675 5.98607 91.4707V91.4707ZM81.8064 87.7226C82.8669 87.1801 83.8308 86.0967 83.9998 85.2573C84.0913 84.8024 84.2255 84.2208 84.2979 83.9648C84.4228 83.5229 82.4044 83.4993 44.5887 83.4993C6.77304 83.4993 4.7546 83.523 4.87954 83.9648C4.95193 84.2208 5.08609 84.8024 5.17766 85.2573C5.34137 86.0705 6.27036 87.1338 7.3218 87.7114C8.08858 88.1326 80.9834 88.1435 81.8064 87.7226V87.7226ZM32.3 48.8738C32.3 48.7403 32.1012 47.4396 31.8583 45.9833L31.4167 43.3355H30.2605C29.2797 43.3355 29.084 43.4262 28.9695 43.9339C28.7714 44.8125 28.0705 49.0498 28.1183 49.0796C28.1408 49.0936 28.6254 49.4144 29.1953 49.7923L30.2313 50.4795L31.2656 49.798C31.8345 49.4231 32.3 49.0073 32.3 48.8738ZM60.6551 49.3589C61.0538 49.067 61.0595 48.8341 60.7181 46.7852C60.104 43.0989 60.2277 43.3355 58.9151 43.3355H57.7571L57.2934 46.1489C57.0384 47.6963 56.895 49.0272 56.9747 49.1066C57.0544 49.186 57.516 49.5232 58.0003 49.856C58.9289 50.4938 59.1654 50.4496 60.6551 49.3589ZM31.2839 31.8316C31.3598 24.6378 31.4091 23.9379 31.9386 22.5439C33.5121 18.4015 37.1251 15.2257 41.4078 14.2206C48.0914 12.652 54.8264 16.193 57.2388 22.5439C57.7683 23.9379 57.8176 24.6378 57.8936 31.8316L57.9757 39.6117H58.914H59.8523L59.753 31.8316C59.6598 24.5315 59.6161 23.9494 59.0449 22.3963C57.3123 17.6852 53.4485 14.0681 48.5299 12.5525C46.6618 11.9768 42.5156 11.9768 40.6476 12.5525C35.729 14.0681 31.8652 17.6852 30.1325 22.3963C29.5613 23.9494 29.5176 24.5315 29.4245 31.8316L29.3252 39.6117H30.2634H31.2017L31.2839 31.8316ZM54.0458 28.1743C54.0249 25.9766 53.8937 25.0582 53.4304 23.8649C52.6125 21.7584 50.8332 19.8759 48.6493 18.8064C47.0353 18.016 46.6406 17.9338 44.4591 17.9338C42.2237 17.9338 41.9298 17.9992 40.3644 18.8442C38.2639 19.9782 36.5129 21.8856 35.7556 23.8649C35.1731 25.3875 34.7239 29.8082 35.0625 30.6867C35.2066 31.0606 36.2645 31.0992 44.6484 31.037L54.0724 30.9671L54.0458 28.1743Z" fill="#424242"/>
</svg>
