<svg width="137" height="152" viewBox="0 0 137 152" fill="none" xmlns="http://www.w3.org/2000/svg">
<g clip-path="url(#clip0_31_10)">
<path d="M68.29 74.27C66.8167 84.27 65.35 94.27 63.89 104.27C62.08 116.67 60.32 129.09 58.49 141.49C58.1217 144.091 56.8516 146.48 54.9015 148.24C52.9514 150 50.445 151.019 47.82 151.12C35.42 151.31 23.02 151.35 10.63 151.12C9.12807 151.052 7.6555 150.68 6.30118 150.027C4.94686 149.374 3.73888 148.453 2.75014 147.321C1.7614 146.188 1.01239 144.867 0.548322 143.437C0.0842543 142.007 -0.085253 140.497 0.0500298 139C0.31003 136.23 1.90003 134.68 4.30003 134.84C6.70003 135 7.77003 136.55 7.73003 139.38C7.69003 142.21 9.23003 143.6 12.54 143.61C21.54 143.61 30.46 143.61 39.42 143.61C41.74 143.61 44.06 143.66 46.42 143.61C49.34 143.54 50.59 142.41 51.02 139.53C54.5134 115.75 58 91.97 61.48 68.19C62.04 64.38 64.68 61.92 68.38 61.88C72.28 61.88 74.88 64.19 75.47 68.21C78.93 92.07 82.4134 115.913 85.92 139.74C86.28 142.21 87.55 143.52 90.05 143.53C101.73 143.59 113.4 143.61 125.05 143.53C128.2 143.53 129.59 141.45 128.88 138.38C119.053 95.6333 109.227 52.88 99.4 10.12C99 8.29 98.56 7.57 96.35 8C77.8402 11.4225 58.8598 11.4225 40.35 8C38.35 7.64 37.92 8.26 37.55 9.9C32.9167 30.0867 28.2634 50.2867 23.59 70.5C20.48 84 17.41 97.56 14.28 111.08C14 112.3 13.86 113.65 12.74 114.5C12.1375 115.037 11.3764 115.364 10.5719 115.431C9.76734 115.497 8.9629 115.301 8.28003 114.87C7.53348 114.466 6.95007 113.816 6.62916 113.03C6.30825 112.244 6.26968 111.371 6.52003 110.56C8.59336 101.62 10.6534 92.68 12.7 83.74C18.5534 58.32 24.4067 32.9 30.26 7.48C31.61 1.6 34.88 -0.709995 40.83 0.360005C59.3479 3.75563 78.3344 3.6946 96.83 0.180005C101.59 -0.719995 105.3 1.77 106.42 6.61C112.08 31.09 117.723 55.58 123.35 80.08C127.73 99.12 132.103 118.167 136.47 137.22C138.08 144.28 133.36 150.94 126.1 151.1C113.79 151.37 101.47 151.3 89.16 151.1C86.4875 151.022 83.9312 149.99 81.9538 148.191C79.9764 146.391 78.7086 143.943 78.38 141.29C75.73 123.44 73.18 105.57 70.58 87.71C69.93 83.22 69.25 78.71 68.58 74.25L68.29 74.27Z" fill="#CF38EF"/>
</g>
<defs>
<clipPath id="clip0_31_10">
<rect width="136.78" height="151.28" fill="white"/>
</clipPath>
</defs>
</svg>
