<svg width="85" height="92" viewBox="0 0 85 92" fill="none" xmlns="http://www.w3.org/2000/svg">
  <g clip-path="url(#clip0_201_27)">
  <path d="M65.1755 57.9799C64.9222 58.5525 64.8337 59.1845 64.9201 59.8046C64.9201 68.369 64.9201 76.9334 64.9201 85.4977C64.9201 88.9162 63.5271 91.0147 60.8082 91.7568C60.2446 91.9058 59.6637 91.9795 59.0807 91.9758C47.9434 91.9758 36.8 92.0123 25.6566 91.9758C22.445 91.9758 20.2674 89.932 19.945 86.8907C19.889 86.5802 19.8951 86.2618 19.9628 85.9537C20.0305 85.6455 20.1585 85.3539 20.3394 85.0955C20.5203 84.8371 20.7506 84.617 21.017 84.4481C21.2834 84.2791 21.5806 84.1645 21.8914 84.1109C22.1914 84.0546 22.4998 84.0613 22.797 84.1305C23.0943 84.1997 23.3739 84.33 23.6181 84.513C23.8623 84.696 24.0658 84.9278 24.2157 85.1937C24.3656 85.4595 24.4586 85.7536 24.4887 86.0573C24.6469 87.0488 25.097 87.3347 26.0459 87.3347C36.946 87.3347 47.8461 87.3347 58.7462 87.3347C60.2121 87.3347 60.2547 86.5318 60.2547 85.4612C60.2547 71.6415 60.2547 57.8237 60.2547 44.008C60.2547 42.6273 60.4554 41.3864 61.7145 40.5652C63.7522 39.2331 66.1853 40.3828 66.7631 42.9983C67.7789 47.6029 68.7521 52.2074 69.7375 56.812C71.319 64.1679 72.8924 71.5239 74.4576 78.8798C74.6705 79.8774 75.0659 80.4431 76.2155 80.3275C77.0879 80.2545 77.9648 80.2545 78.8372 80.3275C79.8955 80.3883 80.1814 79.9564 80.0537 78.9285C79.2933 72.2376 78.6547 65.4858 77.8214 58.7828C76.7812 50.4009 75.5708 42.0372 74.1353 33.704C73.083 27.5849 72.2192 21.411 69.4455 15.7541C67.0125 10.7481 63.6488 6.66058 57.9798 5.10343L57.5601 4.97569C54.7255 4.36743 54.7195 4.36743 53.436 6.9708C50.6258 12.725 47.8177 18.4812 45.0116 24.2394C44.8107 24.764 44.4543 25.2147 43.9901 25.5311C43.5258 25.8475 42.976 26.0144 42.4143 26.0095C41.8571 26.0321 41.3065 25.8833 40.8366 25.5831C40.3667 25.2829 40.0002 24.8457 39.7866 24.3307C36.8365 18.248 33.8438 12.208 31.0215 6.08273C30.4132 4.72022 29.6346 4.483 28.3451 4.71414C23.3695 5.59612 19.8294 8.49146 17.1591 12.6216C14.0813 17.36 12.6458 22.6762 11.6848 28.1506C8.91715 43.1869 6.93421 58.3083 5.26757 73.4724C5.06684 75.2971 4.93302 77.1219 4.71405 78.9893C4.59848 79.926 4.89044 80.2971 5.86975 80.3336C9.94512 80.4856 9.9512 80.51 10.8089 76.5623C13.2419 65.4108 15.6547 54.2593 18.0472 43.1078C18.4973 41.0214 19.872 39.8232 21.642 40.0665C23.4973 40.2915 24.5252 41.5932 24.5252 43.7769C24.5252 52.3899 24.5252 61.0029 24.5252 69.616C24.5252 71.4407 23.7771 72.3714 22.3051 72.4079C20.8331 72.4444 19.872 71.4651 19.872 69.622C19.872 66.0698 19.872 62.5175 19.872 58.9652C19.8783 58.6258 19.7966 58.2905 19.6348 57.992C18.5358 63.0487 17.4369 68.1054 16.338 73.1621C15.8149 75.5952 15.3283 78.0282 14.7991 80.4613C14.1361 83.5026 12.2565 84.9868 9.11788 84.9929C7.85269 84.9929 6.5875 84.9929 5.32231 84.9929C4.57218 85.0141 3.82636 84.8724 3.1363 84.5775C2.44624 84.2826 1.82837 83.8415 1.3253 83.2847C0.822233 82.7278 0.445944 82.0685 0.222389 81.3521C-0.00116511 80.6357 -0.066664 79.8794 0.0304109 79.1353C1.82479 61.3861 4.03887 43.7039 7.29917 26.1555C8.5157 19.6592 10.4682 13.4245 14.5983 8.13258C18.7285 2.84068 24.0386 -0.115482 30.8938 8.8096e-05C31.6215 -0.0316267 32.3408 0.16627 32.9499 0.565784C33.559 0.965298 34.027 1.54621 34.2879 2.22634C36.7209 7.34792 39.2513 12.4269 41.7513 17.5181C41.9398 17.9013 42.171 18.2663 42.4204 18.6981C45.1393 13.1812 47.8522 7.74938 50.4677 2.275C50.7385 1.57698 51.222 0.981766 51.8496 0.573529C52.4772 0.165292 53.2173 -0.0353112 53.9652 8.8096e-05C60.4615 -0.0911516 65.6135 2.61563 69.6828 7.50607C73.9406 12.6459 76.0635 18.7833 77.3104 25.237C79.6887 37.5422 81.4527 49.9508 82.9064 62.3959C83.5512 67.8702 84.123 73.4115 84.6887 78.9224C85.0597 82.4807 82.8639 84.926 79.2629 84.9381C77.9977 84.9381 76.7326 84.9381 75.4674 84.9381C72.6146 84.9381 70.6682 83.3871 70.0599 80.6073C68.667 74.2023 67.3045 67.7912 65.9298 61.3861C65.6926 60.3521 65.4736 59.3241 65.1755 57.9799Z" fill="#CF38EF"/>
  </g>
  <defs>
  <clipPath id="clip0_201_27">
  <rect width="84.7312" height="92" fill="white"/>
  </clipPath>
  </defs>
  </svg>
