<svg width="89" height="100" viewBox="0 0 89 100" fill="none" xmlns="http://www.w3.org/2000/svg">
<path d="M41.4027 94.2939C40.3847 93.8184 38.7753 92.5032 36.4767 90.2679C34.5991 88.442 32.7182 86.8614 32.297 86.7553C31.8759 86.6493 29.621 86.8378 27.2863 87.1742C24.9515 87.5106 22.5578 87.7851 21.967 87.7842C20.6694 87.7822 18.7738 87.0688 17.4826 86.0964C16.3893 85.2731 15.1207 83.2553 15.1207 82.3398C15.1207 81.381 16.1225 80.5594 17.2916 80.5594C18.1157 80.5594 18.5438 80.8003 19.5313 81.8196C20.2028 82.5127 21.0293 83.168 21.368 83.2758C21.7066 83.3836 23.8156 83.2066 26.0546 82.8824C33.6781 81.7785 34.3807 81.9944 39.5598 87.0307C42.9849 90.3613 43.8529 90.897 45.2534 90.5444C45.6684 90.4399 47.5856 88.8283 49.5137 86.963C51.4418 85.0977 53.5324 83.3258 54.1594 83.0253C55.8815 82.2 57.8449 82.1613 62.7476 82.8559C66.8735 83.4405 67.2718 83.4534 68.0904 83.0287C68.5769 82.7764 69.1556 82.28 69.3764 81.9258C69.5971 81.5716 70.1252 79.2665 70.5499 76.8034C70.9746 74.3403 71.5521 71.805 71.8332 71.1694C72.6002 69.4353 74.26 68.1269 78.6241 65.8164C82.6512 63.6842 83.6658 62.7779 83.6683 61.3098C83.6689 60.9721 82.6789 58.6318 81.4683 56.1092C79.454 51.9118 79.2646 51.3631 79.2371 49.6445C79.2087 47.8728 79.3333 47.4998 81.4382 43.0552C82.6654 40.464 83.6689 38.0587 83.6683 37.7101C83.6657 36.2279 82.693 35.3717 78.506 33.1662C74.0898 30.8401 72.6479 29.6896 71.8446 27.8508C71.5621 27.2041 70.98 24.7247 70.5512 22.3411C69.6602 17.3887 69.3149 16.5288 67.9946 15.9754C67.1694 15.6296 66.5301 15.6527 63.0454 16.1549C57.9233 16.8929 56.0925 16.8943 54.4407 16.1613C53.6174 15.796 51.8495 14.3249 49.6066 12.1387C45.8815 8.50782 45.0407 8.02597 43.4734 8.62375C43.0128 8.79942 41.1172 10.4345 39.261 12.2573C34.3359 17.0937 33.7198 17.2741 25.9521 16.1549C22.4673 15.6527 21.8281 15.6296 21.0029 15.9754C19.6826 16.5288 19.3372 17.3887 18.4463 22.3411C18.0174 24.7247 17.4354 27.2041 17.1528 27.8508C16.3495 29.6896 14.9076 30.8401 10.4915 33.1662C6.30445 35.3717 5.33163 36.2279 5.32911 37.7101C5.32858 38.0587 6.33208 40.464 7.55924 43.0552C9.66414 47.4998 9.78874 47.8728 9.76037 49.6445C9.73283 51.3631 9.54347 51.9118 7.52916 56.1092C6.31854 58.6318 5.32852 60.9721 5.32911 61.3098C5.3317 62.7779 6.34621 63.6842 10.3733 65.8164C14.8053 68.1628 16.3962 69.433 17.2118 71.2764C18.3215 73.7843 17.6818 75.6544 15.6948 75.711C14.6463 75.7409 13.3926 74.6192 13.3926 73.6513C13.3926 72.703 12.1312 71.7439 8.06131 69.5976C3.51825 67.2017 2.17604 66.0255 1.43657 63.7922C0.577007 61.1961 0.888943 59.6421 3.25492 54.7336C4.5418 52.0638 5.32803 50.0711 5.32803 49.4794C5.32803 48.8804 4.55665 46.9547 3.25221 44.2972C1.46416 40.6544 1.15996 39.8092 1.05783 38.2003C0.953176 36.5516 1.04668 36.1134 1.85455 34.4673C2.91545 32.3055 3.41563 31.9151 8.88853 28.9776C10.926 27.884 12.7635 26.7235 12.9718 26.3987C13.1801 26.0739 13.6838 23.9229 14.091 21.6188C14.4983 19.3146 14.96 16.9689 15.117 16.4062C15.8695 13.7101 19.1715 11.2256 22.0109 11.2191C22.3947 11.2182 24.6918 11.4925 27.1156 11.8286C29.5394 12.1647 31.8691 12.3524 32.2927 12.2458C32.7177 12.1388 34.5927 10.5642 36.4767 8.73206C40.3821 4.93438 41.9661 4 44.4987 4C47.0313 4 48.6153 4.93438 52.5207 8.73206C54.4048 10.5642 56.2798 12.1388 56.7048 12.2458C57.1283 12.3524 59.458 12.1647 61.8818 11.8286C64.3057 11.4925 66.6028 11.2182 66.9866 11.2191C69.826 11.2256 73.1279 13.7101 73.8804 16.4062C74.0375 16.9689 74.4992 19.3146 74.9064 21.6188C75.3137 23.9229 75.8173 26.0738 76.0255 26.3985C76.2337 26.7231 78.3238 28.0233 80.6702 29.2877C86.8026 32.5924 87.8457 33.8334 87.8457 37.8248C87.8457 39.9636 87.7939 40.1235 85.7576 44.2721C84.4442 46.9477 83.6694 48.8799 83.6694 49.4794C83.6694 50.0711 84.4556 52.0638 85.7425 54.7336C88.0871 59.5976 88.4175 61.2049 87.588 63.7103C86.7939 66.1085 85.8312 66.9601 80.9551 69.5778C78.4916 70.9003 76.2893 72.2682 76.0611 72.6175C75.8329 72.9669 75.314 75.1243 74.908 77.4117C74.502 79.6991 74.042 82.0144 73.8859 82.5567C73.0605 85.4238 69.9545 87.7795 66.9933 87.7842C66.4229 87.7851 64.0459 87.5106 61.7112 87.1742C59.3764 86.8378 57.1216 86.6493 56.7004 86.7553C56.2792 86.8614 54.3984 88.442 52.5207 90.2679C48.6153 94.0656 47.0313 95 44.4987 95C43.4231 95 42.4293 94.7733 41.4027 94.2939V94.2939ZM53.0628 72.7487C50.1488 72.0179 47.5036 69.7048 46.492 67.0029C45.6858 64.8498 45.8002 61.655 46.7534 59.7005C49.0512 54.989 54.6159 53.0832 59.2102 55.4345C61.013 56.3571 62.5541 57.9246 63.4139 59.7102C64.0653 61.0629 64.2036 61.7458 64.2135 63.6573C64.2236 65.6172 64.103 66.2193 63.4202 67.6163C61.5566 71.4295 56.9349 73.7197 53.0628 72.7487V72.7487ZM57.4822 67.7676C60.5951 65.6632 60.5808 61.6538 57.4528 59.5214C56.0726 58.5806 53.646 58.7227 52.1999 59.8291C50.0752 61.4548 49.657 64.4545 51.2609 66.564C52.7181 68.4804 55.6023 69.0384 57.4822 67.7676ZM25.6525 68.6145C25.1598 68.1202 24.9134 67.5574 24.9134 66.9263C24.9134 66.0596 26.415 64.4725 42.6845 48.1441C52.4586 38.3345 60.8087 30.1618 61.2403 29.9825C62.8025 29.3333 64.4323 30.9022 63.99 32.6296C63.89 33.0198 56.0723 41.0794 46.0193 51.1563C26.7331 70.4884 27.1577 70.1244 25.6525 68.6145V68.6145ZM31.0635 44.1547C28.7885 43.409 26.6678 41.533 25.5773 39.3017C24.8945 37.9046 24.7738 37.3026 24.784 35.3427C24.7938 33.4312 24.9322 32.7483 25.5835 31.3956C28.2989 25.7563 35.8701 24.3697 40.257 28.7082C42.1246 30.5552 42.8832 32.2656 43.0073 34.9093C43.1398 37.7321 42.3844 39.8527 40.5843 41.7106C38.0647 44.3113 34.4062 45.2504 31.0635 44.1547ZM36.1456 39.6769C36.6047 39.4387 37.3436 38.7662 37.7874 38.1825C38.4693 37.2856 38.5943 36.8457 38.5943 35.3427C38.5943 33.8567 38.4667 33.3964 37.8185 32.5438C36.7375 31.1221 35.2639 30.4759 33.492 30.6467C28.9095 31.0884 27.6226 36.8215 31.5153 39.453C32.671 40.2343 34.8664 40.3404 36.1456 39.6769V39.6769Z" fill="#CF38EF"/>
</svg>
