<svg id="Camada_1" data-name="Camada 1" xmlns="http://www.w3.org/2000/svg" viewBox="0 0 649.32 661.72"><defs><style>.cls-1{fill:#cf38ef;}</style></defs><path class="cls-1" d="M828.47,407.4c-5.82-35.87-28-57.93-61.71-67.54-29.88-8.51-60.1-15.77-90.23-23.33-24.39-6.12-42.41-20.12-53.58-43.14-7.46-15.35-15.09-30.61-22.55-45.72a11.65,11.65,0,0,0-1.83-.36c-61.24,0-122.48-.09-183.72.14-2.12,0-5,2.5-6.23,4.62-9.23,16.57-17.78,33.54-27.23,50a70.08,70.08,0,0,1-42.94,32.87c-31.72,8.32-63.5,16.43-95.25,24.67-27.43,7.11-48,22.48-58.56,50.08-6,15.6-5.25,31.57-3,47.62,5.58,39.63,9.64,79.57,17.4,118.76,11.2,56.49,26.41,107.46,46.43,160.86a13.61,13.61,0,0,0,14.26,8.76c1.42-.17,2.9-.37,4.37-.63a14.19,14.19,0,0,0,10.63-19q-7.51-20.25-14.35-40.8a1058.33,1058.33,0,0,1-40.34-165.19c-4.25-26.45-6.45-53.26-8.81-80a45.12,45.12,0,0,1,32.29-47.34c30-8.72,60.47-16,90.74-23.92a13,13,0,0,1,2.47-.14c20.89,79.64,68,130.62,149.56,145.93-1.6,1.79-3.16,3.68-4.86,5.42-13.53,13.79-27.15,27.5-40.61,41.36-9.85,10.15-8.65,18.67,2.7,31.31,18.6,20.7,32.85,44.68,44.53,69.93,8.06,17.42,22.57,19.23,31.79,5.07Q546.67,606.5,573.12,565c5.45-8.5,4.52-15.67-3-23.44C556.65,527.72,543,514,529.5,500.23c-1.73-1.76-3.34-3.64-5.13-5.58C606,479.37,653.28,428.26,674.22,348.42,705.08,356.56,736,364,766.51,373c20.74,6.12,33.09,28.45,31.29,50.35-8.48,103.68-34.46,203.1-72.07,299.36-17,43.43-37.76,85.32-56.64,128-2.3,5.21-5.41,6.77-11,6.76q-152.75-.27-305.49.09c-7.77,0-11.62-2.62-15-9.27-13.14-25.45-23.84-50.91-34.75-77a14.3,14.3,0,0,0-19.61-7.23L279.46,766l-.12.06a12.66,12.66,0,0,0-5.89,16c13.9,32.66,29.29,67.46,45.76,97.76,3.42,6.3,7.08,9.21,14.92,9.18q170.49-.56,341,0a16.83,16.83,0,0,0,15-9.05,1435.29,1435.29,0,0,0,69.24-156.81c21.06-56.19,38.79-113.52,50.58-172.47,7.14-35.74,12-71.95,17.25-108.06C828.84,431,830.31,418.76,828.47,407.4ZM538.22,553.94c1.07,1.16,1.49,4.4.68,5.7-10.8,17.4-21.87,34.63-33.55,53-11.59-18.22-22.53-35.26-33.22-52.46-.88-1.41-1-4.67,0-5.71,10.68-11.45,21.65-22.64,33.39-34.79C517,531.58,527.72,542.63,538.22,553.94ZM642.56,344.51C629.22,399.1,598,438.59,545,456.6c-33.6,11.42-85.42,3.32-114.28-17.32-32.89-23.52-53.77-55.14-62.32-94-1.26-5.72-.71-9.19,4.89-12.42C391.57,322.32,404,306.08,414,287.7c4.24-7.81,8.7-15.52,12.42-23.58,2.08-4.52,4.91-5.58,9.42-5.55,22.93.18,45.85.08,68.78.08,23.18,0,46.36.16,69.53-.12,5-.06,7.39,1.59,9.79,6,8.43,15.58,16.27,31.75,26.75,45.84,7.19,9.67,18.12,16.63,27.91,24.07C642.47,337.41,643.66,340,642.56,344.51Z" transform="translate(-180 -227.28)"/></svg>