<svg width="88" height="100" viewBox="0 0 88 100" fill="none" xmlns="http://www.w3.org/2000/svg">
<g clip-path="url(#clip0)">
<path d="M42.9841 95.4898C41.1273 95.042 40.2527 94.4237 36.6543 91.0148C34.735 89.1965 32.8539 87.5872 32.4741 87.4384C31.9982 87.2519 30.5406 87.3494 27.7878 87.7517C21.3737 88.6891 19.671 88.4825 17.2971 86.4786C16.2194 85.5689 15.2292 83.8053 15.2292 82.7957C15.2292 81.8236 16.1528 81.104 17.4005 81.104C18.2835 81.104 18.6682 81.3226 19.7236 82.4241C21.2394 84.006 21.433 84.0245 27.5057 83.1692C33.7471 82.2901 34.3139 82.4943 39.546 87.5061C43.0951 90.9058 43.1133 90.9184 44.5 90.9184C45.8867 90.9184 45.9049 90.9058 49.454 87.5061C54.7127 82.4688 55.23 82.2808 61.4233 83.1568C66.9063 83.9322 67.758 83.9199 68.6953 83.0512C69.5382 82.2701 69.4747 82.4906 70.4769 76.8569C71.6395 70.3214 71.9908 69.8525 78.1508 66.6129C80.1924 65.5392 82.1728 64.3526 82.5518 63.9759C83.782 62.7531 83.5282 61.4076 81.1603 56.5985C79.1629 52.5421 79.0797 52.2908 79.0797 50.3123C79.0797 48.3338 79.1629 48.0825 81.1603 44.0261C84.3789 37.4894 84.3125 37.2806 77.9579 33.9397C71.9489 30.7804 71.6354 30.3388 70.3488 23.2173C69.1003 16.3069 69.1744 16.3554 61.5746 17.4721C59.365 17.7967 57.0621 17.9869 56.4572 17.8947C54.9068 17.6582 52.853 16.5421 51.6742 15.2954C51.1218 14.7111 49.541 13.2146 48.1613 11.9697C45.9063 9.93498 45.5362 9.7062 44.5 9.7062C43.4638 9.7062 43.0937 9.93498 40.8387 11.9697C39.459 13.2146 37.8782 14.7111 37.3258 15.2954C36.147 16.5421 34.0932 17.6582 32.5428 17.8947C31.9379 17.9869 29.635 17.7967 27.4254 17.4721C21.9269 16.6642 21.2625 16.6857 20.2873 17.7036C19.5951 18.4261 19.3949 19.1007 18.6512 23.2173C17.3646 30.3388 17.0511 30.7804 11.042 33.9397C4.68744 37.2806 4.62114 37.4894 7.83974 44.0261C9.83709 48.0825 9.92026 48.3338 9.92026 50.3123C9.92026 52.2908 9.83709 52.5421 7.83974 56.5985C5.47177 61.4076 5.21797 62.7531 6.44821 63.9759C6.82717 64.3526 8.86106 65.5647 10.968 66.6695C15.5887 69.0926 17.0029 70.364 17.6844 72.7083C18.042 73.9385 18.0843 74.5083 17.8553 75.0109C17.4145 75.9784 16.2333 76.6681 15.3827 76.4546C14.5033 76.2339 13.5074 75.202 13.5074 74.5116C13.5074 73.5454 11.9327 72.3173 8.05497 70.2595C3.66327 67.929 2.62517 67.066 1.70608 64.9816C0.520025 62.2919 0.742225 60.9737 3.27398 55.6804C4.48303 53.1526 5.47225 50.7565 5.47225 50.3558C5.47225 49.955 4.48298 47.5361 3.27388 44.9804C0.656332 39.4476 0.474793 38.2469 1.83537 35.4659C2.86031 33.371 3.76462 32.644 8.37874 30.205C10.4487 29.1109 12.4282 27.8758 12.7778 27.4604C13.2595 26.8879 13.5691 25.7767 14.0568 22.8689C14.4107 20.759 14.8963 18.413 15.136 17.6555C15.7712 15.6474 17.1508 14.0041 18.9707 13.0877C20.9022 12.1152 22.1082 12.0846 27.5487 12.8699C29.7625 13.1894 31.9007 13.3688 32.3004 13.2685C32.7 13.1682 34.6392 11.5545 36.6097 9.6825C38.5803 7.81048 40.5483 6.10033 40.9832 5.88216C42.604 5.06894 44.4136 4.79836 45.8631 5.15247C48.0238 5.68034 48.5942 6.07626 52.3903 9.6825C54.3608 11.5545 56.3 13.1682 56.6996 13.2685C57.0992 13.3688 59.2375 13.1894 61.4512 12.8699C66.8918 12.0846 68.0978 12.1152 70.0293 13.0877C71.8492 14.0041 73.2288 15.6474 73.864 17.6555C74.1036 18.413 74.5893 20.759 74.9432 22.8689C75.4309 25.7767 75.7405 26.8879 76.2222 27.4604C76.5718 27.8758 78.5513 29.1109 80.6213 30.205C85.2354 32.644 86.1397 33.371 87.1646 35.4659C88.5252 38.2469 88.3437 39.4476 85.7261 44.9804C84.517 47.5361 83.5277 49.955 83.5277 50.3558C83.5277 50.7565 84.517 53.1526 85.726 55.6804C88.2578 60.9737 88.48 62.2919 87.2939 64.9816C86.3748 67.066 85.3367 67.929 80.945 70.2595C78.8143 71.3903 76.7431 72.6631 76.3424 73.088C75.724 73.7438 75.4938 74.549 74.8202 78.4123C73.741 84.6017 72.7815 86.3677 69.7532 87.7385C68.0955 88.4889 66.2757 88.4917 61.2122 87.7517C58.4594 87.3494 57.0018 87.252 56.5259 87.4384C56.1461 87.5872 54.2421 89.2181 52.2949 91.0626C47.9023 95.2237 45.876 96.1872 42.9841 95.4898V95.4898ZM52.0566 73.1866C48.2627 71.8306 45.8326 68.3904 45.8158 64.3515C45.8007 60.7487 47.8924 57.5426 51.3482 55.8711C53.2572 54.9478 56.71 54.9391 58.7049 55.8526C60.5106 56.6793 62.4025 58.4981 63.3897 60.3562C64.0521 61.6029 64.1521 62.1296 64.1521 64.3737C64.1521 66.612 64.051 67.1479 63.3941 68.3913C61.1696 72.6026 56.2475 74.6845 52.0566 73.1866V73.1866ZM57.6325 68.3419C58.8485 67.434 59.4759 66.3894 59.6309 65.0145C59.8298 63.25 59.2926 61.8189 58.0457 60.7911C56.1377 59.2184 53.8152 59.2893 51.9468 60.9773C48.5684 64.0295 50.9456 69.4145 55.4979 69.0215C56.2594 68.9557 57.2199 68.6499 57.6325 68.3419ZM25.6717 69.2976C25.1196 68.8227 24.8905 68.3522 24.8905 67.6935C24.8905 66.843 26.4734 65.1789 42.9503 48.7081C62.4734 29.1923 61.6566 29.889 63.3283 31.3269C63.8804 31.8018 64.1095 32.2723 64.1095 32.9311C64.1095 33.7816 62.5266 35.4456 46.0497 51.9165C26.5266 71.4323 27.3434 70.7356 25.6717 69.2976V69.2976ZM31.7299 45.325C29.2652 44.6738 26.9024 42.7228 25.6059 40.2684C24.949 39.0249 24.8479 38.489 24.8479 36.2508C24.8479 34.0116 24.9491 33.4757 25.6088 32.2217C26.5397 30.452 28.5908 28.5131 30.3881 27.7039C32.4178 26.7901 35.5433 26.8378 37.6258 27.8144C39.893 28.8776 41.1947 30.139 42.2621 32.3073C43.0483 33.9043 43.192 34.5127 43.1882 36.2286C43.1773 41.2001 39.3942 45.2277 34.5167 45.4605C33.4575 45.5111 32.2034 45.4501 31.7299 45.325V45.325ZM36.2248 40.351C38.9734 38.8062 39.4862 35.1778 37.2596 33.0299C35.5528 31.3836 33.6483 31.0847 31.7569 32.1662C30.3532 32.9689 29.6115 33.9543 29.3917 35.3089C28.7266 39.4077 32.6941 42.3354 36.2248 40.351V40.351Z" fill="#424242"/>
</g>
<defs>
<clipPath id="clip0">
<rect width="87.4627" height="100" fill="white"/>
</clipPath>
</defs>
</svg>
