<svg id="Camada_1" data-name="Camada 1" xmlns="http://www.w3.org/2000/svg" viewBox="0 0 626.94 398.47"><path d="M209,594.7V536.94a23.36,23.36,0,0,0,.63-3.08c1.53-20,2.89-40.08,4.56-60.11,1.48-17.64,4.47-35,11-51.84,10.79-27.88,32.12-44.29,64-48.63,15.78-2.14,31.83-2.76,47.79-3.57,19.57-1,39.17-1.6,58.77-2.12,19.83-.53,39.68-1.07,59.51-1.06,57.45,0,114.91.09,172.35.61,26.91.24,53.82,1.39,80.71,2.48,15.4.63,30.81,1.57,46.13,3.07,21,2.05,38.6,10.52,52.21,25.23,9.48,10.23,14.14,22.74,17.94,35.45,7.38,24.7,7.65,50.19,9.89,75.45.62,7,1,14.09,1.52,21.14v72.36a31.2,31.2,0,0,0-.63,3.4c-1.93,23.4-3.4,46.85-5.88,70.2-1.75,16.51-6.53,32.57-15.45,47.13-13,21.25-33.91,32.47-60,35.15-20,2.07-40.24,3.23-60.4,3.76-51,1.34-102.1,2.64-153.16,3q-99.75.63-199.46-3.34c-20.77-.8-41.56-1.81-61.8-6.47-24.33-5.6-42.54-18.35-51.56-40.13-4.31-10.43-8.43-21.27-10-32.24-3.3-22.61-4.88-45.43-7.09-68.16C209.89,608,209.5,601.33,209,594.7Zm250,51.13,168.83-80.72L459,484.6Z" transform="translate(-209 -366.53)"/></svg>