<svg width="88" height="100" viewBox="0 0 88 100" fill="none" xmlns="http://www.w3.org/2000/svg">
<path d="M23.8965 99.3424C23.0659 98.695 23.0528 98.6235 23.0528 94.7415C23.0528 91.2213 23.1215 90.7302 23.6932 90.1636C24.4473 89.4164 26.1672 89.3224 27.0743 89.9788C27.5601 90.3304 27.7308 90.9366 27.8559 92.7552L28.016 95.0818L33.017 95.169L38.018 95.2562L38.2199 93.4238C38.331 92.416 38.5627 89.3783 38.7348 86.6733C38.907 83.9683 39.2691 78.828 39.5394 75.2504C39.8097 71.6728 40.1097 67.1751 40.2059 65.2554C40.4228 60.9292 40.8378 59.2284 41.8731 58.4213C43.4218 57.2142 46.3399 57.8902 46.9977 59.6083C47.1846 60.0965 47.5016 62.7804 47.7022 65.5727C47.9027 68.365 48.265 73.3625 48.5073 76.6783C48.7495 79.9941 49.1125 85.2058 49.314 88.2598C49.5154 91.3139 49.705 94.0982 49.7352 94.4472C49.7876 95.0531 50.0219 95.0818 54.9134 95.0818H60.0367L60.1111 75.7484C60.1815 57.4326 60.1513 56.2467 59.5369 53.2199C58.9212 50.1863 55.9381 40.7849 55.4242 40.2585C55.1539 39.9816 49.294 40.8954 48.8937 41.2769C48.7529 41.411 48.9331 43.2359 49.294 45.3321C50.1087 50.0641 50.121 51.2012 49.3646 51.8795C48.428 52.7195 46.5972 52.5593 45.8108 51.5686C45.4458 51.1088 45.1474 50.4305 45.1478 50.0614C45.1491 48.7216 44.1042 43.7928 43.8733 44.0497C43.743 44.1948 43.3853 45.8841 43.0786 47.8038C42.7597 49.7995 42.3077 51.5319 42.0232 51.8494C41.4022 52.5423 39.2963 52.5903 38.6267 51.9268C37.7667 51.0746 37.7579 50.3481 38.5526 45.8687C38.9831 43.4427 39.238 41.3621 39.1192 41.2453C38.951 41.08 33.5149 40.0299 32.8272 40.0299C32.249 40.0299 29.3893 48.4127 28.4834 52.7631C27.9352 55.3961 27.8639 57.1225 27.8601 67.8501L27.8559 79.9639L27.0122 80.6215C25.9346 81.4615 24.966 81.4552 23.8701 80.6009L23 79.9227L23.1398 66.4017C23.2714 53.6732 23.3211 52.7318 23.9866 50.3422C25.0363 46.5727 26.1763 42.9932 27.0897 40.5985L27.9016 38.4702L26.9501 36.4736C26.4268 35.3755 25.6967 33.2634 25.3276 31.78C24.4623 28.3023 23.0547 19.3835 23.0536 17.3721L23.0528 15.815L26.7352 12.1205L30.4176 8.42606V4.87252C30.4176 0.78 30.7812 0.0497536 32.8192 0.0497536C34.8246 0.0497536 35.2207 0.804092 35.2207 4.62287V7.92677L39.5435 9.35868L43.8663 10.7906L48.1891 9.35868L52.5119 7.92677V4.82431C52.5119 2.16609 52.6069 1.60214 53.1756 0.885805C54.1131 -0.295268 56.034 -0.295268 56.9716 0.885805C57.5527 1.61788 57.6352 2.16108 57.6352 5.25389V8.78592L61.3176 12.4245C65.5764 16.6327 65.3338 15.8139 64.3409 22.6302C63.2406 30.184 62.1273 34.6304 60.7393 37.0155L60.0006 38.2847L60.7273 40.0739C62.0011 43.2103 63.6958 49.146 64.3582 52.7914C64.9582 56.0933 65 57.6944 65 77.3828V98.4423L64.214 99.2212L63.4281 100H55.2236H47.0191L46.0831 99.0725C45.2317 98.2288 45.147 97.9492 45.146 95.9788C45.1418 87.8485 44.4183 63.933 44.169 63.6847C43.9785 63.495 43.8632 63.6713 43.8579 64.1607C43.8532 64.5883 43.7123 68.6505 43.5448 73.188C43.3772 77.7254 43.098 85.293 42.9242 90.005L42.6083 98.5721L41.7785 99.2861C40.965 99.986 40.7896 100 32.8445 100C25.1305 100 24.6996 99.9683 23.8965 99.3424H23.8965ZM50.7897 35.9062C56.4478 34.9595 56.1887 35.0508 56.7964 33.788C57.4769 32.3739 58.697 26.8038 59.416 21.8286L59.96 18.0645L57.2031 15.3325L54.4461 12.6005L49.151 14.3279L43.856 16.0553L38.7001 14.3634L33.5443 12.6715L30.8332 15.3244L28.1222 17.9773L28.329 20.3571C28.6308 23.8322 29.9925 30.8439 30.7605 32.8778C31.1261 33.8461 31.6668 34.7599 31.9621 34.9085C32.2573 35.0571 34.0119 35.4199 35.8611 35.7148C37.7103 36.0097 40.0158 36.3791 40.9844 36.5358C43.1972 36.8938 45.9402 36.7177 50.7897 35.9062Z" fill="#424242"/>
</svg>
