<?xml version="1.0" standalone="no"?>
<!DOCTYPE svg PUBLIC "-//W3C//DTD SVG 20010904//EN"
 "http://www.w3.org/TR/2001/REC-SVG-20010904/DTD/svg10.dtd">
<svg version="1.0" xmlns="http://www.w3.org/2000/svg"
 width="512.000000pt" height="512.000000pt" viewBox="0 0 512.000000 512.000000"
 preserveAspectRatio="xMidYMid meet">

<g transform="translate(0.000000,512.000000) scale(0.100000,-0.100000)"
fill="#424242" stroke="none">
<path d="M1493 5099 c-67 -33 -83 -77 -83 -231 l0 -126 -142 -4 c-161 -3 -196
-15 -232 -77 -41 -71 -20 -148 54 -198 30 -21 44 -23 176 -23 l144 0 0 -140 0
-140 -42 0 c-47 0 -89 -22 -116 -61 -15 -21 -18 -65 -22 -353 -4 -278 -7 -330
-20 -337 -8 -4 -66 -33 -129 -64 -648 -319 -1069 -989 -1075 -1707 -1 -143 1
-159 20 -184 52 -71 124 -91 197 -55 68 33 75 57 81 256 9 295 78 539 224 785
184 311 503 583 830 706 l62 24 540 0 540 0 66 -25 c441 -166 824 -569 973
-1025 64 -195 75 -273 75 -515 0 -237 -11 -318 -70 -508 -82 -261 -276 -556
-483 -735 l-72 -62 -1028 0 -1028 0 -84 74 c-118 103 -234 245 -324 395 -28
46 -47 67 -73 78 -108 45 -233 -61 -207 -176 9 -42 127 -217 223 -332 125
-149 310 -309 381 -330 24 -7 393 -9 1136 -7 l1100 3 45 31 c198 138 424 399
558 644 172 316 258 737 223 1095 -47 479 -245 893 -587 1226 -167 162 -349
288 -542 375 l-81 36 -3 322 c-3 285 -5 325 -21 353 -23 43 -60 66 -116 73
l-46 5 -3 138 -3 137 392 0 391 0 -5 -32 c-25 -144 -29 -221 -19 -315 48 -420
354 -746 769 -818 289 -50 592 45 802 254 126 125 206 264 253 440 26 99 29
312 6 417 -46 205 -166 397 -329 527 -312 250 -741 272 -1085 55 -63 -40 -165
-131 -204 -182 l-35 -45 -467 -1 -468 0 0 133 c0 156 -11 188 -80 224 -43 23
-45 23 -469 23 -411 0 -427 -1 -468 -21z m717 -609 l0 -330 -250 0 -250 0 0
330 0 330 250 0 250 0 0 -330z m2170 301 c141 -45 278 -155 353 -282 145 -246
104 -561 -99 -764 -122 -123 -272 -185 -444 -185 -173 0 -323 63 -444 185
-344 347 -186 928 288 1056 93 25 251 21 346 -10z m-1980 -1126 l0 -205 -440
0 -440 0 0 205 0 205 440 0 440 0 0 -205z"/>
</g>
</svg>
