<svg xmlns="http://www.w3.org/2000/svg" viewBox="0 0 158.96 151.31"><title>blusasicon_pb</title><g id="Camada_2" data-name="Camada 2"><g id="Camada_1-2" data-name="Camada 1"><path d="M34.17,60.46c-6.43,3.75-12.76,4.37-18.68.43a47.55,47.55,0,0,1-13-13c-4.13-6.12-3-14.79,2.15-20.12,5.86-6,11.74-12,17.83-17.8C30.2,2.67,39.59-.39,50.12.07a9.3,9.3,0,0,1,8.32,5.56c6.34,12.76,23.3,17.08,35.15,9a18.16,18.16,0,0,0,6.57-8.06C102.08,2,105.5,0,110.32,0a37.37,37.37,0,0,1,27.76,11.44c5.11,5.18,10.3,10.29,15.43,15.45,7.25,7.29,7.26,17.52.05,24.77-1.63,1.65-3.39,3.18-4.9,4.94C143.19,63,135,66.08,125.15,60.72a4.34,4.34,0,0,0-.25,2.51q0,34.56,0,69.11c0,11.4-7.45,18.92-18.89,18.94q-26.5.06-53,0c-10.24,0-17.75-6.52-18.74-16.1a10.17,10.17,0,0,1,0-1.91,3.76,3.76,0,0,1,3.69-3.65,3.64,3.64,0,0,1,3.8,3.5c.38,5,2.7,8.57,7.66,10.15a10.64,10.64,0,0,0,3.32.34H106.4c6.55,0,10.8-4.24,10.8-10.78q0-39.48,0-79c0-.72,0-1.44,0-2.16a3.71,3.71,0,0,1,2.27-3.63,3.88,3.88,0,0,1,4.41.9c1.48,1.46,3,2.9,4.51,4.3a9.08,9.08,0,0,0,12.75-.14c2.53-2.45,5-4.93,7.46-7.47a8.93,8.93,0,0,0-.14-12.88c-5.69-5.74-11.34-11.52-17.16-17.13-6-5.78-13.34-8.21-21.62-8a2.6,2.6,0,0,0-2.48,1.85c-9.06,20.64-37.29,19.83-48.34,9.63A27.32,27.32,0,0,1,52.06,10a3.43,3.43,0,0,0-3.62-2.37,29.61,29.61,0,0,0-21.76,8.93q-7.82,7.8-15.61,15.61c-4.53,4.55-4.5,9.73,0,14.32,2.14,2.16,4.26,4.35,6.46,6.44,4.1,3.91,9.38,3.86,13.48-.08q2-1.9,4-3.84a3.93,3.93,0,0,1,4.63-.89c1.55.69,2.06,2,2.05,3.73q0,27.24,0,54.47c0,2.5-1.47,4.06-3.7,4.07s-3.8-1.64-3.81-4.26q0-21.34,0-42.71Z"/></g></g></svg>