<svg xmlns="http://www.w3.org/2000/svg" viewBox="0 0 158.97 151.26"><defs><style>.cls-1{fill:#ce38ee;}</style></defs><title>blusasicon</title><g id="Camada_2" data-name="Camada 2"><g id="Camada_1-2" data-name="Camada 1"><path class="cls-1" d="M33.76,60.71a19.91,19.91,0,0,1-9.29,2.71,16.64,16.64,0,0,1-11.93-4.77c-2.64-2.55-5.26-5.14-7.8-7.8-5.8-6.08-6.49-15.9-.88-22.09a207.79,207.79,0,0,1,21.33-21C32.55,1.64,41.31-.55,50.76.12c3.65.25,6.14,2.36,7.78,5.6,6.56,13.06,24.71,17,36.2,8a18.24,18.24,0,0,0,5.42-7.21C102.11,2,105.47.05,110.35,0a37,37,0,0,1,27.93,11.59c5.1,5.2,10.29,10.3,15.43,15.46,6.95,7,7,17.17.17,24.27-2,2.13-4.17,4.19-6.27,6.28-6.37,6.35-13.32,7.49-21.4,3.51l-.88-.39c-.61,1-.33,2-.33,2.85q0,34.32,0,68.64c0,9.07-4.89,15.92-13,18.3a18.56,18.56,0,0,1-5.19.75q-27.24,0-54.48,0a17.92,17.92,0,0,1-18.2-16.8c-.22-2.67,1-4.51,3.24-4.78,2.52-.31,3.93.94,4.35,3.85,1,6.79,4.79,10.11,11.67,10.11,17.44,0,34.88-.13,52.31.07a11,11,0,0,0,11.54-11.46c-.24-25.51-.1-51-.1-76.54,0-.56,0-1.12,0-1.68.06-2.31-.24-4.79,2.45-6s4.25.87,5.91,2.45c.51.5,1.08,1,1.61,1.43,5.92,5.39,10,5.29,15.65-.4,1.92-1.92,3.87-3.82,5.76-5.77,3.57-3.69,3.77-9.1.23-12.74-6-6.12-12-12.26-18.22-18.09-5.76-5.36-12.84-7.55-20.72-7.2a2.59,2.59,0,0,0-2.55,1.74c-8.79,20-35.14,19.77-46.67,11a26.27,26.27,0,0,1-8.43-10.27,3.64,3.64,0,0,0-3.81-2.48,28.9,28.9,0,0,0-21.73,9C21.44,21.88,16.21,27.05,11,32.27c-4.39,4.41-4.39,9.52,0,13.92,2.25,2.27,4.5,4.54,6.79,6.78a8.87,8.87,0,0,0,12.71.32c1.55-1.38,3-2.83,4.55-4.26,1.25-1.19,2.63-1.78,4.35-1a3.69,3.69,0,0,1,2.29,3.82q0,27.24,0,54.47c0,2.49-1.51,4.1-3.7,4.15a4,4,0,0,1-3.85-3.86c-.07-.71,0-1.44,0-2.16q0-20.52,0-41A4.45,4.45,0,0,0,33.76,60.71Z"/></g></g></svg>