<svg xmlns="http://www.w3.org/2000/svg" viewBox="0 0 82.31 151.29"><defs><style>.cls-1{fill:#dedede;}</style></defs><title>bodyicon_pb</title><g id="Camada_2" data-name="Camada 2"><g id="Camada_1-2" data-name="Camada 1"><path d="M21.33,13c-5.09,6.7-9.82,13.68-11.95,21.91C7.58,41.82,9.31,48.7,11,55.46A129.27,129.27,0,0,0,17.8,75.35c2.81,6.52,2,12.42-2.65,17.81-2.2,2.54-4.3,5.16-6.48,7.72-1.33,1.56-1.27,2.77.6,3.87s3.94,2.45,5.81,3.8A3.73,3.73,0,0,1,16.15,114c-1.26,1.81-3.37,2.14-5.49.8s-4-2.6-6-3.89A9.47,9.47,0,0,1,2.16,96.75c2.38-3,4.86-5.93,7.36-8.85a8.05,8.05,0,0,0,1.39-9.09C6.62,68.39,3,57.78,1.47,46.53A38.64,38.64,0,0,1,6.28,22.1,131,131,0,0,1,19.48,2.73C21.62.08,24.56-.66,27.36.67a6.35,6.35,0,0,1,3.4,7.43A54.32,54.32,0,0,0,29.39,24c.77,9,6.8,13.34,15.62,11.14,4.6-1.14,6.63-4.44,7.49-8.69,1.19-5.91.43-11.77-.81-17.58-.53-2.44-.54-4.77,1.27-6.76a6.15,6.15,0,0,1,9.32,0C68.83,10,74.67,18.39,78.72,27.89,82,35.51,81.49,43.32,80.07,51.2A129.45,129.45,0,0,1,71.5,78.53C70,82.1,70.33,85.14,72.89,88c2.27,2.58,4.42,5.27,6.62,7.91,4.54,5.45,3.48,11.77-2.6,15.41-10.61,6.34-18.82,14.73-22.7,26.77-.47,1.44-.74,2.94-1.19,4.39a12.42,12.42,0,0,1-23.73.06c-.88-2.72-.13-4.86,2-5.65,2.32-.87,4.23.22,5.24,3.09.81,2.3,2.32,3.59,4.79,3.57a4.58,4.58,0,0,0,4.51-3.88c3.69-15.47,13.22-26.45,26.5-34.56,2.92-1.78,3-2.19.77-4.89-2.09-2.53-4.2-5-6.3-7.55-4.23-5.08-5-10.66-2.49-16.77A141,141,0,0,0,72.83,48.6c1.49-7.85.69-15.22-3.22-22.23a102.79,102.79,0,0,0-8.78-13.61c-1,.79-.44,1.6-.37,2.32.45,5.36.54,10.69-1.24,15.88C57,37.56,52.53,41.68,45.54,42.85c-5.26.87-10.41.57-15.06-2.25-5.85-3.55-8-9.29-8.71-15.74a67.94,67.94,0,0,1,.08-10.77C22.06,13.09,22.06,13.09,21.33,13Z"/><path class="cls-1" d="M21.33,13c.1-.38.54-.93.65-.78.47.59.15,1.27-.13,1.89Z"/></g></g></svg>