<svg xmlns="http://www.w3.org/2000/svg" viewBox="0 0 82.32 151.27"><defs><style>.cls-1{fill:#ce38ee;}.cls-2{fill:#f0c4f9;}</style></defs><title>bodyicon</title><g id="Camada_2" data-name="Camada 2"><g id="Camada_1-2" data-name="Camada 1"><path class="cls-1" d="M21.73,12.46A75.19,75.19,0,0,0,10.22,32C7.73,38.34,8.72,44.74,10,51.12a131.89,131.89,0,0,0,8,24.8c2.53,6.12,1.75,11.69-2.54,16.77-2.22,2.63-4.39,5.29-6.59,7.93-1.7,2-1.54,2.87.78,4.32,1.82,1.14,3.66,2.28,5.4,3.55,2,1.47,2.4,3.63,1.13,5.44s-3.47,2.13-5.53.84-4.16-2.69-6.24-4A9.48,9.48,0,0,1,1.89,97.08c2.21-2.93,4.56-5.77,7-8.49,2.93-3.21,3.45-6.52,1.71-10.55A152.07,152.07,0,0,1,2.41,52.56C-.54,40.07,1.62,28.68,8.54,18A173.39,173.39,0,0,1,19.1,3.14C21.59.06,24.56-.77,27.52.72c2.81,1.4,3.86,4.23,3.07,8-1.23,6-2,12-.71,18.06s5,8.86,11.58,8.79c6.19-.07,9.86-3.11,11-9.18s.4-11.77-.83-17.59c-1.09-5.23,1.75-9,6.52-8.74a5.46,5.46,0,0,1,4,1.92c7,8.49,13.33,17.37,17.23,27.78,2.66,7.11,2,14.32.64,21.52a132.59,132.59,0,0,1-8.62,27.36A8.18,8.18,0,0,0,72.86,88c2.37,2.71,4.63,5.51,6.91,8.29,4.15,5,3.15,11.33-2.47,14.77a59.76,59.76,0,0,0-14.75,12.12,42.83,42.83,0,0,0-9.22,18.2,12.42,12.42,0,0,1-11.72,9.91,12.29,12.29,0,0,1-12.27-8.55c-1-2.91-.25-5,2-5.82s4.14.28,5.22,3.16c.88,2.36,2.71,3.79,4.82,3.54a4.83,4.83,0,0,0,4.46-4C49.48,124.26,58.92,113.36,72,105.3c3.26-2,3.32-2.41.78-5.41-2.12-2.5-4.2-5-6.28-7.56C62.49,87.42,61.83,82,64.19,76.16A191.47,191.47,0,0,0,72,53c3-11.16,1.68-21.47-4.84-31.11a93.34,93.34,0,0,0-6.79-9.53,64.25,64.25,0,0,1,.28,11.42c-.57,6.77-2.54,12.9-8.76,16.72-12.91,7.95-28.88-.27-30.1-15.4a100.69,100.69,0,0,1,.09-11C22,13.57,22.22,13,21.73,12.46Z"/><path class="cls-2" d="M21.73,12.46c.07-.27.26-.7.44-.21a1.89,1.89,0,0,1-.34,1.89C21.79,13.58,21.76,13,21.73,12.46Z"/></g></g></svg>