<svg width="53" height="48" viewBox="0 0 53 48" fill="none" xmlns="http://www.w3.org/2000/svg">
<path d="M2.7002 47.1726C2.43854 47.0264 2.25912 46.7619 2.17004 46.3911C1.96091 45.5207 1.666 41.9142 1.7693 41.4905C1.86645 41.0919 2.51406 40.6557 3.00879 40.6557C3.16923 40.6557 3.46782 40.7342 3.67231 40.8302C4.10962 41.0353 4.26313 41.5496 4.40124 43.2719C4.45378 43.9269 4.52954 44.5176 4.5696 44.5843C4.66672 44.7462 9.97652 44.7411 10.0737 44.5791C10.166 44.4255 11.4717 34.1476 11.4717 33.5753C11.4717 33.1958 11.385 33.1413 10.1176 32.7232C8.37479 32.1483 5.7069 31.6234 4.40674 31.5995L3.38705 31.5808L3.39648 32.2558C3.40166 32.627 3.4594 33.6108 3.52479 34.442L3.64368 35.9531L3.22403 36.2937C2.72277 36.7005 1.83749 36.6518 1.39175 36.1928C0.938429 35.726 0.498267 30.8199 0.614623 27.5308C0.772247 23.0754 1.17879 20.6888 2.34815 17.3543C3.42076 14.2956 3.4905 13.8207 3.58989 8.89739C3.67675 4.59467 3.68451 4.50749 4.01008 4.17239L4.34177 3.83104L12.0189 3.75604L19.696 3.68105L20.3713 2.33105C20.778 1.51793 21.1847 0.907366 21.394 0.795766C21.8483 0.553426 29.6451 0.527566 30.1548 0.766726C30.926 1.12859 30.9122 0.986086 31.0029 9.53098C31.082 16.9706 31.107 17.5579 31.3936 18.6809C32.9368 24.7266 36.1752 29.7405 39.7403 31.6037C40.4881 31.9946 40.6801 32.0235 43.1547 32.1197C45.235 32.2004 45.9786 32.2878 46.7536 32.5426C48.149 33.0014 49.8117 34.1936 50.6201 35.315C52.0464 37.2935 52.3984 38.6817 52.4021 42.3408L52.4047 44.8509L52.0041 45.3099C51.6473 45.7189 51.4525 45.7921 50.2197 45.9806C44.9482 46.7867 38.6348 47.2857 33.3949 47.3106C28.7139 47.3328 28.3987 47.2858 26.7338 46.3164C25.334 45.5015 24.2735 44.4858 20.7189 40.5555C18.3785 37.9679 16.9026 36.4686 16.0269 35.7891C14.8749 34.8954 14.1839 34.5129 14.0221 34.6796C13.9901 34.7124 13.7948 36.0874 13.5881 37.7351C12.6204 45.4494 12.4648 46.5536 12.3093 46.81C11.9781 47.356 11.5531 47.4058 7.27686 47.3997C3.87781 47.3948 3.02174 47.3523 2.70021 47.1726H2.7002ZM41.1882 44.342C45.2092 43.983 48.3438 43.6282 49.3821 43.4144L49.7826 43.3319V41.496C49.7826 40.2755 49.7061 39.3871 49.5543 38.8455C49.1145 37.2764 47.8791 35.8581 46.3594 35.1777C45.9146 34.9786 45.1389 34.8906 43.0819 34.8059C40.6685 34.7064 40.2817 34.6534 39.3799 34.2978C34.6942 32.4504 30.602 26.4082 28.7759 18.6411C28.4929 17.4372 28.461 16.7648 28.3822 10.356L28.2965 3.38105H25.4559H22.6154L21.887 4.80599C21.2633 6.02627 21.0959 6.24461 20.7216 6.32573C20.4813 6.37787 17.1218 6.42851 13.2562 6.43823L6.22758 6.45599L6.22627 8.66848C6.22383 13.0294 5.93617 14.8717 4.71682 18.3356C4.35406 19.366 3.92585 20.8778 3.76523 21.695C3.42838 23.4089 3.12471 26.7056 3.19391 27.8976L3.24132 28.7144L5.34491 28.986C8.60942 29.4077 11.9209 30.3746 14.2573 31.5884C15.6688 32.3217 17.8952 33.9233 19.1219 35.0878C19.784 35.7164 21.4173 37.4457 22.7514 38.9307C26.3881 42.9787 27.4147 43.9058 28.8499 44.4375C29.5467 44.6957 29.9692 44.7123 34.1231 44.6439C36.6068 44.603 39.786 44.4671 41.1881 44.342H41.1882Z" fill="#CF38EF"/>
</svg>
