<svg width="163" height="144" viewBox="0 0 163 144" fill="none" xmlns="http://www.w3.org/2000/svg">
<path fill-rule="evenodd" clip-rule="evenodd" d="M8.95034 86.0327C8.05884 83.7967 9.21994 72.6262 9.60654 69.8258C12.5214 48.7063 18.5408 53.6735 18.0664 21.645C18.0424 20.0249 17.6505 18.9262 19.0476 18.6397C20.6551 18.31 56.2373 18.9322 62.0439 18.5531C67.0717 18.2249 65.7627 13.4018 69.54 9.1254C72.1731 9.0042 84.9927 8.5704 86.2903 9.3984C86.9582 10.2148 86.7423 10.7532 86.7283 12.1217C86.6092 23.7648 86.1649 45.7577 88.0117 55.052C90.4449 67.2973 96.2324 79.1711 102.376 87.5085C110.305 98.2689 118.66 104.576 132.245 104.563C140.948 104.555 145.161 105.262 149.737 110.71C151.351 112.633 152.993 115.577 153.364 118.664L153.543 127.513C153.543 127.863 153.543 128.574 153.496 128.898L153.35 129.497C153.333 129.568 153.258 129.817 153.244 129.769C153.23 129.722 153.177 129.951 153.126 130.033C149.67 131.867 114.649 133.981 107.897 134.172C100.332 134.387 91.5406 135.453 85.8321 132.298C79.2701 128.67 67.2681 113.555 61.0281 107.698C48.2145 95.6693 37.736 90.4188 19.7593 87.2395C16.2637 86.6213 12.5492 86.5968 8.95034 86.0327ZM42.5045 104.446C42.5918 104.405 42.7187 104.374 42.7819 104.365C43.4627 104.269 43.502 104.162 44.3161 104.587C55.2166 110.286 70.6423 133.317 81.7981 139.477C86.2833 141.954 91.0501 142.923 96.9672 142.898C102.201 142.875 109.966 142.987 114.936 142.286C120.205 141.544 126.907 141.552 132.484 141.046C138.03 140.542 143.665 139.971 149.357 139.218C156.384 138.29 161.75 138.708 162.001 133.164C162.251 127.622 162.308 120.193 161.091 115.311C158.722 105.809 151.437 98.9969 142.093 96.8212C136.583 95.5383 129.629 97.0024 124.729 95.5256C113.302 92.0816 103.434 75.5959 99.4151 64.7761C94.9331 52.7095 95.0932 45.5996 95.0932 31.5408C95.0932 25.3084 95.0932 19.076 95.0932 12.8436C95.0932 5.9364 96.5077 0.569996 88.8669 0.595796C82.6325 0.616796 76.3864 0.632894 70.1522 0.604194C61.9139 0.566294 63.5673 4.2016 60.3152 9.3609C59.4056 10.804 58.252 10.378 56.4034 10.3591L23.9422 10.3535C4.57273 10.3535 10.96 9.29859 9.65124 33.6223C8.85964 48.3343 4.53194 51.5883 2.23334 63.4375C0.070936 74.5843 -0.306262 86.4978 0.879838 97.6925C1.56974 104.204 0.635736 111.319 7.30324 109.817C12.7899 108.581 8.34934 101.818 9.37514 94.6081C13.6917 94.5472 33.6392 97.2651 34.1394 100.423L33.3148 108.797C33.052 111.529 32.5944 114.451 32.244 117.24C29.6403 137.964 31.9893 134.41 21.4728 134.41C19.4919 134.41 14.3794 135.149 13.1974 133.994C11.188 132.11 13.9757 124.091 9.76914 122.288C7.66814 121.388 5.57234 122.255 4.50014 123.567C2.99204 125.411 4.08554 140.407 7.10914 142.19C9.46354 143.579 17.6085 142.906 21.12 142.906C38.7602 142.906 36.9496 144.775 38.8646 130.884C39.3 127.726 41.6463 105.451 42.5045 104.446V104.446Z" fill="#424242"/>
</svg>
