<svg xmlns="http://www.w3.org/2000/svg" viewBox="0 0 136.78 151.28"><title>calcasicon_pb</title><g id="Camada_2" data-name="Camada 2"><g id="Camada_1-2" data-name="Camada 1"><path d="M68.29,74.27q-2.21,15-4.4,30c-1.81,12.4-3.57,24.82-5.4,37.22a11.21,11.21,0,0,1-10.67,9.63c-12.4.19-24.8.23-37.19,0A11.13,11.13,0,0,1,.05,139c.26-2.77,1.85-4.32,4.25-4.16s3.47,1.71,3.43,4.54,1.5,4.22,4.81,4.23c9,0,17.92,0,26.88,0,2.32,0,4.64.05,7,0,2.92-.07,4.17-1.2,4.6-4.08q5.24-35.67,10.46-71.34c.56-3.81,3.2-6.27,6.9-6.31,3.9,0,6.5,2.31,7.09,6.33Q80.66,104,85.92,139.74c.36,2.47,1.63,3.78,4.13,3.79,11.68.06,23.35.08,35,0,3.15,0,4.54-2.08,3.83-5.15Q114.14,74.26,99.4,10.12C99,8.29,98.56,7.57,96.35,8a154,154,0,0,1-56,0c-2-.36-2.43.26-2.8,1.9Q30.6,40.18,23.59,70.5C20.48,84,17.41,97.56,14.28,111.08c-.28,1.22-.42,2.57-1.54,3.42a3.72,3.72,0,0,1-4.46.37,3.67,3.67,0,0,1-1.76-4.31Q9.63,97.15,12.7,83.74,21.48,45.61,30.26,7.48C31.61,1.6,34.88-.71,40.83.36a152.57,152.57,0,0,0,56-.18c4.76-.9,8.47,1.59,9.59,6.43q8.49,36.72,16.93,73.47,6.57,28.56,13.12,57.14c1.61,7.06-3.11,13.72-10.37,13.88-12.31.27-24.63.2-36.94,0a11.19,11.19,0,0,1-10.78-9.81c-2.65-17.85-5.2-35.72-7.8-53.58-.65-4.49-1.33-9-2-13.46Z"/></g></g></svg>