<svg xmlns="http://www.w3.org/2000/svg" viewBox="0 0 136.76 151.27"><defs><style>.cls-1{fill:#ce38ee;}</style></defs><title>calcasicon</title><g id="Camada_2" data-name="Camada 2"><g id="Camada_1-2" data-name="Camada 1"><path class="cls-1" d="M68.36,73.79c-1.39,9.45-2.71,18.35-4,27.26-2,13.43-3.87,26.86-5.85,40.29a11.61,11.61,0,0,1-11.6,9.83c-11.84.09-23.68.12-35.52,0A11.42,11.42,0,0,1,0,139.14c.2-2.76,1.77-4.51,4-4.49s3.67,1.74,3.67,4.63,1.58,4.28,5.07,4.29c8.56,0,17.12,0,25.68,0,2.48,0,5,0,7.44,0,3.32-.06,4.6-1.17,5.08-4.44q5-34.36,10-68.72c.15-1,.29-2.06.48-3.08a7,7,0,0,1,7.06-5.64,6.84,6.84,0,0,1,6.8,5.93Q80.21,100.79,85,134c.26,1.81.58,3.62.86,5.44.39,2.6,1.81,4.1,4.4,4.12,11.52.07,23,.09,34.56,0,3.4,0,4.75-2.11,4-5.48Q114.11,74.12,99.42,10.18c-.46-2-1-2.62-3.31-2.22a150.55,150.55,0,0,1-52.67.43c-5.31-.93-5.3-.94-6.5,4.29q-11.29,49-22.58,98c-.11.47-.24.93-.37,1.39-.69,2.51-2.54,3.72-4.79,3.14-2.1-.54-3.16-2.46-2.61-4.88Q9.5,97.61,12.44,84.89,21.38,46,30.31,7.19c1.33-5.78,4.87-8,10.78-6.92A146.71,146.71,0,0,0,95.4.31c5.22-1,9.87.84,11.35,7.42,9.74,43.13,19.76,86.19,29.69,129.28a11.26,11.26,0,0,1-10.94,14.14c-11.91.17-23.84.15-35.75,0-6.23-.08-10.66-4.59-11.52-10.76-1.9-13.68-4-27.33-6-41q-1.77-12.08-3.57-24.16C68.67,74.93,68.57,74.64,68.36,73.79Z"/></g></g></svg>