<svg xmlns="http://www.w3.org/2000/svg" viewBox="0 0 139.43 151.26"><defs><style>.cls-1{fill:#ce38ee;}</style></defs><title>casacosicon</title><g id="Camada_2" data-name="Camada 2"><g id="Camada_1-2" data-name="Camada 1"><path class="cls-1" d="M69.74,30.72C74.16,21.77,78.64,13,82.8,4.16,84.24,1.07,86.21,0,89.5,0c13,.17,22,6.82,28.63,17.26C123.74,26,126.24,36,128,46.07c3.94,22.09,7,44.32,9.55,66.61.69,5.95,1.25,11.91,1.81,17.88a8.43,8.43,0,0,1-7.53,9,42.09,42.09,0,0,1-9.32,0c-4.15-.47-6.46-3-7.4-7.37q-3.66-17-7.31-33.94c-.16-.76-.4-1.49-.66-2.41a4.66,4.66,0,0,0-.35,2.73c0,13.76,0,27.52,0,41.28a18.93,18.93,0,0,1-.54,5,8.9,8.9,0,0,1-8.61,6.42q-28,.08-55.91,0a9.1,9.1,0,0,1-9-8.35,3.87,3.87,0,0,1,3-4.51,3.61,3.61,0,0,1,4.51,3.15,2.26,2.26,0,0,0,2.61,2.13q26.87,0,53.75,0c2.45,0,2.36-1.53,2.36-3.22q0-33.6,0-67.19c0-.72,0-1.45,0-2.16a5.3,5.3,0,0,1,4.73-5.2,5.07,5.07,0,0,1,5.79,4.2c1.6,6.92,3.08,13.87,4.57,20.81q4.17,19.32,8.27,38.63c.38,1.77,1.12,2.78,3,2.53.23,0,.48,0,.72,0,6.1-.15,5.88,1.33,5.13-5.89-1.24-11.83-2.53-23.66-4.16-35.44-2.59-18.73-4.63-37.58-9.59-55.9-2.33-8.59-6.25-16.44-13.51-22.11a23.1,23.1,0,0,0-12.51-5,2.33,2.33,0,0,0-2.61,1.53C84.09,19.18,79.19,29.06,74.45,39c-1,2.13-2.22,3.75-4.7,3.78S66,41.16,65,39.06c-4.69-9.8-9.52-19.54-14.19-29.35a3,3,0,0,0-3.52-2c-8,1-13.84,5.44-18.32,11.87-5.68,8.12-8.13,17.43-9.88,27q-3.77,20.74-6.49,41.64C11.09,99.81,9.88,111.4,8.53,123c-.26,2.3-.45,4.62-.77,6.91-.2,1.45.33,2,1.76,2.17,6.75.63,6.82.58,8.21-5.89q6-27.73,12-55.46c.52-2.41,1.68-4.16,4.16-4.72a5.1,5.1,0,0,1,5.36,1.86,5.25,5.25,0,0,1,1.11,3.57q0,21.6,0,43.2c0,2.71-1.41,4.39-3.62,4.46s-4-1.74-4-4.43c-.06-5.52,0-11,0-16.56a5.53,5.53,0,0,0-.42-2.55Q30,105.67,27.81,115.8c-1.18,5.46-2.3,10.93-3.51,16.39-1.13,5.11-4.23,7.55-9.57,7.52-2.55,0-5.13.3-7.66-.22a8.46,8.46,0,0,1-7-9.41c2.05-20,4.32-40,7.43-59.89C9.23,59,10.73,47.75,13.4,36.72c2.28-9.42,5.88-18.28,12.48-25.59S40.89-.34,51.12.05a5.29,5.29,0,0,1,5.07,3.26c4.17,8.63,8.45,17.21,12.69,25.81C69.12,29.61,69.4,30.09,69.74,30.72Z"/></g></g></svg>