<svg xmlns="http://www.w3.org/2000/svg" viewBox="0 0 139.3 151.25"><title>casacosicon_pb</title><g id="Camada_2" data-name="Camada 2"><g id="Camada_1-2" data-name="Camada 1"><path d="M107.15,95.32a5.53,5.53,0,0,0-.42,3q0,21.12,0,42.24c0,5.62-2.29,9.07-6.76,10.29a10.84,10.84,0,0,1-2.84.36c-18.31,0-36.63.06-54.95,0-5.28,0-8.86-3.36-9.39-8.36a3.93,3.93,0,0,1,3.2-4.57,3.62,3.62,0,0,1,4.27,3.2c.26,1.63,1,2.1,2.56,2.1q26.88,0,53.76,0c2.41,0,2.48-1.32,2.48-3.08q0-34.08,0-68.15c0-2.27.33-4.31,2.4-5.66,3.35-2.19,7.35-.3,8.3,4,1.67,7.57,3.27,15.14,4.89,22.71q3.9,18.14,7.76,36.28c.35,1.64,1,2.57,2.89,2.38a25.84,25.84,0,0,1,4.31,0c1.74.1,2.21-.61,2-2.3-1.25-11-2.3-22.1-3.67-33.12-1.71-13.78-3.7-27.53-6.06-41.23-1.73-10.06-3.15-20.21-7.71-29.51-4-8.23-9.53-14.95-18.85-17.51l-.69-.21c-4.66-1-4.67-1-6.78,3.28Q80.92,25.65,74,39.85a4.53,4.53,0,0,1-4.27,2.91A4.48,4.48,0,0,1,65.41,40C60.56,30,55.64,20.07,51,10c-1-2.24-2.28-2.63-4.4-2.25-8.18,1.45-14,6.21-18.39,13-5.06,7.79-7.42,16.53-9,25.53C14.66,71,11.4,95.86,8.66,120.79c-.33,3-.55,6-.91,9.07-.19,1.54.29,2.15,1.9,2.21,6.7.25,6.71.29,8.12-6.2q6-27.5,11.9-55c.74-3.43,3-5.4,5.91-5,3.05.37,4.74,2.51,4.74,6.1q0,21.24,0,42.48c0,3-1.23,4.53-3.65,4.59s-4-1.55-4-4.58c0-5.84,0-11.68,0-17.52a3.23,3.23,0,0,0-.39-1.6q-2.71,12.47-5.42,24.94c-.86,4-1.66,8-2.53,12-1.09,5-4.18,7.44-9.34,7.45-2.08,0-4.16,0-6.24,0A8.53,8.53,0,0,1,.05,130.1C3,100.92,6.64,71.85,12,43c2-10.68,5.21-20.93,12-29.63S39.52-.19,50.79,0a5.71,5.71,0,0,1,5.58,3.66c4,8.42,8.16,16.77,12.27,25.14.31.63.69,1.23,1.1,1.94,4.47-9.07,8.93-18,13.23-27A5.87,5.87,0,0,1,88.72,0c10.68-.15,19.15,4.3,25.84,12.34,7,8.45,10.49,18.54,12.54,29.15,3.91,20.23,6.81,40.63,9.2,61.09,1.06,9,2,18.11,2.93,27.17.61,5.85-3,9.87-8.92,9.89-2.08,0-4.16,0-6.24,0-4.69,0-7.89-2.55-8.89-7.12-2.29-10.53-4.53-21.07-6.79-31.6C108,99.22,107.64,97.53,107.15,95.32Z"/></g></g></svg>