<svg width="36" height="60" viewBox="0 0 36 60" fill="none" xmlns="http://www.w3.org/2000/svg">
<path d="M16.1985 59.8455C15.654 59.7572 14.3561 59.3684 13.3144 58.9816C10.1314 57.7995 8.03443 57.8556 5.08189 59.2016C4.28765 59.5637 3.34374 59.8597 2.98434 59.8593C2.23233 59.8586 1.34253 59.3233 0.92629 58.6215C0.320672 57.6005 0.396326 56.8467 1.45751 53.3264C2.00749 51.5019 2.61169 49.7926 2.80014 49.5279C3.46347 48.5963 4.86545 49.0719 4.86545 50.2285C4.86545 50.49 4.51151 51.8698 4.07885 53.2948C3.23738 56.0662 3.16091 56.5339 3.5238 56.6877C3.65116 56.7416 4.49394 56.5124 5.39667 56.1784C8.31774 55.0973 10.8783 55.1651 14.1297 56.4097C17.1669 57.5723 18.9281 57.5384 22.34 56.2517C25.4443 55.081 28.3513 55.1594 31.4782 56.4982C33.1605 57.2186 33.2957 57.8917 28.6061 42.1917C26.2904 34.4389 24.2741 27.941 24.1255 27.7522C23.8886 27.4512 23.5838 27.4154 21.6592 27.4625L19.4632 27.5163L19.1564 28.2367C18.6248 29.4851 17.3257 29.4851 16.7941 28.2367L16.4873 27.5163L14.328 27.4619C12.9376 27.4269 12.0858 27.4835 11.9359 27.621C11.8078 27.7384 10.5906 31.5212 9.23094 36.0272C6.67893 44.485 6.55096 44.7985 5.65205 44.7985C5.45449 44.7985 5.1096 44.6567 4.88569 44.4835C4.53196 44.2097 4.49351 44.0641 4.59262 43.3732C4.65534 42.9358 5.81667 38.8414 7.17338 34.2747L9.64009 25.9715L9.18692 23.4613C8.93771 22.0807 8.40644 19.2131 8.0064 17.0891C7.18669 12.737 7.16847 11.7082 7.88094 10.0041C8.41282 8.73204 9.261 7.80156 10.5796 7.0437L11.5952 6.46014L11.7037 3.56797C11.7634 1.9773 11.8223 0.660318 11.8348 0.641358C12.0983 0.238695 12.5188 0.000593343 12.9623 0.00295302C14.1269 0.0091464 14.3045 0.506121 14.3045 3.75956V6.38592L15.0871 6.75648C15.5175 6.9603 16.3057 7.43514 16.8385 7.8117C17.3713 8.1882 17.8863 8.49624 17.9829 8.49624C18.0796 8.49624 18.6483 8.15844 19.2468 7.74552C19.8453 7.33266 20.5317 6.93132 20.772 6.85374C21.7652 6.53322 21.8208 6.34896 21.8208 3.37919C21.8208 0.332838 21.9351 0 22.981 0C24.0846 0 24.1714 0.236345 24.268 3.50578L24.3554 6.46422L25.2266 6.92052C26.5728 7.62564 27.3052 8.37102 27.9355 9.6774C28.9071 11.6912 28.877 12.3844 27.5001 19.7227L26.3206 26.0089L30.8878 41.1553C33.6648 50.365 35.455 56.5903 35.455 57.0379C35.455 58.1276 34.9885 59.0472 34.2143 59.4835C33.2735 60.0138 32.5921 59.956 30.9005 59.203C27.875 57.8563 25.7825 57.7962 22.693 58.9676C20.0542 59.968 18.3636 60.1968 16.1985 59.8455ZM16.7983 23.8896C17.1979 22.9511 17.7682 22.6438 18.494 22.9759C18.8334 23.1313 19.0684 23.4054 19.1378 23.7271C19.341 24.6692 19.4615 24.7164 21.6634 24.7164C23.6219 24.7164 23.7491 24.6926 23.9845 24.2819C24.3896 23.575 26.2439 13.2059 26.1427 12.2137C26.0339 11.1481 25.3087 10.1027 24.2578 9.49674C23.0483 8.79924 22.1789 8.99286 20.1149 10.4193C19.1866 11.0609 18.2271 11.5849 17.9827 11.5837C17.7382 11.5825 16.7953 11.0618 15.8872 10.4267C14.1501 9.2118 13.4609 8.95386 12.4898 9.1551C11.1829 9.42594 9.75976 11.2232 9.75976 12.6029C9.75976 13.4341 11.8415 24.173 12.0586 24.462C12.2125 24.6667 12.7443 24.7154 14.3728 24.6739L16.4873 24.6199L16.7983 23.8896Z" fill="#CF38EF"/>
</svg>
