<svg width="12" height="12" viewBox="0 0 12 12" fill="none" xmlns="http://www.w3.org/2000/svg">
<path d="M2.9147 11.9999C2.70935 12.0034 2.50804 11.9426 2.339 11.8259C1.96658 11.5623 1.82127 11.054 1.92926 10.3964L2.15319 9.03284C2.16603 8.9548 2.20935 8.88507 2.27361 8.83897C2.33787 8.79288 2.4178 8.7742 2.49583 8.78705C2.57385 8.7999 2.64358 8.84323 2.68967 8.90749C2.73576 8.97176 2.75444 9.05169 2.74159 9.12973L2.51766 10.4901C2.45017 10.9007 2.5129 11.2184 2.68362 11.3391C2.85435 11.4598 3.1291 11.4138 3.4626 11.2303L4.63465 10.5862C5.40013 10.1653 6.59917 10.1653 7.36466 10.5862L8.5367 11.2303C8.87021 11.4138 9.15448 11.4535 9.31568 11.3391C9.47687 11.2247 9.54914 10.9007 9.48164 10.4901L9.25771 9.12657C9.11319 8.24584 9.48085 7.06173 10.0939 6.44069L11.042 5.47499C11.3286 5.18274 11.4533 4.89524 11.3834 4.68558C11.3136 4.47592 11.061 4.33775 10.6823 4.28057L9.37206 4.08123C8.51844 3.95178 7.55126 3.21876 7.1709 2.41348L6.58488 1.17298C6.41416 0.812433 6.19579 0.597214 5.99965 0.597214C5.80352 0.597214 5.58515 0.812433 5.41522 1.17298L4.8292 2.41348C4.44804 3.21956 3.47928 3.95257 2.62725 4.08123L1.31703 4.28057C0.938263 4.33775 0.681778 4.48545 0.61587 4.68558C0.549963 4.88571 0.670663 5.18274 0.957321 5.47499L2.18813 6.72976C2.24351 6.78621 2.27421 6.86236 2.27347 6.94145C2.27272 7.02053 2.2406 7.09607 2.18415 7.15147C2.12771 7.20686 2.05158 7.23756 1.97251 7.23682C1.89343 7.23607 1.81789 7.20394 1.7625 7.14749L0.531699 5.89273C0.0759044 5.42893 -0.09482 4.93257 0.0504944 4.49658C0.195809 4.06058 0.606343 3.78182 1.2273 3.69049L2.53831 3.49115C3.19342 3.39188 3.99542 2.78118 4.28923 2.15776L4.87525 0.917265C5.25243 0.1231 5.74158 0 5.99965 0C6.25772 0 6.74687 0.119129 7.12405 0.917265L7.71008 2.15776C8.00388 2.78118 8.80668 3.39188 9.46179 3.49115L10.772 3.69049C11.389 3.7842 11.8043 4.07011 11.9496 4.49658C12.0949 4.92304 11.9234 5.42893 11.4684 5.89273L10.5195 6.85842C10.043 7.34604 9.73336 8.34034 9.84612 9.02968L10.07 10.3933C10.1788 11.054 10.0327 11.5623 9.66031 11.8228C9.45147 11.9705 8.99091 12.1571 8.25004 11.7497L7.078 11.1064C6.49356 10.7888 5.50574 10.7888 4.9221 11.1064L3.75006 11.7497C3.49734 11.9026 3.20986 11.9887 2.9147 11.9999Z" fill="#FEBB0B"/>
</svg>
