<svg width="38" height="40" viewBox="0 0 38 40" fill="none" xmlns="http://www.w3.org/2000/svg">
<g filter="url(#filter0_d_6038:7182)">
<path d="M32.9504 24.3408C32.608 21.7196 30.5488 19.6434 27.9128 19.2614L26.2158 9.75924C26.0667 8.80042 25.2327 8.09527 24.2556 8.0998H22.4003V6.36184C22.4003 3.40082 19.9805 1 16.9959 1C14.0114 1 11.5915 3.40082 11.5915 6.36184V8.0998H9.7378C8.76071 8.09527 7.92669 8.80193 7.77754 9.75924L6.01209 19.6404C5.94817 20.1236 6.8659 20.3953 7.00896 19.7793L8.7668 9.92835C8.7668 9.92533 8.76832 9.92231 8.76832 9.91929C8.84138 9.44517 9.25382 9.09486 9.73628 9.09788H11.59V11.8082C11.59 12.0846 11.8152 12.3065 12.0922 12.3065C12.3708 12.3065 12.5945 12.0831 12.5945 11.8082V9.09637H21.3913V11.8067C21.3913 12.0831 21.6165 12.305 21.8935 12.305C22.1721 12.305 22.3958 12.0815 22.3958 11.8067V9.09637H24.251C24.7335 9.09486 25.1459 9.44366 25.219 9.91778C25.219 9.9208 25.2205 9.92382 25.2205 9.92684L26.8764 19.201C24.8354 19.2599 22.968 20.3531 21.9285 22.0971C20.8906 23.8411 20.8251 25.9912 21.7566 27.7941H8.4685C7.12463 27.7926 6.03035 26.7251 6.006 25.3918L6.37431 23.3262C6.45498 22.6195 5.63465 22.31 5.38657 23.1404L5.00761 25.2649C5.00152 25.2936 5 25.3223 5 25.3525C5.00152 27.252 6.5539 28.7922 8.4685 28.7937H22.4156C24.0836 30.8548 26.9312 31.5645 29.383 30.5271C31.8349 29.4913 33.2929 26.9621 32.9504 24.3408ZM21.3943 8.0998H12.5975V6.36184C12.5975 3.95196 14.5669 1.99808 16.9959 1.99808C19.425 1.99808 21.3943 3.95196 21.3943 6.36184V8.0998ZM31.9886 25.2921C31.8836 27.9225 29.7041 30.0002 27.0514 30.0002C25.4792 29.9971 23.9999 29.2542 23.067 27.998C21.9666 26.5091 21.8022 24.5311 22.6439 22.8837C23.4855 21.2364 25.1885 20.1975 27.0514 20.196C27.1808 20.196 27.3132 20.2006 27.4425 20.2111C30.0861 20.4195 32.0936 22.6633 31.9886 25.2921Z" fill="white" stroke="white" stroke-width="0.5" stroke-miterlimit="10"/>
<path fill-rule="evenodd" clip-rule="evenodd" d="M25 25.5C25 25.2239 25.2239 25 25.5 25H29.5C29.7761 25 30 25.2239 30 25.5C30 25.7761 29.7761 26 29.5 26H25.5C25.2239 26 25 25.7761 25 25.5Z" fill="white"/>
<path fill-rule="evenodd" clip-rule="evenodd" d="M25 25.5C25 25.2239 25.2239 25 25.5 25H29.5C29.7761 25 30 25.2239 30 25.5C30 25.7761 29.7761 26 29.5 26H25.5C25.2239 26 25 25.7761 25 25.5Z" fill="white"/>
<path fill-rule="evenodd" clip-rule="evenodd" d="M25 25.5C25 25.2239 25.2239 25 25.5 25H29.5C29.7761 25 30 25.2239 30 25.5C30 25.7761 29.7761 26 29.5 26H25.5C25.2239 26 25 25.7761 25 25.5Z" fill="white"/>
<path fill-rule="evenodd" clip-rule="evenodd" d="M27.5 23C27.7761 23 28 23.2239 28 23.5L28 27.5C28 27.7761 27.7761 28 27.5 28C27.2239 28 27 27.7761 27 27.5L27 23.5C27 23.2239 27.2239 23 27.5 23Z" fill="white"/>
<path fill-rule="evenodd" clip-rule="evenodd" d="M27.5 23C27.7761 23 28 23.2239 28 23.5L28 27.5C28 27.7761 27.7761 28 27.5 28C27.2239 28 27 27.7761 27 27.5L27 23.5C27 23.2239 27.2239 23 27.5 23Z" fill="white"/>
<path fill-rule="evenodd" clip-rule="evenodd" d="M27.5 23C27.7761 23 28 23.2239 28 23.5L28 27.5C28 27.7761 27.7761 28 27.5 28C27.2239 28 27 27.7761 27 27.5L27 23.5C27 23.2239 27.2239 23 27.5 23Z" fill="white"/>
</g>
<defs>
<filter id="filter0_d_6038:7182" x="0.75" y="0.75" width="36.5" height="38.5" filterUnits="userSpaceOnUse" color-interpolation-filters="sRGB">
<feFlood flood-opacity="0" result="BackgroundImageFix"/>
<feColorMatrix in="SourceAlpha" type="matrix" values="0 0 0 0 0 0 0 0 0 0 0 0 0 0 0 0 0 0 127 0" result="hardAlpha"/>
<feOffset dy="4"/>
<feGaussianBlur stdDeviation="2"/>
<feColorMatrix type="matrix" values="0 0 0 0 0 0 0 0 0 0 0 0 0 0 0 0 0 0 0.25 0"/>
<feBlend mode="normal" in2="BackgroundImageFix" result="effect1_dropShadow_6038:7182"/>
<feBlend mode="normal" in="SourceGraphic" in2="effect1_dropShadow_6038:7182" result="shape"/>
</filter>
</defs>
</svg>
