<svg width="126" height="20" viewBox="0 0 126 20" fill="none" xmlns="http://www.w3.org/2000/svg">
<path d="M27.451 16.228C27.502 16.4627 27.536 16.7309 27.536 16.9992C27.536 18.6588 26.1927 20 24.5093 20C23.9822 20 23.302 19.7821 23.0129 19.6312L17.2656 16.3621C16.7555 16.0771 16.1093 16.3621 15.9903 16.8818L15.4631 18.8265C15.3271 19.2791 14.936 19.6144 14.4259 19.6144C13.7287 19.6144 13.2016 18.9271 13.3887 18.2733L13.9158 16.3286C14.2559 15.0713 15.4461 14.1157 16.8575 14.1157C17.4186 14.1157 17.9287 14.2498 18.3878 14.518L24.0842 17.7536C24.7473 18.1224 25.6146 17.5189 25.3935 16.7812L21.5676 2.76614C21.4656 2.36379 21.1085 2.11232 20.7174 2.11232C20.3263 2.11232 19.9692 2.38055 19.8672 2.76614L17.4866 11.534C17.3506 11.9866 16.9255 12.3219 16.4494 12.3219C15.7522 12.3219 15.2251 11.6681 15.4121 10.9807L17.7927 2.21291C18.1328 0.922047 19.3401 0 20.7344 0C22.1457 0 23.319 0.922047 23.6761 2.21291L27.451 16.228Z" fill="white"/>
<path d="M57.491 16.228C57.5421 16.4627 57.5761 16.7309 57.5761 16.9992C57.5761 18.6588 56.2327 20 54.5493 20C54.0222 20 53.3421 19.7821 53.053 19.6312L47.3056 16.3621C46.7955 16.0771 46.1493 16.3621 46.0303 16.8818L45.5032 18.8265C45.3672 19.2791 44.9761 19.6144 44.4659 19.6144C43.7688 19.6144 43.2416 18.9271 43.4287 18.2733L43.9558 16.3286C44.2959 15.0713 45.4862 14.1157 46.8975 14.1157C47.4586 14.1157 47.9688 14.2498 48.4279 14.518L54.1242 17.7536C54.7874 18.1224 55.6546 17.5189 55.4335 16.7812L51.6076 2.76614C51.5056 2.36379 51.1485 2.11232 50.7574 2.11232C50.3493 2.11232 50.0093 2.38055 49.9072 2.76614L47.5267 11.534C47.3906 11.9866 46.9655 12.3219 46.4894 12.3219C45.7923 12.3219 45.2651 11.6681 45.4522 10.9807L47.8327 2.21291C48.1728 0.922047 49.3801 0 50.7744 0C52.1858 0 53.3591 0.922047 53.7161 2.21291L57.491 16.228Z" fill="white"/>
<path d="M5.44891 20H1.08644C0.518148 20 0 19.4719 0 18.8927V1.10733C0 0.528109 0.518148 0 1.08644 0H5.44891C8.45751 0 10.6137 2.24872 10.6137 5.26406V5.29812C10.6137 7.44463 9.5941 8.99489 8.40737 9.69336C9.5941 10.3578 10.8477 11.925 10.8477 14.2419V14.4974C10.831 17.5298 8.42408 20 5.44891 20ZM8.45751 5.28109C8.45751 3.42419 7.20393 2.21465 5.44891 2.21465H2.15616V8.60307H5.44891C7.15379 8.60307 8.45751 7.22317 8.45751 5.29812V5.28109ZM8.6748 14.2419C8.6748 12.368 7.1705 10.8007 5.4322 10.8007H2.15616V17.8024H5.44891C7.23736 17.8024 8.69152 16.3203 8.69152 14.4974V14.2419H8.6748Z" fill="white"/>
<path d="M36.3229 20H31.9605C31.3922 20 30.874 19.4719 30.874 18.8927V1.10733C30.874 0.528109 31.3922 0 31.9605 0H36.3229C39.3315 0 41.4877 2.24872 41.4877 5.26406V5.29812C41.4877 7.44463 40.4681 8.99489 39.2814 9.69336C40.4681 10.3578 41.7217 11.925 41.7217 14.2419V14.4974C41.705 17.5298 39.2981 20 36.3229 20ZM39.3315 5.28109C39.3315 3.42419 38.078 2.21465 36.3229 2.21465H33.0302V8.60307H36.3229C38.0278 8.60307 39.3315 7.22317 39.3315 5.29812V5.28109ZM39.5488 14.2419C39.5488 12.368 38.0445 10.8007 36.3062 10.8007H33.0135V17.8024H36.3062C38.0947 17.8024 39.5488 16.3203 39.5488 14.4974V14.2419Z" fill="white"/>
<path d="M66.4938 20H61.9808C61.4228 20 60.9141 19.4719 60.9141 18.8927V1.10733C60.9141 0.528109 61.4228 0 61.9808 0H66.4938C69.415 0 71.7617 2.45315 71.7617 5.46848V14.4974C71.7617 17.5298 69.415 20 66.4938 20ZM69.6775 5.50256C69.6775 3.67973 68.2826 2.19761 66.5266 2.19761H63.0475V17.7853H66.5102C68.2662 17.7853 69.694 16.3032 69.694 14.4804V5.50256H69.6775Z" fill="white"/>
<path d="M98.2011 2.19409H94.9965V18.903C94.9965 19.6118 94.4481 20 93.8826 20C93.3342 20 92.7687 19.6287 92.7687 18.903V2.19409H89.5641C88.8443 2.19409 88.4502 1.65401 88.4502 1.09705C88.4502 0.556962 88.8272 0 89.5641 0H98.184C98.9037 0 99.2979 0.540084 99.2979 1.09705C99.2979 1.63713 98.9209 2.19409 98.2011 2.19409Z" fill="white"/>
<path d="M120.716 10.8446H117.286V18.902C117.286 19.6115 116.761 20 116.219 20C115.677 20 115.152 19.6284 115.152 18.902V1.09797C115.152 0.523649 115.661 0 116.219 0H120.699C123.62 0 126 2.38176 126 5.38851C126.016 8.41216 123.653 10.8446 120.716 10.8446ZM120.716 2.19595H117.286V8.68243H120.716C122.472 8.68243 123.899 7.21284 123.899 5.40541C123.899 3.61487 122.472 2.19595 120.716 2.19595Z" fill="white"/>
<path d="M86.7813 5.61615V14.3672C86.7813 17.4686 84.3365 20 81.3413 20C78.346 20 75.9336 17.4686 75.9336 14.3672V9.48873C75.9336 8.90198 76.3869 8.43257 76.9536 8.43257C77.5203 8.43257 77.9736 8.90198 77.9736 9.48873V14.3672C77.9736 16.3118 79.4955 17.8709 81.3574 17.8709C83.2355 17.8709 84.7413 16.3118 84.7413 14.3672V5.63292C84.7413 3.68825 83.2355 2.12916 81.3574 2.12916C79.4955 2.12916 77.9736 3.68825 77.9736 5.63292C77.9736 6.21967 77.5203 6.68908 76.9536 6.68908C76.3869 6.68908 75.9336 6.21967 75.9336 5.63292C75.9336 2.53151 78.346 8.27896e-05 81.3413 8.27896e-05C84.3365 -0.0166816 86.7813 2.51474 86.7813 5.61615Z" fill="white"/>
<path d="M111.815 5.61615V14.3672C111.815 17.4686 109.182 20 105.956 20C102.731 20 100.133 17.4686 100.133 14.3672V9.48873C100.133 8.90198 100.621 8.43257 101.231 8.43257C101.842 8.43257 102.33 8.90198 102.33 9.48873V14.3672C102.33 16.3118 103.969 17.8709 105.974 17.8709C107.996 17.8709 109.618 16.3118 109.618 14.3672V5.63292C109.618 3.68825 107.996 2.12916 105.974 2.12916C103.969 2.12916 102.33 3.68825 102.33 5.63292C102.33 6.21967 101.842 6.68908 101.231 6.68908C100.621 6.68908 100.133 6.21967 100.133 5.63292C100.133 2.53151 102.731 8.27896e-05 105.956 8.27896e-05C109.182 -0.0166816 111.815 2.51474 111.815 5.61615Z" fill="white"/>
</svg>
