<svg width="12" height="12" viewBox="0 0 12 12" fill="none" xmlns="http://www.w3.org/2000/svg">
<path d="M2.91467 11.9999C2.70933 12.0034 2.50802 11.9426 2.33898 11.8259C1.96656 11.5623 1.82125 11.054 1.92924 10.3964L2.15317 9.03284C2.16602 8.9548 2.20933 8.88507 2.27359 8.83897C2.33785 8.79288 2.41778 8.7742 2.49581 8.78705C2.57383 8.7999 2.64356 8.84323 2.68965 8.90749C2.73574 8.97176 2.75442 9.05169 2.74157 9.12973L2.51764 10.4901C2.45015 10.9007 2.51288 11.2184 2.6836 11.3391C2.85433 11.4598 3.12907 11.4138 3.46258 11.2303L4.63461 10.5862C6.01735 9.82592 7.32105 10.563 8.53663 11.2303C8.87013 11.4138 9.15441 11.4535 9.3156 11.3391C9.4768 11.2247 9.54906 10.9007 9.48156 10.4901C9.11363 8.24964 9.51687 7.02831 11.0419 5.47499C11.3286 5.18274 11.4532 4.89524 11.3833 4.68558C11.3135 4.47592 11.061 4.33775 10.6822 4.28057C9.29662 4.06976 7.84832 3.84782 7.17085 2.41348L6.58483 1.17298C6.4141 0.812433 6.19574 0.597214 5.9996 0.597214C5.80347 0.597214 5.5851 0.812433 5.41517 1.17298L4.82916 2.41348C4.44801 3.21956 3.47925 3.95257 2.62722 4.08123L1.31702 4.28057C0.938256 4.33775 0.681773 4.48545 0.615865 4.68558C0.549958 4.88571 0.670657 5.18274 0.957313 5.47499L2.18811 6.72976C2.2435 6.78621 2.27419 6.86236 2.27345 6.94145C2.27271 7.02053 2.24058 7.09607 2.18414 7.15147C2.1277 7.20686 2.05157 7.23756 1.97249 7.23682C1.89342 7.23607 1.81788 7.20394 1.76249 7.14749L0.531695 5.89273C0.0759038 5.42893 -0.0948193 4.93257 0.050494 4.49658C0.195807 4.06058 0.606338 3.78182 1.22729 3.69049L2.53829 3.49115C3.19339 3.39188 3.99539 2.78118 4.28919 2.15776L4.87521 0.917265C5.25239 0.1231 5.74153 0 5.9996 0C6.25767 0 6.74682 0.119129 7.124 0.917265L7.71001 2.15776C8.00382 2.78118 8.80661 3.39188 9.46171 3.49115L10.7719 3.69049C11.3889 3.7842 11.8042 4.07011 11.9495 4.49658C12.0948 4.92304 11.9233 5.42893 11.4683 5.89273L10.5194 6.85842C10.043 7.34604 9.73328 8.34034 9.84604 9.02968L10.07 10.3933C10.1787 11.054 10.0326 11.5623 9.66023 11.8228C9.45139 11.9705 8.99083 12.1571 8.24997 11.7497L7.07794 11.1064C6.49351 10.7888 5.5057 10.7888 4.92206 11.1064L3.75003 11.7497C3.49731 11.9026 3.20984 11.9887 2.91467 11.9999Z" fill="#FEBB0B"/>
<path d="M9.08523 11.9999C9.29057 12.0034 9.49188 11.9426 9.66092 11.8259C10.0333 11.5623 10.1786 11.054 10.0707 10.3964L9.84673 9.03284C9.83388 8.9548 9.79057 8.88507 9.72631 8.83897C9.66206 8.79288 9.58212 8.7742 9.50409 8.78705C9.42607 8.7999 9.35634 8.84323 9.31025 8.90749C9.26416 8.97176 9.24548 9.05169 9.25833 9.12973L9.48226 10.4901C9.54975 10.9007 9.48702 11.2184 9.3163 11.3391C9.14558 11.4598 8.87083 11.4138 8.53732 11.2303C7.32397 10.5635 6.02104 9.82427 4.63531 10.5862L3.46327 11.2303C3.12977 11.4138 2.84549 11.4535 2.6843 11.3391C2.5231 11.2247 2.45084 10.9007 2.51834 10.4901L2.74226 9.12657C2.88678 8.24584 2.51913 7.06173 1.90612 6.44069L0.958007 5.47499C0.671351 5.18274 0.546684 4.89524 0.616562 4.68558C0.686439 4.47592 0.938949 4.33775 1.31772 4.28057L2.62792 4.08123C3.48153 3.95178 4.4488 3.21876 4.82916 2.41348L5.41517 1.17298C5.5859 0.812433 5.80416 0.597214 6.0003 0.597214C6.19643 0.597214 6.4149 0.812433 6.58483 1.17298L7.17085 2.41348C7.55199 3.21956 8.52065 3.95257 9.37268 4.08123L10.6829 4.28057C11.0616 4.33775 11.3181 4.48545 11.384 4.68558C11.4499 4.88571 11.3292 5.18274 11.0426 5.47499C10.9031 5.61723 9.06234 7.2459 10.0274 7.23682C10.1065 7.23607 10.182 7.20394 10.2374 7.14749L11.4683 5.89273C11.9241 5.42893 12.0948 4.93257 11.9495 4.49658C11.8042 4.06058 11.3936 3.78182 10.7726 3.69049L9.46171 3.49115C8.80661 3.39188 8.00451 2.78118 7.71071 2.15776L7.12469 0.917265C6.74751 0.1231 6.25837 0 6.0003 0C5.74223 0 5.25309 0.119129 4.87591 0.917265L4.28989 2.15776C3.99609 2.78118 3.19339 3.39188 2.53829 3.49115L1.22799 3.69049C0.611001 3.7842 0.195807 4.07011 0.050494 4.49658C-0.0948193 4.92304 0.0766979 5.42893 0.531695 5.89273L1.4805 6.85842C1.95694 7.34604 2.26662 8.34034 2.15386 9.02968L1.92994 10.3933C1.82115 11.054 1.96726 11.5623 2.33967 11.8228C2.54851 11.9705 3.00917 12.1571 3.75003 11.7497L4.92206 11.1064C5.50649 10.7888 6.4943 10.7888 7.07794 11.1064L8.24997 11.7497C8.50269 11.9026 8.79006 11.9887 9.08523 11.9999Z" fill="#FEBB0B"/>
<path d="M0.249998 5L1.99998 7L2.24998 7.5L2.49998 8.75L2.24998 9.25V11.5L2.99998 11.75L4.74996 10.75L6.49995 10.5L8.49993 11.5L9.49992 11.75L9.74992 11L9.49992 8.75L9.99992 7L11.7499 5L11.4999 4.25L8.99993 3.75L7.49994 2.5L6.74995 0.75L5.99995 0.25L4.99996 1L4.24997 2.75L2.49998 3.75L0.499996 4.25L0.249998 5Z" fill="#FEBB0B"/>
</svg>
