<svg width="12" height="12" viewBox="0 0 12 12" fill="none" xmlns="http://www.w3.org/2000/svg">
<path fill-rule="evenodd" clip-rule="evenodd" d="M2.91468 11.9999C2.70933 12.0034 2.50802 11.9426 2.33898 11.8259C1.96657 11.5623 1.82125 11.054 1.92924 10.3964L2.15317 9.03284L2.15487 9.02346C2.26182 8.35281 1.97176 7.39733 1.51827 6.89851L0.531696 5.89273C0.173482 5.52822 -0.00865504 5.14361 0.000317049 4.78398C0.00237071 4.68527 0.0189833 4.58906 0.0504949 4.49658C0.195808 4.06058 0.606339 3.78182 1.22729 3.69049L2.53829 3.49115C3.19339 3.39188 3.99539 2.78118 4.2892 2.15776L4.87521 0.917265C5.25239 0.119129 5.74154 0 5.99961 0L5.99995 0.25L5.99961 0.597214V10.2667L5.99995 10.5714V10.8682C5.60691 10.8681 5.21394 10.9475 4.92206 11.1064L3.75003 11.7497C3.49731 11.9026 3.20984 11.9887 2.91468 11.9999Z" fill="#FEBB0B"/>
<path fill-rule="evenodd" clip-rule="evenodd" d="M5.99965 10.2706L5.99995 10.8682C6.39295 10.8682 6.78576 10.9476 7.078 11.1064L8.25004 11.7497C8.99091 12.1571 9.45147 11.9705 9.66031 11.8228C10.0327 11.5623 10.1788 11.054 10.07 10.3933L9.84612 9.02968C9.73336 8.34034 10.043 7.34604 10.5195 6.85842L11.4684 5.89273C11.9234 5.42893 12.0949 4.92304 11.9496 4.49658C11.8043 4.07011 11.389 3.7842 10.772 3.69049L9.46179 3.49115C8.80668 3.39188 8.00388 2.78118 7.71008 2.15776L7.12405 0.917265C6.74687 0.119129 6.25768 0 5.99961 0V0.597214C6.19574 0.597214 6.41416 0.812433 6.58488 1.17298L7.1709 2.41348C7.55126 3.21876 8.51844 3.95178 9.37206 4.08123L10.6823 4.28057C11.061 4.33775 11.3136 4.47592 11.3834 4.68558C11.4533 4.89524 11.3286 5.18274 11.042 5.47499L10.0939 6.44069C9.48085 7.06173 9.11319 8.24584 9.25771 9.12657L9.48164 10.4901C9.54914 10.9007 9.47688 11.2247 9.31568 11.3391C9.15448 11.4535 8.87021 11.4138 8.5367 11.2303L7.36466 10.5862C6.98192 10.3758 6.49079 10.2706 5.99965 10.2706Z" fill="#FEBB0B"/>
</svg>
