<svg width="52" height="52" viewBox="0 0 52 52" fill="none" xmlns="http://www.w3.org/2000/svg">
<path d="M3.72473 50.968C2.68868 50.653 1.35446 49.4508 0.96158 48.4784C0.753031 47.9621 0.671537 47.2147 0.625117 45.392C0.552524 42.5419 0.648242 42.2129 1.57302 42.1343C2.33786 42.0694 2.7631 42.4401 2.7631 43.172V43.7083H26.0066H49.2501L49.2496 38.8579C49.2491 33.5867 49.1099 31.8481 48.5212 29.759C47.4514 25.9628 44.967 22.3312 41.9182 20.1069C40.763 19.2641 38.2585 17.9339 37.5545 17.7891L37.0823 17.6921V18.9776C37.0823 19.6855 37.2973 21.5438 37.5607 23.1134C37.8237 24.6811 37.9979 26.1318 37.9478 26.3372C37.8294 26.8222 34.9914 28.7961 34.4126 28.7961C34.0169 28.7961 31.9216 27.5143 31.1935 26.8267C30.7421 26.4005 30.7465 25.9717 31.2337 22.9434C31.4902 21.3494 31.621 19.9028 31.6216 18.6541L31.6224 16.7701H26.0065H20.3907V18.6597C20.3907 19.917 20.5212 21.3667 20.7807 22.992C21.2661 26.0324 21.2699 26.4017 20.8197 26.8267C20.0915 27.5143 17.9963 28.7961 17.6005 28.7961C17.0217 28.7961 14.1838 26.8222 14.0654 26.3372C14.0152 26.1318 14.1894 24.6811 14.4525 23.1134C14.7159 21.5438 14.9308 19.6855 14.9308 18.9776V17.6921L14.4674 17.7873C13.7615 17.9324 11.2387 19.2698 10.0974 20.1039C8.70697 21.12 6.90876 23.0124 5.91024 24.5104C3.75879 27.7381 2.76467 31.2751 2.76353 35.7062C2.76324 37.1481 2.71992 37.4453 2.47781 37.6705C2.06436 38.0551 1.40682 37.9995 0.962036 37.5423C0.612526 37.183 0.579592 37.0257 0.584387 35.7383C0.609032 29.1215 2.43281 24.3145 6.46308 20.2436C8.589 18.0962 10.8988 16.602 13.5842 15.6368L14.8528 15.1809L14.9414 12.4078C15.0153 10.0961 15.0888 9.46123 15.3837 8.59237C16.6398 4.89133 19.3091 2.25703 22.9646 1.11064C24.2862 0.696192 27.7269 0.696192 29.0485 1.11064C32.7041 2.25703 35.3733 4.89133 36.6294 8.59237C36.9243 9.46141 36.9979 10.096 37.0717 12.4097L37.1603 15.1848L38.3282 15.5886C43.4202 17.3492 47.8932 21.714 49.9316 26.9111C51.251 30.2753 51.4754 32.4943 51.4035 41.4635C51.3575 47.1996 51.3255 47.8615 51.0645 48.4784C50.7153 49.3039 49.2969 50.6759 48.5026 50.9566C48.0463 51.1178 43.3433 51.1673 26.2406 51.191C6.88796 51.2178 4.46757 51.1939 3.72471 50.968H3.72473ZM48.0021 48.5953C48.623 48.2264 49.2836 47.0504 49.216 46.4342L49.1721 46.0334H26.0066H2.8411L2.79715 46.4342C2.71802 47.1559 3.38969 48.2392 4.16552 48.6412L4.86595 49.0042L26.161 48.9619C47.2143 48.9201 47.4623 48.9159 48.0021 48.5953ZM18.2809 25.806L18.9337 25.3814L18.7319 24.1624C18.3097 21.6124 18.4423 21.8779 17.6175 21.9328L16.8896 21.9814L16.6181 23.6577C16.4688 24.5797 16.3758 25.364 16.4114 25.4007C16.5281 25.5206 17.5033 26.2146 17.5664 26.2226C17.6003 26.227 17.9218 26.0395 18.2809 25.806ZM35.0606 25.8065C35.6172 25.4279 35.6746 25.329 35.5962 24.8845C35.548 24.6106 35.4221 23.8454 35.3164 23.1839L35.1243 21.9814L34.3874 21.9325C33.9821 21.9056 33.6503 21.9056 33.6502 21.9325C33.6501 21.9593 33.5449 22.5947 33.4164 23.3443C33.085 25.2782 33.0961 25.3569 33.7646 25.8239C34.0848 26.0476 34.3672 26.2306 34.3919 26.2306C34.4168 26.2306 34.7177 26.0397 35.0606 25.8064V25.8065ZM18.2091 15.4472C18.2121 9.85741 18.4661 8.76805 20.2282 6.78619C21.8218 4.99393 23.549 4.22983 26.0066 4.22983C29.0023 4.22983 31.2361 5.52925 32.7737 8.16637C33.6631 9.69163 33.8064 10.7082 33.8064 15.4885V19.6757L34.3914 19.6259L34.9764 19.5761L34.9664 15.3269C34.9553 10.5336 34.8562 9.87649 33.8452 7.89079C32.3682 4.98961 29.1607 2.98027 26.0066 2.98027C22.8551 2.98027 19.6448 4.98991 18.1706 7.88563C17.1945 9.80281 17.0909 10.436 17.0004 15.0382C16.9558 17.3047 16.9611 19.2709 17.0122 19.4077C17.0718 19.5673 17.3021 19.6563 17.6559 19.6563H18.2068L18.2091 15.4472ZM31.5943 12.7153C31.5347 11.1149 31.472 10.7855 31.0529 9.86917C30.2315 8.07331 28.7412 6.89713 26.775 6.49321C26.0608 6.34651 25.7268 6.36157 24.9068 6.57751C23.0213 7.07401 21.7657 8.12191 20.9625 9.86917C20.5404 10.7877 20.4786 11.1111 20.4188 12.7153L20.3515 14.5252H26.0066H31.6617L31.5943 12.7153Z" fill="#CF38EF"/>
</svg>
