<svg width="54" height="51" viewBox="0 0 54 51" fill="none" xmlns="http://www.w3.org/2000/svg">
<path d="M27.065 50.1999C26.7222 50.1945 26.393 50.066 26.1383 49.8382C26.104 49.8041 23.2183 47.0337 19.4059 43.0497C19.292 42.9319 19.2031 42.7926 19.1446 42.6401C19.0861 42.4875 19.0591 42.3248 19.0653 42.1616C19.0714 41.9985 19.1106 41.8383 19.1805 41.6905C19.2503 41.5427 19.3495 41.4104 19.4719 41.3014C19.7267 41.0795 20.0572 40.9627 20.3959 40.9749C20.7346 40.9871 21.0557 41.1273 21.2936 41.367C23.8018 43.9697 25.8981 46.0796 27.0307 47.2014C30.2596 44.0037 41.3905 32.8957 48.0199 23.57C51.2488 19.0225 51.7293 13.9141 49.2925 9.49496C47.1275 5.54241 42.9693 2.87155 38.9853 2.87155C34.1749 2.87155 31.2549 5.77306 29.6392 8.21064C29.3519 8.63609 28.9636 8.98477 28.5084 9.22588C28.0532 9.467 27.5453 9.59312 27.0294 9.59312C26.5135 9.59312 26.0055 9.467 25.5503 9.22588C25.0952 8.98477 24.7068 8.63609 24.4196 8.21064C22.8064 5.77306 19.8864 2.87155 15.0734 2.87155C11.0921 2.87155 6.93385 5.54241 4.76893 9.49496C2.32943 13.9114 2.81257 19.0225 6.04148 23.57C7.92919 26.2382 10.3713 29.2708 13.2227 32.5681C13.3295 32.6928 13.4099 32.8377 13.4591 32.9939C13.5083 33.1502 13.5252 33.3147 13.509 33.4776C13.4927 33.6406 13.4436 33.7986 13.3644 33.9422C13.2853 34.0858 13.1778 34.2122 13.0484 34.3137C12.7808 34.522 12.4432 34.6209 12.1046 34.5902C11.7659 34.5595 11.4519 34.4015 11.2267 34.1486C8.30673 30.7884 5.83555 27.6903 3.87655 24.9539C0.0984961 19.6489 -0.453296 13.5838 2.43239 8.34169C5.04614 3.59759 10.0941 0.399902 15.0418 0.399902C19.7148 0.399902 23.8018 2.70643 26.5502 6.89225C26.5975 6.96629 26.6637 7.02661 26.7421 7.06711C26.8204 7.10762 26.9081 7.12686 26.9964 7.1229C27.0845 7.12384 27.1715 7.1033 27.2497 7.06308C27.328 7.02287 27.3951 6.96421 27.4452 6.89225C29.3963 3.92522 32.971 0.399902 38.9483 0.399902C43.859 0.399902 48.9466 3.59759 51.5551 8.34169C54.4408 13.5838 53.9259 19.6489 50.1135 24.9539C42.1772 36.0934 28.0577 49.6704 27.8861 49.8041C27.7145 50.0662 27.4056 50.1999 27.0624 50.1999H27.065Z" fill="#CF38EF"/>
</svg>
