<svg width="25" height="24" viewBox="0 0 25 24" fill="none" xmlns="http://www.w3.org/2000/svg">
<path d="M23.7488 10.0454C23.4959 10.0454 23.291 10.2423 23.291 10.4848V12.051C23.291 12.9496 22.5293 13.6809 21.5931 13.6809H18.9839C18.8624 13.6809 18.7461 13.7271 18.6602 13.8094L15.4969 16.8463V14.1204C15.4969 13.8776 15.2919 13.6809 15.0391 13.6809H8.48508C7.54895 13.6809 6.7872 12.9498 6.7872 12.051V5.40326C6.7872 4.50458 7.54895 3.77344 8.48508 3.77344H21.5931C22.5293 3.77344 23.291 4.50458 23.291 5.40326V6.96922C23.291 7.21202 23.4959 7.40868 23.7488 7.40868C24.0014 7.40868 24.2065 7.21202 24.2065 6.96922V5.40326C24.2065 4.01994 23.0342 2.89453 21.5931 2.89453H8.48508C7.04398 2.89453 5.87168 4.01994 5.87168 5.40326V11.049H2.53987C1.56355 11.049 0.769043 11.8114 0.769043 12.749V16.7986C0.769043 17.7361 1.56355 18.4986 2.53987 18.4986H3.93991L6.20871 20.6767C6.2964 20.7609 6.41355 20.8055 6.53257 20.8055C6.59151 20.8055 6.65116 20.7946 6.70767 20.772C6.87876 20.7041 6.99034 20.5439 6.99034 20.3661V18.4986H10.5251C11.5016 18.4986 12.296 17.7361 12.296 16.7986V14.5598H14.5813V17.9072C14.5813 18.0851 14.6929 18.2452 14.864 18.3132C14.9205 18.3357 14.98 18.3467 15.0391 18.3467C15.1583 18.3467 15.2753 18.302 15.3628 18.2179L19.1734 14.5598H21.5931C23.0342 14.5598 24.2065 13.4344 24.2065 12.051V10.4848C24.2065 10.2423 24.0014 10.0454 23.7488 10.0454ZM11.3806 16.7986C11.3806 17.2515 10.9969 17.6196 10.5251 17.6196H6.53257C6.27966 17.6196 6.07481 17.8166 6.07481 18.0591V19.3052L4.45318 17.7485C4.36735 17.6661 4.25091 17.6196 4.12946 17.6196H2.53987C2.06823 17.6196 1.68457 17.2515 1.68457 16.7986V12.749C1.68457 12.2962 2.06823 11.9279 2.53987 11.9279H5.87168V12.051C5.87168 13.4344 7.04398 14.5598 8.48508 14.5598H11.3806V16.7986Z" fill="#CF38EF" stroke="#CF38EF" stroke-width="0.5"/>
<path d="M19.5023 5.77441H10.5759C10.3232 5.77441 10.1182 5.97121 10.1182 6.21387C10.1182 6.45666 10.3232 6.65332 10.5759 6.65332H19.5023C19.7551 6.65332 19.9601 6.45666 19.9601 6.21387C19.9601 5.97121 19.7551 5.77441 19.5023 5.77441Z" fill="#CF38EF"/>
<path d="M19.9601 8.58691C19.9601 8.34425 19.7551 8.14746 19.5023 8.14746H10.5759C10.3232 8.14746 10.1182 8.34425 10.1182 8.58691C10.1182 8.82971 10.3232 9.02637 10.5759 9.02637H19.5023C19.7551 9.02637 19.9601 8.82971 19.9601 8.58691Z" fill="#CF38EF"/>
<path d="M10.5759 10.5205C10.3232 10.5205 10.1182 10.7173 10.1182 10.96C10.1182 11.2028 10.3232 11.3994 10.5759 11.3994H15.7258C15.9785 11.3994 16.1835 11.2028 16.1835 10.96C16.1835 10.7173 15.9785 10.5205 15.7258 10.5205H10.5759Z" fill="#CF38EF"/>
<path d="M23.7488 8.2876C23.4967 8.2876 23.291 8.48508 23.291 8.72705C23.291 8.96916 23.4967 9.1665 23.7488 9.1665C24.0008 9.1665 24.2065 8.96916 24.2065 8.72705C24.2065 8.48508 24.0008 8.2876 23.7488 8.2876Z" fill="#CF38EF"/>
</svg>
