<svg width="20" height="20" viewBox="0 0 20 20" fill="none" xmlns="http://www.w3.org/2000/svg">
<path d="M4.64762 12.9652C6.42973 15.0874 8.57501 16.7584 11.0235 17.9407C11.9558 18.3809 13.2025 18.903 14.5915 18.9925C14.6776 18.9963 14.76 19 14.8461 19C15.7783 19 16.5271 18.6792 17.1374 18.0191C17.1411 18.0153 17.1486 18.0079 17.1524 18.0004C17.3695 17.7393 17.6166 17.5044 17.8749 17.2545C18.0509 17.0866 18.2306 16.9113 18.4028 16.7323C19.2003 15.9043 19.2003 14.8525 18.3954 14.0506L16.1452 11.809C15.7634 11.4136 15.3066 11.2047 14.8274 11.2047C14.3482 11.2047 13.8877 11.4136 13.4945 11.8052L12.1542 13.1405C12.0307 13.0696 11.9034 13.0062 11.7836 12.9465C11.6338 12.8719 11.4953 12.8011 11.3717 12.7228C10.1512 11.9507 9.043 10.9436 7.98347 9.6494C7.44808 8.97431 7.08867 8.40738 6.83782 7.82926C7.18975 7.51223 7.51922 7.18027 7.83745 6.85578C7.94977 6.74016 8.06583 6.62453 8.18189 6.50891C8.58624 6.10609 8.80339 5.63987 8.80339 5.16618C8.80339 4.6925 8.58998 4.22627 8.18189 3.82346L7.0662 2.71198C6.93516 2.58143 6.81161 2.45462 6.68432 2.32408C6.43722 2.07045 6.17889 1.80937 5.9243 1.57439C5.53868 1.19768 5.08566 1 4.60644 1C4.13096 1 3.6742 1.19768 3.27359 1.57812L1.87336 2.97306C1.36419 3.48031 1.0759 4.09573 1.016 4.80812C0.944866 5.69954 1.1096 6.64691 1.53641 7.79196C2.1916 9.56361 3.18 11.2085 4.64762 12.9652ZM1.92952 4.88645C1.97445 4.39039 2.16539 3.97638 2.52481 3.61832L3.91755 2.23083C4.1347 2.02196 4.37431 1.9138 4.60644 1.9138C4.83482 1.9138 5.06694 2.02196 5.28034 2.23829C5.53119 2.46954 5.76706 2.71198 6.02164 2.96933C6.14894 3.09988 6.27997 3.23042 6.41101 3.36469L7.52671 4.47617C7.75883 4.70742 7.87864 4.9424 7.87864 5.17364C7.87864 5.40489 7.75883 5.63987 7.52671 5.87111C7.41064 5.98674 7.29458 6.10609 7.17852 6.22172C6.83033 6.57232 6.50461 6.90427 6.14519 7.2213C6.13771 7.22876 6.13396 7.23249 6.12647 7.23995C5.81573 7.54952 5.8644 7.84418 5.93928 8.06797C5.94302 8.07915 5.94676 8.08661 5.95051 8.0978C6.23879 8.78782 6.63939 9.44426 7.26463 10.2275C8.38781 11.6075 9.57089 12.678 10.8738 13.5023C11.0348 13.6067 11.207 13.6888 11.368 13.7708C11.5177 13.8454 11.6563 13.9163 11.7798 13.9946C11.7948 14.0021 11.806 14.0095 11.821 14.017C11.9445 14.0804 12.0644 14.1102 12.1842 14.1102C12.4837 14.1102 12.6784 13.92 12.742 13.8566L14.1422 12.4617C14.3594 12.2453 14.5953 12.1297 14.8274 12.1297C15.1119 12.1297 15.344 12.305 15.4901 12.4617L17.7477 14.707C18.1969 15.1546 18.1932 15.6395 17.7364 16.1131C17.5792 16.281 17.4144 16.4414 17.2385 16.6092C16.9764 16.8628 16.7031 17.1239 16.456 17.4186C16.0254 17.8811 15.5125 18.0974 14.8498 18.0974C14.7862 18.0974 14.7188 18.0937 14.6552 18.0899C13.4271 18.0116 12.2852 17.5342 11.4279 17.1276C9.09916 16.005 7.05497 14.4123 5.35897 12.3908C3.96248 10.7161 3.02275 9.15707 2.40126 7.48612C2.01563 6.46042 1.86962 5.63614 1.92952 4.88645Z" fill="white" stroke="white" stroke-width="0.5"/>
</svg>
