<svg width="24" height="24" viewBox="0 0 24 24" fill="none" xmlns="http://www.w3.org/2000/svg">
<path d="M21.4748 23.9983H2.51732C2.13592 23.9981 1.75958 23.9116 1.41663 23.7454C1.07368 23.5792 0.773096 23.3377 0.53758 23.0389C0.302064 22.7402 0.137782 22.3921 0.0570656 22.0209C-0.0236507 21.6497 -0.0186901 21.2651 0.0716279 20.8961C0.0882508 20.8139 0.121389 20.736 0.169021 20.6669C0.216653 20.5978 0.277821 20.539 0.348838 20.494C0.419856 20.449 0.499245 20.4188 0.582281 20.4051C0.665317 20.3915 0.750266 20.3947 0.83203 20.4146C0.913795 20.4344 0.990684 20.4705 1.05809 20.5207C1.1255 20.5709 1.18202 20.6341 1.22428 20.7066C1.26654 20.7791 1.29368 20.8593 1.30403 20.9425C1.31437 21.0256 1.30773 21.1101 1.28452 21.1906C1.23868 21.3767 1.23594 21.5707 1.27648 21.7581C1.31703 21.9454 1.39981 22.1211 1.51857 22.2719C1.63732 22.4226 1.78893 22.5445 1.96197 22.6284C2.135 22.7122 2.32489 22.7558 2.51732 22.7558H21.4748C21.6672 22.7558 21.8572 22.7122 22.0302 22.6284C22.2032 22.5445 22.3548 22.4226 22.4736 22.2719C22.5923 22.1211 22.6751 21.9454 22.7156 21.7581C22.7562 21.5707 22.7534 21.3767 22.7076 21.1906L19.5226 9.22236C19.4596 8.96232 19.3107 8.73091 19.0998 8.56528C18.8889 8.39964 18.6281 8.3094 18.3595 8.30906H16.1996C16.0339 8.30906 15.875 8.24351 15.7579 8.12684C15.6407 8.01017 15.5749 7.85194 15.5749 7.68695V4.40273C15.5749 4.08175 15.447 1.24256 12.0011 1.24256C8.55515 1.24256 8.4322 4.08175 8.42887 4.40604V7.68695C8.42887 7.85194 8.36309 8.01017 8.24593 8.12684C8.12877 8.24351 7.96988 8.30906 7.8042 8.30906H5.64427C5.37581 8.30998 5.11537 8.40042 4.90456 8.56596C4.69375 8.7315 4.54473 8.9626 4.48124 9.22236L2.3678 17.7531C2.3233 17.9076 2.22053 18.0388 2.08102 18.1195C1.94151 18.2002 1.77606 18.224 1.61933 18.1859C1.4626 18.1479 1.32674 18.0509 1.24018 17.9153C1.15361 17.7798 1.12305 17.6161 1.15492 17.4586L3.25006 8.92951C3.37917 8.39783 3.68426 7.92494 4.11617 7.58698C4.54808 7.24902 5.08168 7.06567 5.63097 7.0665H7.18609V4.40438C7.18609 4.35971 7.24092 0 12.0044 0C16.7678 0 16.8227 4.35971 16.8227 4.40438V7.0665H18.3629C18.9122 7.06567 19.4457 7.24902 19.8777 7.58698C20.3096 7.92494 20.6147 8.39783 20.7438 8.92951L23.9288 20.8978C24.0188 21.2667 24.0235 21.6512 23.9427 22.0223C23.8618 22.3933 23.6975 22.7413 23.462 23.04C23.2266 23.3386 22.9262 23.5802 22.5834 23.7465C22.2406 23.9128 21.8644 23.9995 21.4831 24L21.4748 23.9983Z" fill="#CF38EF"/>
</svg>
