<svg width="37" height="37" viewBox="0 0 37 37" fill="none" xmlns="http://www.w3.org/2000/svg">
<path fill-rule="evenodd" clip-rule="evenodd" d="M8.7782 2.76216C17.4534 -2.60503 28.8743 0.0889328 34.2391 8.76733C39.6038 17.4456 36.9113 28.8709 28.2364 34.238C19.5613 39.6051 8.14034 36.9113 2.77547 28.2328C-0.87374 22.3296 -0.927934 14.956 2.63355 8.99386C2.64264 8.97863 2.65264 8.96168 2.66349 8.94328C2.75451 8.78899 2.90535 8.53327 3.08387 8.34301C3.18655 8.23359 3.34518 8.09274 3.56224 8.01938C3.81117 7.93525 4.08222 7.9591 4.32479 8.10414C4.54882 8.23809 4.73521 8.46913 4.75063 8.78649C4.76296 9.03998 4.65651 9.24629 4.59389 9.35393C4.52735 9.4683 4.44303 9.5799 4.38343 9.65879L4.37581 9.66887C4.30525 9.76232 4.2605 9.82259 4.22938 9.87468C1.17858 14.982 1.10994 22.0791 4.22453 27.1175C8.82389 34.5576 18.797 37.9058 27.5875 32.4673C34.9933 27.8855 37.3646 17.3064 32.7754 9.88266C27.7152 1.69702 17.2996 -0.364165 9.88277 4.2245C9.82798 4.25839 9.76682 4.3048 9.67245 4.37652L9.66866 4.3794C9.58826 4.44051 9.47376 4.52753 9.35475 4.59609C9.24475 4.65946 9.03909 4.76316 8.78691 4.75004C8.47546 4.73383 8.24539 4.55364 8.10879 4.33267C8.00509 4.16493 7.93009 3.95337 7.95647 3.71368C7.98252 3.47692 8.09794 3.3009 8.20398 3.18409C8.306 3.0717 8.42405 2.98675 8.51404 2.92693C8.57842 2.88413 8.6539 2.83811 8.71671 2.79982C8.73919 2.78611 8.76006 2.77339 8.7782 2.76216ZM4.00809 9.16323C4.00809 9.16325 4.00762 9.16364 4.00667 9.16431C4.00762 9.16354 4.00809 9.16321 4.00809 9.16323Z" fill="#27AE60"/>
<g clip-path="url(#clip0)">
<path d="M9.25 19.7637L15.7964 26.5166L28.3666 13.5874L26.562 11.755L15.7964 22.8261L11.0297 17.9185L9.25 19.7637Z" fill="#27AE60"/>
</g>
<defs>
<clipPath id="clip0">
<path d="M9.25 11.7167H28.3666V26.5167H9.25V11.7167Z" fill="white"/>
</clipPath>
</defs>
</svg>
