<svg width="25" height="24" viewBox="0 0 25 24" fill="none" xmlns="http://www.w3.org/2000/svg">
<path d="M4.62717 10.8305C4.72476 10.8686 4.83794 10.8686 4.93552 10.8229L7.98381 9.47046C8.17895 9.37904 8.26091 9.15046 8.16724 8.96C8.07748 8.77714 7.85501 8.69332 7.66375 8.77714L5.52877 9.72571C6.54747 6.75046 9.38498 4.76189 12.6518 4.76189C16.0748 4.76189 19.0684 6.99429 19.931 10.1905C19.9856 10.3924 20.2003 10.5143 20.4071 10.4609C20.614 10.4076 20.7389 10.1981 20.6842 9.99618C19.7319 6.46857 16.4299 4 12.6518 4C9.0493 4 5.91514 6.19429 4.78327 9.47811L3.88558 7.28764C3.81925 7.08954 3.59677 6.97907 3.3938 7.04382C3.19083 7.10857 3.07766 7.32571 3.144 7.52382C3.14791 7.53907 3.15571 7.55429 3.1635 7.56954L4.40858 10.6171C4.44762 10.7124 4.52567 10.7924 4.62717 10.8305Z" fill="#CF38EF" stroke="#CF38EF"/>
<path d="M21.8514 16.4534C21.8475 16.4458 21.8436 16.4382 21.8436 16.4306L20.5985 13.383C20.5595 13.2877 20.4814 13.2077 20.38 13.1697C20.2824 13.1316 20.1692 13.1354 20.0716 13.1773L17.0233 14.5297C16.8243 14.6097 16.7306 14.8344 16.8126 15.0287C16.8945 15.223 17.1248 15.3144 17.3239 15.2344C17.3317 15.2306 17.3395 15.2268 17.3473 15.223L19.4822 14.2744C18.4558 17.2497 15.6143 19.2382 12.3514 19.2382C8.92843 19.2382 5.93482 17.0058 5.07226 13.8097C5.01763 13.6078 4.80295 13.4858 4.5961 13.5392C4.38926 13.5925 4.26433 13.8021 4.319 14.0039C5.26744 17.5354 8.57332 20.0001 12.3514 20.0001C15.9539 20.0001 19.0842 17.8058 20.22 14.522L21.1176 16.7125C21.1918 16.9106 21.4143 17.0134 21.6172 16.9411C21.8202 16.8687 21.9255 16.6516 21.8514 16.4534Z" fill="#CF38EF" stroke="#CF38EF"/>
</svg>
