<svg width="24" height="24" viewBox="0 0 24 24" fill="none" xmlns="http://www.w3.org/2000/svg">
<path d="M12.01 24C9.79909 23.9952 7.5954 23.746 5.4385 23.2568C4.98018 23.153 4.551 22.9463 4.18292 22.6523C3.81483 22.3582 3.51733 21.9843 3.31253 21.5583C3.10772 21.1324 3.00089 20.6654 3.00001 20.1922C2.99912 19.7189 3.10418 19.2516 3.30739 18.8249C3.33819 18.75 3.38379 18.6824 3.44139 18.6259C3.49899 18.5694 3.56741 18.5252 3.64246 18.4962C3.71752 18.4672 3.79764 18.4539 3.87798 18.457C3.95831 18.4602 4.03716 18.4798 4.10974 18.5146C4.18232 18.5495 4.2471 18.5988 4.30016 18.6597C4.35321 18.7205 4.39342 18.7916 4.41834 18.8686C4.44325 18.9456 4.45234 19.0269 4.44508 19.1076C4.43782 19.1882 4.41436 19.2665 4.3761 19.3378C4.24779 19.6043 4.18113 19.8967 4.18113 20.1929C4.18113 20.4891 4.24779 20.7815 4.3761 21.048C4.5024 21.3108 4.68616 21.5413 4.91357 21.7222C5.14099 21.9032 5.40613 22.0299 5.68912 22.0929C9.84515 23.0456 14.1606 23.0456 18.3166 22.0929C18.5997 22.0302 18.8649 21.9035 19.0924 21.7225C19.3198 21.5415 19.5035 21.3109 19.6296 21.048C19.7579 20.7815 19.8246 20.4891 19.8246 20.1929C19.8246 19.8967 19.7579 19.6043 19.6296 19.3378C16.2611 12.2079 15.2019 7.65047 16.4771 5.79257C18.0108 3.56944 17.0666 1.78138 16.6694 1.20019H16.6316C13.4979 1.20019 12.4418 2.29111 12.4308 2.30222C12.3757 2.36582 12.3076 2.41667 12.2311 2.45121C12.1547 2.48575 12.0717 2.50316 11.9879 2.50231C11.9038 2.50164 11.8208 2.48273 11.7447 2.44683C11.6685 2.41093 11.6009 2.35892 11.5465 2.29431C11.5465 2.29431 10.4857 1.20019 7.35367 1.20019H7.31426C6.91862 1.77821 5.97286 3.56785 7.50656 5.79257C8.22692 6.83744 8.21115 8.66676 7.46242 11.3885C7.11265 12.6266 6.69965 13.8456 6.22506 15.0408C6.16737 15.1882 6.05391 15.3065 5.90965 15.3696C5.76539 15.4327 5.60216 15.4355 5.45584 15.3774C5.30952 15.3193 5.19211 15.205 5.12945 15.0597C5.06678 14.9143 5.06398 14.7499 5.12167 14.6025C5.58112 13.4473 5.98149 12.2691 6.32121 11.0725C7.15978 8.02205 6.81302 6.88349 6.53244 6.46745C4.62674 3.70283 5.72853 1.16049 6.57656 0.202956C6.63085 0.142205 6.69689 0.0932575 6.77061 0.0591254C6.84434 0.0249933 6.92421 0.00639575 7.00532 0.00446209C8.65567 -0.0352367 10.0507 0.19028 11.1525 0.668253C11.4463 0.792971 11.7272 0.946676 11.991 1.12715C12.2541 0.946299 12.5345 0.79257 12.828 0.668253C13.9314 0.191868 15.3249 -0.0336487 16.9752 0.00446209C17.0563 0.00620885 17.1363 0.0247486 17.21 0.0588928C17.2838 0.093037 17.3498 0.142058 17.4039 0.202956C18.252 1.15573 19.3538 3.69648 17.4481 6.46745C16.485 7.86485 17.6987 12.481 20.6936 18.8185C20.8974 19.2474 21.0022 19.7172 21 20.1928C20.9978 20.6683 20.8887 21.1371 20.681 21.5641C20.4774 21.9885 20.1807 22.3608 19.8135 22.653C19.4462 22.9451 19.018 23.1494 18.5609 23.2505C16.411 23.7404 14.2142 23.9917 12.01 24Z" fill="#CF38EF"/>
</svg>
