<svg width="19" height="20" viewBox="0 0 19 20" fill="none" xmlns="http://www.w3.org/2000/svg">
<path d="M5.06885 4.10354C5.06885 3.7417 5.36218 3.44836 5.72402 3.44836H18.1723C18.5341 3.44836 18.8275 3.7417 18.8275 4.10354C18.8275 4.46538 18.5341 4.75871 18.1723 4.75871H5.72402C5.36218 4.75871 5.06885 4.46538 5.06885 4.10354Z" fill="#C8C8C8"/>
<path d="M5.06885 1.48281C5.06885 1.12097 5.36218 0.827637 5.72402 0.827637H12.2757C12.6376 0.827637 12.9309 1.12097 12.9309 1.48281C12.9309 1.84465 12.6376 2.13798 12.2757 2.13798H5.72402C5.36218 2.13798 5.06885 1.84465 5.06885 1.48281Z" fill="#C8C8C8"/>
<path d="M0.482666 2.79315C0.482666 1.70763 1.36266 0.827637 2.44818 0.827637C3.53371 0.827637 4.4137 1.70763 4.4137 2.79315C4.4137 3.87868 3.53371 4.75867 2.44818 4.75867C1.36266 4.75867 0.482666 3.87868 0.482666 2.79315Z" fill="#C8C8C8"/>
<path d="M5.06885 11.3104C5.06885 10.9486 5.36218 10.6553 5.72402 10.6553H18.1723C18.5341 10.6553 18.8275 10.9486 18.8275 11.3104C18.8275 11.6723 18.5341 11.9656 18.1723 11.9656H5.72402C5.36218 11.9656 5.06885 11.6723 5.06885 11.3104Z" fill="#C8C8C8"/>
<path d="M5.06885 8.68972C5.06885 8.32788 5.36218 8.03455 5.72402 8.03455H12.2757C12.6376 8.03455 12.9309 8.32788 12.9309 8.68972C12.9309 9.05156 12.6376 9.34489 12.2757 9.34489H5.72402C5.36218 9.34489 5.06885 9.05156 5.06885 8.68972Z" fill="#C8C8C8"/>
<path d="M0.482666 10.0001C0.482666 8.91454 1.36266 8.03455 2.44818 8.03455C3.53371 8.03455 4.4137 8.91454 4.4137 10.0001C4.4137 11.0856 3.53371 11.9656 2.44818 11.9656C1.36266 11.9656 0.482666 11.0856 0.482666 10.0001Z" fill="#C8C8C8"/>
<path d="M5.06885 18.5172C5.06885 18.1554 5.36218 17.8621 5.72402 17.8621H18.1723C18.5341 17.8621 18.8275 18.1554 18.8275 18.5172C18.8275 18.8791 18.5341 19.1724 18.1723 19.1724H5.72402C5.36218 19.1724 5.06885 18.8791 5.06885 18.5172Z" fill="#C8C8C8"/>
<path d="M5.06885 15.8965C5.06885 15.5347 5.36218 15.2413 5.72402 15.2413H12.2757C12.6376 15.2413 12.9309 15.5347 12.9309 15.8965C12.9309 16.2583 12.6376 16.5517 12.2757 16.5517H5.72402C5.36218 16.5517 5.06885 16.2583 5.06885 15.8965Z" fill="#C8C8C8"/>
<path d="M0.482666 17.2069C0.482666 16.1213 1.36266 15.2413 2.44818 15.2413C3.53371 15.2413 4.4137 16.1213 4.4137 17.2069C4.4137 18.2924 3.53371 19.1724 2.44818 19.1724C1.36266 19.1724 0.482666 18.2924 0.482666 17.2069Z" fill="#C8C8C8"/>
</svg>
