<svg width="20" height="24" viewBox="0 0 20 24" fill="none" xmlns="http://www.w3.org/2000/svg">
<path fill-rule="evenodd" clip-rule="evenodd" d="M17.8554 5.70474L19.1678 20.8036C19.1725 20.8217 19.1725 20.8397 19.1725 20.8577C19.1725 22.4765 17.6304 23.7931 15.7322 23.7931H4.26788C2.36965 23.7931 0.827637 22.4765 0.827637 20.8577C0.827637 20.8487 0.828808 20.8397 0.82998 20.8307C0.831152 20.8217 0.832324 20.8126 0.832324 20.8036C0.832324 20.8036 0.856863 20.4363 1.44926 20.4363C1.94656 20.4363 2.09312 20.8848 2.09312 20.8848C2.11187 21.8181 3.07738 22.5757 4.26788 22.5757H15.7322C16.918 22.5757 17.8882 21.8181 17.907 20.8848L16.6462 6.37207H14.5277V8.22077C14.5277 8.55895 14.2464 8.82949 13.8949 8.82949C13.5434 8.82949 13.2622 8.55895 13.2622 8.22077V6.37207H6.73323V8.22077C6.73323 8.55895 6.45201 8.82949 6.10048 8.82949C5.74896 8.82949 5.46774 8.55895 5.46774 8.22077V6.37207H3.34923L2.50975 16.0711C2.50975 16.0711 2.55229 16.7479 1.82224 16.6928C1.0901 16.6375 1.25687 15.9192 1.25687 15.9192L2.14468 5.70474C2.1728 5.38911 2.44464 5.15013 2.77273 5.15013H5.47243C5.50993 2.77839 7.52533 0.862061 10 0.862061C12.4748 0.862061 14.4902 2.77839 14.5277 5.15013H17.2274C17.5508 5.15013 17.8273 5.38911 17.8554 5.70474ZM13.2622 5.15013C13.2247 3.45023 11.7764 2.07949 10 2.07949C8.22368 2.07949 6.77541 3.45023 6.73791 5.15013H13.2622Z" fill="white"/>
</svg>
