<svg width="16" height="16" viewBox="0 0 16 16" fill="none" xmlns="http://www.w3.org/2000/svg">
<path fill-rule="evenodd" clip-rule="evenodd" d="M0 8C0 3.56372 3.5636 0 8 0C12.4364 0 16 3.56372 16 8C16 12.4363 12.4364 16 8 16C3.5636 16 0 12.4363 0 8ZM11.8904 5.13232L9.15063 7.87207C9.07764 7.94531 9.07764 8.05469 9.15063 8.12793L11.8904 10.8677C11.9635 10.9407 12 11.0503 12 11.1233C12 11.1963 11.9635 11.3059 11.8904 11.3789L11.379 11.8904C11.3059 11.9634 11.1963 12 11.1233 12C11.0502 12 10.9407 11.9634 10.8676 11.8904L8.12781 9.15063C8.05481 9.07764 7.94519 9.07764 7.87219 9.15063L5.13245 11.8904C5.05933 11.9634 4.94983 12 4.87671 12C4.80371 12 4.69409 11.9634 4.62097 11.8904L4.10962 11.3789C4.0365 11.3059 4 11.1963 4 11.1233C4 11.0503 4.0365 10.9407 4.10962 10.8677L6.84937 8.12793C6.92236 8.05469 6.92236 7.94531 6.84937 7.87207L4.10962 5.13232C4.0365 5.05933 4 4.94971 4 4.87671C4 4.80371 4.0365 4.69409 4.10962 4.62109L4.62097 4.10962C4.69409 4.03662 4.80371 4 4.87671 4C4.94983 4 5.05933 4.03662 5.13245 4.10962L7.87219 6.84937C7.94519 6.92236 8.05481 6.92236 8.12781 6.84937L10.8676 4.10962C10.9407 4.03662 11.0137 4 11.1233 4C11.1963 4 11.3059 4.03662 11.379 4.10962L11.8904 4.62109C11.9635 4.69409 12 4.80371 12 4.87671C12 4.94971 11.9635 5.05933 11.8904 5.13232Z" fill="#E0E0E0"/>
</svg>
