<svg width="20" height="22" viewBox="0 0 20 22" fill="none" xmlns="http://www.w3.org/2000/svg">
<path d="M18.7428 13.4978C19.0352 13.1715 19.2133 12.7407 19.2133 12.2694C19.2133 11.2535 18.3866 10.4267 17.3707 10.4267H13.7943C14.1485 9.35183 14.2996 7.9256 14.2996 7.31424V6.70043C14.2996 5.34586 13.1972 4.24353 11.8427 4.24353H11.2284C10.9467 4.24353 10.701 4.43517 10.6326 4.7087L10.2981 6.0473C9.82923 7.92191 8.34076 9.99021 6.80028 10.3661C6.53044 9.6831 5.86421 9.19827 5.08619 9.19827H1.40085C1.06179 9.19827 0.786621 9.47344 0.786621 9.8125V20.8685C0.786621 21.2076 1.06179 21.4828 1.40085 21.4828H5.08619C5.81875 21.4828 6.45263 21.0532 6.74951 20.4324L8.85998 21.1359C9.54996 21.3661 10.269 21.4828 10.9967 21.4828H16.1422C17.1582 21.4828 17.9849 20.656 17.9849 19.6401C17.9849 19.4005 17.939 19.1712 17.8555 18.9612C18.6368 18.7478 19.2133 18.0316 19.2133 17.1832C19.2133 16.7119 19.0352 16.2811 18.7428 15.9547C19.0352 15.6284 19.2133 15.1976 19.2133 14.7263C19.2133 14.255 19.0352 13.8242 18.7428 13.4978ZM5.70041 19.6401C5.70041 19.9787 5.42483 20.2543 5.08619 20.2543H2.01507V10.4267H5.08619C5.42483 10.4267 5.70041 10.7023 5.70041 11.0409V19.6401ZM16.1422 14.1121H17.3707C17.7093 14.1121 17.9849 14.3876 17.9849 14.7263C17.9849 15.0649 17.7093 15.3405 17.3707 15.3405H16.1422C15.8032 15.3405 15.528 15.6157 15.528 15.9547C15.528 16.2938 15.8032 16.569 16.1422 16.569H17.3707C17.7093 16.569 17.9849 16.8445 17.9849 17.1832C17.9849 17.5218 17.7093 17.7974 17.3707 17.7974H16.1422C15.8032 17.7974 15.528 18.0726 15.528 18.4116C15.528 18.7507 15.8032 19.0259 16.1422 19.0259C16.4809 19.0259 16.7564 19.3014 16.7564 19.6401C16.7564 19.9787 16.4809 20.2543 16.1422 20.2543H10.9967C10.4013 20.2543 9.81285 20.1589 9.24817 19.9705L6.92886 19.1974V11.597C7.89238 11.414 8.83541 10.8039 9.68673 9.80513C10.518 8.82974 11.192 7.53659 11.4897 6.34541L11.7079 5.47198H11.8427C12.5199 5.47198 13.0711 6.02314 13.0711 6.70043V7.31424C13.0711 8.13894 12.8131 9.72077 12.4831 10.4267H11.2284C10.8894 10.4267 10.6142 10.7019 10.6142 11.0409C10.6142 11.38 10.8894 11.6552 11.2284 11.6552H17.3707C17.7093 11.6552 17.9849 11.9307 17.9849 12.2694C17.9849 12.608 17.7093 12.8836 17.3707 12.8836H16.1422C15.8032 12.8836 15.528 13.1588 15.528 13.4978C15.528 13.8369 15.8032 14.1121 16.1422 14.1121Z" fill="#C8C8C8"/>
<path d="M3.44839 19.5173C3.81023 19.5173 4.10356 19.2239 4.10356 18.8621C4.10356 18.5002 3.81023 18.2069 3.44839 18.2069C3.08654 18.2069 2.79321 18.5002 2.79321 18.8621C2.79321 19.2239 3.08654 19.5173 3.44839 19.5173Z" fill="#C8C8C8"/>
<path d="M12.4568 0.517212C12.1175 0.517212 11.8425 0.79222 11.8425 1.13144V2.40083C11.8425 2.74005 12.1175 3.01506 12.4568 3.01506C12.796 3.01506 13.071 2.74005 13.071 2.40083V1.13144C13.071 0.79222 12.796 0.517212 12.4568 0.517212Z" fill="#C8C8C8"/>
<path d="M9.85078 3.22579L8.98214 2.35715C8.7423 2.11728 8.35338 2.11728 8.1135 2.35715C7.87362 2.59703 7.87362 2.98591 8.1135 3.22579L8.98214 4.09443C9.22197 4.33426 9.61094 4.3343 9.85078 4.09443C10.0907 3.85455 10.0907 3.46566 9.85078 3.22579Z" fill="#C8C8C8"/>
<path d="M16.8 2.35715C16.5602 2.11728 16.1712 2.11728 15.9314 2.35715L15.0627 3.22575C14.8228 3.46562 14.8228 3.85451 15.0627 4.09439C15.3026 4.33426 15.6915 4.3343 15.9314 4.09443L16.8 3.22579C17.0399 2.98591 17.0399 2.59703 16.8 2.35715Z" fill="#C8C8C8"/>
</svg>
