<svg width="36" height="36" viewBox="0 0 36 36" fill="none" xmlns="http://www.w3.org/2000/svg">
<path d="M8.32674 27.6733C7.89109 27.2376 7.89109 26.5313 8.32674 26.0956L26.0956 8.32674C26.5313 7.89109 27.2376 7.89109 27.6733 8.32674C28.1089 8.76239 28.1089 9.46872 27.6733 9.90437L9.90437 27.6733C9.46872 28.1089 8.76239 28.1089 8.32674 27.6733Z" fill="#CF38EF"/>
<path d="M8.32674 8.32674C8.76239 7.89109 9.46872 7.89109 9.90437 8.32674L27.6733 26.0956C28.1089 26.5313 28.1089 27.2376 27.6733 27.6733C27.2376 28.1089 26.5313 28.1089 26.0956 27.6733L8.32674 9.90437C7.89109 9.46872 7.89109 8.76239 8.32674 8.32674Z" fill="#CF38EF"/>
</svg>
