<svg width="24" height="24" viewBox="0 0 24 24" fill="none" xmlns="http://www.w3.org/2000/svg">
<path d="M5.8294 23.9997C5.4187 24.0068 5.01609 23.8852 4.678 23.6519C3.93316 23.1245 3.64253 22.108 3.85852 20.7929L4.30637 18.0657C4.33207 17.9096 4.4187 17.7701 4.54722 17.6779C4.67573 17.5858 4.8356 17.5484 4.99166 17.5741C5.14771 17.5998 5.28717 17.6865 5.37935 17.815C5.47152 17.9435 5.50888 18.1034 5.48318 18.2595L5.03533 20.9803C4.90034 21.8015 5.0258 22.4368 5.36725 22.6782C5.7087 22.9196 6.25819 22.8275 6.92521 22.4606L9.2693 21.1725C10.8003 20.3307 13.1983 20.3307 14.7293 21.1725L17.0734 22.4606C17.7404 22.8275 18.309 22.9069 18.6314 22.6782C18.9537 22.4495 19.0983 21.8015 18.9633 20.9803L18.5154 18.2531C18.2264 16.4917 18.9617 14.1235 20.1877 12.8814L22.084 10.95C22.6573 10.3655 22.9066 9.79048 22.7669 9.37116C22.6271 8.95184 22.1221 8.67549 21.3645 8.56113L18.7441 8.16246C17.0369 7.90356 15.1025 6.43753 14.3418 4.82696L13.1698 2.34597C12.8283 1.62487 12.3916 1.19443 11.9993 1.19443C11.607 1.19443 11.1703 1.62487 10.8304 2.34597L9.65839 4.82696C8.89608 6.43912 6.95856 7.90515 5.25449 8.16246L2.63407 8.56113C1.87653 8.67549 1.36356 8.9709 1.23174 9.37116C1.09993 9.77142 1.34133 10.3655 1.91464 10.95L4.37625 13.4595C4.48703 13.5724 4.54843 13.7247 4.54694 13.8829C4.54545 14.0411 4.48119 14.1921 4.36831 14.3029C4.25543 14.4137 4.10317 14.4751 3.94502 14.4736C3.78687 14.4721 3.63579 14.4079 3.52501 14.295L1.0634 11.7855C0.151809 10.8579 -0.18964 9.86515 0.100989 8.99315C0.391618 8.12116 1.21269 7.56363 2.45461 7.38097L5.07662 6.9823C6.38683 6.78376 7.99085 5.56236 8.57846 4.31552L9.7505 1.83453C10.5049 0.246199 11.4832 0 11.9993 0C12.5154 0 13.4937 0.238257 14.2481 1.83453L15.4202 4.31552C16.0078 5.56236 17.6134 6.78376 18.9236 6.9823L21.544 7.38097C22.778 7.5684 23.6086 8.14022 23.8992 8.99315C24.1898 9.84609 23.8468 10.8579 22.9368 11.7855L21.039 13.7168C20.0861 14.6921 19.4667 16.6807 19.6922 18.0594L20.1401 20.7865C20.3577 22.108 20.0654 23.1245 19.3206 23.6455C18.9029 23.9409 17.9818 24.3142 16.5001 23.4994L14.156 22.2128C12.9871 21.5775 11.0115 21.5775 9.8442 22.2128L7.50011 23.4994C6.99468 23.8052 6.41973 23.9774 5.8294 23.9997Z" fill="#FF6D2C"/>
</svg>
