<svg width="18" height="18" viewBox="0 0 18 18" fill="none" xmlns="http://www.w3.org/2000/svg">
<path d="M12.956 16.9659C11.5346 17.7153 10.0855 18 8.35237 18C4.11092 18 0.516113 14.898 0.516113 9.93203C0.516176 4.60376 4.21402 0 9.95733 0C14.4578 0 17.4842 3.15485 17.4842 7.47397C17.4842 11.3533 15.3113 13.6296 12.8805 13.6296C11.8443 13.6296 10.8885 12.9307 10.9662 11.3534H10.8629C9.9574 12.8801 8.76746 13.6296 7.21544 13.6296C5.71595 13.6296 4.4229 12.4128 4.4229 10.3699C4.4229 7.16255 6.95647 4.24156 10.5513 4.24156C11.663 4.24156 12.6469 4.47312 13.3184 4.78498L12.4403 9.46474C12.0527 11.4318 12.3619 12.3373 13.2154 12.3622C14.5355 12.3875 16.0099 10.6289 16.0099 7.62809C16.0099 3.8793 13.7586 1.18776 9.74864 1.18776C5.5346 1.18776 1.99025 4.52564 1.99025 9.7761C1.99025 14.0956 4.81027 16.7594 8.63657 16.7594C10.111 16.7594 11.4821 16.4481 12.5432 15.8539L12.956 16.9659ZM11.5343 5.79139C11.2754 5.71551 10.835 5.61222 10.2409 5.61222C7.96463 5.61222 6.12798 7.75823 6.12798 10.2669C6.12798 11.406 6.69669 12.2339 7.83586 12.2339C9.33536 12.2339 10.7061 10.3196 10.9907 8.71449L11.5343 5.79139Z" fill="#424242"/>
</svg>
