<svg width="36" height="36" viewBox="0 0 36 36" fill="none" xmlns="http://www.w3.org/2000/svg">
<path d="M18.024 27C17.8939 27 17.7768 26.9497 17.6727 26.8617C17.6597 26.8491 16.5667 25.7929 15.1223 24.2713C14.8433 23.9824 13.3856 22.494 12.0255 20.8762C10.9195 19.5936 9.98266 18.4116 9.24098 17.368C7.80968 15.3435 7.60149 13.0298 8.69448 11.0304C9.68338 9.21972 11.5961 8 13.4698 8C15.2395 8 16.7879 8.88021 17.8288 10.4772C17.8809 10.5526 17.9459 10.5652 17.998 10.5652C18.037 10.5652 18.1151 10.5526 18.1671 10.4772C18.9088 9.34547 20.262 8 22.5261 8C24.3868 8 26.3125 9.21972 27.3014 11.0304C28.3944 13.0298 28.1993 15.3435 26.755 17.368C23.7492 21.6181 18.4013 26.7988 18.3363 26.8491C18.2712 26.9497 18.1541 27 18.024 27Z" fill="#CF38EF"/>
</svg>
