<svg width="46" height="46" viewBox="0 0 46 46" fill="none" xmlns="http://www.w3.org/2000/svg">
<g filter="url(#filter0_d)">
<circle cx="23" cy="21" r="18" fill="white"/>
</g>
<path d="M32.2501 21.7499H13.75C13.336 21.7499 13 21.4139 13 20.9999C13 20.5859 13.336 20.2499 13.75 20.2499H32.2501C32.6641 20.2499 33.0001 20.5859 33.0001 20.9999C33.0001 21.4139 32.6641 21.7499 32.2501 21.7499Z" fill="#FF6D2C"/>
<path d="M23 31.0001C22.586 31.0001 22.25 30.6641 22.25 30.2501V11.75C22.25 11.336 22.586 11 23 11C23.414 11 23.75 11.336 23.75 11.75V30.2501C23.75 30.6641 23.414 31.0001 23 31.0001Z" fill="#FF6D2C"/>
<defs>
<filter id="filter0_d" x="0" y="0" width="46" height="46" filterUnits="userSpaceOnUse" color-interpolation-filters="sRGB">
<feFlood flood-opacity="0" result="BackgroundImageFix"/>
<feColorMatrix in="SourceAlpha" type="matrix" values="0 0 0 0 0 0 0 0 0 0 0 0 0 0 0 0 0 0 127 0"/>
<feOffset dy="2"/>
<feGaussianBlur stdDeviation="2.5"/>
<feColorMatrix type="matrix" values="0 0 0 0 0 0 0 0 0 0 0 0 0 0 0 0 0 0 0.1 0"/>
<feBlend mode="normal" in2="BackgroundImageFix" result="effect1_dropShadow"/>
<feBlend mode="normal" in="SourceGraphic" in2="effect1_dropShadow" result="shape"/>
</filter>
</defs>
</svg>
