<svg viewBox="0 0 36 36" fill="none" xmlns="http://www.w3.org/2000/svg"><path d="M18.024 27a.537.537 0 01-.351-.138c-.013-.013-1.106-1.07-2.55-2.59-.28-.29-1.737-1.778-3.098-3.396-1.106-1.282-2.042-2.464-2.784-3.508-1.431-2.024-1.64-4.338-.547-6.338C9.684 9.22 11.596 8 13.47 8c1.77 0 3.318.88 4.359 2.477a.19.19 0 00.169.088.204.204 0 00.17-.088C18.907 9.345 20.261 8 22.525 8c1.86 0 3.787 1.22 4.775 3.03 1.093 2 .898 4.314-.546 6.338-3.006 4.25-8.354 9.43-8.419 9.481-.065.1-.182.151-.312.151z" fill="#CF38EF"/></svg>
