<svg width="16" height="16" viewBox="0 0 16 16" fill="none" xmlns="http://www.w3.org/2000/svg">
<path d="M5.00991 10.1699L1.15993 14.0199V11.5472C1.15993 11.227 0.900341 10.9673 0.579967 10.9673C0.259593 10.9673 0 11.227 0 11.5472V15.4201C0 15.7403 0.259593 16 0.579967 16H4.45291C4.77321 16 5.03288 15.7403 5.03288 15.4201C5.03288 15.0998 4.77328 14.8401 4.45291 14.8401H1.98008L5.83014 10.99C6.05663 10.7635 6.05663 10.3963 5.83006 10.1698C5.60372 9.94339 5.23648 9.94339 5.00991 10.1699Z" fill="black"/>
<path d="M15.4086 0H11.4598C11.1332 0 10.8685 0.264743 10.8685 0.591296C10.8685 0.917849 11.1332 1.18259 11.4598 1.18259H13.981L10.1732 4.99062C9.94226 5.22154 9.94226 5.59595 10.1733 5.82687C10.2887 5.94229 10.4401 6 10.5914 6C10.7427 6 10.894 5.94221 11.0095 5.82679L14.8174 2.01876V4.54005C14.8174 4.8666 15.0821 5.13135 15.4087 5.13135C15.7353 5.13135 16 4.8666 16 4.54005V0.591296C15.9999 0.264664 15.7352 0 15.4086 0Z" fill="black"/>
</svg>
