<svg width="60" height="60" viewBox="0 0 60 60" fill="none" xmlns="http://www.w3.org/2000/svg"><path fill-rule="evenodd" clip-rule="evenodd" d="M25.7143 40L15 30.3846L18 27.6923L25.7143 34.6154L42 20L45 22.6923L25.7143 40V40Z" fill="url(#paint0_linear)"/><path fill-rule="evenodd" clip-rule="evenodd" d="M14.2349 4.47919C28.3028 -4.22438 46.8233 0.144216 55.523 14.2173C64.2225 28.2902 59.8563 46.8178 45.7888 55.5211C31.7211 64.2246 13.2006 59.8563 4.50077 45.783C-1.41688 36.2103 -1.50476 24.2531 4.27062 14.5847C4.28537 14.56 4.30159 14.5325 4.31918 14.5026C4.46678 14.2524 4.71139 13.8377 5.00088 13.5292C5.16739 13.3518 5.42463 13.1234 5.77662 13.0044C6.18029 12.868 6.61983 12.9067 7.01319 13.1419C7.37647 13.3591 7.67873 13.7337 7.70374 14.2484C7.72372 14.6595 7.55111 14.994 7.44956 15.1686C7.34167 15.354 7.20493 15.535 7.10827 15.6629L7.09593 15.6793C6.9815 15.8308 6.90894 15.9285 6.85847 16.013C1.91122 24.2951 1.7999 35.804 6.8506 43.9743C14.309 56.0395 30.4816 61.469 44.7365 52.6497C56.7459 45.2197 60.5913 28.0644 53.1494 16.026C44.9437 2.75193 28.0534 -0.590539 16.0261 6.85055C15.9373 6.90551 15.8381 6.98077 15.6851 7.09706L15.6789 7.10174C15.5486 7.20083 15.3629 7.34195 15.1699 7.45313C14.9915 7.55589 14.658 7.72406 14.2491 7.70278C13.744 7.6765 13.3709 7.38429 13.1494 7.02596C12.9813 6.75395 12.8596 6.41088 12.9024 6.02219C12.9446 5.63826 13.1318 5.35282 13.3038 5.16339C13.4692 4.98114 13.6606 4.84339 13.8066 4.74639C13.911 4.67698 14.0334 4.60235 14.1352 4.54025C14.1717 4.51802 14.2055 4.49739 14.2349 4.47919ZM6.49962 14.8593C6.49962 14.8594 6.49885 14.86 6.49732 14.8611C6.49885 14.8598 6.49962 14.8593 6.49962 14.8593Z" fill="url(#paint1_linear)"/><defs><linearGradient id="paint0_linear" x1="30" y1="20" x2="30.3878" y2="40.0006" gradientUnits="userSpaceOnUse"><stop stop-color="#CF38EF"/><stop offset="0.498649" stop-color="#FF6D2C"/><stop offset="1" stop-color="#FEBB0B"/></linearGradient><linearGradient id="paint1_linear" x1="14.5255" y1="57.2978" x2="51.1496" y2="8.92374" gradientUnits="userSpaceOnUse"><stop stop-color="#CF38EF"/><stop offset="0.484375" stop-color="#FF6D2C"/><stop offset="1" stop-color="#FEBB0B"/></linearGradient></defs></svg>