<svg width="36" height="36" viewBox="0 0 36 36" fill="none" xmlns="http://www.w3.org/2000/svg">
<path d="M18.024 27C17.8939 27 17.7768 26.9497 17.6727 26.8617C17.6597 26.8491 16.5667 25.7929 15.1223 24.2713C14.9402 24.0827 14.9532 23.7809 15.1484 23.6049C15.3435 23.4289 15.6558 23.4414 15.838 23.63C16.7879 24.6234 17.5816 25.4282 18.011 25.8557C19.2341 24.636 23.4499 20.3984 25.9612 16.8398C27.1843 15.1046 27.3665 13.1555 26.4427 11.4705C25.6229 9.96162 24.0485 8.94308 22.5391 8.94308C20.7174 8.94308 19.6114 10.0496 18.9999 10.9801C18.7787 11.3071 18.4143 11.5083 18.011 11.5083C17.6076 11.5083 17.2433 11.3071 17.0221 10.9801C16.4105 10.0496 15.3045 8.94308 13.4828 8.94308C11.9735 8.94308 10.399 9.96162 9.57929 11.4705C8.65545 13.1555 8.83761 15.1046 10.0607 16.8398C10.7764 17.8584 11.7002 19.0152 12.7802 20.2727C12.9494 20.4739 12.9233 20.7756 12.7151 20.9391C12.507 21.1026 12.1947 21.0774 12.0255 20.8762C10.9195 19.5936 9.98266 18.4116 9.24098 17.368C7.80968 15.3435 7.60149 13.0298 8.69448 11.0304C9.68338 9.21972 11.5961 8 13.4698 8C15.2395 8 16.7879 8.88021 17.8288 10.4772C17.8809 10.5526 17.9459 10.5652 17.998 10.5652C18.037 10.5652 18.1151 10.5526 18.1671 10.4772C18.9088 9.34547 20.262 8 22.5261 8C24.3868 8 26.3125 9.21972 27.3014 11.0304C28.3944 13.0298 28.1993 15.3435 26.755 17.368C23.7492 21.6181 18.4013 26.7988 18.3363 26.8491C18.2712 26.9497 18.1541 27 18.024 27Z" fill="#CF38EF"/>
</svg>
