<svg width="22" height="22" viewBox="0 0 22 22" fill="none" xmlns="http://www.w3.org/2000/svg">
<path d="M21.4829 1.9287C21.4829 1.15026 20.856 0.517212 20.0852 0.517212H1.91504C1.14421 0.517212 0.517343 1.15026 0.517343 1.9287C0.517343 2.58469 0.964608 3.13234 1.56562 3.29008C1.56562 3.29008 1.50009 21.8103 1.56562 20.4241C1.63115 19.0379 2.61389 19.3655 2.61389 19.3655C2.61389 19.3655 3.55255 21.4827 4.71045 21.4827C5.86834 21.4827 6.807 19.3655 6.807 19.3655C6.807 19.3655 7.74566 21.4827 8.90355 21.4827C10.0614 21.4827 11.0001 19.3655 11.0001 19.3655C11.0001 19.3655 11.9388 21.4827 13.0967 21.4827C14.2545 21.4827 14.0353 19.3655 15.1932 19.3655C16.3511 19.3655 16.1319 21.4827 17.2898 21.4827C18.4476 21.4827 18.2878 18.9957 19.3863 19.3655C19.9355 19.5504 20.5001 20.5 20.4346 20.4241C20.3691 20.3483 20.4346 3.29008 20.4346 3.29008C21.0356 3.13234 21.4829 2.58469 21.4829 1.9287ZM19.7357 18.7204C19.7357 18.7204 19.5433 18.4809 19.3863 18.3676C18.4441 17.6879 18.4476 20.4848 17.2898 20.4848C16.1319 20.4848 16.3511 18.3676 15.1932 18.3676C14.0353 18.3676 14.2545 20.4848 13.0967 20.4848C11.9388 20.4848 12.158 18.3676 11.0001 18.3676C9.84221 18.3676 10.0614 20.4848 8.90355 20.4848C7.74566 20.4848 7.96489 18.3676 6.807 18.3676C5.6491 18.3676 5.86834 20.4848 4.71045 20.4848C3.55255 20.4848 3.55611 17.6879 2.61389 18.3676C2.45686 18.4809 2.26447 18.7204 2.26447 18.7204V3.34018V2.28157H19.7357V3.34018V18.7204ZM20.4346 2.53952V1.57583H1.56562V2.53952C1.35701 2.41778 1.21619 2.18947 1.21619 1.9287C1.21619 1.53948 1.52963 1.22296 1.91504 1.22296H20.0852C20.4706 1.22296 20.784 1.53948 20.784 1.9287C20.784 2.18947 20.6432 2.41778 20.4346 2.53952Z" fill="#C8C8C8" stroke="#C8C8C8" stroke-width="0.6"/>
<path d="M16.5113 14.2759H10.7304C10.5176 14.2759 10.345 14.5687 10.345 14.9311C10.345 15.2934 10.5176 15.5862 10.7304 15.5862H16.5113C16.724 15.5862 16.8967 15.2934 16.8967 14.9311C16.8967 14.5687 16.724 14.2759 16.5113 14.2759Z" fill="#C8C8C8"/>
<path d="M17.7418 14.4588C17.6238 14.5834 17.5518 14.7483 17.5518 14.9269C17.5518 15.0983 17.6238 15.2698 17.7418 15.395C17.8662 15.5137 18.0366 15.5862 18.2069 15.5862C18.3773 15.5862 18.5476 15.5137 18.6721 15.395C18.79 15.2698 18.8621 15.0983 18.8621 14.9269C18.8621 14.7483 18.79 14.5834 18.6721 14.4588C18.4231 14.2149 17.9907 14.2149 17.7418 14.4588Z" fill="#C8C8C8"/>
<path d="M17.8602 9.03442H12.6574C12.4659 9.03442 12.3105 9.32729 12.3105 9.6896C12.3105 10.0519 12.4659 10.3448 12.6574 10.3448H17.8602C18.0517 10.3448 18.2071 10.0519 18.2071 9.6896C18.2071 9.32729 18.0517 9.03442 17.8602 9.03442Z" fill="#C8C8C8"/>
<path d="M17.934 11.6552H15.2041C15.0535 11.6552 14.9312 11.948 14.9312 12.3103C14.9312 12.6726 15.0535 12.9655 15.2041 12.9655H17.934C18.0847 12.9655 18.207 12.6726 18.207 12.3103C18.207 11.948 18.0847 11.6552 17.934 11.6552Z" fill="#C8C8C8"/>
<path d="M10.345 12.3103C10.345 12.6726 10.5651 12.9655 10.8364 12.9655H11.8191C12.0904 12.9655 12.3105 12.6726 12.3105 12.3103C12.3105 11.948 12.0904 11.6552 11.8191 11.6552H10.8364C10.5651 11.6552 10.345 11.948 10.345 12.3103Z" fill="#C8C8C8"/>
<path d="M16.2415 7.06899C16.2415 6.70668 16.0861 6.41382 15.8947 6.41382H10.6918C10.5004 6.41382 10.345 6.70668 10.345 7.06899C10.345 7.4313 10.5004 7.72416 10.6918 7.72416H15.8947C16.0861 7.72416 16.2415 7.4313 16.2415 7.06899Z" fill="#C8C8C8"/>
<path d="M17.0867 6.59677C16.9688 6.72138 16.8967 6.8862 16.8967 7.06487C16.8967 7.23629 16.9688 7.4077 17.0867 7.53297C17.2112 7.65164 17.3816 7.72416 17.5519 7.72416C17.7288 7.72416 17.8926 7.65164 18.0171 7.53297C18.135 7.4077 18.2071 7.23629 18.2071 7.06487C18.2071 6.89345 18.135 6.72138 18.0171 6.59677C17.7747 6.35283 17.3291 6.35283 17.0867 6.59677Z" fill="#C8C8C8"/>
<path d="M11.4653 10.1536C11.5832 10.0283 11.6553 9.86348 11.6553 9.68547C11.6553 9.50681 11.5832 9.34198 11.4653 9.21738C11.2229 8.97344 10.7839 8.97344 10.535 9.21738C10.417 9.34198 10.345 9.50681 10.345 9.68547C10.345 9.86348 10.417 10.0283 10.535 10.1536C10.6595 10.2722 10.8298 10.3448 11.0001 10.3448C11.1705 10.3448 11.3408 10.2722 11.4653 10.1536Z" fill="#C8C8C8"/>
<path d="M14.0859 12.7743C14.2039 12.649 14.2759 12.4842 14.2759 12.3062C14.2759 12.1275 14.2039 11.9568 14.0859 11.8381C13.8435 11.5942 13.4045 11.5942 13.1556 11.8381C13.0376 11.9627 12.9656 12.1348 12.9656 12.3062C12.9656 12.4776 13.0376 12.649 13.1556 12.7743C13.2801 12.893 13.4504 12.9655 13.6207 12.9655C13.7911 12.9655 13.9614 12.893 14.0859 12.7743Z" fill="#C8C8C8"/>
<path d="M6.54494 7.37743V6.87246C6.54494 6.61883 6.33948 6.41382 6.08632 6.41382C5.83316 6.41382 5.6277 6.61883 5.6277 6.87246V7.3788C5.12734 7.48062 4.67147 7.74618 4.3353 8.14382C4.05509 8.47496 3.9253 8.89875 3.97116 9.33767C4.01794 9.78668 4.24908 10.2031 4.60543 10.4802L5.6277 11.2754V13.7695C5.09524 13.5797 4.71045 13.0752 4.71045 12.478C4.71045 12.2244 4.50499 12.0194 4.25183 12.0194C3.99867 12.0194 3.79321 12.2244 3.79321 12.478C3.79321 13.5852 4.5825 14.5116 5.6277 14.7249V15.1276C5.6277 15.3812 5.83316 15.5862 6.08632 15.5862C6.33948 15.5862 6.54494 15.3812 6.54494 15.1276V14.7231C7.04529 14.6212 7.50116 14.3557 7.83779 13.958C8.11801 13.626 8.24734 13.2022 8.20148 12.7633C8.15424 12.3147 7.92355 11.8987 7.5672 11.6222L6.54494 10.8273V8.33324C7.0774 8.52312 7.46218 9.02763 7.46218 9.62478C7.46218 9.87841 7.66764 10.0834 7.9208 10.0834C8.17396 10.0834 8.37942 9.87841 8.37942 9.62478C8.37942 8.51716 7.59013 7.5907 6.54494 7.37743ZM7.00402 12.3464C7.16407 12.4707 7.26818 12.6583 7.28928 12.8591C7.309 13.0472 7.25488 13.2274 7.13748 13.3659C6.97788 13.5544 6.7715 13.6865 6.54494 13.7673V11.9886L7.00402 12.3464ZM5.16862 9.75641C5.0081 9.63166 4.90445 9.44408 4.88335 9.24273C4.86409 9.05515 4.91775 8.87536 5.03516 8.73639C5.19476 8.54789 5.40114 8.4158 5.6277 8.33508V10.1132L5.16862 9.75641Z" fill="#C8C8C8"/>
</svg>
