<svg viewBox="0 0 36 36" fill="none" xmlns="http://www.w3.org/2000/svg"><path fill-rule="evenodd" clip-rule="evenodd" d="M28.277 9.013a.606.606 0 01.62.242.553.553 0 01-.004.647l-12.13 16.851a.606.606 0 01-.571.241l-.035-.006a.594.594 0 01-.444-.378l-.47-1.314s-.4-.804.267-1.01c.703-.218.864.647.864.647l.082.23 9.69-13.46-11.808 7.531.74 2.072s.192.58-.31.742c-.605.197-.826-.39-.826-.39l-.831-2.323-5.906-4.948a.56.56 0 01-.186-.576.595.595 0 01.452-.42l20.806-4.378zm-14.604 9.266l11.74-7.488L8.886 14.27l4.787 4.009z" fill="#CF38EF"/></svg>
