<svg width="46" height="46" viewBox="0 0 46 46" fill="none" xmlns="http://www.w3.org/2000/svg">
<g filter="url(#filter0_d)">
<circle cx="23" cy="21" r="18" fill="white"/>
</g>
<path d="M32.2501 25.7499H13.75C13.336 25.7499 13 25.4139 13 24.9999C13 24.5859 13.336 24.2499 13.75 24.2499H32.2501C32.6641 24.2499 33.0001 24.5859 33.0001 24.9999C33.0001 25.4139 32.6641 25.7499 32.2501 25.7499Z" fill="#FF6D2C"/>
<path d="M32.2501 17.7499H13.75C13.336 17.7499 13 17.4139 13 16.9999C13 16.5859 13.336 16.2499 13.75 16.2499H32.2501C32.6641 16.2499 33.0001 16.5859 33.0001 16.9999C33.0001 17.4139 32.6641 17.7499 32.2501 17.7499Z" fill="#FF6D2C"/>
<defs>
<filter id="filter0_d" x="0" y="0" width="46" height="46" filterUnits="userSpaceOnUse" color-interpolation-filters="sRGB">
<feFlood flood-opacity="0" result="BackgroundImageFix"/>
<feColorMatrix in="SourceAlpha" type="matrix" values="0 0 0 0 0 0 0 0 0 0 0 0 0 0 0 0 0 0 127 0"/>
<feOffset dy="2"/>
<feGaussianBlur stdDeviation="2.5"/>
<feColorMatrix type="matrix" values="0 0 0 0 0 0 0 0 0 0 0 0 0 0 0 0 0 0 0.1 0"/>
<feBlend mode="normal" in2="BackgroundImageFix" result="effect1_dropShadow"/>
<feBlend mode="normal" in="SourceGraphic" in2="effect1_dropShadow" result="shape"/>
</filter>
</defs>
</svg>
