<svg width="24" height="24" viewBox="0 0 24 24" fill="none" xmlns="http://www.w3.org/2000/svg">
<path d="M13.5365 18.4263H9.8438C9.68908 18.4263 9.54071 18.3634 9.4313 18.2513C9.3219 18.1393 9.26047 17.9874 9.26047 17.8289C9.26047 17.6705 9.3219 17.5185 9.4313 17.4065C9.54071 17.2945 9.68908 17.2315 9.8438 17.2315H13.5365C13.836 17.2315 14.1233 17.1097 14.3351 16.8927C14.5469 16.6758 14.6659 16.3816 14.6659 16.0749C14.6659 15.7681 14.5469 15.4739 14.3351 15.257C14.1233 15.0401 13.836 14.9182 13.5365 14.9182H10.4629C9.8543 14.9182 9.27058 14.6707 8.84024 14.23C8.40991 13.7893 8.1682 13.1917 8.1682 12.5684C8.1682 11.9452 8.40991 11.3475 8.84024 10.9068C9.27058 10.4662 9.8543 10.2186 10.4629 10.2186H14.1555C14.2345 10.2144 14.3136 10.2267 14.3878 10.2548C14.462 10.2829 14.5299 10.3262 14.5873 10.382C14.6447 10.4378 14.6904 10.505 14.7216 10.5795C14.7528 10.654 14.769 10.7341 14.769 10.8152C14.769 10.8962 14.7528 10.9764 14.7216 11.0509C14.6904 11.1254 14.6447 11.1926 14.5873 11.2484C14.5299 11.3042 14.462 11.3474 14.3878 11.3755C14.3136 11.4036 14.2345 11.416 14.1555 11.4118H10.4629C10.1633 11.4118 9.876 11.5337 9.66418 11.7506C9.45236 11.9675 9.33335 12.2617 9.33335 12.5684C9.33335 12.8752 9.45236 13.1694 9.66418 13.3863C9.876 13.6032 10.1633 13.7251 10.4629 13.7251H13.5365C13.8429 13.7169 14.1479 13.7717 14.4333 13.8861C14.7188 14.0006 14.979 14.1724 15.1986 14.3915C15.4181 14.6106 15.5927 14.8725 15.7118 15.1618C15.831 15.451 15.8924 15.7618 15.8924 16.0757C15.8924 16.3896 15.831 16.7004 15.7118 16.9896C15.5927 17.2789 15.4181 17.5408 15.1986 17.7599C14.979 17.979 14.7188 18.1508 14.4333 18.2653C14.1479 18.3797 13.8429 18.4345 13.5365 18.4263Z" fill="#CF38EF"/>
<path d="M12.0004 11.4119C11.8457 11.4119 11.6973 11.3489 11.5879 11.2369C11.4785 11.1249 11.417 10.9729 11.417 10.8145V8.58222C11.4248 8.42931 11.4895 8.28529 11.5979 8.17986C11.7063 8.07442 11.8501 8.01562 11.9996 8.01562C12.1491 8.01562 12.293 8.07442 12.4014 8.17986C12.5098 8.28529 12.5745 8.42931 12.5822 8.58222V10.8145C12.5824 10.8929 12.5676 10.9705 12.5384 11.0429C12.5093 11.1154 12.4664 11.1813 12.4124 11.2368C12.3583 11.2923 12.2941 11.3363 12.2234 11.3664C12.1527 11.3964 12.0769 11.4119 12.0004 11.4119Z" fill="#CF38EF"/>
<path d="M12.0005 20.657C11.9239 20.6573 11.8481 20.642 11.7774 20.6122C11.7066 20.5823 11.6422 20.5385 11.588 20.4831C11.5339 20.4278 11.4909 20.362 11.4615 20.2896C11.4322 20.2172 11.4171 20.1396 11.4171 20.0613V17.8369C11.4131 17.756 11.4251 17.6751 11.4525 17.599C11.48 17.523 11.5222 17.4535 11.5767 17.3947C11.6312 17.336 11.6968 17.2892 11.7696 17.2572C11.8423 17.2253 11.9206 17.2087 11.9997 17.2087C12.0789 17.2087 12.1571 17.2253 12.2299 17.2572C12.3026 17.2892 12.3682 17.336 12.4227 17.3947C12.4772 17.4535 12.5195 17.523 12.5469 17.599C12.5743 17.6751 12.5864 17.756 12.5823 17.8369V20.0613C12.5823 20.2193 12.521 20.3708 12.4119 20.4825C12.3028 20.5943 12.1548 20.657 12.0005 20.657Z" fill="#CF38EF"/>
<path d="M17.4369 24H6.56236C5.88339 23.9996 5.23231 23.7233 4.75206 23.2318C4.27181 22.7403 4.0016 22.0738 4.00077 21.3785C3.99669 21.2976 4.00879 21.2166 4.03623 21.1406C4.06366 21.0646 4.10589 20.9951 4.16039 20.9363C4.21489 20.8775 4.28048 20.8307 4.3532 20.7987C4.42592 20.7668 4.50428 20.7503 4.58342 20.7503C4.66257 20.7503 4.74085 20.7668 4.81358 20.7987C4.8863 20.8307 4.95188 20.8775 5.00638 20.9363C5.06088 20.9951 5.10318 21.0646 5.13062 21.1406C5.15806 21.2166 5.17008 21.2976 5.166 21.3785C5.166 21.7577 5.31315 22.1214 5.57501 22.3896C5.83688 22.6578 6.19202 22.8084 6.56236 22.8084H17.4369C17.8072 22.8084 18.1625 22.6578 18.4243 22.3896C18.6862 22.1214 18.8333 21.7577 18.8333 21.3785V7.39709C18.8334 7.2308 18.7984 7.06645 18.7307 6.91533C18.6629 6.76422 18.564 6.62992 18.4408 6.52166L12.711 1.45974C12.5125 1.2866 12.2603 1.19152 11.9996 1.19152C11.7389 1.19152 11.4867 1.2866 11.2883 1.45974L5.5585 6.52007C5.4354 6.62916 5.33668 6.76405 5.26895 6.91564C5.20123 7.06723 5.16611 7.23198 5.166 7.39868V16.1037C5.17008 16.1846 5.15806 16.2656 5.13062 16.3416C5.10318 16.4176 5.06088 16.4871 5.00638 16.5459C4.95188 16.6046 4.8863 16.6514 4.81358 16.6834C4.74085 16.7154 4.66257 16.7319 4.58342 16.7319C4.50428 16.7319 4.42592 16.7154 4.3532 16.6834C4.28048 16.6514 4.21489 16.6046 4.16039 16.5459C4.10589 16.4871 4.06366 16.4176 4.03623 16.3416C4.00879 16.2656 3.99669 16.1846 4.00077 16.1037V7.39868C4.00053 7.0605 4.07169 6.72624 4.20933 6.41883C4.34698 6.11143 4.54787 5.83814 4.79827 5.61765L10.5264 0.555729C10.9377 0.197018 11.4602 0 12.0004 0C12.5406 0 13.0631 0.197018 13.4743 0.555729L19.2041 5.61765C19.4539 5.83818 19.6544 6.11131 19.7917 6.41841C19.9291 6.7255 20.0001 7.05932 20 7.39709V21.3785C19.9988 22.0739 19.7282 22.7405 19.2477 23.2319C18.7672 23.7233 18.116 23.9996 17.4369 24Z" fill="#CF38EF"/>
</svg>
