<svg width="19" height="13" viewBox="0 0 19 13" fill="none" xmlns="http://www.w3.org/2000/svg">
<path d="M17.8125 0H1.1875C0.534359 0 0 0.508709 0 1.13043V2.44927H19V1.13043C19 0.508709 18.4656 0 17.8125 0Z" fill="#424242"/>
<path d="M17.8125 0H1.1875C0.534359 0 0 0.508709 0 1.13043V2.44927H19V1.13043C19 0.508709 18.4656 0 17.8125 0Z" fill="#424242"/>
<path d="M0 11.8696C0 12.4914 0.534359 13 1.1875 13H17.8125C18.4656 13 19 12.4914 19 11.8696V4.71021H0V11.8696ZM15.8333 11.4928H15.2396V9.98555H15.8333V11.4928ZM16.8229 11.4928H16.2292V9.98555H16.8229V11.4928ZM17.8125 11.4928H17.2188V9.98555H17.8125V11.4928ZM15.0417 6.21745C15.0417 6.01022 15.2198 5.84064 15.4375 5.84064H17.4167C17.6344 5.84064 17.8125 6.01022 17.8125 6.21745V8.1015C17.8125 8.30873 17.6344 8.47831 17.4167 8.47831H15.4375C15.2198 8.47831 15.0417 8.30873 15.0417 8.1015V6.21745ZM14.0521 9.98555H14.6458V11.4928H14.0521V9.98555ZM13.0625 9.98555H13.6562V11.4928H13.0625V9.98555ZM11.4792 9.98555H12.0729V11.4928H11.4792V9.98555ZM10.4896 9.98555H11.0833V11.4928H10.4896V9.98555ZM9.30208 9.98555H9.89583V11.4928H9.30208V9.98555ZM8.3125 9.98555H8.90625V11.4928H8.3125V9.98555ZM6.92708 9.98555H7.52083V11.4928H6.92708V9.98555ZM5.9375 9.98555H6.53125V11.4928H5.9375V9.98555ZM4.75 9.98555H5.34375V11.4928H4.75V9.98555ZM3.5625 9.98555H4.15625V11.4928H3.5625V9.98555ZM2.57292 9.98555H3.16667V11.4928H2.57292V9.98555ZM1.38542 9.98555H1.97917V11.4928H1.38542V9.98555Z" fill="#424242"/>
<path d="M0 11.8696C0 12.4914 0.534359 13 1.1875 13H17.8125C18.4656 13 19 12.4914 19 11.8696V4.71021H0V11.8696ZM15.8333 11.4928H15.2396V9.98555H15.8333V11.4928ZM16.8229 11.4928H16.2292V9.98555H16.8229V11.4928ZM17.8125 11.4928H17.2188V9.98555H17.8125V11.4928ZM15.0417 6.21745C15.0417 6.01022 15.2198 5.84064 15.4375 5.84064H17.4167C17.6344 5.84064 17.8125 6.01022 17.8125 6.21745V8.1015C17.8125 8.30873 17.6344 8.47831 17.4167 8.47831H15.4375C15.2198 8.47831 15.0417 8.30873 15.0417 8.1015V6.21745ZM14.0521 9.98555H14.6458V11.4928H14.0521V9.98555ZM13.0625 9.98555H13.6562V11.4928H13.0625V9.98555ZM11.4792 9.98555H12.0729V11.4928H11.4792V9.98555ZM10.4896 9.98555H11.0833V11.4928H10.4896V9.98555ZM9.30208 9.98555H9.89583V11.4928H9.30208V9.98555ZM8.3125 9.98555H8.90625V11.4928H8.3125V9.98555ZM6.92708 9.98555H7.52083V11.4928H6.92708V9.98555ZM5.9375 9.98555H6.53125V11.4928H5.9375V9.98555ZM4.75 9.98555H5.34375V11.4928H4.75V9.98555ZM3.5625 9.98555H4.15625V11.4928H3.5625V9.98555ZM2.57292 9.98555H3.16667V11.4928H2.57292V9.98555ZM1.38542 9.98555H1.97917V11.4928H1.38542V9.98555Z" fill="#424242"/>
</svg>
