<svg width="24" height="24" viewBox="0 0 24 24" fill="none" xmlns="http://www.w3.org/2000/svg">
<path d="M19.1068 23.9971C18.6639 23.9978 18.2378 23.8316 17.9177 23.5331C17.5976 23.2346 17.4083 22.827 17.3894 22.3956L17.0698 14.141C14.7132 20.2557 12.827 24 11.0319 24H5.01336C4.32431 24.0025 3.66035 23.7483 3.15708 23.2895C3.04855 23.1905 2.98478 23.0535 2.97988 22.9086C2.97498 22.7638 3.0293 22.623 3.1309 22.5172C3.23249 22.4114 3.37303 22.3493 3.52161 22.3445C3.67019 22.3397 3.81466 22.3927 3.92319 22.4917C4.2192 22.7602 4.60904 22.9086 5.01336 22.9066H11.0319C11.6502 22.9066 13.4438 20.9283 16.7233 11.8714C16.801 11.6559 16.8637 11.487 16.907 11.3705C16.9802 11.1769 17.1311 10.7751 17.591 10.8421C17.7206 10.8618 17.8391 10.9246 17.9265 11.0199C18.0139 11.1152 18.0647 11.237 18.0704 11.3647L18.5095 22.3476C18.5157 22.4979 18.5813 22.6402 18.6927 22.7444C18.804 22.8486 18.9525 22.9067 19.1068 22.9066C19.2646 22.9044 19.4151 22.8423 19.5267 22.7336C19.6382 22.6248 19.7019 22.478 19.7042 22.3243C19.7953 16.4819 20.6003 12.3387 21.2589 10.7314C21.2977 10.6353 21.3799 10.4621 21.5023 10.2015C21.8652 9.42841 22.715 7.61733 22.8061 6.93598C23.0032 5.48012 22.7478 3.31542 22.0594 2.47248C21.3126 1.58004 20.2523 1.25977 19.7132 1.14912C17.4773 4.841 14.9105 9.33267 12.043 12.5833C8.41394 16.7106 7.25349 16.536 5.90045 15.7993C5.15373 15.3917 4.37116 14.9694 1.44255 17.5012C1.26454 17.6427 1.14912 17.8454 1.12002 18.0675C1.1122 18.1403 1.08945 18.2109 1.05315 18.275C1.01686 18.3391 0.967736 18.3955 0.908696 18.4407C0.849656 18.486 0.781866 18.5193 0.709402 18.5386C0.636938 18.5579 0.561295 18.5628 0.486847 18.5531C0.412398 18.5433 0.340713 18.5191 0.276031 18.4819C0.21135 18.4446 0.154984 18.3951 0.110281 18.3363C0.0655779 18.2774 0.0334436 18.2104 0.0157753 18.1393C-0.0018931 18.0681 -0.00476632 17.9942 0.00738933 17.9219C0.0713828 17.4384 0.317281 16.9954 0.69737 16.6786C3.95752 13.8615 5.22988 14.1789 6.44553 14.8399C6.90402 15.0888 7.15645 15.2256 7.6911 15.0029C8.47814 14.6753 9.62359 13.649 11.1917 11.867C16.12 6.26485 18.8948 0.333813 18.9232 0.284314C18.9747 0.191553 19.0529 0.115453 19.1481 0.0652949C19.2433 0.0151369 19.3514 -0.00689786 19.4593 0.00188528C19.5474 0.00188528 21.6053 0.183862 22.9315 1.77949C23.8276 2.86119 24.1636 5.30541 23.9261 7.07282C23.8216 7.85317 23.151 9.32942 22.5298 10.6513C22.4267 10.8712 22.3371 11.0619 22.3088 11.1332C21.6845 12.6546 20.9214 16.661 20.8333 22.3359C20.8255 22.7779 20.6403 23.1993 20.3176 23.5098C19.9949 23.8203 19.5603 23.9952 19.1068 23.9971Z" fill="#424242"/>
</svg>
