<svg width="14" height="14" viewBox="0 0 14 14" fill="none" xmlns="http://www.w3.org/2000/svg">
<path d="M0.228717 13.7713C-0.0762389 13.4663 -0.076239 12.9719 0.228717 12.6669L12.6669 0.228733C12.9719 -0.0762226 13.4663 -0.076223 13.7713 0.228732C14.0762 0.533688 14.0762 1.02812 13.7713 1.33307L1.33306 13.7713C1.0281 14.0762 0.533673 14.0762 0.228717 13.7713Z" fill="#897E82"/>
<path d="M0.519169 0.228717C0.824125 -0.0762388 1.31856 -0.0762388 1.62351 0.228716L13.7713 12.3765C14.0762 12.6814 14.0762 13.1759 13.7713 13.4808C13.4663 13.7858 12.9719 13.7858 12.6669 13.4808L6.59305 7.40693L0.519168 1.33306C0.214213 1.0281 0.214213 0.533672 0.519169 0.228717Z" fill="#897E82"/>
</svg>
