<svg viewBox="0 0 32 32" fill="none" xmlns="http://www.w3.org/2000/svg">
<path fill-rule="evenodd" clip-rule="evenodd" d="M7.59193 2.38889C15.0948 -2.25299 24.9723 0.0769146 29.6121 7.58253C34.2518 15.088 31.9232 24.9694 24.4206 29.6111C16.9178 34.2529 7.04027 31.9232 2.4004 24.4175C-0.755664 19.312 -0.802535 12.9349 2.27766 7.77845C2.28552 7.76528 2.29417 7.75062 2.30355 7.73471C2.38227 7.60126 2.51273 7.3801 2.66712 7.21556C2.75593 7.12092 2.89312 6.9991 3.08085 6.93566C3.29614 6.8629 3.53056 6.88352 3.74035 7.00896C3.9341 7.12481 4.0953 7.32463 4.10864 7.5991C4.1193 7.81834 4.02724 7.99676 3.97308 8.08986C3.91554 8.18877 3.84261 8.28529 3.79106 8.35352L3.78448 8.36224C3.72345 8.44306 3.68475 8.49518 3.65783 8.54024C1.01931 12.9573 0.959944 19.0954 3.65364 23.4529C7.63145 29.8876 16.2568 32.7833 23.8594 28.0797C30.2643 24.1171 32.3152 14.9676 28.3462 8.54714C23.9699 1.46769 14.9618 -0.314953 8.54723 3.65361C8.49985 3.68292 8.44695 3.72306 8.36534 3.78508L8.36205 3.78758C8.29252 3.84042 8.1935 3.91569 8.09057 3.97498C7.99543 4.02979 7.81757 4.11948 7.59947 4.10813C7.3301 4.09411 7.13112 3.93827 7.01298 3.74716C6.9233 3.60209 6.85843 3.41912 6.88125 3.21182C6.90378 3.00706 7.0036 2.85482 7.09531 2.7538C7.18355 2.6566 7.28564 2.58313 7.36347 2.53139C7.41915 2.49438 7.48443 2.45457 7.53875 2.42146C7.5582 2.4096 7.57624 2.3986 7.59193 2.38889ZM3.46645 7.92493C3.46644 7.92495 3.46604 7.92528 3.46522 7.92586C3.46604 7.9252 3.46645 7.92491 3.46645 7.92493Z" fill="url(#paint0_linear)"/>
<defs>
<linearGradient id="paint0_linear" x1="7.74687" y1="30.5587" x2="27.2797" y2="4.7593" gradientUnits="userSpaceOnUse">
<stop stop-color="#CF38EF"/>
<stop offset="0.484375" stop-color="#FF6D2C"/>
<stop offset="1" stop-color="#FEBB0B"/>
</linearGradient>
</defs>
</svg>
