<svg width="25" height="24" viewBox="0 0 25 24" fill="none" xmlns="http://www.w3.org/2000/svg">
<path d="M21.9324 6.93579C21.5102 6.93579 21.1679 7.26438 21.1679 7.66974V18.5321H6.7948C6.37255 18.5321 6.03027 18.8607 6.03027 19.2661C6.03027 19.6714 6.37255 20 6.7948 20H21.9324C22.3547 20 22.6969 19.6714 22.6969 19.2661V7.66974C22.6969 7.26438 22.3547 6.93579 21.9324 6.93579Z" fill="#CF38EF"/>
<path d="M19.7917 16.4771V4.73395C19.7917 4.32859 19.4494 4 19.0271 4H3.88953C3.46728 4 3.125 4.32859 3.125 4.73395V16.4771C3.125 16.8824 3.46728 17.211 3.88953 17.211H19.0271C19.4494 17.211 19.7917 16.8824 19.7917 16.4771ZM18.2626 15.7431H4.65405V8.0367H18.2626V15.7431ZM18.2626 6.56881H4.65405V5.46789H18.2626V6.56881Z" fill="#CF38EF"/>
</svg>
