<svg width="21" height="16" viewBox="0 0 21 16" fill="none" xmlns="http://www.w3.org/2000/svg">
<path d="M0.954527 16C0.42733 16 0 15.5523 0 15V1C0 0.447688 0.42733 0 0.954527 0C1.48172 0 1.90905 0.447688 1.90905 1V15C1.90905 15.5523 1.48172 16 0.954527 16Z" fill="#424242"/>
<path d="M4.7733 12C4.2461 12 3.81878 11.5523 3.81878 11V1C3.81878 0.447688 4.2461 0 4.7733 0C5.3005 0 5.72783 0.447688 5.72783 1V11C5.72783 11.5523 5.3005 12 4.7733 12Z" fill="#424242"/>
<path d="M8.59061 12C8.06342 12 7.63609 11.5523 7.63609 11V1C7.63609 0.447688 8.06342 0 8.59061 0C9.11781 0 9.54514 0.447688 9.54514 1V11C9.54514 11.5523 9.11781 12 8.59061 12Z" fill="#424242"/>
<path d="M12.4094 16C11.8822 16 11.4549 15.5523 11.4549 15V1C11.4549 0.447688 11.8822 0 12.4094 0C12.9366 0 13.3639 0.447688 13.3639 1V15C13.3639 15.5523 12.9366 16 12.4094 16Z" fill="#424242"/>
<path d="M16.2267 12C15.6995 12 15.2722 11.5523 15.2722 11V1C15.2722 0.447688 15.6995 0 16.2267 0C16.7539 0 17.1812 0.447688 17.1812 1V11C17.1812 11.5523 16.7539 12 16.2267 12Z" fill="#424242"/>
<path d="M20.0455 16C19.5183 16 19.0909 15.5523 19.0909 15V1C19.0909 0.447688 19.5183 0 20.0455 0C20.5727 0 21 0.447688 21 1V15C21 15.5523 20.5727 16 20.0455 16Z" fill="#424242"/>
<path d="M4.81139 16C4.28419 16 3.85686 15.5523 3.85686 15C3.85686 14.4477 4.28419 14 4.81139 14H4.83048C5.35768 14 5.78501 14.4477 5.78501 15C5.78501 15.5523 5.35768 16 4.83048 16H4.81139Z" fill="#424242"/>
<path d="M8.6287 16C8.1015 16 7.67417 15.5523 7.67417 15C7.67417 14.4477 8.1015 14 8.6287 14H8.64779C9.17499 14 9.60232 14.4477 9.60232 15C9.60232 15.5523 9.17499 16 8.64779 16H8.6287Z" fill="#424242"/>
<path d="M16.2648 16C15.7376 16 15.3103 15.5523 15.3103 15C15.3103 14.4516 15.7318 14.0055 16.2552 14H16.2743C16.8015 14 17.2289 14.4477 17.2289 15C17.2289 15.5523 16.8015 16 16.2743 16H16.2648Z" fill="#424242"/>
</svg>
