<svg width="36" height="36" viewBox="0 0 36 36" fill="none" xmlns="http://www.w3.org/2000/svg">
<path fill-rule="evenodd" clip-rule="evenodd" d="M28.2774 9.013C28.5129 8.96311 28.7628 9.05953 28.8976 9.25529C29.0367 9.45189 29.0329 9.70768 28.8934 9.90229L16.7639 26.7534C16.6321 26.9321 16.4148 27.0247 16.1916 26.9943L16.1569 26.9876C15.9536 26.9481 15.7816 26.8016 15.7135 26.6101L15.2435 25.2963C15.2435 25.2963 14.8431 24.4923 15.5104 24.2858C16.2134 24.0684 16.3737 24.9328 16.3737 24.9328L16.456 25.1631L26.1462 11.7031L14.3378 19.234L15.0782 21.3064C15.0782 21.3064 15.2699 21.8853 14.7689 22.0483C14.1632 22.2453 13.942 21.6584 13.942 21.6584L13.1106 19.3346L7.20528 14.3867C7.03671 14.2453 6.96169 14.022 7.01906 13.8114C7.07643 13.6008 7.2497 13.4389 7.47129 13.3906L28.2774 9.013ZM13.6726 18.2786L25.4135 10.7911L8.88597 14.2699L13.6726 18.2786Z" fill="#CF38EF"/>
<path d="M28.2774 9.013C28.5129 8.96311 28.7628 9.05953 28.8976 9.25529C29.0367 9.45189 29.0329 9.70768 28.8934 9.90229L16.7639 26.7534C16.6321 26.9321 16.4148 27.0247 16.1916 26.9943L16.1569 26.9876C15.9536 26.9481 15.7816 26.8016 15.7135 26.6101L15.2435 25.2963L13.942 21.6584L13.1106 19.3346L7.20528 14.3867C7.03671 14.2453 6.96169 14.022 7.01906 13.8114C7.07643 13.6008 7.2497 13.4389 7.47129 13.3906L28.2774 9.013Z" fill="#CF38EF"/>
</svg>
