<svg width="19" height="19" viewBox="0 0 19 19" fill="none" xmlns="http://www.w3.org/2000/svg">
<path d="M4.58618 3.2759C4.58618 2.91406 4.87951 2.62073 5.24135 2.62073H17.6896C18.0515 2.62073 18.3448 2.91406 18.3448 3.2759V3.2759C18.3448 3.63774 18.0515 3.93107 17.6896 3.93107H5.24135C4.87951 3.93107 4.58618 3.63774 4.58618 3.2759V3.2759Z" fill="white"/>
<path d="M4.58618 0.655172C4.58618 0.293331 4.87951 0 5.24135 0H11.7931C12.1549 0 12.4483 0.293331 12.4483 0.655172V0.655172C12.4483 1.01701 12.1549 1.31034 11.7931 1.31034H5.24135C4.87951 1.31034 4.58618 1.01701 4.58618 0.655172V0.655172Z" fill="white"/>
<path d="M0 1.96552C0 0.879993 0.879992 0 1.96552 0V0C3.05104 0 3.93103 0.879993 3.93103 1.96552V1.96552C3.93103 3.05104 3.05104 3.93103 1.96552 3.93103V3.93103C0.879992 3.93103 0 3.05104 0 1.96552V1.96552Z" fill="white"/>
<path d="M4.58618 10.4828C4.58618 10.121 4.87951 9.82764 5.24135 9.82764H17.6896C18.0515 9.82764 18.3448 10.121 18.3448 10.4828V10.4828C18.3448 10.8446 18.0515 11.138 17.6896 11.138H5.24135C4.87951 11.138 4.58618 10.8446 4.58618 10.4828V10.4828Z" fill="white"/>
<path d="M4.58618 7.86208C4.58618 7.50024 4.87951 7.20691 5.24135 7.20691H11.7931C12.1549 7.20691 12.4483 7.50024 12.4483 7.86208V7.86208C12.4483 8.22392 12.1549 8.51725 11.7931 8.51725H5.24135C4.87951 8.51725 4.58618 8.22392 4.58618 7.86208V7.86208Z" fill="white"/>
<path d="M0 9.17243C0 8.0869 0.879992 7.20691 1.96552 7.20691V7.20691C3.05104 7.20691 3.93103 8.0869 3.93103 9.17243V9.17243C3.93103 10.258 3.05104 11.1379 1.96552 11.1379V11.1379C0.879992 11.1379 0 10.258 0 9.17243V9.17243Z" fill="white"/>
<path d="M4.58618 17.6897C4.58618 17.3279 4.87951 17.0345 5.24136 17.0345H17.6896C18.0515 17.0345 18.3448 17.3279 18.3448 17.6897V17.6897C18.3448 18.0516 18.0515 18.3449 17.6896 18.3449H5.24136C4.87951 18.3449 4.58618 18.0516 4.58618 17.6897V17.6897Z" fill="white"/>
<path d="M4.58618 15.069C4.58618 14.7071 4.87951 14.4138 5.24135 14.4138H11.7931C12.1549 14.4138 12.4483 14.7071 12.4483 15.069V15.069C12.4483 15.4308 12.1549 15.7242 11.7931 15.7242H5.24135C4.87951 15.7242 4.58618 15.4308 4.58618 15.069V15.069Z" fill="white"/>
<path d="M0 16.3793C0 15.2938 0.879992 14.4138 1.96552 14.4138V14.4138C3.05104 14.4138 3.93103 15.2938 3.93103 16.3793V16.3793C3.93103 17.4649 3.05104 18.3449 1.96552 18.3449V18.3449C0.879992 18.3449 0 17.4649 0 16.3793V16.3793Z" fill="white"/>
</svg>
