<svg  viewBox="0 0 32 32" fill="none" xmlns="http://www.w3.org/2000/svg">
<path fill-rule="evenodd" clip-rule="evenodd" d="M20.9482 11.1061L21.7748 20.617C21.7778 20.6284 21.7778 20.6397 21.7778 20.6511C21.7778 21.6708 20.8065 22.5001 19.6107 22.5001H12.3893C11.1936 22.5001 10.2222 21.6708 10.2222 20.6511C10.2222 20.6454 10.223 20.6397 10.2237 20.6341C10.2244 20.6284 10.2252 20.6227 10.2252 20.617C10.2252 20.617 10.2406 20.3857 10.6138 20.3857C10.927 20.3857 11.0194 20.6681 11.0194 20.6681C11.0312 21.2561 11.6394 21.7332 12.3893 21.7332H19.6107C20.3577 21.7332 20.9688 21.2561 20.9806 20.6681L20.1865 11.5265H18.852V12.691C18.852 12.904 18.6748 13.0744 18.4534 13.0744C18.232 13.0744 18.0549 12.904 18.0549 12.691V11.5265H13.9422V12.691C13.9422 12.904 13.7651 13.0744 13.5436 13.0744C13.3222 13.0744 13.1451 12.904 13.1451 12.691V11.5265H11.8106L11.2818 17.636C11.2818 17.636 11.3086 18.0623 10.8487 18.0276C10.3876 17.9927 10.4926 17.5403 10.4926 17.5403L11.0518 11.1061C11.0696 10.9073 11.2408 10.7568 11.4475 10.7568H13.148C13.1716 9.26278 14.4412 8.05566 16 8.05566C17.5589 8.05566 18.8284 9.26278 18.852 10.7568H20.5526C20.7563 10.7568 20.9305 10.9073 20.9482 11.1061ZM18.0549 10.7568C18.0312 9.68598 17.119 8.82254 16 8.82254C14.8811 8.82254 13.9688 9.68598 13.9452 10.7568H18.0549Z" fill="url(#paint0_linear)"/>
<ellipse cx="21.7778" cy="19.6112" rx="5.05556" ry="5.05556" fill="url(#paint1_linear)"/>
<path d="M22.1704 19.9209H24.5844V20.7295H22.1704V23.2256H21.3559V20.7295H18.9536V19.9209H21.3559V17.4131H22.1704V19.9209Z" fill="white"/>
<defs>
<linearGradient id="paint0_linear" x1="7" y1="28.5" x2="28.6008" y2="4.14596" gradientUnits="userSpaceOnUse">
<stop stop-color="#CF38EF"/>
<stop offset="0.484375" stop-color="#FF6D2C"/>
<stop offset="1" stop-color="#FEBB0B"/>
</linearGradient>
<linearGradient id="paint1_linear" x1="12" y1="25" x2="27" y2="4" gradientUnits="userSpaceOnUse">
<stop stop-color="#CF38EF"/>
<stop offset="0.458333" stop-color="#FF6D2C"/>
<stop offset="1" stop-color="#FBBB00"/>
</linearGradient>
</defs>
</svg>
