<svg width="96" height="92" viewBox="0 0 96 92" fill="none" xmlns="http://www.w3.org/2000/svg">
<g clip-path="url(#clip0_1:4)">
<path d="M48.1152 92C47.4904 92 46.9286 91.7566 46.4287 91.3303C46.3665 91.2694 41.1199 86.1549 34.1873 78.7877C33.3129 77.8742 33.3753 76.4129 34.3122 75.5604C35.249 74.7082 36.748 74.7692 37.6224 75.6823C42.1816 80.4923 45.9917 84.3893 48.0526 86.4593C53.9236 80.5533 74.1596 60.0346 86.2138 42.8034C92.0847 34.4011 92.9591 24.9636 88.5247 16.8048C84.5898 9.49835 77.0327 4.5665 69.7878 4.5665C61.0437 4.5665 55.7349 9.92458 52.7996 14.4302C51.7375 16.0133 49.9887 16.9874 48.0526 16.9874C46.1165 16.9874 44.3677 16.0133 43.306 14.4302C40.3703 9.92458 35.0617 4.5665 26.3177 4.5665C19.0727 4.5665 11.5154 9.49835 7.58058 16.8048C3.14615 24.9636 4.02056 34.4011 9.8915 42.8034C13.3266 47.7353 17.7611 53.337 22.945 59.4255C23.7569 60.3999 23.632 61.8612 22.6327 62.6524C21.6334 63.444 20.1344 63.3224 19.3225 62.348C14.0137 56.1376 9.51675 50.4145 5.95672 45.3606C-0.913544 35.5579 -1.91286 24.3547 3.33352 14.6737C8.08024 5.90602 17.2614 0 26.2552 0C34.7494 0 42.1816 4.26209 47.1782 11.9947C47.4282 12.36 47.7404 12.4209 47.9904 12.4209C48.1778 12.4209 48.5522 12.36 48.8022 11.9947C52.3622 6.5149 58.8576 0 69.7252 0C78.6566 0 87.9003 5.90602 92.6469 14.6737C97.8935 24.3547 96.9566 35.5579 90.0238 45.3606C75.5962 65.9406 49.9265 91.0259 49.614 91.2694C49.3018 91.7566 48.7396 92 48.1152 92Z" fill="#CF38EF"/>
</g>
<defs>
<clipPath id="clip0_1:4">
<rect width="96" height="92" fill="white"/>
</clipPath>
</defs>
</svg>
