<svg width="24" height="24" viewBox="0 0 24 24" fill="none" xmlns="http://www.w3.org/2000/svg">
<path d="M16.0784 24H6.92074C6.52103 23.9987 6.13384 23.8594 5.82361 23.6054C5.51337 23.3514 5.29882 22.998 5.21564 22.604C5.18823 22.4508 5.22127 22.2929 5.30767 22.1639C5.39406 22.0349 5.52698 21.945 5.67817 21.9133C5.82937 21.8816 5.98684 21.9107 6.11709 21.9943C6.24733 22.0779 6.34004 22.2095 6.37548 22.3609C6.40185 22.4871 6.47044 22.6002 6.5697 22.6815C6.66896 22.7627 6.79286 22.8071 6.92074 22.8072H16.0784C16.2067 22.8084 16.3315 22.7644 16.4313 22.683C16.531 22.6016 16.5996 22.4877 16.6252 22.3609C16.9403 20.8363 17.525 18.7922 18.532 17.7218C18.7196 17.5217 18.926 17.3295 19.1277 17.1421C20.4262 15.9319 21.8997 14.5596 19.6509 9.45987C18.7274 7.36501 17.8922 5.33051 17.1847 3.46436C16.9309 7.54448 15.5882 9.44717 14.9374 10.1349C14.4897 10.5964 13.9551 10.9631 13.3649 11.2134C12.7746 11.4638 12.1407 11.5927 11.5003 11.5927C10.8599 11.5927 10.226 11.4638 9.63578 11.2134C9.04555 10.9631 8.51091 10.5964 8.06327 10.1349C7.41242 9.44399 6.06979 7.54131 5.81606 3.46436C5.20934 5.06528 4.39777 7.07437 3.34979 9.45987C1.0994 14.5596 2.57284 15.9319 3.87296 17.1421C4.0731 17.3295 4.28109 17.5217 4.46862 17.7218C4.56835 17.838 4.61987 17.9885 4.61236 18.1419C4.60485 18.2954 4.5389 18.44 4.4283 18.5457C4.3177 18.6514 4.17092 18.7101 4.01847 18.7096C3.86603 18.7091 3.71968 18.6494 3.6098 18.5429C3.45221 18.3713 3.26465 18.1998 3.06924 18.0188C1.63674 16.6831 -0.326811 14.855 2.26713 8.97546C3.98329 5.08115 5.04542 2.20648 5.63323 0.480091C5.68734 0.318177 5.79796 0.181559 5.94449 0.0956387C6.09102 0.00971818 6.26347 -0.0196392 6.42988 0.0129708C6.59629 0.0455808 6.74535 0.13796 6.84925 0.272956C6.95316 0.407952 7.00488 0.576351 6.99484 0.7469C6.91762 2.19535 6.82936 7.09182 8.92216 9.32327C9.25928 9.66709 9.66076 9.94007 10.1033 10.1264C10.5459 10.3127 11.0207 10.4086 11.5003 10.4086C11.9799 10.4086 12.4548 10.3127 12.8974 10.1264C13.34 9.94007 13.7414 9.66709 14.0786 9.32327C16.1714 7.09977 16.0831 2.20012 16.0059 0.7469C15.9958 0.576351 16.0476 0.407952 16.1515 0.272956C16.2554 0.13796 16.4044 0.0455808 16.5708 0.0129708C16.7372 -0.0196392 16.9097 0.00971818 17.0562 0.0956387C17.2028 0.181559 17.3133 0.318177 17.3674 0.480091C18.2121 2.9593 19.3752 5.89591 20.7336 8.97546C23.326 14.8519 21.3639 16.6831 19.9314 18.0188C19.736 18.1998 19.5517 18.3713 19.3909 18.5429C18.7606 19.2083 18.179 20.6901 17.7835 22.604C17.7006 22.9981 17.486 23.3517 17.1757 23.6057C16.8654 23.8598 16.4782 23.9989 16.0784 24Z" fill="#424242"/>
</svg>
