<svg width="15" height="15" viewBox="0 0 15 15" fill="none" xmlns="http://www.w3.org/2000/svg">
<path d="M14.1687 4.11131C13.1929 2.21131 11.5033 0.844641 9.45127 0.289085C7.5219 -0.233137 5.50331 0.027973 3.76911 1.01686C3.40666 1.22242 3.06651 1.45575 2.75424 1.71131C2.54792 1.87797 2.52004 2.17797 2.71521 2.35575C2.87134 2.5002 3.10554 2.50575 3.26725 2.37797C3.55164 2.14464 3.86391 1.92797 4.1929 1.73908C5.83231 0.800195 7.7561 0.600195 9.56837 1.18908C11.0182 1.66131 12.2728 2.62242 13.0925 3.9002C14.1186 5.49464 14.4141 7.4002 13.9178 9.21686C12.9587 12.7446 9.30071 14.8335 5.76539 13.878C2.2245 12.9224 0.127848 9.27797 1.08696 5.75575C1.23194 5.21131 1.44941 4.7002 1.71707 4.22242C1.80629 4.06131 2.01261 4.00575 2.17432 4.1002L5.58696 6.03909C5.78212 6.1502 5.83231 6.43353 5.65945 6.60575L3.73008 8.52242C3.63528 8.62242 3.47915 8.86131 3.42339 9.07242C3.24495 9.73908 3.64086 10.4113 4.31 10.5946C4.41595 10.6224 4.52748 10.6391 4.62785 10.6446L10.678 10.6558C11.2357 10.6613 11.7319 10.2946 11.8825 9.73353C12.0331 9.18353 11.7877 8.61131 11.3081 8.33353L8.03491 6.43908C7.7784 6.28908 7.45499 6.42797 7.38249 6.70575C7.33231 6.89464 7.42153 7.1002 7.58882 7.20575L10.862 9.10019C11.007 9.18353 11.0795 9.3502 11.0349 9.51131C10.9903 9.67242 10.8509 9.77797 10.678 9.77797L4.62785 9.76686C4.31 9.77242 4.15387 9.36686 4.37692 9.14464L6.28956 7.24464C6.44569 7.09464 6.55164 6.90575 6.61298 6.68353C6.76354 6.12242 6.50703 5.55575 6.03863 5.28353L2.40852 3.22242C1.97357 2.97242 1.42153 3.10575 1.15387 3.52797C0.730079 4.2002 0.412234 4.94464 0.217067 5.74464C-0.725313 9.63353 1.63342 13.6169 5.50331 14.678C6.16688 14.8613 6.83603 14.9502 7.50517 14.9502C8.79328 14.9502 10.0702 14.6169 11.2189 13.9558C13.0647 12.9002 14.3528 11.1558 14.81 9.06686C15.178 7.39464 14.9494 5.63353 14.1687 4.11131Z" fill="#424242"/>
</svg>
