<svg width="34" height="32" viewBox="0 0 34 32" fill="none" xmlns="http://www.w3.org/2000/svg">
<path d="M29.75 15.3334C29.7549 17.0932 29.318 18.8292 28.475 20.4C27.4754 22.2824 25.9388 23.8656 24.0372 24.9724C22.1356 26.0792 19.9442 26.6659 17.7083 26.6667C15.8385 26.6713 13.994 26.2601 12.325 25.4667L4.25 28L6.94167 20.4C6.09865 18.8292 5.66179 17.0932 5.66667 15.3334C5.66753 13.229 6.29087 11.1665 7.46685 9.37677C8.64284 7.58704 10.325 6.14079 12.325 5.20004C13.994 4.40661 15.8385 3.99545 17.7083 4.00004H18.4167C21.3695 4.15336 24.1585 5.32639 26.2496 7.29452C28.3408 9.26265 29.5871 11.8876 29.75 14.6667V15.3334Z" stroke="white" stroke-width="2" stroke-linecap="round" stroke-linejoin="round"/>
</svg>
