<svg viewBox="0 0 36 36" fill="none" xmlns="http://www.w3.org/2000/svg"><path d="M18.024 27a.537.537 0 01-.351-.138c-.013-.013-1.106-1.07-2.55-2.59a.464.464 0 01.025-.667.503.503 0 01.69.025c.95.993 1.744 1.798 2.173 2.226 1.223-1.22 5.439-5.458 7.95-9.016 1.223-1.735 1.405-3.684.482-5.37-.82-1.508-2.395-2.527-3.904-2.527-1.822 0-2.928 1.107-3.54 2.037a1.19 1.19 0 01-1.977 0c-.611-.93-1.717-2.037-3.54-2.037-1.508 0-3.083 1.019-3.903 2.527-.924 1.685-.741 3.635.482 5.37.715 1.018 1.64 2.175 2.72 3.433a.465.465 0 01-.066.666.505.505 0 01-.69-.063c-1.106-1.282-2.042-2.464-2.784-3.508-1.431-2.024-1.64-4.338-.547-6.338C9.684 9.22 11.596 8 13.47 8c1.77 0 3.318.88 4.359 2.477a.19.19 0 00.169.088.204.204 0 00.17-.088C18.907 9.345 20.261 8 22.525 8c1.86 0 3.787 1.22 4.775 3.03 1.093 2 .898 4.314-.546 6.338-3.006 4.25-8.354 9.43-8.419 9.481-.065.1-.182.151-.312.151z" fill="#CF38EF"/></svg>
