<svg width="36" height="36" viewBox="0 0 36 36" fill="none" xmlns="http://www.w3.org/2000/svg">
<path d="M22.9178 17.0614C23.2385 17.0614 23.495 17.1644 23.6874 17.3703C23.8958 17.5604 24 17.8139 24 18.1307C24 18.4317 23.8958 18.6772 23.6874 18.8673C23.495 19.0574 23.2385 19.1525 22.9178 19.1525H19.2144V22.7881C19.2144 23.1366 19.1022 23.4297 18.8778 23.6673C18.6533 23.8891 18.3567 24 17.988 24C17.6353 24 17.3387 23.8891 17.0982 23.6673C16.8737 23.4297 16.7615 23.1366 16.7615 22.7881V19.1525H13.0822C12.7776 19.1525 12.521 19.0495 12.3126 18.8436C12.1042 18.6376 12 18.3842 12 18.0832C12 17.7822 12.0962 17.5366 12.2886 17.3465C12.497 17.1564 12.7615 17.0614 13.0822 17.0614H16.7615V13.1881C16.7615 12.8396 16.8737 12.5545 17.0982 12.3327C17.3387 12.1109 17.6353 12 17.988 12C18.3567 12 18.6533 12.1109 18.8778 12.3327C19.1022 12.5545 19.2144 12.8396 19.2144 13.1881V17.0614H22.9178Z" fill="#CF38EF"/>
</svg>
