<svg width="24" height="24" viewBox="0 0 24 24" fill="none" xmlns="http://www.w3.org/2000/svg">
<path d="M12 2C6.47312 2 2 6.47254 2 12C2 17.5269 6.47254 22 12 22C17.5269 22 22 17.5275 22 12C22 6.47312 17.5275 2 12 2ZM12 20.6667C7.22121 20.6667 3.33332 16.7788 3.33332 12C3.33332 7.22117 7.22121 3.33332 12 3.33332C16.7788 3.33332 20.6667 7.22121 20.6667 12C20.6667 16.7788 16.7788 20.6667 12 20.6667Z" fill="#CF38EF"/>
<path d="M11.6957 14.6228C11.1275 14.6228 10.6675 15.0963 10.6675 15.6646C10.6675 16.2192 11.1139 16.7063 11.6957 16.7063C12.2774 16.7063 12.7374 16.2192 12.7374 15.6646C12.7374 15.0963 12.2639 14.6228 11.6957 14.6228Z" fill="#CF38EF"/>
<path d="M11.8714 6.73511C10.0449 6.73511 9.20605 7.8175 9.20605 8.54804C9.20605 9.07571 9.65258 9.31923 10.0178 9.31923C10.7484 9.31923 10.4508 8.27748 11.8308 8.27748C12.5073 8.27748 13.0485 8.57509 13.0485 9.19749C13.0485 9.92804 12.2908 10.3475 11.8444 10.7263C11.452 11.0645 10.9378 11.6192 10.9378 12.7828C10.9378 13.4863 11.1273 13.6893 11.6819 13.6893C12.3449 13.6893 12.4802 13.3916 12.4802 13.1346C12.4802 12.4311 12.4937 12.0252 13.2378 11.4434C13.6032 11.1593 14.7531 10.2393 14.7531 8.96752C14.7531 7.69576 13.6032 6.73511 11.8714 6.73511Z" fill="#CF38EF"/>
</svg>
