<svg width="15" height="15" viewBox="0 0 15 15" fill="none" xmlns="http://www.w3.org/2000/svg">
<path fill-rule="evenodd" clip-rule="evenodd" d="M1.03447 11.25L0 15L3.82758 13.9655C4.93966 14.5862 6.18103 15 7.47413 15C11.5862 15 15 11.5344 15 7.44826C15 3.36208 11.5862 0 7.47413 0C3.36208 0 0 3.36208 0 7.44826C0 8.79311 0.36208 10.0862 1.03447 11.25ZM4.26716 12.7499L4.0344 12.6206L1.8103 13.1896L2.40511 11.0172L2.24992 10.7844C1.62924 9.80163 1.29303 8.63785 1.29303 7.44819C1.29303 4.0344 4.06027 1.29303 7.47406 1.29303C10.8878 1.29303 13.7068 4.00853 13.7068 7.44819C13.7068 10.8878 10.8878 13.7068 7.49992 13.7068C6.33614 13.7068 5.22406 13.3447 4.26716 12.7499Z" fill="#424242"/>
<path d="M5.41363 3.77739L4.92782 3.75C4.77439 3.75 4.62099 3.80477 4.51872 3.91429C4.28859 4.13333 3.90506 4.54401 3.80278 5.09162C3.6238 5.91302 3.90506 6.89867 4.56987 7.88433C5.23468 8.86998 6.51315 10.458 8.76324 11.1425C9.47917 11.3615 10.0417 11.2246 10.502 10.9235C10.86 10.677 11.0901 10.2937 11.1668 9.88302L11.2435 9.4997C11.2691 9.39018 11.2179 9.25328 11.1156 9.19853L9.50475 8.40453C9.40247 8.34975 9.27462 8.37714 9.19792 8.48666L8.55869 9.3628C8.50753 9.41757 8.43083 9.44493 8.35413 9.41757C7.91945 9.25328 6.462 8.59617 5.66933 6.95342C5.64376 6.87129 5.64376 6.78913 5.69491 6.73438L6.30857 5.99515C6.35972 5.91302 6.38527 5.8035 6.35972 5.72134L5.61821 3.94168C5.59261 3.85952 5.51591 3.77739 5.41363 3.77739Z" fill="#424242"/>
</svg>
