<svg width="32" height="32" viewBox="0 0 32 32" fill="none" xmlns="http://www.w3.org/2000/svg">
<path d="M6.32674 25.6733C5.89109 25.2376 5.89109 24.5313 6.32674 24.0956L24.0956 6.32674C24.5313 5.89109 25.2376 5.89109 25.6733 6.32674C26.1089 6.76239 26.1089 7.46872 25.6733 7.90437L7.90437 25.6733C7.46872 26.1089 6.76239 26.1089 6.32674 25.6733Z" fill="white"/>
<path d="M6.32674 6.32674C6.76239 5.89109 7.46872 5.89109 7.90437 6.32674L25.6733 24.0956C26.1089 24.5313 26.1089 25.2376 25.6733 25.6733C25.2376 26.1089 24.5313 26.1089 24.0956 25.6733L6.32674 7.90437C5.89109 7.46872 5.89109 6.76239 6.32674 6.32674Z" fill="white"/>
</svg>
