<svg width="24" height="24" viewBox="0 0 24 24" fill="none" xmlns="http://www.w3.org/2000/svg">
<path d="M21.8056 7.02098C20.3717 4.22082 17.8889 2.20667 14.8736 1.38791C12.0385 0.61827 9.07237 1.00309 6.52408 2.46048C5.99149 2.76342 5.49166 3.1073 5.03281 3.48393C4.72963 3.72956 4.68867 4.17169 4.97545 4.43369C5.20488 4.64657 5.54902 4.65476 5.78664 4.46644C6.20452 4.12256 6.66338 3.80325 7.14682 3.52487C9.5558 2.14116 12.3827 1.84641 15.0457 2.7143C17.1761 3.41024 19.0197 4.8267 20.2242 6.70985C21.7318 9.05969 22.1661 11.868 21.4369 14.5454C20.0275 19.7445 14.6524 22.8231 9.45747 21.4148C4.25439 20.0065 1.17351 14.6355 2.58285 9.44451C2.79589 8.64213 3.11545 7.88887 3.50875 7.18473C3.63985 6.94729 3.94303 6.86541 4.18065 7.0046L9.19527 9.86208C9.48206 10.0258 9.5558 10.4434 9.30179 10.6972L6.46673 13.5219C6.32743 13.6693 6.098 14.0214 6.01607 14.3325C5.75386 15.315 6.33562 16.3057 7.31888 16.5759C7.47457 16.6169 7.63844 16.6414 7.78593 16.6496L16.6762 16.666C17.4956 16.6742 18.2249 16.1338 18.4461 15.3068C18.6673 14.4963 18.3068 13.6529 17.6021 13.2436L12.7924 10.4516C12.4154 10.2305 11.9402 10.4352 11.8337 10.8446C11.7599 11.123 11.891 11.4259 12.1369 11.5815L16.9466 14.3735C17.1597 14.4963 17.2662 14.7419 17.2006 14.9793C17.1351 15.2168 16.9302 15.3723 16.6762 15.3723L7.78593 15.356C7.31889 15.3642 7.08946 14.7665 7.41721 14.439L10.2277 11.6388C10.4571 11.4177 10.6128 11.1393 10.7029 10.8118C10.9242 9.98489 10.5473 9.14976 9.85897 8.74857L4.52479 5.71096C3.88567 5.34252 3.07448 5.53902 2.68118 6.16128C2.05845 7.15198 1.5914 8.24912 1.30461 9.42814C-0.0801435 15.1595 3.38585 21.03 9.07237 22.5938C10.0474 22.864 11.0307 22.995 12.014 22.995C13.9067 22.995 15.7831 22.5037 17.471 21.5294C20.1832 19.9738 22.076 17.4029 22.7479 14.3243C23.2887 11.8599 22.9527 9.26438 21.8056 7.02098Z" fill="#CF38EF"/>
</svg>
