<svg width="15" height="15" viewBox="0 0 15 15" fill="none" xmlns="http://www.w3.org/2000/svg">
<rect width="15" height="15" rx="7.5" fill="#737373"/>
<path d="M3.6307 11.3693C3.45643 11.195 3.45643 10.9125 3.6307 10.7383L10.7383 3.6307C10.9125 3.45644 11.195 3.45644 11.3693 3.6307C11.5436 3.80496 11.5436 4.0875 11.3693 4.26176L4.26175 11.3693C4.08749 11.5436 3.80496 11.5436 3.6307 11.3693Z" fill="white"/>
<path d="M3.79667 3.6307C3.97093 3.45643 4.25346 3.45643 4.42772 3.6307L11.3693 10.5723C11.5436 10.7465 11.5436 11.0291 11.3693 11.2033C11.195 11.3776 10.9125 11.3776 10.7382 11.2033L7.26746 7.73253L3.79667 4.26175C3.62241 4.08749 3.62241 3.80496 3.79667 3.6307Z" fill="white"/>
</svg>
