<svg width="149" height="144" viewBox="0 0 149 144" fill="none" xmlns="http://www.w3.org/2000/svg">
<path fill-rule="evenodd" clip-rule="evenodd" d="M6.88234 128.552L141.475 128.559C141.703 136.33 136.653 136.547 130.186 136.545H18.0029C11.4697 136.547 6.48194 136.308 6.88234 128.552ZM96.4774 60.3019L100.522 60.3489L101.797 70.2016L98.3931 72.2652L94.8251 70.063L96.4774 60.3019V60.3019ZM47.7515 60.2901L51.7713 60.3655L53.2163 70.0307L49.6963 72.2869L46.0968 70.0889L47.7515 60.2901V60.2901ZM57.9458 39.0105C57.4442 32.672 57.959 27.4102 61.255 23.057C67.8721 14.3174 80.3378 14.3363 86.9323 23.0591C90.2259 27.4156 90.7456 32.6616 90.19 39.0936L57.9458 39.0105ZM48.2141 53.6867C47.9682 47.6611 48.1744 41.252 48.1687 35.1827C48.1632 29.1992 48.9456 24.7708 51.5618 20.076C55.2958 13.3752 63.7319 6.51887 74.4574 6.68727C85.1042 6.85447 93.3623 13.7873 96.9913 20.7479C99.4859 25.5327 100.081 29.9923 100.077 35.8882C100.074 41.1301 100.521 48.6902 99.9973 53.7117L96.9012 53.6468C96.0978 43.5821 98.7124 30.7716 94.6318 22.4148C86.3894 5.53547 61.4142 5.70588 53.4357 22.6579C49.7067 30.5809 51.6269 43.7845 51.2462 53.6527L48.2141 53.6867V53.6867ZM41.5646 48.6006C41.6424 56.932 40.6767 61.5567 39.3943 69.3407C38.5894 74.2259 40.1995 74.3335 43.2053 76.3045C50.4971 81.0862 49.0338 81.2978 58.1872 75.0336C61.5375 72.7407 60.2691 70.9842 59.6062 66.5669C58.0091 55.925 57.4457 57.7941 57.9549 45.6866L90.2865 45.7826C90.5947 57.5312 90.3254 56.0806 88.5373 66.9342C87.8043 71.3833 86.7233 72.8847 90.2086 75.1804C99.0529 81.0061 97.3451 81.3617 105.21 76.181C108.412 74.0721 109.517 74.053 108.742 69.0208C108.211 65.5752 107.763 62.7928 107.113 59.4179C106.434 55.8962 106.593 52.3498 106.623 48.5993C110.881 48.4097 120.531 55.3162 124.106 58.1944C128.36 61.6196 133.01 67.5808 135.994 73.4855C139.072 79.5746 141.3 87.0864 141.459 95.1498L141.387 121.939L6.78834 121.856C6.61654 119.913 6.90934 118.772 5.63464 117.755C4.54124 116.882 2.82664 116.717 1.51564 117.481C-0.706862 118.776 0.171036 123.51 0.170836 126.199C0.170536 133.79 0.603236 137.498 5.69144 140.99C10.3116 144.16 17.6917 143.207 24.3528 143.207H127.011C134.875 143.207 139.653 144.048 144.238 139.54C148.779 135.075 148.018 130.511 148.018 123.024C148.018 110.739 149.067 94.1435 146.695 83.2052C145.541 77.8825 143.458 72.5597 140.973 68.145C133.123 54.2002 122.28 46.4008 106.674 41.0533C106.215 34.34 107.124 30.059 105.457 23.6092C99.0496 -1.17312 65.3847 -8.59533 48.9127 11.7653C40.0988 22.66 42.2943 29.64 41.5151 41.0547C34.0102 43.785 29.9815 45.2736 24.0997 49.4014C18.4381 53.3748 14.8302 57.1465 11.0962 62.1284C2.82824 73.1594 -0.340662 85.3396 0.152938 102.236C0.285638 106.78 6.37874 106.911 6.71154 102.936C7.04974 98.8962 6.58654 94.857 7.05954 90.6368C8.54824 77.3529 15.167 65.5071 25.0506 57.4029C28.1724 54.8432 37.5463 48.4004 41.5646 48.6006V48.6006Z" fill="#424242"/>
</svg>
