<?xml version="1.0" standalone="no"?>
<!DOCTYPE svg PUBLIC "-//W3C//DTD SVG 20010904//EN"
 "http://www.w3.org/TR/2001/REC-SVG-20010904/DTD/svg10.dtd">
<svg version="1.0" xmlns="http://www.w3.org/2000/svg"
 width="938.000000pt" height="936.000000pt" viewBox="0 0 938.000000 936.000000"
 preserveAspectRatio="xMidYMid meet">
<metadata>
Created by potrace 1.16, written by Peter Selinger 2001-2019
</metadata>
<g transform="translate(0.000000,936.000000) scale(0.100000,-0.100000)"
fill="#cf38ef" stroke="none">
<path d="M1845 9324 c-11 -3 -29 -9 -40 -14 -11 -5 -37 -16 -57 -24 -21 -8
-45 -21 -53 -28 -32 -26 -135 -126 -135 -130 0 -3 -22 -43 -50 -89 -27 -46
-50 -89 -50 -96 0 -6 -7 -18 -15 -27 -9 -8 -22 -31 -30 -50 -8 -19 -18 -37
-23 -40 -5 -3 -14 -23 -22 -45 -7 -23 -17 -41 -22 -41 -4 0 -8 -4 -8 -10 0 -9
-25 -68 -75 -175 -25 -54 -75 -186 -75 -198 0 -7 -7 -25 -15 -41 -8 -16 -22
-54 -31 -85 -8 -31 -19 -65 -24 -76 -17 -40 -60 -191 -72 -250 -6 -33 -14 -62
-18 -65 -4 -3 -13 -36 -19 -75 -7 -38 -17 -79 -21 -90 -11 -24 -40 -189 -40
-227 0 -14 -4 -28 -8 -30 -5 -1 -16 -61 -25 -133 -9 -71 -21 -157 -26 -190
-13 -81 -31 -325 -31 -412 0 -40 -4 -75 -10 -78 -6 -4 -10 -131 -10 -348 0
-188 -5 -371 -11 -406 -11 -70 -86 -238 -116 -260 -5 -3 -26 -33 -48 -66 -22
-33 -43 -64 -48 -70 -4 -5 -22 -32 -39 -60 -17 -27 -38 -61 -48 -75 -9 -14
-23 -40 -31 -57 -7 -18 -17 -33 -21 -33 -3 0 -12 -16 -18 -35 -6 -19 -16 -35
-21 -35 -5 0 -9 -5 -9 -10 0 -6 -24 -61 -54 -123 -30 -62 -58 -124 -61 -139
-4 -16 -11 -28 -15 -28 -4 0 -13 -21 -20 -47 -8 -27 -19 -57 -25 -68 -7 -11
-18 -42 -25 -70 -7 -27 -16 -54 -20 -60 -4 -5 -16 -46 -26 -90 -10 -44 -21
-82 -25 -85 -4 -3 -12 -41 -19 -85 -7 -44 -15 -84 -20 -90 -8 -11 -25 -138
-42 -310 -11 -119 -14 -463 -4 -560 4 -33 14 -130 22 -215 9 -85 19 -159 23
-165 4 -5 13 -48 20 -94 7 -46 16 -91 21 -100 5 -9 16 -54 25 -99 9 -46 20
-91 24 -100 8 -16 28 -83 67 -222 9 -30 20 -59 24 -65 4 -5 16 -37 25 -70 10
-33 21 -64 25 -70 10 -15 30 -122 30 -167 0 -21 4 -46 9 -56 5 -9 17 -160 26
-334 19 -363 22 -376 94 -409 45 -20 119 -25 149 -10 9 5 28 14 42 20 14 7 36
28 50 49 22 34 24 49 28 171 3 73 7 129 11 125 6 -10 58 -53 110 -94 18 -14
43 -35 58 -47 14 -12 34 -25 44 -28 11 -4 19 -10 19 -13 0 -4 17 -16 38 -27
20 -11 43 -25 50 -32 18 -17 272 -140 307 -149 17 -3 48 -15 70 -24 22 -10 69
-24 105 -30 36 -7 70 -16 75 -20 6 -4 51 -13 100 -19 50 -6 108 -14 130 -17
66 -11 516 -15 529 -6 6 5 64 15 129 22 64 7 117 17 117 22 0 4 11 8 24 8 32
0 165 28 191 39 11 6 43 16 70 25 85 25 170 58 175 66 3 5 19 12 35 16 31 7
135 59 145 72 3 4 24 16 48 26 23 11 42 23 42 28 0 4 5 8 11 8 11 0 122 75
174 117 150 123 289 263 354 357 8 12 18 23 22 26 7 5 56 74 106 150 13 19 31
46 41 59 25 35 163 171 173 171 4 0 16 8 26 19 10 10 35 24 56 30 20 7 37 16
37 20 0 4 24 13 53 20 28 8 57 17 63 22 6 5 53 13 106 20 108 12 243 1 293
-25 17 -9 36 -16 43 -16 43 0 216 -131 272 -205 19 -26 43 -54 53 -63 9 -9 17
-21 17 -27 0 -6 13 -26 30 -45 16 -19 29 -38 30 -43 0 -7 20 -31 58 -71 12
-13 22 -27 22 -33 0 -5 18 -25 40 -46 22 -20 40 -40 40 -45 0 -19 279 -277
320 -296 11 -5 20 -13 20 -17 0 -5 14 -16 32 -25 17 -9 40 -25 51 -35 12 -10
27 -19 34 -19 7 0 13 -4 13 -8 0 -4 19 -18 43 -30 23 -13 69 -37 103 -55 87
-46 180 -87 197 -87 9 0 18 -4 21 -9 3 -5 36 -17 73 -27 38 -9 73 -21 79 -25
5 -5 55 -16 110 -26 54 -9 101 -20 104 -24 3 -4 70 -13 150 -19 80 -6 159 -15
176 -21 42 -12 411 -12 419 1 3 5 26 10 51 10 56 0 182 18 209 30 11 5 56 16
100 25 44 10 82 20 85 24 3 4 25 13 50 20 51 15 304 137 323 156 7 7 28 20 47
30 33 17 45 25 79 55 9 8 35 27 56 42 35 24 67 50 128 103 17 15 18 11 12 -97
-17 -305 -65 -865 -76 -883 -4 -5 -9 -26 -13 -46 -3 -20 -18 -47 -32 -60 l-26
-24 -3737 0 -3738 0 -56 55 c-31 30 -57 60 -57 65 -1 15 -42 59 -75 80 -36 23
-156 28 -162 8 -3 -7 -11 -13 -19 -13 -7 0 -26 -18 -40 -40 -24 -36 -26 -47
-22 -115 2 -42 8 -79 14 -83 6 -4 17 -18 24 -32 25 -48 73 -120 82 -120 4 0 8
-6 8 -13 0 -23 142 -148 199 -175 l56 -27 3791 0 c2846 0 3794 3 3805 12 8 6
34 16 58 23 24 6 58 21 75 33 48 33 126 110 126 124 0 6 6 16 13 20 34 20 87
178 87 258 0 19 4 36 8 39 5 3 14 124 21 268 7 145 16 272 21 283 5 11 16 185
26 387 10 203 22 368 26 368 4 0 8 32 8 71 0 78 18 208 30 224 5 6 16 39 24
75 9 36 21 74 26 85 13 30 49 142 67 210 9 33 19 62 23 65 4 3 15 39 25 80 10
41 21 80 25 85 4 6 13 44 20 85 7 41 17 82 21 90 4 9 15 81 24 160 9 80 21
153 26 162 11 21 12 678 1 678 -4 0 -16 75 -26 167 -9 92 -21 172 -25 178 -5
5 -14 46 -21 90 -6 44 -15 85 -20 90 -4 6 -13 39 -19 75 -7 36 -19 79 -26 95
-7 17 -20 53 -28 80 -24 77 -61 179 -68 185 -3 3 -10 16 -13 30 -11 37 -156
329 -167 335 -5 4 -16 22 -24 40 -7 19 -19 40 -24 47 -18 21 -81 117 -81 123
0 3 -9 15 -20 28 -41 45 -50 57 -50 63 0 4 -12 21 -27 40 -16 18 -37 45 -48
60 -11 14 -27 34 -36 44 -34 36 -37 85 -42 550 -2 303 -8 472 -15 485 -5 11
-16 97 -22 190 -6 94 -16 193 -21 220 -5 28 -16 102 -24 165 -9 63 -19 122
-22 130 -4 8 -17 69 -29 135 -29 156 -53 265 -64 290 -5 11 -17 56 -26 100 -9
44 -20 85 -24 90 -4 6 -13 35 -20 65 -7 30 -16 57 -20 60 -4 3 -15 38 -25 78
-9 39 -21 72 -25 72 -4 0 -11 17 -15 38 -4 20 -17 60 -30 87 -13 28 -27 62
-30 78 -4 15 -11 27 -15 27 -4 0 -11 12 -15 28 -3 15 -20 55 -36 90 -16 34
-29 67 -29 72 0 6 -4 10 -9 10 -5 0 -17 23 -27 50 -10 28 -21 50 -25 50 -4 0
-13 16 -19 35 -6 19 -15 35 -20 35 -4 0 -15 17 -24 38 -21 46 -56 105 -79 130
-9 10 -17 22 -17 27 0 12 -93 104 -106 105 -6 0 -19 9 -28 19 -10 11 -30 22
-44 26 -15 4 -43 14 -62 23 -41 20 -256 25 -268 6 -4 -6 -20 -14 -37 -18 -35
-9 -118 -60 -154 -96 -59 -57 -104 -140 -136 -249 l-25 -85 0 -1645 c0 -958
-4 -1670 -9 -1702 -6 -36 -18 -66 -33 -81 -13 -14 -41 -46 -63 -73 -22 -27
-54 -65 -71 -84 -17 -20 -39 -46 -50 -59 -10 -13 -30 -36 -44 -51 -14 -15 -45
-51 -70 -80 -25 -29 -66 -76 -92 -104 -26 -29 -48 -55 -48 -58 0 -3 -21 -28
-47 -56 -27 -27 -82 -85 -124 -129 -66 -69 -194 -188 -221 -205 -10 -6 -60
-46 -87 -69 -10 -8 -24 -19 -33 -25 -8 -5 -41 -28 -74 -50 -75 -51 -82 -55
-135 -84 -24 -13 -46 -27 -49 -31 -3 -4 -26 -15 -52 -25 -27 -10 -48 -21 -48
-25 0 -4 -20 -13 -45 -19 -25 -6 -45 -15 -45 -20 0 -4 -29 -16 -65 -26 -36 -9
-67 -21 -70 -25 -2 -4 -32 -13 -65 -20 -33 -7 -60 -16 -60 -20 0 -4 -51 -15
-112 -24 -62 -10 -124 -23 -137 -29 -36 -18 -643 -17 -649 1 -2 6 -16 12 -30
12 -38 0 -206 31 -212 40 -3 4 -33 13 -67 20 -35 7 -63 16 -63 19 0 4 -29 15
-65 26 -36 10 -65 21 -65 25 0 4 -20 13 -45 20 -25 7 -45 16 -45 20 0 4 -21
15 -47 25 -27 10 -50 21 -53 25 -3 4 -23 17 -45 29 -22 12 -52 29 -66 39 -14
9 -41 27 -60 39 -50 32 -74 51 -157 118 -41 33 -83 66 -93 74 -26 18 -258 251
-267 267 -4 6 -28 36 -54 66 -27 29 -63 71 -82 93 -19 22 -48 54 -63 72 -15
17 -37 42 -47 55 -11 13 -47 54 -80 93 -34 38 -68 77 -76 87 -8 10 -34 38 -57
62 -24 24 -43 47 -43 51 0 4 -10 21 -22 38 l-23 32 -5 1710 -5 1710 -28 75
c-15 41 -31 77 -35 80 -4 3 -14 18 -22 35 -36 72 -194 195 -250 195 -10 0 -20
5 -22 11 -4 11 -187 22 -223 13z m165 -439 c72 -53 79 -116 24 -221 -20 -38
-40 -71 -43 -74 -4 -3 -33 -59 -65 -125 -55 -114 -67 -140 -114 -245 -11 -25
-26 -65 -32 -90 -7 -25 -16 -49 -20 -55 -4 -5 -14 -30 -21 -55 -7 -25 -16 -49
-20 -55 -3 -5 -15 -46 -25 -90 -10 -44 -21 -82 -25 -85 -4 -3 -13 -34 -19 -70
-7 -36 -16 -70 -21 -75 -4 -6 -15 -55 -24 -110 -9 -55 -20 -109 -25 -120 -5
-11 -14 -63 -20 -115 -7 -52 -16 -110 -22 -127 -9 -30 -37 -285 -58 -517 -4
-55 -12 -209 -16 -343 l-7 -243 -123 0 -124 0 0 24 c0 14 5 28 10 31 6 4 10
59 10 132 0 183 21 566 31 577 5 6 9 27 9 48 0 55 30 340 37 358 4 8 15 62 24
120 25 150 58 312 69 335 5 11 15 49 21 85 7 36 15 70 19 75 4 6 15 39 24 75
9 36 23 79 30 95 8 17 20 56 27 88 7 31 16 57 20 57 4 0 13 23 20 50 7 28 16
50 19 50 4 0 15 28 25 63 11 34 22 64 25 67 7 6 80 157 80 165 0 3 5 11 10 18
11 13 75 131 111 205 26 55 94 122 123 122 12 0 38 -11 56 -25z m5503 0 c20
-14 37 -30 37 -35 0 -5 6 -15 13 -22 19 -20 65 -101 124 -218 29 -58 57 -110
62 -116 5 -6 17 -36 27 -68 10 -31 21 -56 26 -56 4 0 8 -7 8 -15 0 -8 11 -38
24 -67 13 -29 27 -66 30 -83 4 -16 13 -43 21 -60 12 -29 52 -156 94 -300 11
-38 25 -99 32 -135 7 -36 15 -69 19 -75 5 -5 14 -46 20 -90 7 -44 16 -84 20
-90 4 -5 15 -68 25 -140 9 -71 20 -137 25 -146 4 -8 14 -83 21 -165 7 -82 16
-151 20 -154 10 -7 29 -399 29 -602 l0 -178 -117 0 -118 0 -2 267 c-2 162 -7
271 -13 277 -5 5 -10 36 -10 69 0 90 -30 420 -40 442 -5 11 -14 67 -21 125 -6
58 -17 123 -24 145 -7 22 -19 77 -26 123 -7 45 -15 82 -19 82 -3 0 -14 43 -25
95 -10 52 -21 95 -25 95 -3 0 -12 29 -19 65 -7 36 -16 65 -20 65 -4 0 -13 23
-19 50 -7 28 -21 71 -32 95 -11 24 -20 50 -20 57 0 8 -6 22 -14 33 -7 11 -19
38 -26 60 -7 21 -23 60 -35 85 -12 25 -35 72 -51 105 -15 33 -31 62 -34 65 -3
3 -12 21 -20 40 -7 19 -19 42 -25 50 -6 8 -18 31 -25 50 -8 19 -17 37 -21 40
-12 9 -39 100 -39 133 1 42 18 71 60 102 42 31 56 31 103 0z m-5445 -2585 l-3
-499 -21 12 c-12 7 -41 23 -65 36 -24 13 -46 27 -49 31 -3 4 -24 17 -46 28
-25 13 -44 31 -48 44 -15 57 5 772 23 813 5 11 15 85 21 165 7 80 15 147 19
150 4 3 15 67 25 143 10 75 22 137 25 137 4 0 13 37 21 83 7 45 16 87 20 92 5
6 16 49 26 98 10 48 21 87 25 87 4 0 11 19 16 43 9 48 15 -686 11 -1463z
m5319 1378 c6 -7 16 -42 23 -78 7 -36 16 -67 20 -70 4 -3 15 -52 24 -110 10
-58 22 -109 26 -115 4 -5 13 -57 20 -115 8 -58 17 -107 20 -110 8 -5 40 -329
40 -401 0 -25 5 -50 10 -55 6 -6 13 -139 17 -335 l6 -324 -27 -32 c-15 -18
-34 -33 -41 -33 -8 0 -20 -6 -27 -13 -7 -7 -29 -21 -48 -30 -19 -10 -50 -27
-67 -38 l-33 -21 0 946 c0 797 2 946 14 946 7 0 18 -6 23 -12z m-5794 -2077
c35 -17 68 -31 74 -31 6 0 13 -4 15 -9 2 -4 23 -18 48 -30 25 -12 54 -27 65
-34 40 -25 110 -72 121 -82 7 -5 29 -23 50 -40 50 -40 176 -166 299 -299 55
-60 109 -119 120 -131 11 -11 32 -37 47 -56 14 -19 40 -50 57 -69 17 -19 40
-46 51 -60 11 -14 30 -37 43 -52 12 -14 31 -37 41 -50 101 -121 235 -260 349
-360 39 -34 77 -67 83 -73 6 -5 26 -21 43 -35 18 -14 40 -32 50 -40 9 -8 44
-33 77 -55 32 -22 61 -42 64 -46 3 -3 21 -14 40 -25 19 -10 43 -27 54 -36 11
-10 26 -18 33 -18 7 0 13 -4 13 -8 0 -5 19 -17 43 -28 23 -10 44 -21 47 -25 8
-9 157 -79 169 -79 6 0 11 -4 11 -8 0 -5 19 -15 43 -22 23 -8 51 -19 62 -26
11 -6 38 -17 60 -24 22 -6 54 -18 70 -25 17 -7 56 -19 88 -26 31 -7 57 -16 57
-21 0 -4 7 -8 15 -8 7 0 37 -5 66 -11 l51 -11 -7 -131 c-4 -72 -11 -138 -15
-146 -5 -9 -16 -78 -25 -153 -10 -76 -21 -138 -24 -138 -4 0 -13 -33 -20 -72
-7 -40 -19 -84 -26 -98 -7 -14 -18 -47 -24 -75 -7 -27 -16 -54 -21 -60 -4 -5
-16 -36 -25 -67 -9 -32 -20 -58 -24 -58 -5 0 -14 -20 -21 -45 -7 -25 -17 -45
-21 -45 -5 0 -9 -5 -9 -11 0 -10 -55 -113 -93 -174 -26 -42 -74 -113 -85 -126
-7 -8 -27 -33 -45 -56 -89 -116 -193 -221 -289 -293 -11 -8 -28 -22 -37 -30
-9 -8 -30 -24 -46 -34 -16 -11 -34 -23 -40 -28 -18 -15 -79 -52 -110 -68 -16
-8 -32 -17 -35 -20 -3 -3 -41 -23 -85 -44 -44 -21 -91 -43 -105 -50 -14 -7
-38 -16 -55 -20 -16 -4 -48 -16 -71 -26 -23 -11 -60 -22 -83 -26 -22 -4 -41
-10 -41 -14 0 -4 -49 -16 -110 -26 -60 -10 -110 -22 -110 -26 0 -4 -88 -8
-195 -8 -123 0 -195 4 -195 10 0 6 -67 10 -181 10 -175 0 -319 18 -319 40 0 4
-22 14 -50 21 -27 7 -50 16 -50 20 0 4 -12 10 -27 13 -29 7 -154 66 -163 77
-3 3 -21 14 -40 24 -19 10 -37 21 -40 25 -3 4 -20 15 -37 24 -18 9 -33 20 -33
25 0 4 -11 13 -24 19 -26 12 -43 26 -128 110 -76 75 -138 142 -138 149 0 3
-13 22 -30 43 -16 21 -30 41 -30 45 0 3 -11 21 -25 39 -14 18 -25 38 -25 44 0
6 -6 17 -12 24 -16 16 -88 162 -88 177 0 6 -4 11 -8 11 -4 0 -16 28 -26 63
-10 34 -22 67 -26 72 -4 6 -13 35 -20 65 -7 30 -16 60 -21 65 -4 6 -15 51 -24
100 -9 50 -20 99 -25 110 -5 11 -14 58 -20 105 -6 47 -16 114 -22 150 -5 36
-14 99 -18 140 -11 98 -11 544 0 640 13 118 49 333 58 350 5 8 17 54 27 103
10 48 21 87 25 87 4 0 11 17 15 38 4 20 15 55 25 77 10 23 22 54 26 70 4 17
13 41 20 55 7 14 40 81 74 150 74 152 101 201 116 217 6 6 17 25 24 42 7 17
16 31 20 31 4 0 13 14 20 30 7 17 15 30 19 30 4 0 15 15 26 33 10 17 21 34 25
37 11 8 120 168 120 176 0 9 107 114 116 114 4 0 15 6 23 14 32 29 113 46 198
42 66 -3 94 -10 146 -35z m6475 17 c26 -6 53 -18 60 -25 7 -7 20 -13 28 -13
16 0 164 -141 164 -156 0 -5 20 -31 45 -59 25 -27 45 -52 45 -55 0 -3 11 -18
25 -35 38 -47 52 -66 87 -120 50 -77 56 -87 75 -125 9 -19 20 -37 23 -40 13
-11 120 -245 120 -263 0 -7 6 -21 14 -32 8 -11 20 -40 27 -65 7 -25 16 -47 19
-50 3 -3 15 -36 25 -75 10 -38 22 -77 27 -85 11 -21 46 -175 66 -295 9 -55 20
-105 24 -111 4 -6 13 -102 20 -212 9 -161 9 -243 -1 -409 -7 -114 -15 -212
-19 -218 -4 -5 -14 -55 -23 -110 -20 -122 -56 -285 -68 -305 -4 -8 -16 -51
-27 -95 -10 -44 -21 -82 -25 -85 -3 -3 -12 -23 -18 -45 -7 -22 -21 -58 -30
-80 -10 -22 -21 -53 -25 -70 -4 -16 -11 -32 -14 -35 -4 -3 -23 -36 -42 -75
-19 -38 -42 -81 -50 -95 -39 -60 -86 -127 -102 -144 -10 -11 -18 -23 -18 -27
0 -24 -272 -269 -299 -269 -5 0 -14 -6 -18 -12 -14 -22 -237 -138 -265 -138
-10 0 -18 -4 -18 -8 0 -5 -24 -14 -52 -21 -29 -8 -58 -17 -64 -22 -12 -9 -173
-39 -213 -39 -15 0 -33 -6 -39 -13 -18 -17 -587 -17 -623 -1 -13 7 -70 20
-126 30 -57 9 -103 20 -103 24 0 4 -26 13 -57 20 -32 7 -67 18 -78 25 -11 7
-42 18 -70 25 -27 8 -52 16 -55 20 -8 9 -155 80 -167 80 -6 0 -13 3 -15 8 -1
4 -32 25 -68 47 -36 21 -71 45 -78 52 -8 7 -23 18 -34 24 -21 11 -21 11 -116
90 -118 97 -253 250 -339 384 -18 27 -37 57 -43 65 -45 66 -170 327 -170 355
0 8 -4 15 -8 15 -5 0 -17 34 -27 75 -11 41 -22 75 -26 75 -3 0 -14 39 -24 88
-9 48 -21 94 -25 102 -4 8 -14 58 -21 110 -7 52 -16 97 -20 100 -6 5 -29 252
-29 316 0 29 3 31 58 44 31 7 62 16 67 20 6 4 35 13 65 20 30 7 74 21 97 31
23 11 48 19 55 19 7 0 29 9 49 19 19 11 54 25 77 32 23 7 42 16 42 21 0 4 5 8
12 8 12 0 160 71 168 81 3 3 23 14 45 25 22 10 46 24 53 31 7 7 17 13 22 13 5
0 15 6 22 13 7 7 30 21 50 30 20 9 38 21 40 25 2 4 30 25 62 47 65 44 84 58
120 93 13 12 27 22 32 22 5 0 26 18 47 40 20 22 40 40 44 40 9 0 253 243 253
251 0 4 19 27 43 52 23 24 60 66 82 92 22 26 49 57 61 70 11 12 38 44 60 71
21 26 48 57 59 69 11 12 45 50 75 84 123 140 170 191 283 303 65 65 122 118
127 118 5 0 16 8 26 18 10 9 40 31 68 49 28 18 56 36 61 40 6 5 26 15 45 23
19 7 42 19 50 25 26 20 104 63 125 68 39 9 167 7 213 -5z m-3248 -2032 c0 -14
4 -27 8 -30 5 -3 15 -51 22 -108 7 -57 16 -105 19 -108 4 -3 15 -66 25 -140
10 -74 22 -139 26 -145 4 -5 13 -56 20 -112 7 -57 17 -103 22 -103 4 0 8 -12
8 -26 0 -20 -4 -25 -17 -20 -9 4 -43 9 -75 13 -32 3 -58 10 -58 14 0 12 -217
12 -224 0 -3 -4 -30 -11 -60 -15 -30 -3 -61 -9 -70 -12 -18 -7 -23 24 -7 42 4
5 16 70 26 144 10 74 21 137 25 140 4 3 14 52 23 110 9 58 26 167 39 243 l22
137 113 0 113 0 0 -24z"/>
</g>
</svg>
