<svg width="22" height="39" viewBox="0 0 22 39" fill="none" xmlns="http://www.w3.org/2000/svg">
<path fill-rule="evenodd" clip-rule="evenodd" d="M14.8954 1.93078C14.8488 1.94326 14.7979 1.97014 14.7473 2.04569L2.41815 20.4587C2.41763 20.4594 2.41717 20.4601 2.41676 20.4608C2.41999 20.467 2.4261 20.4747 2.43572 20.4811C2.44349 20.4862 2.45953 20.4947 2.49106 20.4969L9.72885 20.9927L8.23173 28.8977C8.13297 29.4192 7.63339 29.7613 7.11591 29.6618C6.59842 29.5622 6.25898 29.0588 6.35775 28.5372L7.45117 22.7638L2.36168 22.4152C0.914491 22.316 -0.0414205 20.6947 0.836723 19.3832L13.1659 0.970205C13.8206 -0.00764938 14.9426 -0.170858 15.7816 0.147519C16.6256 0.467792 17.3674 1.35389 17.1424 2.54158L14.5488 16.2362L19.6383 16.5848C21.0855 16.684 22.0414 18.3054 21.1633 19.6168L8.83414 38.0298C8.17938 39.0076 7.05737 39.1709 6.2184 38.8525C5.37442 38.5322 4.63265 37.6461 4.85758 36.4584L5.59017 32.5902C5.68894 32.0687 6.18851 31.7266 6.706 31.8262C7.22348 31.9257 7.56292 32.4292 7.46415 32.9507L6.73156 36.8189C6.71697 36.8959 6.73347 36.9276 6.74549 36.9466C6.76523 36.9778 6.81141 37.023 6.89069 37.0531C6.96954 37.083 7.04713 37.0847 7.10464 37.0692C7.15119 37.0567 7.20213 37.0299 7.25272 36.9543L19.5819 18.5413C19.5824 18.5406 19.5828 18.5399 19.5832 18.5392C19.58 18.533 19.5739 18.5253 19.5643 18.5189C19.5565 18.5138 19.5405 18.5053 19.5089 18.5031L12.2712 18.0073L15.2684 2.18112C15.283 2.10406 15.2665 2.0724 15.2545 2.05342C15.2348 2.02223 15.1886 1.97696 15.1093 1.94687C15.0305 1.91695 14.9529 1.91535 14.8954 1.93078Z" fill="#CF38EF"/>
</svg>
