<svg width="88" height="112" viewBox="0 0 88 112" fill="none" xmlns="http://www.w3.org/2000/svg">
<path fill-rule="evenodd" clip-rule="evenodd" d="M81.6822 23.6527L87.9775 97.3988C88 97.4869 88 97.5749 88 97.663C88 105.569 80.603 112 71.4972 112H16.5028C7.39703 112 0 105.569 0 97.663C0 97.619 0.00562098 97.575 0.011242 97.5309C0.0168629 97.4869 0.0224839 97.4428 0.0224839 97.3988C0.0224839 97.3988 0.140198 95.6048 2.98193 95.6048C5.36747 95.6048 6.07052 97.7952 6.07052 97.7952C6.16045 102.354 10.792 106.054 16.5028 106.054H71.4972C77.1855 106.054 81.8395 102.354 81.9295 97.7952L75.8814 26.9121H65.719V35.9415C65.719 37.5932 64.37 38.9146 62.6837 38.9146C60.9974 38.9146 59.6484 37.5932 59.6484 35.9415V26.9121H28.3291V35.9415C28.3291 37.5932 26.9801 38.9146 25.2938 38.9146C23.6076 38.9146 22.2586 37.5932 22.2586 35.9415V26.9121H12.0961L8.0691 74.2843C8.0691 74.2843 8.27317 77.5896 4.77108 77.3205C1.25904 77.0506 2.05901 73.5422 2.05901 73.5422L6.31783 23.6527C6.45273 22.1111 7.75677 20.9438 9.33061 20.9438H22.281C22.4609 9.35976 32.1288 0 44 0C55.8712 0 65.5391 9.35976 65.719 20.9438H78.6694C80.2208 20.9438 81.5473 22.1111 81.6822 23.6527ZM59.6484 20.9438C59.4686 12.6412 52.5212 5.9462 44 5.9462C35.4788 5.9462 28.5314 12.6412 28.3516 20.9438H59.6484Z" fill="#424242"/>
</svg>
