<svg xmlns="http://www.w3.org/2000/svg" viewBox="0 0 83.44 151.25"><defs><style>.cls-1{fill:#ce38ee;}</style></defs><title>macacaoicon</title><g id="Camada_2" data-name="Camada 2"><g id="Camada_1-2" data-name="Camada 1"><path class="cls-1" d="M41.81,125.28c-2.53,6.26-5,11.9-7.07,17.65-2,5.49-5.67,8.3-11.49,8.31-4,0-8,0-12,0A10.87,10.87,0,0,1,.17,141.13c-.26-2.43,1-4.33,3.05-4.68s3.91.92,4.48,3.32c.8,3.38,1.39,3.84,4.92,3.85s7,0,10.56,0c2.21,0,3.41-1,4.23-3.08,3-7.67,6.09-15.28,9.22-22.88a5.2,5.2,0,0,1,5.07-3.38,5.21,5.21,0,0,1,5.29,3.4c3.12,7.6,6.26,15.21,9.22,22.88.82,2.12,2,3.09,4.25,3.06,3.75,0,7.51,0,11.27,0,2.88,0,4.08-1.21,4.08-4.11q0-35.27-.07-70.54a3.35,3.35,0,0,0-.89-2.37,69.74,69.74,0,0,1-16.7-36.77,89.85,89.85,0,0,1-.67-15.55c.15-4.95-1.36-6.55-6.22-6.55H32.07c-4.44,0-6.12,1.73-5.92,6.12.6,13-1.41,25.48-7.09,37.26A63.08,63.08,0,0,1,9.47,65.68a6.24,6.24,0,0,0-1.68,4.51c.07,13.43,0,26.87,0,40.31,0,4.06-1.09,5.73-3.77,5.8s-4.18-1.79-4-5.84C.5,95.83.11,81.2.22,66.57A4.86,4.86,0,0,1,1.5,63.09C14.16,49.53,19.19,33.26,18.52,15a18,18,0,0,1,.29-5.72,12.27,12.27,0,0,1,12-9.19C38.12,0,45.4,0,52.68.06S65.38,5.52,65.12,13c-.31,9.34.35,18.51,3.35,27.43a59.05,59.05,0,0,0,12.94,21.9,6.9,6.9,0,0,1,2,5.14q-.07,36.22,0,72.46c0,6.68-4.61,11.32-11.26,11.34q-6.11,0-12.23,0c-5.25,0-9-2.91-10.86-7.82C46.85,137.51,44.4,131.71,41.81,125.28Z"/></g></g></svg>