<svg xmlns="http://www.w3.org/2000/svg" viewBox="0 0 83.43 151.26"><title>macacaoicon_pb</title><g id="Camada_2" data-name="Camada 2"><g id="Camada_1-2" data-name="Camada 1"><path d="M41.78,125.25c-2.56,6.39-5.05,12.25-7.28,18.21-1.75,4.69-5.19,7.57-10.15,7.71-4.56.12-9.12.13-13.68,0A10.71,10.71,0,0,1,.13,141.07c-.22-2.59,1.08-4.41,3.35-4.69,2.1-.26,3.73,1.15,4.22,3.64.56,2.81,1.36,3.5,4.18,3.52,3.76,0,7.52,0,11.28,0,2.23,0,3.4-.88,4.22-3,3-7.73,6.17-15.38,9.32-23a5.06,5.06,0,0,1,5.13-3.23,5.18,5.18,0,0,1,5.08,3.33c3.1,7.6,6.25,15.18,9.2,22.83.85,2.22,2.06,3.19,4.41,3.13,3.76-.1,7.52,0,11.28,0,2.9,0,4.07-1.15,4.06-4.1q0-35.26-.13-70.53a3.26,3.26,0,0,0-.89-2.34C62,51.79,56.76,34.4,57.42,15c0-.64.08-1.28.08-1.92.06-3.36-1.87-5.45-5.23-5.48q-10.44-.08-20.88,0c-3.57,0-5.54,2.27-5.35,5.84C27.1,33.45,22,51.41,8.62,66.64a4.21,4.21,0,0,0-.91,3.09q0,20.63,0,41.27a11.72,11.72,0,0,1-.14,2.38,3.48,3.48,0,0,1-3.82,2.93,3.4,3.4,0,0,1-3.53-3c-.5-2.78,0-5.58,0-8.37q0-19,0-37.91a5.22,5.22,0,0,1,1.28-4c12.64-13.54,17.71-29.78,17-48.06-.11-2.81-.16-5.57,1.25-8.16,2.38-4.37,6-6.78,11-6.84,7-.09,14.07,0,21.11,0,8.31,0,13.67,5.47,13.31,13.77a74.45,74.45,0,0,0,2.25,23A60.67,60.67,0,0,0,81.57,62.54a6.46,6.46,0,0,1,1.86,4.7c-.05,24.32,0,48.63,0,73a10.59,10.59,0,0,1-10.58,11c-4.56.14-9.12.12-13.68,0-4.83-.14-8.31-3-10-7.55C46.83,137.61,44.36,131.68,41.78,125.25Z"/></g></g></svg>