<?xml version="1.0" encoding="utf-8"?>
<!-- Generator: Adobe Illustrator 22.0.0, SVG Export Plug-In . SVG Version: 6.00 Build 0)  -->
<svg version="1.1" id="Camada_1" xmlns="http://www.w3.org/2000/svg" xmlns:xlink="http://www.w3.org/1999/xlink" x="0px" y="0px"
	 viewBox="0 0 96.6 155.5" style="enable-background:new 0 0 96.6 155.5;" xml:space="preserve">
<style type="text/css">
	.st0{fill:#CE38EE;}
</style>
<title>modapraiaicon</title>
<g id="Camada_2_1_">
	<g id="Camada_1-2">
		<path class="st0" d="M48.6,100c13.7,0,27.3,0,41,0c5.8,0,7,1.2,7,7.1c0,0.7,0,1.3,0,2c0,11.4,0,11.4-10.4,14.8
			c-7.9,2.6-13,8.4-17.5,15c-1.8,2.8-3.9,5.6-4.9,8.7c-2.1,6.7-6.4,8.6-12.9,7.8c-3-0.4-6,0-9-0.1c-4.8-0.1-7.7-2.7-8.5-7.3
			c-0.4-1.7,0.4-3.4,2-4.2c1.8-1,3.2-0.2,4.4,1.2c5.1,5.8,14.9,4.7,18.4-2c6.5-12.6,14.7-23.4,29.6-26.9c3.5-0.8,1.4-4.2,1.8-6.4
			s-1.2-2.6-3.1-2.6c-25.3,0-50.6,0-75.9,0c-2,0-3.5,0.5-3,2.7s-2,5.6,2.3,6.5c3.4,0.7,6.7,2,9.8,3.7c2.2,1.3,3.3,3,1.9,5.4
			s-3.4,2.3-5.6,0.8c-2.8-1.9-6-3-9.3-3.1c-0.7,0-1.3-0.1-2-0.4c-7.8-4.3-3.2-11.6-3.9-17.6c-0.5-4.2,3.1-5.1,6.9-5.1
			C21.3,100.1,35,100,48.6,100z"/>
		<path class="st0" d="M94,56.5C91.8,39.2,83.8,23,84.1,5.2c0.1-3-1.9-5.5-5.5-5c-3.6,0.5-4.5,3-4.1,6.3c0.7,7.2,0.5,14.3-3.1,20.9
			c-2.7,5-5.2,10.1-8.2,14.9c-5.5,8.8-10.3,17.9-12.8,28c-0.3,1.1-0.2,3.1-2.1,2.8c-1.3-0.1-1.3-1.8-1.5-2.8
			c-2-8.9-5.9-16.9-10.7-24.6C28.4,33.1,20.2,20.8,22.5,4.9C23,1.3,19.1-1,16,0.4c-2.9,1.3-3.2,4.1-3.4,6.8
			c-0.1,5.6-0.7,11.3-1.8,16.8C8.5,35.2,4.1,46,3,57.5c-0.8,8-1.5,15.9,1.5,23.7c1.1,3,2.8,4.2,6.3,4.1c12.5-0.3,25-0.1,37.5-0.1
			c12.7,0,25.3-0.2,38,0.1c3.8,0.1,5.4-1.4,6.5-4.6C95.8,72.7,95,64.6,94,56.5z M36.5,78.2c-7-0.4-14-0.4-21,0
			c-4.6,0.3-5.8-1.8-6-5.7c-0.7-10.1,1-19.9,3.6-29.6c1.4-5,3-10.1,4.8-16.3C23.1,40.4,32.3,50.5,37,63c1.3,3.4,2.4,6.9,3.3,10.4
			C41.1,76.5,40.5,78.4,36.5,78.2z M87.4,73.9c-0.3,2.7-1.1,4.5-4.6,4.4c-7.5-0.3-15-0.3-22.5,0c-4.1,0.2-4.3-1.8-3.6-4.9
			c2-8.3,5.3-16.1,9.8-23.3c4.7-7.3,8.9-14.9,12.6-22.8C84.3,42.8,89,57.7,87.4,73.9z"/>
	</g>
</g>
</svg>
