<?xml version="1.0" encoding="utf-8"?>
<!-- Generator: Adobe Illustrator 22.0.0, SVG Export Plug-In . SVG Version: 6.00 Build 0)  -->
<svg version="1.1" id="Camada_1" xmlns="http://www.w3.org/2000/svg" xmlns:xlink="http://www.w3.org/1999/xlink" x="0px" y="0px"
	 viewBox="0 0 96.2 155.4" style="enable-background:new 0 0 96.2 155.4;" xml:space="preserve">
<style type="text/css">
	.st0{fill:#010101;}
</style>
<title>modapraiaicon_pb</title>
<g id="Camada_2_1_">
	<g id="Camada_1-2">
		<path class="st0" d="M48,99.9c13.7,0,27.3,0,41,0c6.1,0,7.2,1.2,7.3,7.4c0,3.2-0.1,6.3,0,9.5c0.1,3.7-1.8,5.8-5.2,6.1
			c-8.7,0.6-14.7,5.6-19.8,12c-3.7,4.7-6.8,9.9-9.1,15.4c-1.5,3.5-3.7,5.2-7.6,5c-4.2-0.3-8.3-0.3-12.5,0c-5.4,0.5-7.3-2.9-8.9-6.9
			c-0.8-1.7-0.1-3.8,1.6-4.6c0,0,0.1,0,0.1,0c1.5-1,3.5-0.5,4.5,1c0.1,0.1,0.2,0.3,0.2,0.4c3.3,6.2,8.9,1.9,13.3,3
			c3.2,0.8,3.4-2.5,4.4-4.4c2.8-5.8,6.4-11.2,10.7-16.1c5-5.5,11-9.8,18.4-11.3c2.4-0.5,2.7-1.4,2.9-3.5c0.6-4.7-0.8-6.1-5.8-6
			c-23.8,0.3-47.6,0.1-71.4,0.2c-1.7,0-5.3-2.1-5,2.4c0.2,2.8-1.9,6.8,3.8,7.2c3.1,0.2,6,2,8.7,3.5c1.7,0.8,2.5,2.8,1.7,4.6
			c-0.1,0.2-0.2,0.4-0.3,0.5c-1.1,2-3,2.5-5.1,1.1c-3.2-2.1-6.9-3.3-10.7-3.6c-3.5-0.3-5.2-2.6-5.2-6.2s0-7,0-10.5
			c0-4.3,2.1-6.3,6.5-6.3C20.3,100,34.1,99.9,48,99.9z"/>
		<path d="M93.4,56.3C91.2,39,83.2,22.8,83.6,5c0.1-3.2-2-5.5-5.5-4.9c-3.5,0.5-4.5,3-4.1,6.3c0.8,7.2,0.6,14.3-3.1,20.8
			c-3.1,5.5-5.9,11.2-9.2,16.5c-5.1,8.4-9.6,17.1-11.9,26.7c-0.3,1.2,0,3.1-1.9,3c-1.5-0.1-1.3-1.8-1.5-2.8
			c-2.1-9.4-6.3-17.8-11.3-25.9C27.6,32.5,19.5,20.6,22.1,5c0.6-3.5-2-5.2-5.3-5c-3.1,0.3-3.9,2.6-4.3,5.3
			c-0.9,6.4-0.6,12.9-2.1,19.3c-2.6,11-6.8,21.6-7.9,32.9c-0.8,8-1.5,16,1.5,23.6c0.9,2.3,1.9,4.2,5.2,4.2c13-0.3,26-0.1,39-0.1v0
			c12.5,0,25-0.2,37.5,0.1c3.8,0.1,5.4-1.2,6.6-4.4C95.3,72.8,94.4,64.5,93.4,56.3z M36.5,78.1c-7.3-0.4-14.7-0.4-22,0
			c-4.2,0.3-5.1-1.7-5.4-5c-0.6-9,0.3-18,2.7-26.7c1.7-6.4,3.6-12.7,5.7-20c5,13.1,13.8,23.2,18.7,35.4c1.7,4,3,8.1,3.9,12.3
			C40.4,76.8,39.9,78.3,36.5,78.1z M87.2,72.2c-0.3,4.5-1.7,6.3-6.5,6c-6.8-0.4-13.6-0.4-20.4,0c-4.4,0.2-4.7-1.7-3.9-5
			c2-8.2,5.3-16,9.9-23.2c4.7-7.4,9-15.1,12.6-23.1C83.5,42.1,88.1,56.6,87.2,72.2z"/>
	</g>
</g>
</svg>
