<svg width="207" height="40" viewBox="0 0 207 40" fill="none" xmlns="http://www.w3.org/2000/svg">
<line x1="207" y1="20" y2="20" stroke="#D5D5D5"/>
<rect x="84" y="0.5" width="39" height="39" rx="19.5" fill="white" stroke="#D5D5D5"/>
<path d="M102.552 20.1C102.552 21.0613 102.351 21.9247 101.95 22.69C101.549 23.4553 100.993 24.0573 100.284 24.496C99.5747 24.9253 98.7673 25.14 97.862 25.14C96.9567 25.14 96.1493 24.9253 95.44 24.496C94.7307 24.0573 94.1753 23.4553 93.774 22.69C93.3727 21.9247 93.172 21.0613 93.172 20.1C93.172 19.1293 93.3727 18.2613 93.774 17.496C94.1753 16.7307 94.7307 16.1333 95.44 15.704C96.1493 15.2747 96.9567 15.06 97.862 15.06C98.7673 15.06 99.5747 15.2747 100.284 15.704C100.993 16.1333 101.549 16.7307 101.95 17.496C102.351 18.2613 102.552 19.1293 102.552 20.1ZM101.656 20.1C101.656 19.288 101.493 18.5647 101.166 17.93C100.849 17.286 100.401 16.7867 99.822 16.432C99.2527 16.0773 98.5993 15.9 97.862 15.9C97.1247 15.9 96.4667 16.0773 95.888 16.432C95.3187 16.7867 94.8707 17.286 94.544 17.93C94.2267 18.5647 94.068 19.288 94.068 20.1C94.068 20.912 94.2267 21.64 94.544 22.284C94.8707 22.9187 95.3187 23.4133 95.888 23.768C96.4667 24.1227 97.1247 24.3 97.862 24.3C98.5993 24.3 99.2527 24.1227 99.822 23.768C100.401 23.4133 100.849 22.9187 101.166 22.284C101.493 21.64 101.656 20.912 101.656 20.1ZM111.465 15.2C111.586 15.2 111.684 15.242 111.759 15.326C111.843 15.4007 111.885 15.4987 111.885 15.62V21.416C111.885 22.0973 111.721 22.7227 111.395 23.292C111.068 23.8613 110.625 24.3093 110.065 24.636C109.505 24.9627 108.889 25.126 108.217 25.126C107.535 25.126 106.915 24.9627 106.355 24.636C105.795 24.3093 105.351 23.8613 105.025 23.292C104.698 22.7227 104.535 22.0973 104.535 21.416V15.62C104.535 15.4987 104.572 15.4007 104.647 15.326C104.731 15.242 104.843 15.2 104.983 15.2C105.095 15.2 105.193 15.242 105.277 15.326C105.361 15.4007 105.403 15.4987 105.403 15.62V21.416C105.403 21.9387 105.529 22.4193 105.781 22.858C106.033 23.2967 106.373 23.6467 106.803 23.908C107.241 24.16 107.713 24.286 108.217 24.286C108.73 24.286 109.201 24.16 109.631 23.908C110.069 23.6467 110.415 23.2967 110.667 22.858C110.928 22.4193 111.059 21.9387 111.059 21.416V15.62C111.059 15.4987 111.096 15.4007 111.171 15.326C111.245 15.242 111.343 15.2 111.465 15.2Z" fill="#9A9A9A"/>
</svg>
