<svg xmlns="http://www.w3.org/2000/svg" viewBox="0 0 103.27 151.29"><defs><style>.cls-1{fill:#ce38ee;}</style></defs><title>outleticon</title><g id="Camada_2" data-name="Camada 2"><g id="Camada_1-2" data-name="Camada 1"><path class="cls-1" d="M103.22,90.75V134c0,10.22-7.13,17.33-17.36,17.33q-34.66,0-69.34,0c-8.92,0-16.51-7.42-16.5-16,0-2.66,1.39-4.38,3.63-4.5,2.08-.11,3.77,1.66,4,4.21.48,5.1,4,8.61,9.15,8.62q34.79.1,69.58,0c5.51,0,9.16-4,9.16-9.57q0-43.31,0-86.62a7.85,7.85,0,0,0-2.67-6.39Q74.82,25.48,56.72,9.92c-3.6-3.09-6.64-3.09-10.29,0Q28.31,25.48,10.27,41.09c-2,1.74-2.66,4-2.66,6.65q.08,26,0,52.07a10.87,10.87,0,0,1-.19,2.62,3.44,3.44,0,0,1-3.89,2.81,3.54,3.54,0,0,1-3.5-3.31,10.45,10.45,0,0,1,0-1.68Q0,73.63,0,47A14.78,14.78,0,0,1,5.39,35.2Q23.56,19.56,41.69,3.86c5.81-5,13.77-5.19,19.53-.25,12,10.29,23.93,20.71,36,31a16.61,16.61,0,0,1,6.09,13.67C103.12,62.44,103.22,76.6,103.22,90.75Z"/><path class="cls-1" d="M49.79,108.56c3.68,0,7.36,0,11,0,4.6,0,7.89-3.08,7.87-7.26s-3.17-7.13-7.89-7.14c-6.32,0-12.64.06-19,0-7.67-.09-14.11-5.75-14.92-13A14.84,14.84,0,0,1,38.47,64.73a25.17,25.17,0,0,1,6.93-.29c1.73.06,2.46-.38,2.34-2.25-.16-2.47-.09-5,0-7.44.07-2.75,1.45-4.33,3.73-4.41s3.88,1.45,4,4.13.11,5.44,0,8.15c0,1.36.44,1.85,1.8,1.8,2.56-.08,5.12,0,7.68,0,2.75,0,4.2,1.38,4.2,3.8S67.73,72,65,72.06c-7.84.06-15.67,0-23.51,0a6.67,6.67,0,0,0-6.38,4.29,6.79,6.79,0,0,0,1.06,7.42,7.52,7.52,0,0,0,6.15,2.68q9.36,0,18.72,0c8.77,0,15.29,6.31,15.31,14.7s-6.54,15-15.33,15c-5.47.06-5.46.06-5.48,5.51,0,1.67,0,3.35-.19,5a3.57,3.57,0,0,1-3.66,3.42,3.76,3.76,0,0,1-3.88-3.49c-.13-.86,0-1.75-.11-2.63-.17-2.52,1.1-5.78-.52-7.38s-4.72-.32-7.18-.45c-.48,0-1,0-1.44,0-3-.09-4.8-1.64-4.7-4s1.71-3.67,4.66-3.68C42.27,108.55,46,108.56,49.79,108.56Z"/></g></g></svg>