<svg xmlns="http://www.w3.org/2000/svg" viewBox="0 0 103.22 151.27"><title>outleticon_pb</title><g id="Camada_2" data-name="Camada 2"><g id="Camada_1-2" data-name="Camada 1"><path d="M103.21,91q0,21.47,0,42.95c0,10.28-7,17.28-17.3,17.28q-34.92,0-69.83,0C7.4,151.25-.07,143.73,0,135.19c0-2.61,1.29-4.08,3.58-4.17s3.75,1.2,4,3.76c.63,5.83,4,8.88,9.79,8.88H85.8c6.2,0,9.73-3.61,9.73-9.88q0-43,0-85.91a8.91,8.91,0,0,0-3.33-7.29Q74.32,25.21,56.46,9.75C53.28,7,49.91,7,46.73,9.74Q28.57,25.37,10.41,41a8.3,8.3,0,0,0-2.82,6.81q.06,26.39,0,52.79c0,3-1.2,4.54-3.63,4.62s-3.95-1.34-4-4C0,94.13,0,87,0,79.89,0,68.94,0,58,0,47A14.16,14.16,0,0,1,4.88,35.74c12.48-10.85,25-21.69,37.58-32.4a14.16,14.16,0,0,1,18.33.06Q79.71,19.46,98.38,35.8a14.27,14.27,0,0,1,4.84,11.31Q103.19,69.07,103.21,91Z"/><path d="M50.17,108.54c3.68,0,7.36,0,11,0,4.28,0,7.44-3,7.49-7.05a7.25,7.25,0,0,0-7.5-7.34c-6.4,0-12.8,0-19.19,0-8.62,0-15.18-6.44-15.16-14.85s6.59-14.81,15.2-14.84c1.83,0,4.26.58,5.31-.35,1.24-1.1.3-3.6.4-5.48.07-1.52-.06-3,0-4.56a3.61,3.61,0,0,1,3.7-3.6,3.5,3.5,0,0,1,3.84,3.43c.19,2.94.16,5.91.08,8.86,0,1.36.37,1.8,1.74,1.74,2.63-.1,5.27,0,7.91,0s4.16,1.44,4.14,3.86S67.73,72.05,65,72.06c-7.67,0-15.35,0-23,0a7.21,7.21,0,0,0-2,14.19,13.59,13.59,0,0,0,3.32.26c6.08,0,12.16,0,18.23,0a14.85,14.85,0,0,1,.12,29.69c-2,0-4.69-.87-5.75.35s-.33,3.79-.37,5.76c0,1.44.07,2.89-.08,4.32a3.6,3.6,0,0,1-4,3.55,3.56,3.56,0,0,1-3.58-3.71c-.11-2.8-.14-5.6,0-8.39.09-1.65-.51-2-2-1.93-2.47.12-4.95,0-7.43,0-2.8,0-4.53-1.5-4.5-3.82s1.78-3.82,4.55-3.85C42.34,108.52,46.26,108.54,50.17,108.54Z"/></g></g></svg>