<?xml version="1.0" standalone="no"?>
<!DOCTYPE svg PUBLIC "-//W3C//DTD SVG 20010904//EN"
 "http://www.w3.org/TR/2001/REC-SVG-20010904/DTD/svg10.dtd">
<svg version="1.0" xmlns="http://www.w3.org/2000/svg"
 width="587.000000pt" height="670.000000pt" viewBox="0 0 587.000000 670.000000"
 preserveAspectRatio="xMidYMid meet">

<g transform="translate(0.000000,670.000000) scale(0.100000,-0.100000)"
fill="#000000" stroke="none">
<path d="M2754 4920 c-175 -19 -349 -68 -514 -146 -304 -144 -580 -420 -724
-724 -88 -187 -129 -341 -148 -560 -29 -337 77 -711 281 -995 52 -73 60 -80
94 -83 28 -2 42 2 61 22 46 45 43 65 -19 151 -109 152 -172 288 -221 480 -27
104 -29 122 -29 315 0 163 4 223 19 290 117 535 530 949 1066 1066 69 15 125
19 295 18 202 0 214 -2 325 -31 343 -93 622 -292 814 -581 150 -225 214 -428
223 -708 8 -240 -29 -433 -118 -623 -21 -46 -39 -94 -39 -107 0 -12 52 -174
115 -360 63 -185 115 -347 115 -358 0 -28 -18 -46 -46 -46 -11 0 -173 52 -358
115 -186 63 -348 115 -360 115 -13 0 -61 -18 -107 -39 -172 -81 -362 -121
-574 -121 -267 0 -502 65 -711 196 -48 30 -97 54 -109 54 -31 0 -75 -53 -75
-91 0 -39 27 -63 142 -127 416 -230 888 -261 1323 -87 62 25 118 45 124 45 5
0 162 -52 348 -116 282 -96 344 -115 377 -109 73 11 134 54 166 115 42 82 42
83 -86 458 l-117 347 47 117 c192 478 136 998 -155 1438 -78 117 -270 313
-386 394 -308 214 -683 313 -1039 276z"/>
<path d="M2755 4113 c-128 -46 -218 -125 -271 -237 -74 -156 -61 -275 31 -275
53 0 85 43 85 113 0 49 55 150 101 187 86 68 193 86 293 49 188 -71 247 -313
114 -465 -51 -58 -103 -84 -187 -96 -51 -7 -71 -15 -88 -35 -22 -24 -23 -31
-23 -245 l0 -220 25 -24 c15 -16 36 -25 55 -25 19 0 40 9 55 25 25 24 25 27
25 194 l0 170 53 15 c265 77 395 381 271 634 -46 94 -113 160 -210 209 -72 35
-84 38 -178 41 -77 2 -113 -2 -151 -15z"/>
<path d="M2835 2645 c-40 -39 -27 -104 26 -125 33 -14 62 -6 89 23 44 46 5
127 -60 127 -19 0 -40 -9 -55 -25z"/>
</g>
</svg>
