<svg width="132" height="144" viewBox="0 0 132 144" fill="none" xmlns="http://www.w3.org/2000/svg">
<path fill-rule="evenodd" clip-rule="evenodd" d="M108.05 24.9787C109.839 28.5418 111.793 36.6399 113.004 40.785C117.388 55.7833 121.761 76.3795 123.197 92.0747C123.777 98.4144 127.002 126.464 123.296 130.093C121.511 131.84 107.022 130.501 103.926 130.073C77.0157 126.351 54.6003 111.154 40.5961 90.847C27.666 72.098 23.6176 52.2948 24.7 24.8766C30.7605 24.2899 39.2275 24.7662 45.5466 24.7662C53.6137 24.7662 104.663 24.3236 108.05 24.9787ZM24.7726 17.9024C24.4891 15.4297 23.9676 8.33331 25.9148 7.22061C27.7224 6.18771 87.2713 6.81171 95.7038 6.81131C98.3736 6.81121 104.772 6.1127 106.366 7.6992C107.446 8.7737 107.174 11.0295 107.171 12.9601C107.166 16.4383 107.74 17.421 106.441 17.9122C105.968 18.0909 96.2959 17.978 94.9321 17.978C87.087 17.9779 79.2419 17.981 71.3969 17.981C61.5027 17.981 32.3654 18.4608 24.7726 17.9024ZM17.7537 44.5389C18.3309 45.5678 18.0585 45.0747 18.2311 46.4816L19.0228 53.8481C20.0185 61.5209 23.0849 71.7287 26.0714 78.3907C34.3303 96.8143 47.044 111.971 65.2819 123.268C71.9699 127.411 79.3393 130.725 87.0118 133.156C89.3163 133.887 93.8691 134.522 95.3691 135.705C88.4486 137.494 54.8112 136.739 45.9317 136.408C38.2554 136.122 29.9435 135.458 22.6 134.363C14.2486 133.118 6.75543 133.635 6.79263 124.113C6.80693 120.453 7.92933 113.549 3.15483 114.076C-0.839965 114.518 0.0942338 120.908 0.0962338 124.885C0.102934 138.747 12.4905 140.099 22.0158 141.06C50.0106 143.884 81.5114 144.907 109.431 141.053C114.919 140.295 121.028 140.232 125.263 137.461C131.95 133.087 131.615 127.093 131.608 120.253C131.59 96.4792 128.209 76.1265 123.642 54.8652C122.033 47.3726 113.929 21.3328 113.886 19.1553C113.762 12.8685 115.781 0.120605 104.964 0.120605H27.0271C16.5477 0.120605 17.9756 11.5609 17.9831 16.8223C17.9915 22.7058 14.4858 31.1443 12.7513 37.2054C8.72613 51.2712 5.69593 64.6035 3.43863 79.3269C2.91623 82.7345 0.482033 99.8256 1.43303 102.309C2.10263 104.058 6.99503 106.29 7.76163 99.351C9.80453 80.8603 12.3467 61.9203 17.7537 44.5389V44.5389Z" fill="#424242"/>
<path fill-rule="evenodd" clip-rule="evenodd" d="M39.8484 30.3085C31.9709 33.5468 36.5891 44.9624 44.5464 42.0166C51.6587 39.3835 47.9954 26.9593 39.8484 30.3085Z" fill="#424242"/>
<path fill-rule="evenodd" clip-rule="evenodd" d="M40.4977 47.9319C32.5206 50.0427 35.364 62.1608 43.8671 59.9993C51.3898 58.0871 48.8672 45.7172 40.4977 47.9319Z" fill="#424242"/>
</svg>
