<svg width="138" height="145" viewBox="0 0 138 145" fill="none" xmlns="http://www.w3.org/2000/svg">
<path fill-rule="evenodd" clip-rule="evenodd" d="M66.9986 8.97221C73.6299 5.40841 78.8493 21.6136 89.4894 21.6699C93.4328 21.6908 102.668 19.2251 105.644 20.0133C109.483 21.0299 109.681 28.7857 110.406 32.9418C112.792 46.6242 119.053 43.6538 128.435 50.4513C135.64 55.6712 120.667 66.1873 124.024 76.3527C125.374 80.4375 128.088 84.7831 129.83 88.5725C132.591 94.58 126.42 96.3917 122.764 98.3083C110.128 104.933 111.975 104.88 109.119 120.29C107.723 127.818 103.595 125.784 97.2199 124.989C91.1666 124.234 87.6426 122.838 82.8242 126.103C80.872 127.426 79.5224 129.031 78.0219 130.475C69.3143 138.859 69.4559 139.528 62.3977 132.718C52.1063 122.788 53.866 123.231 36.6568 125.511C33.4091 125.941 31.8266 126.175 29.8776 123.609C26.2722 118.861 19.6409 122.046 24.3976 128.389C29.6861 135.442 37.871 132.682 44.8832 131.665C51.3208 130.731 50.902 131.696 56.5205 137.185C59.0768 139.683 62.4908 143.786 67.3332 144.376C78.9453 145.791 83.2186 131.243 89.8423 131.335C94.5205 131.401 100.985 133.651 105.643 133.037C118.396 131.353 115.973 116.492 118.382 110.149C120.426 104.767 135.089 104.407 137.577 93.7514C138.683 89.0177 135.343 82.8804 133.101 78.6574C130.15 73.102 129.899 73.3827 132.818 67.4138C134.28 64.4252 137.829 58.3553 137.87 54.4705C137.928 48.9872 134.287 45.3008 130.878 43.4567C128.353 42.0905 120.767 38.5271 119.319 36.9926C117.424 34.984 116.76 25.9914 115.993 22.6575C112.94 9.38431 101.128 12.7507 92.1297 14.0778C88.1701 14.6618 87.4574 14.2419 85.2735 12.1258C80.9803 7.9657 75.7993 1.69381 70.0756 0.889905C67.6181 0.544805 64.5718 1.88561 62.9294 2.84801C60.954 4.00561 59.5475 5.6403 58.1857 6.9144C53.7764 11.0396 51.801 14.5244 47.5301 14.2869C42.6735 14.0168 35.7419 11.9195 31.5434 12.776C19.1209 15.3101 22.3423 30.9962 19.364 36.1644C18.2021 38.1807 10.6563 41.6745 8.37784 42.8492C-4.38176 49.4278 0.793944 58.2445 4.57334 66.0192C7.89614 72.8545 8.40644 71.9588 4.91334 78.8769C3.24474 82.1817 -0.094157 88.0764 0.250043 92.1882C1.17704 103.263 15.3385 104.361 19.0648 109.041C20.4744 110.811 19.9214 113.965 23.1783 114.187C26.1667 114.39 27.619 112.192 26.9993 109.258C25.914 104.119 22.5472 102.16 18.5521 100.022C4.84144 92.6848 5.30034 94.6822 12.4352 80.0455C15.119 74.54 15.5878 72.0101 12.7663 66.307C5.25974 51.1338 5.10374 52.8983 17.886 45.997C22.346 43.589 25.0259 42.435 26.7757 37.302C29.6667 28.8215 26.2747 18.7305 35.9934 20.0612C46.262 21.4673 51.6886 23.3292 57.7537 17.4276C59.5502 15.6795 64.8269 10.1393 66.9986 8.97221V8.97221Z" fill="#424242"/>
<path fill-rule="evenodd" clip-rule="evenodd" d="M99.5647 47.4082C101.601 44.2073 97.9512 38.7353 92.7576 43.9634L69.4788 67.2486C67.4958 69.2367 39.3914 96.9663 38.5226 98.3879C36.6207 101.5 40.0736 106.951 45.3395 101.672L91.9032 55.1061C93.2085 53.8062 94.5022 52.5057 95.7857 51.2319C96.427 50.5954 99.1387 48.0778 99.5647 47.4082V47.4082Z" fill="#424242"/>
<path fill-rule="evenodd" clip-rule="evenodd" d="M50.3897 43.4972C60.3868 40.5875 63.1088 55.6176 54.4485 57.8218C44.8349 60.2687 40.8609 46.2706 50.3897 43.4972V43.4972ZM66.8961 53.0528C68.4524 44.7078 62.1691 37.4547 55.1003 36.0461C46.4122 34.3148 39.2448 40.8957 37.8681 47.9624C36.1417 56.8239 42.8143 63.816 49.8919 65.1419C58.3773 66.7315 65.5125 60.4715 66.8961 53.0528Z" fill="#424242"/>
<path fill-rule="evenodd" clip-rule="evenodd" d="M83.3095 88.063C87.5254 86.2029 91.6067 89.2379 92.7231 92.5043C94.1912 96.7996 91.5779 100.933 88.5135 102.075C79.7865 105.328 73.259 92.4975 83.3095 88.063V88.063ZM71.0079 96.7975C72.0574 104.658 79.1007 110.47 87.3946 109.638C94.668 108.908 101.392 102.067 100.35 93.3071C99.4587 85.8062 92.4339 79.3914 83.8907 80.5015C76.5851 81.4508 69.8791 88.3425 71.0079 96.7975V96.7975Z" fill="#424242"/>
</svg>
