<svg xmlns="http://www.w3.org/2000/svg" fill="none" viewBox="0 0 58 58" height="70px" width="70px"><g class="ldl-scale" style="transform-origin: 50% 50%; transform: scale(0.8);"><g class="ldl-ani" style="transform: scale(0.91); transform-origin: 29px 29px; animation: 1s linear 0s infinite normal forwards running breath-e3236bf4-c9e8-4720-b0e3-f4e7f0aa7ff1;"><style id="breath-e3236bf4-c9e8-4720-b0e3-f4e7f0aa7ff1" data-anikit="">@keyframes breath-e3236bf4-c9e8-4720-b0e3-f4e7f0aa7ff1 {0% {animation-timing-function: cubic-bezier(0.9647,0.2413,-0.0705,0.7911); transform: scale(0.9099999999999999);} 51% {animation-timing-function: cubic-bezier(0.9226,0.2631,-0.0308,0.7628); transform: scale(1.02994);} 100% {transform: scale(0.9099999999999999);}}</style><g class="ldl-layer"><g class="ldl-ani"><path fill="url(#paint0_linear)" d="M54.7874 15.8963C51.0141 8.54963 44.481 3.26518 36.5465 1.11704C29.0863 -0.902223 21.281 0.107401 14.5755 3.9311C13.174 4.72592 11.8587 5.62814 10.6513 6.61629C9.85353 7.26073 9.74573 8.42074 10.5004 9.10814C11.1041 9.66666 12.0097 9.68814 12.6349 9.19407C13.7346 8.29185 14.942 7.45407 16.2141 6.7237C22.5532 3.09333 29.9918 2.31999 36.9993 4.59703C42.6052 6.42296 47.4565 10.1393 50.626 15.08C54.5933 21.2452 55.7361 28.6133 53.8171 35.6378C50.1086 49.2785 35.9643 57.3555 22.2944 53.6607C8.60298 49.9659 0.495913 35.8741 4.20446 22.2548C4.76506 20.1496 5.60595 18.1733 6.64089 16.3259C6.98587 15.703 7.78365 15.4881 8.40893 15.8533L21.6045 23.3504C22.3591 23.78 22.5532 24.8755 21.8848 25.5415L14.4245 32.9526C14.058 33.3393 13.4543 34.263 13.2387 35.0793C12.5487 37.657 14.0796 40.2563 16.6669 40.9652C17.0766 41.0726 17.5078 41.137 17.8959 41.1585L41.29 41.2015C43.4461 41.223 45.3651 39.8052 45.9472 37.6356C46.5294 35.5089 45.5807 33.2963 43.7264 32.2222L31.0699 24.897C30.0781 24.317 28.8275 24.8541 28.5472 25.9281C28.3532 26.6585 28.6981 27.4533 29.345 27.8615L42.0015 35.1867C42.5621 35.5089 42.8424 36.1533 42.6699 36.7763C42.4974 37.3993 41.9584 37.8074 41.29 37.8074L17.8959 37.7644C16.6669 37.7859 16.0632 36.2178 16.9257 35.3585L24.3212 28.0118C24.9249 27.4318 25.3346 26.7015 25.5718 25.8422C26.1539 23.6726 25.1621 21.4815 23.3509 20.4289L9.3145 12.4593C7.63272 11.4926 5.49815 12.0081 4.4632 13.6407C2.82454 16.24 1.59554 19.1185 0.840893 22.2118C-2.80297 37.2489 6.31748 52.6511 21.281 56.7541C23.8468 57.463 26.4342 57.8066 29.0216 57.8066C34.0022 57.8066 38.9398 56.5178 43.3814 53.9615C50.5182 49.88 55.4989 43.1348 57.2669 35.0578C58.69 28.5918 57.806 21.7822 54.7874 15.8963Z"></path></g></g><defs><linearGradient gradientUnits="userSpaceOnUse" y2="8.57426" x2="49.2482" y1="55.2074" x1="14.0542" id="paint0_linear"><stop stop-color="#CF38EF" style="stop-color: rgb(207, 56, 239);"></stop><stop stop-color="#FF6D2C" offset="0.484375" style="stop-color: rgb(255, 109, 44);"></stop><stop stop-color="#FEBB0B" offset="1" style="stop-color: rgb(254, 187, 11);"></stop></linearGradient></defs></g></g></svg>