<?xml version="1.0" encoding="utf-8"?>
<!-- Generator: Adobe Illustrator 22.0.0, SVG Export Plug-In . SVG Version: 6.00 Build 0)  -->
<svg version="1.1" id="Camada_1" xmlns="http://www.w3.org/2000/svg" xmlns:xlink="http://www.w3.org/1999/xlink" x="0px" y="0px"
	 viewBox="0 0 151.3 151.2" style="enable-background:new 0 0 151.3 151.2;" xml:space="preserve">
<style type="text/css">
	.st0{fill:#CE38EE;}
</style>
<title>shortsicon</title>
<g id="Camada_2_1_">
	<path class="st0" d="M150.6,128.4c-7-29.8-14-59.7-21-89.5c-2.4-10.3-4.8-20.7-7.2-31c-1.5-6.3-5.8-8.9-12.2-7.4
		c-8.9,2.2-18,3.7-27.2,4.3C68.7,5.7,54.6,3.7,40.6,0.3c-5.3-1.3-9.6,1-11.3,6.2c-0.4,1.3-0.6,2.6-1,3.9C21.9,34,15.5,57.5,9.2,81
		c-0.8,3,0,5.1,2.3,5.8c2.4,0.7,4.3-0.6,5.1-3.6c1.8-6.6,3.7-13.2,5.4-19.9c0.5-2,0.9-2.9,3.6-3.2c17.2-2,29.9-10.5,37-26.6
		c2.6-6.1,4.1-12.6,4.5-19.3c0.1-1.4,0.6-1.8,1.9-1.7c4.5,0.4,9.1,0.4,13.6,0c1.3-0.1,1.9,0.4,1.9,1.7c0.1,2.8,0.4,5.6,1,8.3
		c3.7,20.6,18.6,34.8,39.4,37.5c1.6,0.2,2.1,1,2.4,2.4c5.2,22.3,10.5,44.6,15.7,66.9c0.5,1.9,0.7,3.8,0.6,5.7
		c-0.5,5.5-3.7,8.5-9.2,8.5c-12.4,0-25-0.1-37.4,0c-3.8,0-6.2-1.7-7.8-4.9c-1.1-2.1-1.3-4.4-1.7-6.7c-1.4-8.8-2.6-17.7-4-26.5
		c-0.7-4.5-3.7-7.5-7.7-7.5c-4,0-7,2.7-7.8,7.3c-1,5.8-1.8,11.7-2.7,17.5c-0.6,4.2-1.2,8.4-1.9,12.6c-1,5.8-4.1,8.2-9.9,8.2
		c-12.4,0-25-0.1-37.4,0c-3,0.1-5.7-1.5-6.9-4.2c-1.2-2.4-1.7-5.1-1.3-7.7c0.3-2.4-0.9-4.1-3-4.4c-2.3-0.4-3.9,0.8-4.5,3.2
		c-0.5,2.5-0.5,5.1,0.2,7.6c1.6,7.6,7.4,13.4,15.8,13.2c13-0.3,25.9-0.1,38.9-0.1c1,0,1.9-0.1,2.8-0.2c6.7-1.3,11.8-7.1,13-14.9
		c1.5-9.7,2.9-19.4,4.4-29.1l0.4,0.1c0.4,3.1,1,6.1,1.4,9.2c1.1,7.2,2,14.4,3.4,21.5c1.7,8.7,7.9,13.4,16.7,13.4
		c12.9,0,25.8,0,38.6,0c3.9,0.1,7.6-1.5,10.3-4.4C151.2,141.4,152.2,135.2,150.6,128.4z M59.5,13c-0.8,9.2-2.9,18-8.6,25.5
		c-6,7.8-14,12.1-23.6,13.8c-0.3,0-0.7,0.1-1.2,0.1c-1.7,0.2-1-1-0.7-1.8c2.8-10.5,5.6-20.9,8.5-31.4c0.9-3.2,1.8-6.5,2.6-9.7
		c0.4-1.5,1.1-2.1,2.7-1.7c6.2,1.6,12.5,2.8,18.8,3.6C59.1,11.6,59.6,11.9,59.5,13z M122.8,52.1c-16.5-3.6-26-14.1-29.7-30.2
		c-0.6-2.8-1-5.7-1.2-8.5c0-1.1,0.1-1.7,1.4-1.9c6.4-0.9,12.7-2.1,19-3.7c0.2,0,0.4,0,0.7-0.1c1.5-0.1,1.6,1.2,1.9,2.2
		c1.7,6.9,3.3,13.8,4.9,20.7c1.5,6.6,3,13.2,4.7,19.8C125,52.3,124.5,52.5,122.8,52.1z"/>
</g>
</svg>
