<?xml version="1.0" encoding="utf-8"?>
<!-- Generator: Adobe Illustrator 22.0.0, SVG Export Plug-In . SVG Version: 6.00 Build 0)  -->
<svg version="1.1" id="Camada_1" xmlns="http://www.w3.org/2000/svg" xmlns:xlink="http://www.w3.org/1999/xlink" x="0px" y="0px"
	 viewBox="0 0 151.3 151.2" style="enable-background:new 0 0 151.3 151.2;" xml:space="preserve">
<title>shortsicon_pb</title>
<g id="Camada_2_1_">
	<path d="M150.8,129.9c-7.7-33.4-15.5-66.8-23.4-100.2c-1.6-7.1-3.4-14.3-5-21.4c-1.6-6.8-5.7-9.4-12.5-7.8
		c-8.1,2-16.4,3.4-24.8,4.1C70.3,6,55.8,3.9,41.4,0.5c-6.6-1.6-10.8,0.8-12.5,7.2C24.1,25.5,19.3,43.3,14.6,61
		C12.7,68,10.8,74.9,9,81.8c-0.7,2.4,0.4,4.3,2.5,4.9c2.1,0.6,4-0.5,4.8-2.8c0.2-0.6,0.3-1.2,0.5-1.9c1.9-6.8,3.8-13.7,5.6-20.5
		c0.3-1.1,0.4-2.1,2-1.4c0.5,0.1,1,0.1,1.4,0c16.1-2.3,28.5-9.9,35.8-24.8c3.1-6.6,4.9-13.7,5.3-21c0.1-1.8,0.7-2.2,2.5-2
		c4.1,0.5,8.3,0.5,12.5,0c2.1-0.2,2.6,0.3,2.7,2.3c0.3,7.6,2.3,15,5.8,21.8c7.4,13.9,19.3,21.2,34.7,23.5c1.2,0,2.2,0.9,2.3,2
		c5.3,22.8,10.7,45.7,16,68.5c0.3,1.5,0.4,3,0.3,4.5c-0.5,5.5-3.5,8.3-9,8.3H97.7c-5.8,0-8.8-2.6-9.8-8.3c-0.8-4.4-1.3-8.9-2-13.3
		c-0.8-5.6-1.6-11.1-2.5-16.6c-1-6-6.3-9.2-11.2-6.6c-3.2,1.7-4.1,4.7-4.5,8c-1.4,9.5-2.8,19-4.3,28.4c-0.9,5.8-4,8.3-9.8,8.3H16.1
		c-4.1,0-6.1-1.4-7.6-5.2c-0.8-2.2-1.1-4.5-0.7-6.8c0-0.1,0-0.1,0-0.2c0.2-2-1.2-3.9-3.3-4.1c-1.9-0.3-3.7,0.9-4.1,2.8
		c-2.1,9.2,3.8,21.6,15.6,21.3c12.8-0.4,25.6-0.1,38.4-0.1c1.4,0.1,2.9-0.1,4.3-0.3c6.3-1.6,11.2-7.4,12.3-14.7
		c1.5-9.8,3-19.5,4.5-29.3l0.3,0c1.4,9.5,2.9,19.1,4.3,28.6c1.3,9.1,7.4,15.7,15.3,15.7c13.8,0.1,27.7,0,41.5,0
		c3.3,0,6.5-1.4,8.8-3.8C150.4,142.8,152.4,136.2,150.8,129.9z M59.5,12.8c-1.1,13.5-5.2,25.5-16.9,33.6c-5.3,3.6-11.4,5.7-17.7,6.1
		C28.5,39,32,25.7,35.7,12.4C37,7.4,37,7.4,42,8.5c5.3,1.2,10.6,2.2,16,2.9C58.9,11.5,59.5,11.7,59.5,12.8z M123.5,52.2
		c-11.4-2.3-20.3-8-26-18.4c-3.5-6.4-5-13.4-5.5-20.6c-0.1-1.2,0.2-1.7,1.5-1.8c6.2-0.7,12.3-1.9,18.3-3.4c2.2-0.6,2.8,0.3,3.3,2.1
		c2.4,10.6,4.9,21.1,7.4,31.7c0.7,3.1,1.4,6.2,2.2,9.3C124.9,52.1,124.6,52.5,123.5,52.2z"/>
</g>
</svg>
