<?xml version="1.0" encoding="utf-8"?>
<!-- Generator: Adobe Illustrator 22.0.0, SVG Export Plug-In . SVG Version: 6.00 Build 0)  -->
<svg version="1.1" id="Camada_1" xmlns="http://www.w3.org/2000/svg" xmlns:xlink="http://www.w3.org/1999/xlink" x="0px" y="0px"
	 viewBox="0 0 162.7 151.2" style="enable-background:new 0 0 162.7 151.2;" xml:space="preserve">
<style type="text/css">
	.st0{fill:#F1C6FA;}
	.st1{fill:#CE38EE;}
</style>
<title>saiasicon</title>
<g id="Camada_2_1_">
	<g id="Camada_1-2">
		<path class="st0" d="M80.8,105.7c0.1-0.6,0.1-1.2,0.2-1.8c0-0.2,0.2-0.5,0.5-0.2c0.1,0.1,0.1,0.4,0.1,0.6L80.8,105.7z"/>
		<path class="st1" d="M162.4,113.3c-2.1-11.3-4.5-22.7-6.8-34c-4.5-22.8-9.2-45.5-13.8-68.3c-1.4-6.9-6.6-11-13.5-11H34.5
			c-7.2,0-12.3,4.4-13.8,11.5c-3.6,17.8-7.2,35.7-10.8,53.5C8.5,72,7.2,78.8,5.8,85.8c-0.5,1.7,0.3,3.5,1.9,4.2
			c1.4,0.8,3.1,0.6,4.3-0.5c1.1-0.9,1.3-2.2,1.5-3.4c4-20,8-40.1,12-60.1c0.3-1.6,0.9-2,2.5-2c13.5,0,27,0,40.6,0
			c1.5,0,2.2,0.3,2.2,1.9c0,0.7,0.1,1.4,0.3,2.1c1.6,11.3,3.2,22.5,4.6,33.7c0.6,4.4,2,8.8,1.5,13.3c-1.1,9.8-2.7,19.4-4,29.2
			c-1,7.6-2.1,15.2-3,22.8c0,0.2-0.1,0.3-0.1,0.5c-0.1,2,1.4,3.8,3.4,3.9c0,0,0.1,0,0.1,0c2.2,0.1,4-1.5,4.1-3.7
			c1-7.4,2-14.7,3-22.1c0.6-0.3-0.5-1.5,0.8-1.3c0.2,1.3,0.4,2.7,0.6,4c0.9,6.6,1.8,13.3,2.8,19.9c0,0.2,0,0.3,0.1,0.5
			c0.4,1.9,2.3,3.1,4.2,2.6c0.1,0,0.1,0,0.2,0c2-0.4,3.3-2.3,2.9-4.3c-1.9-14-3.9-27.9-5.7-41.9c-0.5-4.2-1.9-8.3-1.3-12.5
			c2-15.5,4.2-31,6.3-46.5c0.2-1.6,0.7-2.2,2.3-2.2c13.5,0.1,27,0.1,40.5,0c1.6,0,2.1,0.5,2.4,2.1c5.7,29,11.6,58.1,17.6,87.1
			c1.4,6.7-3.4,10.9-9,10.8c-5.6-0.2-11,0-16.6,0c-3.3,0-4.5,1.3-4.3,4.6c0,1,0.3,1.9,0.3,2.9c0.3,1.6,0.4,3.3,0.4,5
			c-0.5,4.6-3.8,7.3-8.8,7.3c-17,0-34.1,0-51.1,0c-6.7,0-13.4,0-20.2,0c-5.6,0-8.9-3.7-8.5-9.3c0.1-1.7,0.4-3.5,0.7-5.2
			c0.6-3.4-0.9-5.2-4.3-5.2c-5.4,0-10.7,0-16.1,0c-6.8,0-9.7-3-9.6-9.9c0.1-2.5-1.2-4.1-3.5-4.4c-2-0.2-3.8,1.4-4.2,3.8
			c0,0,0,0.1,0,0.1c-1.3,8.5,4.6,16.4,13,17.6c4.7,0.7,9.4,0.2,14.1,0.2c1.9,0,2.3,0.4,2.2,2.4c-0.8,10.3,6.1,17.5,16.4,17.5
			c23.9,0,47.8,0,71.8,0c0.8,0,1.6,0,2.3-0.1c8.4-1.2,14.3-9,13.2-17.4c-0.3-1.9,0.4-2.3,2.1-2.3c3.9,0.1,7.8,0.1,11.8,0
			C156.9,131.3,164.2,122.9,162.4,113.3z M83.9,27.6c-0.8,5.3-1.5,10.7-2.2,16.1c-0.3-0.5-0.5-0.9-0.8-1.4
			c-0.7-5.4-1.4-10.9-2.3-16.3c-0.3-1.7,0.2-2.2,1.7-2c0.2,0,0.3,0,0.5,0C84.5,24,84.4,24,83.9,27.6z M134.2,16.4h-1.4H27.7
			c0,0,0,0,0,0v0h0c0.3-1.6,0.5-2.9,0.8-4.2c0.8-3,2.9-4.5,6.2-4.5c11.9,0,23.8,0,35.7,0c19,0,38,0,57.1,0c4.6,0,7.6,3.1,7.4,7.7
			C135,16,134.9,16.4,134.2,16.4z"/>
	</g>
</g>
</svg>
