<?xml version="1.0" encoding="utf-8"?>
<!-- Generator: Adobe Illustrator 22.0.0, SVG Export Plug-In . SVG Version: 6.00 Build 0)  -->
<svg version="1.1" id="Camada_1" xmlns="http://www.w3.org/2000/svg" xmlns:xlink="http://www.w3.org/1999/xlink" x="0px" y="0px"
	 viewBox="0 0 162.6 151.4" style="enable-background:new 0 0 162.6 151.4;" xml:space="preserve">
<title>saiasicon_pb</title>
<g id="Camada_2_1_">
	<path d="M162.2,111.9c-1-4.5-1.9-9.1-2.8-13.6c-5.8-29-11.7-58-17.6-87.1C140.4,4.3,135.3,0,128.3,0C97,0,65.7,0,34.5,0
		c-7.2,0.1-12.3,4.6-13.8,11.7c-3.3,16.3-6.6,32.5-9.9,48.8c-1.7,8.2-3.3,16.4-4.9,24.6c-0.6,3.1,0.8,5.3,3.4,5.5
		c2.2,0.1,3.7-1.4,4.2-4.3c4.1-20.1,8.1-40.2,12.1-60.3c0.3-1.4,0.8-1.9,2.3-1.9c13.6,0.1,27.2,0.1,40.8,0c1.5,0,2,0.5,2.2,1.9
		c1.6,12.3,3.4,24.7,5.1,37c0.5,4,1.8,8.1,1.3,12.1c-1.1,9.8-2.6,19.6-4,29.4c-1,7.4-2.1,14.9-3,22.3c-0.3,2.6,1.2,4.4,3.3,4.6
		c2.1,0.2,3.9-1.2,4.2-3.7c0.7-4.9,1.3-9.8,2-14.7c0.4-3.1,0.9-6.2,1.4-9.3h0.4c1.1,7.8,2.1,15.7,3.2,23.5c0.4,3,2.3,4.5,4.5,4.1
		s3.4-2.2,3-5.1c-1.9-13.8-3.8-27.5-5.6-41.3c-0.5-4.1-1.8-8.2-1.3-12.3c2-15.6,4.3-31.2,6.3-46.8C92,24.4,92.5,24,94,24
		c13.6,0.1,27.2,0.1,40.8,0c1.5,0,2.1,0.5,2.3,2c0.3,1.8,0.6,3.6,1,5.4c5.5,27.5,11,55,16.7,82.4c1,4.7-2.6,10.4-8.5,10.1
		c-5.6-0.2-11.3,0-17,0c-3.3,0-4.7,1.5-4.4,4.8c0.1,1.9,0.4,3.8,0.7,5.7c0.1,0.4,0.1,0.9,0.1,1.3c0.1,4.3-3.4,7.9-7.8,7.9
		c-24.4,0-48.8,0-73.2,0c-0.2,0-0.4,0-0.6,0c-4.2-0.3-7.4-4-7.1-8.2c0.1-2.1,0.4-4.1,0.8-6.2c0.5-3.5-1-5.3-4.6-5.3
		c-5.4,0-10.9,0-16.3,0c-6.3,0-9.4-3.2-9.1-9.5c0.2-1.1-0.1-2.3-0.8-3.2c-1-1.2-2.6-1.7-4.1-1.2c-1.9,0.5-2.5,2-2.8,3.8
		C0,114.5,0,115.2,0,115.9c0,8.6,6.9,15.6,15.5,15.6c4.7,0.1,9.4,0,14.2,0c-2.2,12.1,6.4,20,17.2,19.9c23.3-0.4,46.5-0.1,69.8-0.1
		c10.8,0,17.5-7.4,16.4-18c-0.2-1.6,0.4-1.8,1.8-1.8c3.8,0.1,7.7,0,11.5,0C157.3,131.5,164.4,122.6,162.2,111.9z M83.8,28
		c-0.7,5.2-1.4,10.4-2.1,15.6c-1.3,0.1-2.2-12.1-3.1-17.3c-0.3-1.8-0.1-2.4,1.9-2.3C84.4,24.2,84.3,24,83.8,28z M134.2,16.4
		c-0.6,0-1,0-1.4,0H27.6c0.2-1.2,0.3-2.1,0.5-3c0.9-4.1,2.9-5.7,7-5.7h92.1c4.8,0,7.8,3.1,7.7,7.9C134.9,16.2,134.8,16.4,134.2,16.4
		z"/>
</g>
</svg>
