<svg width="60" height="60" viewBox="0 0 60 60" fill="none" xmlns="http://www.w3.org/2000/svg">
<path d="M14.5735 59.9992C13.5468 60.017 12.5402 59.713 11.695 59.1297C9.83289 57.8112 9.10631 55.27 9.64631 51.9822L10.766 45.1643C10.8302 44.774 11.0468 44.4252 11.368 44.1948C11.6893 43.9645 12.089 43.871 12.4792 43.9353C12.8693 43.9995 13.2179 44.2162 13.4483 44.5375C13.6788 44.8587 13.7722 45.2585 13.708 45.6488L12.5883 52.4508C12.2508 54.5037 12.5645 56.092 13.4182 56.6955C14.2718 57.299 15.6455 57.0687 17.313 56.1515L23.1732 52.9312C27.0008 50.8267 32.9958 50.8267 36.8232 52.9312L42.6835 56.1515C44.351 57.0687 45.7725 57.2673 46.5785 56.6955C47.3843 56.1237 47.7458 54.5037 47.4083 52.4508L46.2885 45.6327C45.566 41.2293 47.4042 35.3088 50.4693 32.2035L55.21 27.375C56.6433 25.9137 57.2665 24.4762 56.9172 23.4279C56.5677 22.3796 55.3053 21.6887 53.4113 21.4028L46.8603 20.4061C42.5922 19.7589 37.7562 16.0938 35.8545 12.0674L32.9245 5.86492C32.0708 4.06218 30.979 2.98608 29.9982 2.98608C29.0175 2.98608 27.9258 4.06218 27.076 5.86492L24.146 12.0674C22.2402 16.0978 17.3964 19.7629 13.1362 20.4061L6.5852 21.4028C4.69132 21.6887 3.4089 22.4272 3.07935 23.4279C2.74983 24.4285 3.35332 25.9137 4.7866 27.375L10.9406 33.6487C11.2176 33.931 11.371 34.3118 11.3673 34.7073C11.3636 35.1027 11.203 35.4802 10.9208 35.7573C10.6386 36.0342 10.2579 36.1878 9.86257 36.184C9.46715 36.1803 9.08948 36.0198 8.8125 35.7375L2.6585 29.4637C0.379522 27.1447 -0.4741 24.6629 0.252472 22.4828C0.979044 20.3029 3.03172 18.9091 6.13653 18.4524L12.6916 17.4558C15.967 16.9594 19.9771 13.9059 21.4462 10.7888L24.3762 4.58632C26.2623 0.615498 28.708 0 29.9982 0C31.2885 0 33.7343 0.595643 35.6202 4.58632L38.5505 10.7888C40.0195 13.9059 44.0335 16.9594 47.309 17.4558L53.86 18.4524C56.945 18.921 59.0215 20.3506 59.748 22.4828C60.4745 24.6152 59.617 27.1447 57.342 29.4637L52.5975 34.292C50.2152 36.7302 48.6668 41.7018 49.2305 45.1485L50.3502 51.9663C50.8943 55.27 50.1635 57.8112 48.3015 59.1138C47.2572 59.8522 44.9545 60.7855 41.2503 58.7485L35.39 55.532C32.4678 53.9437 27.5288 53.9437 24.6105 55.532L18.7503 58.7485C17.4867 59.513 16.0493 59.9435 14.5735 59.9992Z" fill="#CF38EF"/>
</svg>
