<svg width="80" height="80" viewBox="0 0 80 80" fill="none" xmlns="http://www.w3.org/2000/svg">
<path d="M18.9808 5.97166C18.2164 6.44458 17.4583 6.82149 17.931 7.58621C18.4038 8.35093 19.2356 7.36948 20 6.89655C37.2289 -3.76264 61.3793 1.03437 73.1034 20C83.7583 37.2359 78.2808 61.7546 61.0519 72.4138C40.6897 85.0116 17.5515 77.2361 6.89655 60C-0.352699 48.2732 -0.179453 31.8458 6.89655 20C7.35776 19.228 8.35787 18.3924 7.58621 17.931C6.81455 17.4696 6.15636 18.6727 5.69538 19.4445C-2.00688 32.3386 -1.88933 48.2789 6.00188 61.0442C17.6011 79.8076 42.2963 85.6321 61.0519 74.0284C79.8075 62.4246 85.6299 37.7191 74.0308 18.9558C62.4318 0.192599 37.7366 -5.63224 18.9808 5.97166Z" fill="url(#paint0_linear)"/>
<defs>
<linearGradient id="paint0_linear" x1="19.3672" y1="76.3966" x2="68.1992" y2="11.8981" gradientUnits="userSpaceOnUse">
<stop stop-color="#CF38EF"/>
<stop offset="0.484375" stop-color="#FF6D2C"/>
<stop offset="1" stop-color="#FEBB0B"/>
</linearGradient>
</defs>
</svg>
