<svg width="57" height="57" viewBox="0 0 57 57" fill="none" xmlns="http://www.w3.org/2000/svg">
<path d="M13.9625 4.18574C13.4284 4.51723 12.8986 4.78142 13.229 5.31743C13.5593 5.85345 14.1406 5.16552 14.6748 4.83403C26.7142 -2.63736 43.5904 0.725026 51.7832 14.0187C59.2287 26.0999 55.4011 43.2859 43.3617 50.7573C29.1326 59.5876 12.9638 54.1375 5.51813 42.0561C0.452388 33.8364 0.573451 22.3218 5.51813 14.0187C5.84042 13.4776 6.53929 12.8919 6.00006 12.5685C5.46083 12.2451 5.00089 13.0883 4.67876 13.6293C-0.703542 22.6673 -0.621403 33.8403 4.89294 42.788C12.9984 55.9399 30.2553 60.0225 43.3617 51.889C56.468 43.7556 60.5366 26.4386 52.4312 13.2868C44.3259 0.134999 27.069 -3.94783 13.9625 4.18574Z" fill="url(#paint0_linear)"/>
<defs>
<linearGradient id="paint0_linear" x1="14.2326" y1="53.549" x2="48.4888" y2="8.44061" gradientUnits="userSpaceOnUse">
<stop stop-color="#CF38EF"/>
<stop offset="0.484375" stop-color="#FF6D2C"/>
<stop offset="1" stop-color="#FEBB0B"/>
</linearGradient>
</defs>
</svg>
