<svg xmlns="http://www.w3.org/2000/svg" viewBox="0 0 114.43 151.4"><defs><style>.cls-1{fill:#ce38ee;}</style></defs><title>vestidosicon</title><g id="Camada_2" data-name="Camada 2"><g id="Camada_1-2" data-name="Camada 1"><path class="cls-1" d="M52.71,151.4a184.26,184.26,0,0,1-37.18-4.72A19.87,19.87,0,0,1,1.65,119.36c1.05-2.44,3-3.39,5.15-2.56s3,2.84,2,5.33c-3.11,8.34.82,15.46,9.57,17.36a180.87,180.87,0,0,0,44.25,4.2A178.81,178.81,0,0,0,97,139.28c8.16-1.88,12-9.95,8.42-17.55-7.11-15.2-13.89-30.52-18.69-46.64C84.23,66.58,82.16,58,82.31,49a24.33,24.33,0,0,1,3.92-13.34c5.46-8.38,6.63-17.16,1.62-26.26-.48-.87-1-1.54-2.16-1.53-7.42,0-14.66,1-21.45,4.2a17,17,0,0,0-4.18,2.76,3.76,3.76,0,0,1-5.42.14c-4.88-4.21-10.86-5.57-17-6.5-2.52-.38-5.11-.29-7.64-.61-2-.26-3.06.7-3.87,2.37-3.62,7.41-4.21,15.3.35,22,7.35,10.83,6.25,22,3.63,33.6a203.25,203.25,0,0,1-9.06,28.25C20,96.86,18,97.93,15.71,97c-2.11-.82-2.84-2.94-1.8-5.65C17.78,81.24,21.46,71,23.44,60.3c.87-4.71,1.57-9.44.83-14.28a15.36,15.36,0,0,0-2.46-6.15C15.52,30,14,19.62,18.43,8.58c.18-.44.4-.87.58-1.31C21.18,2.12,24.49-.48,30.62.07c8.92.81,17.65,1.79,25.52,6.44a2.07,2.07,0,0,0,2.4-.11C68,1,78.32,0,88.9.21a4.34,4.34,0,0,1,3.53,2.16c7,9.79,7.95,20.29,3.54,31.35A23,23,0,0,1,93.17,39c-3.44,4.59-3.64,9.76-3,15.1C91.39,65.47,95,76.22,98.91,86.87c3.89,10.49,8.37,20.73,13.17,30.83,6.19,13-.26,26.2-14.34,29.31C85,149.82,70.35,151.4,52.71,151.4Z"/></g></g></svg>