<svg xmlns="http://www.w3.org/2000/svg" viewBox="0 0 114.46 151.33"><title>vestidosicon_pb</title><g id="Camada_2" data-name="Camada 2"><g id="Camada_1-2" data-name="Camada 1"><path d="M61.39,151.3a183.83,183.83,0,0,1-46.51-4.83c-11.69-2.8-18-15.76-13.32-26.84,1.15-2.72,3.19-3.79,5.43-2.83,2,.87,2.7,3.06,1.69,5.7-2.91,7.65,1.13,15,9.16,16.82a179.51,179.51,0,0,0,78.89,0c8.42-1.87,12.35-9.9,8.69-17.73-7.8-16.7-15.29-33.53-20-51.42-2.16-8.21-3.88-16.5-2.77-25.08A21,21,0,0,1,86,36c5.65-8.5,6.86-17.38,1.82-26.64-.44-.81-.78-1.64-2.07-1.61-7.23.2-14.34,1-21,4A18.08,18.08,0,0,0,60,14.86c-1.55,1.41-3.42,1.65-5,.28-5.29-4.56-11.73-5.9-18.33-6.86-2-.3-4.16-.22-6.2-.54-2.3-.36-3.44.71-4.36,2.64-3.89,8.19-3.55,16.34,1.39,23.72S32.83,49.58,31.59,58c-1.86,12.63-6.07,24.59-10.68,36.41-1,2.48-2.92,3.44-5.08,2.66s-3-3-2-5.58c3.66-9.45,7.06-19,9.14-28.93,1.15-5.47,2.1-11,1.27-16.63a16.46,16.46,0,0,0-2.6-6.35c-7-11.28-7.9-22.79-1.38-34.67C22.29,1.25,25-.22,29.21,0c8.66.5,17.27,1.23,25,5.48,2.39,1.31,4,1,6.18-.1C69.4.8,79.15,0,89.06.18c1.82,0,2.85,1.35,3.76,2.67,6.67,9.75,7.5,20.11,3.11,31a21.16,21.16,0,0,1-2.55,4.85c-3.72,4.84-3.88,10.32-3.19,16C91.73,67.19,95.9,79,100.39,90.7c3.56,9.3,7.62,18.39,11.89,27.39,5.89,12.42-.61,25.86-14,28.77A188.13,188.13,0,0,1,79.38,150,176.81,176.81,0,0,1,61.39,151.3Z"/></g></g></svg>