<svg width="10" height="11" viewBox="0 0 10 11" fill="none" xmlns="http://www.w3.org/2000/svg">
<path fill-rule="evenodd" clip-rule="evenodd" d="M7.80558 7.8627L9.90978 9.96815C10.0301 10.0884 10.0301 10.2873 9.90978 10.4075C9.84963 10.4699 9.76866 10.5 9.69 10.5C9.61134 10.5 9.53037 10.4676 9.47022 10.4075L7.36602 8.30206C6.58408 8.9819 5.56385 9.39351 4.44876 9.39351C3.75034 9.39351 3.04127 9.30299 2.54127 8.99646C2.54127 8.99646 2.34439 8.80836 2.48821 8.59552C2.63561 8.37736 2.85967 8.4658 2.85967 8.4658C3.30616 8.64902 3.93495 8.77148 4.44645 8.77148C6.55632 8.77148 8.27058 7.05336 8.27058 4.94676C8.27058 2.84015 6.55632 1.12435 4.44645 1.12435C2.3389 1.12435 0.622318 2.83784 0.622318 4.94676C0.622318 5.70179 0.717472 6.14465 1.0967 6.73821C1.0967 6.73821 1.35613 7.08609 1.00825 7.25708C0.666501 7.42506 0.512972 6.99764 0.512972 6.99764C0.191374 6.38301 0 5.68683 0 4.94676C0 2.49561 1.99419 0.5 4.44876 0.5C6.90102 0.5 8.89753 2.49329 8.89753 4.94676C8.89753 6.06134 8.48573 7.08111 7.80558 7.8627Z" fill="#B7B7B7"/>
</svg>
